%TF.GenerationSoftware,KiCad,Pcbnew,9.0.6*%
%TF.CreationDate,2026-04-26T12:42:53+02:00*%
%TF.ProjectId,sao_powerboard,73616f5f-706f-4776-9572-626f6172642e,rev?*%
%TF.SameCoordinates,Original*%
%TF.FileFunction,Copper,L1,Top*%
%TF.FilePolarity,Positive*%
%FSLAX46Y46*%
G04 Gerber Fmt 4.6, Leading zero omitted, Abs format (unit mm)*
G04 Created by KiCad (PCBNEW 9.0.6) date 2026-04-26 12:42:53*
%MOMM*%
%LPD*%
G01*
G04 APERTURE LIST*
G04 Aperture macros list*
%AMRoundRect*
0 Rectangle with rounded corners*
0 $1 Rounding radius*
0 $2 $3 $4 $5 $6 $7 $8 $9 X,Y pos of 4 corners*
0 Add a 4 corners polygon primitive as box body*
4,1,4,$2,$3,$4,$5,$6,$7,$8,$9,$2,$3,0*
0 Add four circle primitives for the rounded corners*
1,1,$1+$1,$2,$3*
1,1,$1+$1,$4,$5*
1,1,$1+$1,$6,$7*
1,1,$1+$1,$8,$9*
0 Add four rect primitives between the rounded corners*
20,1,$1+$1,$2,$3,$4,$5,0*
20,1,$1+$1,$4,$5,$6,$7,0*
20,1,$1+$1,$6,$7,$8,$9,0*
20,1,$1+$1,$8,$9,$2,$3,0*%
G04 Aperture macros list end*
%TA.AperFunction,SMDPad,CuDef*%
%ADD10R,0.900000X2.700000*%
%TD*%
%TA.AperFunction,SMDPad,CuDef*%
%ADD11R,1.350000X1.900000*%
%TD*%
%TA.AperFunction,SMDPad,CuDef*%
%ADD12R,1.000000X0.800000*%
%TD*%
%TA.AperFunction,SMDPad,CuDef*%
%ADD13R,0.700000X1.500000*%
%TD*%
%TA.AperFunction,ComponentPad*%
%ADD14R,1.700000X1.700000*%
%TD*%
%TA.AperFunction,ComponentPad*%
%ADD15C,1.700000*%
%TD*%
%TA.AperFunction,SMDPad,CuDef*%
%ADD16RoundRect,0.250001X-0.462499X-0.849999X0.462499X-0.849999X0.462499X0.849999X-0.462499X0.849999X0*%
%TD*%
%TA.AperFunction,SMDPad,CuDef*%
%ADD17RoundRect,0.162500X0.617500X0.162500X-0.617500X0.162500X-0.617500X-0.162500X0.617500X-0.162500X0*%
%TD*%
%TA.AperFunction,SMDPad,CuDef*%
%ADD18RoundRect,0.237500X0.237500X-0.250000X0.237500X0.250000X-0.237500X0.250000X-0.237500X-0.250000X0*%
%TD*%
%TA.AperFunction,SMDPad,CuDef*%
%ADD19RoundRect,0.237500X-0.237500X0.300000X-0.237500X-0.300000X0.237500X-0.300000X0.237500X0.300000X0*%
%TD*%
%TA.AperFunction,SMDPad,CuDef*%
%ADD20RoundRect,0.237500X0.250000X0.237500X-0.250000X0.237500X-0.250000X-0.237500X0.250000X-0.237500X0*%
%TD*%
%TA.AperFunction,SMDPad,CuDef*%
%ADD21RoundRect,0.237500X-0.237500X0.250000X-0.237500X-0.250000X0.237500X-0.250000X0.237500X0.250000X0*%
%TD*%
%TA.AperFunction,SMDPad,CuDef*%
%ADD22RoundRect,0.237500X-0.250000X-0.237500X0.250000X-0.237500X0.250000X0.237500X-0.250000X0.237500X0*%
%TD*%
%TA.AperFunction,SMDPad,CuDef*%
%ADD23RoundRect,0.237500X-0.287500X-0.237500X0.287500X-0.237500X0.287500X0.237500X-0.287500X0.237500X0*%
%TD*%
%TA.AperFunction,SMDPad,CuDef*%
%ADD24R,1.000000X3.000000*%
%TD*%
%TA.AperFunction,SMDPad,CuDef*%
%ADD25RoundRect,0.175000X-0.425000X0.175000X-0.425000X-0.175000X0.425000X-0.175000X0.425000X0.175000X0*%
%TD*%
%TA.AperFunction,SMDPad,CuDef*%
%ADD26RoundRect,0.190000X0.410000X-0.190000X0.410000X0.190000X-0.410000X0.190000X-0.410000X-0.190000X0*%
%TD*%
%TA.AperFunction,SMDPad,CuDef*%
%ADD27RoundRect,0.200000X0.400000X-0.200000X0.400000X0.200000X-0.400000X0.200000X-0.400000X-0.200000X0*%
%TD*%
%TA.AperFunction,SMDPad,CuDef*%
%ADD28RoundRect,0.175000X0.425000X-0.175000X0.425000X0.175000X-0.425000X0.175000X-0.425000X-0.175000X0*%
%TD*%
%TA.AperFunction,SMDPad,CuDef*%
%ADD29RoundRect,0.190000X-0.410000X0.190000X-0.410000X-0.190000X0.410000X-0.190000X0.410000X0.190000X0*%
%TD*%
%TA.AperFunction,SMDPad,CuDef*%
%ADD30RoundRect,0.200000X-0.400000X0.200000X-0.400000X-0.200000X0.400000X-0.200000X0.400000X0.200000X0*%
%TD*%
%TA.AperFunction,HeatsinkPad*%
%ADD31O,1.700000X1.100000*%
%TD*%
%TA.AperFunction,ViaPad*%
%ADD32C,0.600000*%
%TD*%
%TA.AperFunction,ViaPad*%
%ADD33C,6.000000*%
%TD*%
%TA.AperFunction,ViaPad*%
%ADD34C,1.000000*%
%TD*%
%TA.AperFunction,ViaPad*%
%ADD35C,0.800000*%
%TD*%
%TA.AperFunction,Conductor*%
%ADD36C,0.600000*%
%TD*%
%TA.AperFunction,Conductor*%
%ADD37C,0.200000*%
%TD*%
%TA.AperFunction,Conductor*%
%ADD38C,0.300000*%
%TD*%
%TA.AperFunction,Conductor*%
%ADD39C,1.000000*%
%TD*%
%TA.AperFunction,Conductor*%
%ADD40C,0.500000*%
%TD*%
G04 APERTURE END LIST*
D10*
%TO.P,J2,1,Pin_1*%
%TO.N,+BATT*%
X142450000Y-91950000D03*
%TO.P,J2,2,Pin_2*%
%TO.N,/-BATT*%
X144150000Y-91950000D03*
D11*
%TO.P,J2,MP,MountPin*%
%TO.N,/NOTHING*%
X140475000Y-95650000D03*
X146125000Y-95650000D03*
%TD*%
D12*
%TO.P,SW1,*%
%TO.N,*%
X127650000Y-81180000D03*
X127650000Y-78970000D03*
X120350000Y-81180000D03*
X120350000Y-78970000D03*
D13*
%TO.P,SW1,1,A*%
%TO.N,Net-(SW1-A)*%
X126250000Y-81830000D03*
%TO.P,SW1,2,B*%
%TO.N,Net-(SW1-B)*%
X123250000Y-81830000D03*
%TO.P,SW1,3,C*%
%TO.N,GND*%
X121750000Y-81830000D03*
%TD*%
D14*
%TO.P,J4,1,Pin_1*%
%TO.N,VBUS*%
X104530000Y-103400000D03*
D15*
%TO.P,J4,2,Pin_2*%
%TO.N,GND*%
X104530000Y-105940000D03*
%TO.P,J4,3,Pin_3*%
%TO.N,/GPIO1*%
X104530000Y-108480000D03*
%TO.P,J4,4,Pin_4*%
%TO.N,/GPIO2*%
X104530000Y-111020000D03*
%TO.P,J4,5,Pin_5*%
%TO.N,/SDA*%
X104530000Y-113560000D03*
%TO.P,J4,6,Pin_6*%
%TO.N,/SCL*%
X104530000Y-116100000D03*
%TO.P,J4,7,Pin_7*%
%TO.N,+3V3*%
X104530000Y-118640000D03*
%TO.P,J4,8,Pin_8*%
%TO.N,GND*%
X104530000Y-121180000D03*
%TD*%
D16*
%TO.P,L1,1,1*%
%TO.N,/SWNODE*%
X123437500Y-85100000D03*
%TO.P,L1,2,2*%
%TO.N,+3V3*%
X125762500Y-85100000D03*
%TD*%
D17*
%TO.P,U1,1,EN*%
%TO.N,Net-(SW1-B)*%
X123650000Y-89450000D03*
%TO.P,U1,2,GND*%
%TO.N,GND*%
X123650000Y-88500000D03*
%TO.P,U1,3,SW*%
%TO.N,/SWNODE*%
X123650000Y-87550000D03*
%TO.P,U1,4,VIN*%
%TO.N,+BATT*%
X120950000Y-87550000D03*
%TO.P,U1,5,FB*%
%TO.N,/FB*%
X120950000Y-89450000D03*
%TD*%
D18*
%TO.P,R10,1*%
%TO.N,GND*%
X110000000Y-97812500D03*
%TO.P,R10,2*%
%TO.N,Net-(J1-CC2)*%
X110000000Y-95987500D03*
%TD*%
D19*
%TO.P,C2,1*%
%TO.N,+3V3*%
X125800000Y-87637500D03*
%TO.P,C2,2*%
%TO.N,GND*%
X125800000Y-89362500D03*
%TD*%
D20*
%TO.P,R3,1*%
%TO.N,+BATT*%
X134312500Y-91500000D03*
%TO.P,R3,2*%
%TO.N,Net-(SW1-A)*%
X132487500Y-91500000D03*
%TD*%
%TO.P,R2,1*%
%TO.N,/FB*%
X121112500Y-91500000D03*
%TO.P,R2,2*%
%TO.N,GND*%
X119287500Y-91500000D03*
%TD*%
D19*
%TO.P,C3,1*%
%TO.N,+BATT*%
X118400000Y-87637500D03*
%TO.P,C3,2*%
%TO.N,GND*%
X118400000Y-89362500D03*
%TD*%
D21*
%TO.P,R9,1*%
%TO.N,GND*%
X110000000Y-92187500D03*
%TO.P,R9,2*%
%TO.N,Net-(J1-CC1)*%
X110000000Y-94012500D03*
%TD*%
D20*
%TO.P,R1,1*%
%TO.N,+3V3*%
X124712500Y-91500000D03*
%TO.P,R1,2*%
%TO.N,/FB*%
X122887500Y-91500000D03*
%TD*%
D22*
%TO.P,R14,1*%
%TO.N,VBUS*%
X113087500Y-81300000D03*
%TO.P,R14,2*%
%TO.N,Net-(D2-A)*%
X114912500Y-81300000D03*
%TD*%
D23*
%TO.P,D1,1,K*%
%TO.N,GND*%
X133125000Y-79500000D03*
%TO.P,D1,2,A*%
%TO.N,Net-(D1-A)*%
X134875000Y-79500000D03*
%TD*%
D22*
%TO.P,R4,1*%
%TO.N,+3V3*%
X133087500Y-81300000D03*
%TO.P,R4,2*%
%TO.N,Net-(D1-A)*%
X134912500Y-81300000D03*
%TD*%
D20*
%TO.P,R15,1*%
%TO.N,+BATT*%
X138012500Y-91500000D03*
%TO.P,R15,2*%
%TO.N,Net-(U4-BAT+)*%
X136187500Y-91500000D03*
%TD*%
D24*
%TO.P,X1,1,VCC*%
%TO.N,+3V3*%
X121460000Y-95330000D03*
%TO.P,X1,2,GND*%
%TO.N,GND*%
X121460000Y-100370000D03*
%TO.P,X1,3,SDA*%
%TO.N,/SDA*%
X124000000Y-95330000D03*
%TO.P,X1,4,SCL*%
%TO.N,/SCL*%
X124000000Y-100370000D03*
%TO.P,X1,5,GPIO1*%
%TO.N,/GPIO1*%
X126540000Y-95330000D03*
%TO.P,X1,6,GPIO2*%
%TO.N,/GPIO2*%
X126540000Y-100370000D03*
%TD*%
D19*
%TO.P,C1,1*%
%TO.N,+3V3*%
X127800000Y-87637500D03*
%TO.P,C1,2*%
%TO.N,GND*%
X127800000Y-89362500D03*
%TD*%
%TO.P,C9,1*%
%TO.N,Net-(U4-BAT+)*%
X138000000Y-87637500D03*
%TO.P,C9,2*%
%TO.N,/-BATT*%
X138000000Y-89362500D03*
%TD*%
%TO.P,C6,1*%
%TO.N,VBUS*%
X110000000Y-87637500D03*
%TO.P,C6,2*%
%TO.N,GND*%
X110000000Y-89362500D03*
%TD*%
D25*
%TO.P,J1,A5,CC1*%
%TO.N,Net-(J1-CC1)*%
X106480000Y-94500000D03*
D26*
%TO.P,J1,A9,VBUS*%
%TO.N,VBUS*%
X106480000Y-96520000D03*
D27*
%TO.P,J1,A12,GND*%
%TO.N,GND*%
X106480000Y-97750000D03*
D28*
%TO.P,J1,B5,CC2*%
%TO.N,Net-(J1-CC2)*%
X106480000Y-95500000D03*
D29*
%TO.P,J1,B9,VBUS*%
%TO.N,VBUS*%
X106480000Y-93480000D03*
D30*
%TO.P,J1,B12,GND*%
%TO.N,GND*%
X106480000Y-92250000D03*
D31*
%TO.P,J1,S1,SHIELD*%
X106400000Y-90680000D03*
X102600000Y-90680000D03*
X106400000Y-99320000D03*
X102600000Y-99320000D03*
%TD*%
D22*
%TO.P,R11,1*%
%TO.N,Net-(U2-PROG)*%
X112887500Y-91500000D03*
%TO.P,R11,2*%
%TO.N,GND*%
X114712500Y-91500000D03*
%TD*%
D23*
%TO.P,D2,1,K*%
%TO.N,/CHRGSTAT*%
X113125000Y-79500000D03*
%TO.P,D2,2,A*%
%TO.N,Net-(D2-A)*%
X114875000Y-79500000D03*
%TD*%
D17*
%TO.P,U2,1,~{CHRG}*%
%TO.N,/CHRGSTAT*%
X115150000Y-89450000D03*
%TO.P,U2,2,GND*%
%TO.N,GND*%
X115150000Y-88500000D03*
%TO.P,U2,3,BAT*%
%TO.N,+BATT*%
X115150000Y-87550000D03*
%TO.P,U2,4,V_{CC}*%
%TO.N,VBUS*%
X112450000Y-87550000D03*
%TO.P,U2,5,PROG*%
%TO.N,Net-(U2-PROG)*%
X112450000Y-89450000D03*
%TD*%
%TO.P,U4,1*%
%TO.N,N/C*%
X135550000Y-89450000D03*
%TO.P,U4,2,BAT-*%
%TO.N,/-BATT*%
X135550000Y-88500000D03*
%TO.P,U4,3,BAT+*%
%TO.N,Net-(U4-BAT+)*%
X135550000Y-87550000D03*
%TO.P,U4,4,GND*%
%TO.N,GND*%
X132850000Y-87550000D03*
%TO.P,U4,5,GND*%
X132850000Y-89450000D03*
%TD*%
D32*
%TO.N,+3V3*%
X122300000Y-93300000D03*
%TO.N,GND*%
X128800000Y-91150000D03*
X129500000Y-101850000D03*
%TO.N,VBUS*%
X104600000Y-97550000D03*
%TO.N,+3V3*%
X125200000Y-92900000D03*
%TO.N,GND*%
X119250000Y-102150000D03*
X119700000Y-100950000D03*
%TO.N,/GPIO2*%
X125700000Y-98500000D03*
%TO.N,/GPIO1*%
X125400000Y-97450000D03*
D33*
%TO.N,*%
X104500000Y-82500000D03*
X143500000Y-82500000D03*
D34*
%TO.N,+3V3*%
X130200000Y-87600000D03*
X121500000Y-93300000D03*
D32*
%TO.N,GND*%
X119700000Y-85900000D03*
X119300000Y-93200000D03*
X133100000Y-85900000D03*
X111300000Y-95800000D03*
X130600000Y-93200000D03*
X122300000Y-88500000D03*
X111300000Y-90800000D03*
X116900000Y-95800000D03*
X111300000Y-93300000D03*
X127400000Y-91200000D03*
X126100000Y-91200000D03*
X121500000Y-85900000D03*
X134500000Y-85900000D03*
X108200000Y-97800000D03*
X111300000Y-88500000D03*
X131800000Y-85900000D03*
%TO.N,/CHRGSTAT*%
X114100000Y-89900000D03*
X111100000Y-86400000D03*
%TO.N,+BATT*%
X134300000Y-92700000D03*
D35*
X139400000Y-90900000D03*
X116900000Y-87600000D03*
D32*
%TO.N,Net-(SW1-B)*%
X123400000Y-90300000D03*
X124200000Y-81900000D03*
%TO.N,Net-(SW1-A)*%
X129600000Y-86600000D03*
X131200000Y-91100000D03*
%TD*%
D36*
%TO.N,/-BATT*%
X144150000Y-91950000D02*
X144150000Y-90150000D01*
X144150000Y-90150000D02*
X143362500Y-89362500D01*
X143362500Y-89362500D02*
X138000000Y-89362500D01*
D37*
%TO.N,+BATT*%
X139400000Y-90900000D02*
X138600000Y-90900000D01*
X138600000Y-90900000D02*
X138012500Y-91487500D01*
X138012500Y-91487500D02*
X138012500Y-91500000D01*
D36*
%TO.N,+3V3*%
X122300000Y-93300000D02*
X121500000Y-93300000D01*
D38*
X104530000Y-118640000D02*
X103640000Y-118640000D01*
X103640000Y-118640000D02*
X103000000Y-118000000D01*
X103000000Y-118000000D02*
X103000000Y-101450000D01*
X103000000Y-101450000D02*
X103352000Y-101098000D01*
X103352000Y-101098000D02*
X116897090Y-101098000D01*
X116897090Y-101098000D02*
X121460000Y-96535090D01*
X121460000Y-96535090D02*
X121460000Y-95330000D01*
D37*
%TO.N,/GPIO1*%
X125475000Y-97375000D02*
X125525000Y-97375000D01*
X125525000Y-97375000D02*
X126540000Y-96360000D01*
X125400000Y-97450000D02*
X125475000Y-97375000D01*
X126540000Y-96360000D02*
X126540000Y-95330000D01*
%TO.N,/SCL*%
X104530000Y-116100000D02*
X104700000Y-116100000D01*
X106082000Y-114718000D02*
X106082000Y-103718000D01*
X124000000Y-99350000D02*
X124000000Y-100370000D01*
X106082000Y-103718000D02*
X107850000Y-101950000D01*
X104700000Y-116100000D02*
X106082000Y-114718000D01*
X107850000Y-101950000D02*
X117250000Y-101950000D01*
X117250000Y-101950000D02*
X120849000Y-98351000D01*
X123001000Y-98351000D02*
X124000000Y-99350000D01*
X120849000Y-98351000D02*
X123001000Y-98351000D01*
%TO.N,/SDA*%
X104530000Y-113560000D02*
X104700000Y-113560000D01*
X104700000Y-113560000D02*
X105681000Y-112579000D01*
X105681000Y-112579000D02*
X105681000Y-103551900D01*
X117083900Y-101549000D02*
X120682900Y-97950000D01*
X105681000Y-103551900D02*
X107683900Y-101549000D01*
X107683900Y-101549000D02*
X117083900Y-101549000D01*
X120682900Y-97950000D02*
X122500000Y-97950000D01*
X122500000Y-97950000D02*
X124000000Y-96450000D01*
X124000000Y-96450000D02*
X124000000Y-95330000D01*
D38*
%TO.N,VBUS*%
X104600000Y-96600000D02*
X105200000Y-96000000D01*
X104600000Y-97550000D02*
X104600000Y-96600000D01*
D37*
%TO.N,+3V3*%
X124712500Y-91500000D02*
X124712500Y-92412500D01*
X124712500Y-92412500D02*
X125200000Y-92900000D01*
D39*
X121500000Y-93300000D02*
X121500000Y-95290000D01*
D37*
%TO.N,/GPIO2*%
X126150000Y-100130000D02*
X126390000Y-100370000D01*
D36*
%TO.N,+3V3*%
X121400000Y-95390000D02*
X121460000Y-95330000D01*
D39*
X121500000Y-95290000D02*
X121460000Y-95330000D01*
D36*
X121400000Y-95420000D02*
X121400000Y-95390000D01*
D37*
%TO.N,/GPIO2*%
X126390000Y-100370000D02*
X126540000Y-100370000D01*
X125700000Y-98500000D02*
X126150000Y-98950000D01*
X126150000Y-98950000D02*
X126150000Y-100130000D01*
D38*
%TO.N,VBUS*%
X104530000Y-103400000D02*
X104700000Y-103230000D01*
D39*
%TO.N,+3V3*%
X125800000Y-87637500D02*
X125800000Y-85162500D01*
D37*
X130200000Y-87600000D02*
X130200000Y-83600000D01*
D39*
X125800000Y-87637500D02*
X127800000Y-87637500D01*
X127837500Y-87600000D02*
X127800000Y-87637500D01*
D37*
X130200000Y-83600000D02*
X132500000Y-81300000D01*
X132500000Y-81300000D02*
X133087500Y-81300000D01*
D39*
X130200000Y-87600000D02*
X127837500Y-87600000D01*
D36*
X125800000Y-85162500D02*
X125862500Y-85100000D01*
%TO.N,GND*%
X118400000Y-89362500D02*
X119237500Y-89362500D01*
X117537500Y-88500000D02*
X115150000Y-88500000D01*
X124937500Y-88500000D02*
X125800000Y-89362500D01*
X118400000Y-89362500D02*
X117537500Y-88500000D01*
X120100000Y-88500000D02*
X124937500Y-88500000D01*
D37*
X133087500Y-79537500D02*
X133125000Y-79500000D01*
D36*
X127800000Y-89362500D02*
X132762500Y-89362500D01*
X119237500Y-89362500D02*
X120100000Y-88500000D01*
X125800000Y-89362500D02*
X127800000Y-89362500D01*
X132762500Y-89362500D02*
X132850000Y-89450000D01*
%TO.N,VBUS*%
X106480000Y-93480000D02*
X107320000Y-93480000D01*
D40*
X110000000Y-87637500D02*
X110000000Y-87562500D01*
D37*
X111700000Y-87550000D02*
X111700000Y-82000000D01*
D40*
X112112500Y-87500000D02*
X112162500Y-87550000D01*
D37*
X112162500Y-87550000D02*
X111700000Y-87550000D01*
X111700000Y-82000000D02*
X112400000Y-81300000D01*
D40*
X105720000Y-96520000D02*
X106480000Y-96520000D01*
X106480000Y-93480000D02*
X105720000Y-93480000D01*
D36*
X112162500Y-87550000D02*
X110087500Y-87550000D01*
D40*
X105720000Y-93480000D02*
X105200000Y-94000000D01*
D37*
X112400000Y-81300000D02*
X113087500Y-81300000D01*
D40*
X105200000Y-96000000D02*
X105720000Y-96520000D01*
D36*
X108400000Y-88500000D02*
X109262500Y-87637500D01*
D40*
X105200000Y-94000000D02*
X105200000Y-96000000D01*
D36*
X109262500Y-87637500D02*
X110000000Y-87637500D01*
D40*
X110087500Y-87550000D02*
X110000000Y-87637500D01*
D36*
X107320000Y-93480000D02*
X108400000Y-92400000D01*
X108400000Y-92400000D02*
X108400000Y-88500000D01*
D37*
%TO.N,Net-(U4-BAT+)*%
X135637500Y-87637500D02*
X135550000Y-87550000D01*
X135900000Y-91500000D02*
X134469000Y-90069000D01*
X136187500Y-91500000D02*
X135900000Y-91500000D01*
X138000000Y-87637500D02*
X135637500Y-87637500D01*
X134469000Y-88141010D02*
X135060010Y-87550000D01*
X135060010Y-87550000D02*
X135550000Y-87550000D01*
X134469000Y-90069000D02*
X134469000Y-88141010D01*
D40*
%TO.N,/-BATT*%
X136600000Y-88500000D02*
X135550000Y-88500000D01*
X138000000Y-89362500D02*
X137775000Y-89362500D01*
X138000000Y-89362500D02*
X137462500Y-89362500D01*
X137462500Y-89362500D02*
X136600000Y-88500000D01*
D37*
%TO.N,/CHRGSTAT*%
X111100000Y-86400000D02*
X111100000Y-86300000D01*
X111299000Y-81326000D02*
X113125000Y-79500000D01*
X111100000Y-86300000D02*
X111299000Y-86101000D01*
X111299000Y-86101000D02*
X111299000Y-81326000D01*
X115150000Y-89450000D02*
X114550000Y-89450000D01*
X114550000Y-89450000D02*
X114100000Y-89900000D01*
%TO.N,Net-(D2-A)*%
X114912500Y-79537500D02*
X114875000Y-79500000D01*
X114912500Y-81300000D02*
X114912500Y-79537500D01*
%TO.N,Net-(J1-CC2)*%
X109512500Y-95500000D02*
X110000000Y-95987500D01*
X106480000Y-95500000D02*
X109512500Y-95500000D01*
%TO.N,Net-(J1-CC1)*%
X106480000Y-94500000D02*
X109512500Y-94500000D01*
X109512500Y-94500000D02*
X110000000Y-94012500D01*
%TO.N,+BATT*%
X134312500Y-91500000D02*
X134312500Y-92687500D01*
D40*
X117000000Y-87500000D02*
X116900000Y-87600000D01*
X118400000Y-87637500D02*
X118262500Y-87500000D01*
D36*
X121162500Y-87550000D02*
X118987500Y-87550000D01*
D40*
X118725000Y-87637500D02*
X118400000Y-87637500D01*
D36*
X115150000Y-87550000D02*
X116850000Y-87550000D01*
X118900000Y-87637500D02*
X118400000Y-87637500D01*
D37*
X134312500Y-92687500D02*
X134300000Y-92700000D01*
D36*
X142450000Y-90800000D02*
X142450000Y-91950000D01*
X139400000Y-90900000D02*
X139500000Y-90800000D01*
D40*
X118812500Y-87550000D02*
X118725000Y-87637500D01*
X118262500Y-87500000D02*
X117000000Y-87500000D01*
D36*
X139500000Y-90800000D02*
X142450000Y-90800000D01*
X118987500Y-87550000D02*
X118900000Y-87637500D01*
X142450000Y-91550000D02*
X142450000Y-91950000D01*
X116850000Y-87550000D02*
X116900000Y-87600000D01*
D37*
%TO.N,Net-(U2-PROG)*%
X112887500Y-91500000D02*
X112887500Y-89887500D01*
X112887500Y-89887500D02*
X112450000Y-89450000D01*
%TO.N,Net-(SW1-B)*%
X124200000Y-81900000D02*
X123320000Y-81900000D01*
X123300000Y-81880000D02*
X123300000Y-81555000D01*
X123437500Y-89450000D02*
X123437500Y-90262500D01*
X123437500Y-90262500D02*
X123400000Y-90300000D01*
X123320000Y-81900000D02*
X123300000Y-81880000D01*
X123300000Y-81555000D02*
X123250000Y-81505000D01*
D36*
%TO.N,/SWNODE*%
X123437500Y-85200000D02*
X123537500Y-85100000D01*
D37*
%TO.N,/FB*%
X121300000Y-89587500D02*
X121162500Y-89450000D01*
X121112500Y-91500000D02*
X121112500Y-89612500D01*
X121112500Y-89612500D02*
X120950000Y-89450000D01*
X121112500Y-91500000D02*
X122887500Y-91500000D01*
%TO.N,Net-(SW1-A)*%
X129600000Y-86600000D02*
X129799000Y-86401000D01*
X129799000Y-86401000D02*
X129799000Y-83599000D01*
X126720000Y-82300000D02*
X126250000Y-81830000D01*
X129799000Y-83599000D02*
X128500000Y-82300000D01*
X132487500Y-91500000D02*
X131600000Y-91500000D01*
X128500000Y-82300000D02*
X126720000Y-82300000D01*
X131600000Y-91500000D02*
X131200000Y-91100000D01*
%TO.N,Net-(D1-A)*%
X134912500Y-79537500D02*
X134875000Y-79500000D01*
X134912500Y-81300000D02*
X134912500Y-79537500D01*
%TD*%
%TA.AperFunction,Conductor*%
%TO.N,/SWNODE*%
G36*
X124043039Y-84219685D02*
G01*
X124088794Y-84272489D01*
X124100000Y-84324000D01*
X124100000Y-87576000D01*
X124080315Y-87643039D01*
X124027511Y-87688794D01*
X123976000Y-87700000D01*
X122924000Y-87700000D01*
X122856961Y-87680315D01*
X122811206Y-87627511D01*
X122800000Y-87576000D01*
X122800000Y-84324000D01*
X122819685Y-84256961D01*
X122872489Y-84211206D01*
X122924000Y-84200000D01*
X123976000Y-84200000D01*
X124043039Y-84219685D01*
G37*
%TD.AperFunction*%
%TD*%
%TA.AperFunction,Conductor*%
%TO.N,GND*%
G36*
X104064075Y-106132993D02*
G01*
X104129901Y-106247007D01*
X104222993Y-106340099D01*
X104337007Y-106405925D01*
X104400589Y-106422962D01*
X103768282Y-107055269D01*
X103768282Y-107055270D01*
X103822449Y-107094624D01*
X104011784Y-107191096D01*
X104110711Y-107223239D01*
X104168387Y-107262676D01*
X104195586Y-107327034D01*
X104183672Y-107395881D01*
X104136428Y-107447357D01*
X104110722Y-107459097D01*
X104109522Y-107459487D01*
X104107550Y-107460128D01*
X103953211Y-107538768D01*
X103873256Y-107596859D01*
X103813072Y-107640586D01*
X103813070Y-107640588D01*
X103813069Y-107640588D01*
X103690588Y-107763069D01*
X103690581Y-107763078D01*
X103624817Y-107853593D01*
X103569487Y-107896259D01*
X103499874Y-107902237D01*
X103438079Y-107869631D01*
X103403722Y-107808791D01*
X103400500Y-107780707D01*
X103400500Y-106767307D01*
X103420185Y-106700268D01*
X103436819Y-106679626D01*
X104047037Y-106069408D01*
X104064075Y-106132993D01*
G37*
%TD.AperFunction*%
%TA.AperFunction,Conductor*%
G36*
X103571958Y-104481698D02*
G01*
X103582257Y-104485964D01*
X103582260Y-104485966D01*
X103582263Y-104485966D01*
X103582264Y-104485967D01*
X103655321Y-104500499D01*
X103655324Y-104500500D01*
X103655326Y-104500500D01*
X103865051Y-104500500D01*
X103932090Y-104520185D01*
X103977845Y-104572989D01*
X103987789Y-104642147D01*
X103958764Y-104705703D01*
X103921346Y-104734985D01*
X103822439Y-104785380D01*
X103768282Y-104824727D01*
X103768282Y-104824728D01*
X104400591Y-105457037D01*
X104337007Y-105474075D01*
X104222993Y-105539901D01*
X104129901Y-105632993D01*
X104064075Y-105747007D01*
X104047037Y-105810591D01*
X103436819Y-105200373D01*
X103403334Y-105139050D01*
X103400500Y-105112692D01*
X103400500Y-104596257D01*
X103420185Y-104529218D01*
X103472989Y-104483463D01*
X103542147Y-104473519D01*
X103571958Y-104481698D01*
G37*
%TD.AperFunction*%
%TA.AperFunction,Conductor*%
G36*
X119566638Y-78320185D02*
G01*
X119612393Y-78372989D01*
X119622337Y-78442147D01*
X119614163Y-78471947D01*
X119614033Y-78472260D01*
X119599500Y-78545321D01*
X119599500Y-79394678D01*
X119614032Y-79467735D01*
X119614033Y-79467739D01*
X119614034Y-79467740D01*
X119669399Y-79550601D01*
X119752260Y-79605966D01*
X119752264Y-79605967D01*
X119825321Y-79620499D01*
X119825324Y-79620500D01*
X119825326Y-79620500D01*
X120874676Y-79620500D01*
X120874677Y-79620499D01*
X120947740Y-79605966D01*
X121030601Y-79550601D01*
X121085966Y-79467740D01*
X121100500Y-79394674D01*
X121100500Y-78545326D01*
X121100500Y-78545323D01*
X121100499Y-78545321D01*
X121085967Y-78472262D01*
X121085840Y-78471955D01*
X121085762Y-78471231D01*
X121083584Y-78460281D01*
X121084563Y-78460086D01*
X121078370Y-78402486D01*
X121109643Y-78340006D01*
X121169732Y-78304352D01*
X121200396Y-78300500D01*
X126799600Y-78300500D01*
X126866638Y-78320185D01*
X126912393Y-78372989D01*
X126922337Y-78442147D01*
X126914163Y-78471947D01*
X126914033Y-78472260D01*
X126899500Y-78545321D01*
X126899500Y-79394678D01*
X126914032Y-79467735D01*
X126914033Y-79467739D01*
X126914034Y-79467740D01*
X126969399Y-79550601D01*
X127052260Y-79605966D01*
X127052264Y-79605967D01*
X127125321Y-79620499D01*
X127125324Y-79620500D01*
X127125326Y-79620500D01*
X128174676Y-79620500D01*
X128174677Y-79620499D01*
X128247740Y-79605966D01*
X128330601Y-79550601D01*
X128385966Y-79467740D01*
X128400500Y-79394674D01*
X128400500Y-78545326D01*
X128400500Y-78545323D01*
X128400499Y-78545321D01*
X128385967Y-78472262D01*
X128385840Y-78471955D01*
X128385762Y-78471231D01*
X128383584Y-78460281D01*
X128384563Y-78460086D01*
X128378370Y-78402486D01*
X128409643Y-78340006D01*
X128469732Y-78304352D01*
X128500395Y-78300500D01*
X132627560Y-78300500D01*
X132694597Y-78320185D01*
X132740352Y-78372989D01*
X132750296Y-78442147D01*
X132721271Y-78505703D01*
X132666562Y-78542206D01*
X132523699Y-78589546D01*
X132523688Y-78589551D01*
X132376965Y-78680052D01*
X132376961Y-78680055D01*
X132255055Y-78801961D01*
X132255052Y-78801965D01*
X132164551Y-78948688D01*
X132164546Y-78948699D01*
X132110319Y-79112347D01*
X132100000Y-79213345D01*
X132100000Y-79250000D01*
X133001000Y-79250000D01*
X133068039Y-79269685D01*
X133113794Y-79322489D01*
X133125000Y-79374000D01*
X133125000Y-79626000D01*
X133105315Y-79693039D01*
X133052511Y-79738794D01*
X133001000Y-79750000D01*
X132100001Y-79750000D01*
X132100001Y-79786654D01*
X132110319Y-79887652D01*
X132164546Y-80051300D01*
X132164551Y-80051311D01*
X132255052Y-80198034D01*
X132255055Y-80198038D01*
X132376961Y-80319944D01*
X132376965Y-80319947D01*
X132523688Y-80410448D01*
X132523701Y-80410454D01*
X132555147Y-80420874D01*
X132612592Y-80460646D01*
X132639416Y-80525161D01*
X132627102Y-80593937D01*
X132590456Y-80637846D01*
X132488884Y-80713883D01*
X132404788Y-80826221D01*
X132361410Y-80942520D01*
X132319538Y-80998453D01*
X132307234Y-81006569D01*
X132284794Y-81019526D01*
X132284785Y-81019532D01*
X130087680Y-83216636D01*
X130026357Y-83250121D01*
X129956665Y-83245137D01*
X129912318Y-83216636D01*
X128715213Y-82019531D01*
X128715208Y-82019527D01*
X128635289Y-81973386D01*
X128632348Y-81972598D01*
X128632346Y-81972597D01*
X128623442Y-81970212D01*
X128546144Y-81949500D01*
X128429339Y-81949500D01*
X128422352Y-81948705D01*
X128396373Y-81937755D01*
X128369331Y-81929815D01*
X128364611Y-81924368D01*
X128357967Y-81921568D01*
X128342029Y-81898307D01*
X128323576Y-81877011D01*
X128322550Y-81869877D01*
X128318475Y-81863930D01*
X128317643Y-81835751D01*
X128313632Y-81807853D01*
X128316592Y-81800127D01*
X128316414Y-81794090D01*
X128323273Y-81782689D01*
X128333266Y-81756612D01*
X128385966Y-81677740D01*
X128400500Y-81604674D01*
X128400500Y-80755326D01*
X128400500Y-80755323D01*
X128400499Y-80755321D01*
X128385967Y-80682264D01*
X128385966Y-80682260D01*
X128371880Y-80661179D01*
X128330601Y-80599399D01*
X128271768Y-80560089D01*
X128247739Y-80544033D01*
X128247735Y-80544032D01*
X128174677Y-80529500D01*
X128174674Y-80529500D01*
X127125326Y-80529500D01*
X127125323Y-80529500D01*
X127052264Y-80544032D01*
X127052260Y-80544033D01*
X126969399Y-80599399D01*
X126914033Y-80682260D01*
X126914032Y-80682264D01*
X126899498Y-80755328D01*
X126899121Y-80759163D01*
X126898362Y-80761041D01*
X126898311Y-80761300D01*
X126898261Y-80761290D01*
X126872958Y-80823950D01*
X126815922Y-80864306D01*
X126746121Y-80867420D01*
X126706830Y-80850107D01*
X126697742Y-80844035D01*
X126697735Y-80844032D01*
X126624677Y-80829500D01*
X126624674Y-80829500D01*
X126030519Y-80829500D01*
X125963480Y-80809815D01*
X125917725Y-80757011D01*
X125907781Y-80687853D01*
X125936806Y-80624297D01*
X125942838Y-80617819D01*
X126044111Y-80516545D01*
X126044114Y-80516542D01*
X126120775Y-80401811D01*
X126173580Y-80274328D01*
X126194290Y-80170212D01*
X126200500Y-80138995D01*
X126200500Y-80001004D01*
X126173581Y-79865677D01*
X126173580Y-79865676D01*
X126173580Y-79865672D01*
X126153062Y-79816137D01*
X126120778Y-79738195D01*
X126120771Y-79738182D01*
X126044114Y-79623458D01*
X126044111Y-79623454D01*
X125946545Y-79525888D01*
X125946541Y-79525885D01*
X125831817Y-79449228D01*
X125831804Y-79449221D01*
X125704332Y-79396421D01*
X125704322Y-79396418D01*
X125568995Y-79369500D01*
X125568993Y-79369500D01*
X125431007Y-79369500D01*
X125431005Y-79369500D01*
X125295677Y-79396418D01*
X125295667Y-79396421D01*
X125168195Y-79449221D01*
X125168182Y-79449228D01*
X125053458Y-79525885D01*
X125053454Y-79525888D01*
X124955888Y-79623454D01*
X124955885Y-79623458D01*
X124879228Y-79738182D01*
X124879221Y-79738195D01*
X124826421Y-79865667D01*
X124826418Y-79865677D01*
X124799500Y-80001004D01*
X124799500Y-80001007D01*
X124799500Y-80138993D01*
X124799500Y-80138995D01*
X124799499Y-80138995D01*
X124826418Y-80274322D01*
X124826421Y-80274332D01*
X124879221Y-80401804D01*
X124879228Y-80401817D01*
X124955885Y-80516541D01*
X124955888Y-80516545D01*
X125053454Y-80614111D01*
X125053458Y-80614114D01*
X125168182Y-80690771D01*
X125168195Y-80690778D01*
X125295667Y-80743578D01*
X125295672Y-80743580D01*
X125295676Y-80743580D01*
X125295677Y-80743581D01*
X125431004Y-80770500D01*
X125573540Y-80770500D01*
X125640579Y-80790185D01*
X125686334Y-80842989D01*
X125696278Y-80912147D01*
X125676642Y-80963391D01*
X125664034Y-80982259D01*
X125664032Y-80982264D01*
X125649500Y-81055321D01*
X125649500Y-82604678D01*
X125664032Y-82677735D01*
X125664033Y-82677739D01*
X125664034Y-82677740D01*
X125719399Y-82760601D01*
X125799773Y-82814304D01*
X125802260Y-82815966D01*
X125802264Y-82815967D01*
X125875321Y-82830499D01*
X125875324Y-82830500D01*
X125875326Y-82830500D01*
X126624676Y-82830500D01*
X126624677Y-82830499D01*
X126697740Y-82815966D01*
X126780601Y-82760601D01*
X126817345Y-82705609D01*
X126870957Y-82660804D01*
X126920447Y-82650500D01*
X128303456Y-82650500D01*
X128370495Y-82670185D01*
X128391137Y-82686819D01*
X129412181Y-83707862D01*
X129445666Y-83769185D01*
X129448500Y-83795543D01*
X129448500Y-85980214D01*
X129428815Y-86047253D01*
X129386501Y-86087601D01*
X129261985Y-86159491D01*
X129261982Y-86159493D01*
X129159493Y-86261982D01*
X129159488Y-86261988D01*
X129087017Y-86387511D01*
X129082583Y-86404055D01*
X129049500Y-86527525D01*
X129049500Y-86527527D01*
X129049500Y-86672474D01*
X129055109Y-86693407D01*
X129053446Y-86763257D01*
X129014283Y-86821119D01*
X128950055Y-86848623D01*
X128935334Y-86849500D01*
X127515809Y-86849500D01*
X127457700Y-86855748D01*
X127394875Y-86879182D01*
X127351541Y-86887000D01*
X126674500Y-86887000D01*
X126607461Y-86867315D01*
X126561706Y-86814511D01*
X126550500Y-86763000D01*
X126550500Y-86390954D01*
X126570185Y-86323915D01*
X126577495Y-86314843D01*
X126577231Y-86314645D01*
X126582544Y-86307547D01*
X126582546Y-86307546D01*
X126668796Y-86192330D01*
X126719091Y-86057482D01*
X126725500Y-85997872D01*
X126725500Y-84202128D01*
X126719091Y-84142518D01*
X126668796Y-84007670D01*
X126582546Y-83892454D01*
X126467330Y-83806204D01*
X126467328Y-83806203D01*
X126467327Y-83806202D01*
X126332481Y-83755908D01*
X126332482Y-83755908D01*
X126272882Y-83749501D01*
X126272880Y-83749500D01*
X126272872Y-83749500D01*
X125252128Y-83749500D01*
X125252120Y-83749500D01*
X125252117Y-83749501D01*
X125192518Y-83755908D01*
X125057672Y-83806202D01*
X125057670Y-83806204D01*
X124942454Y-83892454D01*
X124856204Y-84007670D01*
X124856202Y-84007672D01*
X124805908Y-84142518D01*
X124799501Y-84202117D01*
X124799500Y-84202136D01*
X124799500Y-85997863D01*
X124799501Y-85997882D01*
X124805908Y-86057481D01*
X124856202Y-86192327D01*
X124856203Y-86192328D01*
X124856204Y-86192330D01*
X124942454Y-86307546D01*
X124942457Y-86307548D01*
X124942458Y-86307549D01*
X124999809Y-86350481D01*
X125041681Y-86406414D01*
X125049500Y-86449749D01*
X125049500Y-87711420D01*
X125072117Y-87825118D01*
X125074500Y-87849310D01*
X125074500Y-87947037D01*
X125054815Y-88014076D01*
X125002011Y-88059831D01*
X124932853Y-88069775D01*
X124869297Y-88040750D01*
X124844383Y-88011187D01*
X124792836Y-87925919D01*
X124715798Y-87848881D01*
X124682313Y-87787558D01*
X124681248Y-87749943D01*
X124680118Y-87749854D01*
X124680499Y-87745007D01*
X124680500Y-87745003D01*
X124680499Y-87354998D01*
X124680499Y-87354996D01*
X124680499Y-87354992D01*
X124665182Y-87258286D01*
X124665182Y-87258285D01*
X124633951Y-87196991D01*
X124605789Y-87141719D01*
X124605785Y-87141715D01*
X124605784Y-87141713D01*
X124513286Y-87049215D01*
X124513282Y-87049212D01*
X124513281Y-87049211D01*
X124423203Y-87003314D01*
X124372409Y-86955342D01*
X124355500Y-86892831D01*
X124355500Y-86183321D01*
X124363318Y-86139987D01*
X124383075Y-86087016D01*
X124394091Y-86057482D01*
X124400500Y-85997872D01*
X124400500Y-84202128D01*
X124394091Y-84142518D01*
X124343796Y-84007670D01*
X124257546Y-83892454D01*
X124142330Y-83806204D01*
X124142328Y-83806203D01*
X124142327Y-83806202D01*
X124007481Y-83755908D01*
X124007482Y-83755908D01*
X123947882Y-83749501D01*
X123947880Y-83749500D01*
X123947872Y-83749500D01*
X122927128Y-83749500D01*
X122927120Y-83749500D01*
X122927117Y-83749501D01*
X122867518Y-83755908D01*
X122732672Y-83806202D01*
X122732670Y-83806204D01*
X122617454Y-83892454D01*
X122531204Y-84007670D01*
X122531202Y-84007672D01*
X122480908Y-84142518D01*
X122474501Y-84202117D01*
X122474500Y-84202136D01*
X122474500Y-85997863D01*
X122474501Y-85997882D01*
X122480908Y-86057481D01*
X122534303Y-86200640D01*
X122532498Y-86201313D01*
X122544500Y-86248329D01*
X122544500Y-87576002D01*
X122550338Y-87630312D01*
X122561543Y-87681818D01*
X122561546Y-87681827D01*
X122568779Y-87708192D01*
X122568781Y-87708199D01*
X122578628Y-87725491D01*
X122594694Y-87793488D01*
X122571448Y-87859377D01*
X122558554Y-87874528D01*
X122507163Y-87925919D01*
X122423927Y-88063607D01*
X122376067Y-88217197D01*
X122376064Y-88217207D01*
X122373085Y-88249999D01*
X122373085Y-88250000D01*
X124926915Y-88250000D01*
X124941934Y-88233553D01*
X124944160Y-88222282D01*
X124992607Y-88171936D01*
X125060581Y-88155775D01*
X125126503Y-88178929D01*
X125153381Y-88205295D01*
X125196538Y-88262945D01*
X125220956Y-88328409D01*
X125206105Y-88396682D01*
X125162370Y-88442794D01*
X125101962Y-88480054D01*
X125060000Y-88522016D01*
X125060000Y-88626000D01*
X125040315Y-88693039D01*
X124987511Y-88738794D01*
X124936000Y-88750000D01*
X122373085Y-88750000D01*
X122376064Y-88782792D01*
X122376067Y-88782802D01*
X122423927Y-88936392D01*
X122507163Y-89074080D01*
X122584200Y-89151117D01*
X122617685Y-89212440D01*
X122618766Y-89250046D01*
X122619882Y-89250134D01*
X122619500Y-89254990D01*
X122619500Y-89645007D01*
X122634817Y-89741713D01*
X122634817Y-89741714D01*
X122654362Y-89780073D01*
X122694211Y-89858281D01*
X122694213Y-89858283D01*
X122694215Y-89858286D01*
X122786713Y-89950784D01*
X122786716Y-89950786D01*
X122786719Y-89950789D01*
X122817733Y-89966591D01*
X122868529Y-90014565D01*
X122885325Y-90082386D01*
X122881214Y-90109165D01*
X122849500Y-90227525D01*
X122849500Y-90372475D01*
X122887016Y-90512485D01*
X122887017Y-90512488D01*
X122930903Y-90588500D01*
X122947376Y-90656400D01*
X122924524Y-90722427D01*
X122869602Y-90765617D01*
X122823516Y-90774500D01*
X122590809Y-90774500D01*
X122532700Y-90780748D01*
X122401219Y-90829789D01*
X122288884Y-90913884D01*
X122204787Y-91026222D01*
X122204785Y-91026226D01*
X122188895Y-91068832D01*
X122175626Y-91086557D01*
X122166426Y-91106703D01*
X122155093Y-91113985D01*
X122147024Y-91124766D01*
X122126278Y-91132504D01*
X122107648Y-91144477D01*
X122085730Y-91147628D01*
X122081560Y-91149184D01*
X122072713Y-91149500D01*
X121927287Y-91149500D01*
X121860248Y-91129815D01*
X121814493Y-91077011D01*
X121811105Y-91068832D01*
X121795214Y-91026226D01*
X121795212Y-91026222D01*
X121795208Y-91026217D01*
X121711116Y-90913884D01*
X121598778Y-90829788D01*
X121543665Y-90809231D01*
X121487732Y-90767359D01*
X121463316Y-90701894D01*
X121463000Y-90693050D01*
X121463000Y-90149499D01*
X121482685Y-90082460D01*
X121535489Y-90036705D01*
X121587000Y-90025499D01*
X121600007Y-90025499D01*
X121600007Y-90025498D01*
X121696715Y-90010182D01*
X121813281Y-89950789D01*
X121905789Y-89858281D01*
X121965182Y-89741715D01*
X121966596Y-89732792D01*
X121971789Y-89700000D01*
X121980500Y-89645003D01*
X121980499Y-89254998D01*
X121980499Y-89254996D01*
X121980499Y-89254992D01*
X121965182Y-89158286D01*
X121965182Y-89158285D01*
X121947563Y-89123706D01*
X121905789Y-89041719D01*
X121905785Y-89041715D01*
X121905784Y-89041713D01*
X121813286Y-88949215D01*
X121813282Y-88949212D01*
X121813281Y-88949211D01*
X121696715Y-88889818D01*
X121696714Y-88889817D01*
X121696711Y-88889816D01*
X121696712Y-88889816D01*
X121600003Y-88874500D01*
X120299992Y-88874500D01*
X120299992Y-88874501D01*
X120203286Y-88889817D01*
X120203285Y-88889817D01*
X120125077Y-88929666D01*
X120086719Y-88949211D01*
X120086718Y-88949212D01*
X120086713Y-88949215D01*
X119994215Y-89041713D01*
X119994210Y-89041720D01*
X119934816Y-89158288D01*
X119919500Y-89254996D01*
X119919500Y-89645007D01*
X119934817Y-89741713D01*
X119934817Y-89741714D01*
X119954362Y-89780073D01*
X119994211Y-89858281D01*
X119994213Y-89858283D01*
X119994215Y-89858286D01*
X120086713Y-89950784D01*
X120086716Y-89950786D01*
X120086719Y-89950789D01*
X120203285Y-90010182D01*
X120203286Y-90010182D01*
X120203288Y-90010183D01*
X120203287Y-90010183D01*
X120246618Y-90017045D01*
X120299997Y-90025500D01*
X120638000Y-90025499D01*
X120705039Y-90045183D01*
X120750794Y-90097987D01*
X120762000Y-90149499D01*
X120762000Y-90693050D01*
X120742315Y-90760089D01*
X120689511Y-90805844D01*
X120681335Y-90809231D01*
X120626221Y-90829788D01*
X120513883Y-90913884D01*
X120437846Y-91015456D01*
X120381912Y-91057326D01*
X120312220Y-91062310D01*
X120250897Y-91028824D01*
X120220874Y-90980147D01*
X120210454Y-90948701D01*
X120210448Y-90948688D01*
X120119947Y-90801965D01*
X120119944Y-90801961D01*
X119998038Y-90680055D01*
X119998034Y-90680052D01*
X119851311Y-90589551D01*
X119851300Y-90589546D01*
X119687652Y-90535319D01*
X119586654Y-90525000D01*
X119537500Y-90525000D01*
X119537500Y-92474999D01*
X119586640Y-92474999D01*
X119586654Y-92474998D01*
X119687652Y-92464680D01*
X119851300Y-92410453D01*
X119851311Y-92410448D01*
X119998034Y-92319947D01*
X119998038Y-92319944D01*
X120119944Y-92198038D01*
X120119947Y-92198034D01*
X120210448Y-92051311D01*
X120210451Y-92051303D01*
X120220873Y-92019853D01*
X120260645Y-91962407D01*
X120325160Y-91935583D01*
X120393936Y-91947897D01*
X120437846Y-91984543D01*
X120513883Y-92086115D01*
X120513884Y-92086116D01*
X120626222Y-92170212D01*
X120700816Y-92198034D01*
X120757700Y-92219251D01*
X120815809Y-92225499D01*
X120815826Y-92225500D01*
X121409174Y-92225500D01*
X121409190Y-92225499D01*
X121467299Y-92219251D01*
X121598778Y-92170212D01*
X121711116Y-92086116D01*
X121795212Y-91973778D01*
X121799453Y-91962407D01*
X121811105Y-91931168D01*
X121824373Y-91913442D01*
X121833574Y-91893297D01*
X121844906Y-91886014D01*
X121852976Y-91875234D01*
X121873721Y-91867495D01*
X121892352Y-91855523D01*
X121914269Y-91852371D01*
X121918440Y-91850816D01*
X121927287Y-91850500D01*
X122072713Y-91850500D01*
X122139752Y-91870185D01*
X122185507Y-91922989D01*
X122188895Y-91931168D01*
X122204785Y-91973773D01*
X122204787Y-91973777D01*
X122204788Y-91973778D01*
X122288884Y-92086116D01*
X122401222Y-92170212D01*
X122475816Y-92198034D01*
X122532700Y-92219251D01*
X122590809Y-92225499D01*
X122590826Y-92225500D01*
X123184174Y-92225500D01*
X123184190Y-92225499D01*
X123242299Y-92219251D01*
X123373778Y-92170212D01*
X123486116Y-92086116D01*
X123570212Y-91973778D01*
X123619251Y-91842299D01*
X123620938Y-91826611D01*
X123625499Y-91784190D01*
X123625500Y-91784173D01*
X123625500Y-91215826D01*
X123625499Y-91215809D01*
X123974500Y-91215809D01*
X123974500Y-91784190D01*
X123980748Y-91842299D01*
X124029789Y-91973780D01*
X124044497Y-91993427D01*
X124113884Y-92086116D01*
X124226222Y-92170212D01*
X124281334Y-92190767D01*
X124337266Y-92232636D01*
X124361684Y-92298101D01*
X124362000Y-92306948D01*
X124362000Y-92458644D01*
X124374845Y-92506582D01*
X124385245Y-92545395D01*
X124385246Y-92545408D01*
X124385248Y-92545408D01*
X124385883Y-92547782D01*
X124385885Y-92547786D01*
X124385886Y-92547788D01*
X124408902Y-92587652D01*
X124432029Y-92627710D01*
X124432031Y-92627713D01*
X124613181Y-92808863D01*
X124646666Y-92870186D01*
X124649500Y-92896544D01*
X124649500Y-92972475D01*
X124685663Y-93107434D01*
X124687017Y-93112488D01*
X124759488Y-93238011D01*
X124759490Y-93238013D01*
X124759491Y-93238015D01*
X124861985Y-93340509D01*
X124861986Y-93340510D01*
X124861988Y-93340511D01*
X124987511Y-93412982D01*
X124987512Y-93412982D01*
X124987515Y-93412984D01*
X125127525Y-93450500D01*
X125127528Y-93450500D01*
X125272472Y-93450500D01*
X125272475Y-93450500D01*
X125412485Y-93412984D01*
X125538015Y-93340509D01*
X125640509Y-93238015D01*
X125712984Y-93112485D01*
X125750500Y-92972475D01*
X125750500Y-92827525D01*
X125712984Y-92687515D01*
X125704402Y-92672651D01*
X125640511Y-92561988D01*
X125640506Y-92561982D01*
X125538017Y-92459493D01*
X125538011Y-92459488D01*
X125412488Y-92387017D01*
X125412489Y-92387017D01*
X125393428Y-92381909D01*
X125288396Y-92353766D01*
X125228738Y-92317402D01*
X125198209Y-92254554D01*
X125206504Y-92185179D01*
X125246181Y-92134726D01*
X125311116Y-92086116D01*
X125395212Y-91973778D01*
X125444251Y-91842299D01*
X125445938Y-91826611D01*
X125450499Y-91784190D01*
X125450500Y-91784173D01*
X125450500Y-91215826D01*
X125450499Y-91215809D01*
X125444251Y-91157700D01*
X125425230Y-91106703D01*
X125395698Y-91027525D01*
X130649500Y-91027525D01*
X130649500Y-91172475D01*
X130674171Y-91264546D01*
X130687017Y-91312488D01*
X130759488Y-91438011D01*
X130759490Y-91438013D01*
X130759491Y-91438015D01*
X130861985Y-91540509D01*
X130861986Y-91540510D01*
X130861988Y-91540511D01*
X130987511Y-91612982D01*
X130987512Y-91612982D01*
X130987515Y-91612984D01*
X131127525Y-91650500D01*
X131203457Y-91650500D01*
X131270496Y-91670185D01*
X131291138Y-91686819D01*
X131319531Y-91715212D01*
X131384788Y-91780469D01*
X131384791Y-91780470D01*
X131384794Y-91780473D01*
X131464706Y-91826611D01*
X131464707Y-91826611D01*
X131464712Y-91826614D01*
X131553856Y-91850500D01*
X131672713Y-91850500D01*
X131739752Y-91870185D01*
X131785507Y-91922989D01*
X131788895Y-91931168D01*
X131804785Y-91973773D01*
X131804787Y-91973777D01*
X131804788Y-91973778D01*
X131888884Y-92086116D01*
X132001222Y-92170212D01*
X132075816Y-92198034D01*
X132132700Y-92219251D01*
X132190809Y-92225499D01*
X132190826Y-92225500D01*
X132784174Y-92225500D01*
X132784190Y-92225499D01*
X132842299Y-92219251D01*
X132973778Y-92170212D01*
X133086116Y-92086116D01*
X133170212Y-91973778D01*
X133219251Y-91842299D01*
X133220938Y-91826611D01*
X133225499Y-91784190D01*
X133225500Y-91784173D01*
X133225500Y-91215826D01*
X133225499Y-91215809D01*
X133219251Y-91157700D01*
X133200230Y-91106703D01*
X133170212Y-91026222D01*
X133170208Y-91026217D01*
X133153618Y-91004055D01*
X133086116Y-90913884D01*
X133001446Y-90850500D01*
X132973780Y-90829789D01*
X132973778Y-90829788D01*
X132928725Y-90812984D01*
X132842299Y-90780748D01*
X132784190Y-90774500D01*
X132784174Y-90774500D01*
X132190826Y-90774500D01*
X132190809Y-90774500D01*
X132132700Y-90780748D01*
X132001219Y-90829789D01*
X131888539Y-90914142D01*
X131823074Y-90938559D01*
X131754801Y-90923707D01*
X131706841Y-90876875D01*
X131691613Y-90850500D01*
X131640509Y-90761985D01*
X131538015Y-90659491D01*
X131538013Y-90659490D01*
X131538011Y-90659488D01*
X131412488Y-90587017D01*
X131412489Y-90587017D01*
X131401006Y-90583940D01*
X131272475Y-90549500D01*
X131127525Y-90549500D01*
X130998993Y-90583940D01*
X130987511Y-90587017D01*
X130861988Y-90659488D01*
X130861982Y-90659493D01*
X130759493Y-90761982D01*
X130759488Y-90761988D01*
X130687017Y-90887511D01*
X130687016Y-90887515D01*
X130649500Y-91027525D01*
X125395698Y-91027525D01*
X125395212Y-91026222D01*
X125311116Y-90913884D01*
X125226446Y-90850500D01*
X125198780Y-90829789D01*
X125198778Y-90829788D01*
X125153725Y-90812984D01*
X125067299Y-90780748D01*
X125009190Y-90774500D01*
X125009174Y-90774500D01*
X124415826Y-90774500D01*
X124415809Y-90774500D01*
X124357700Y-90780748D01*
X124226219Y-90829789D01*
X124113884Y-90913884D01*
X124029789Y-91026219D01*
X123980748Y-91157700D01*
X123974500Y-91215809D01*
X123625499Y-91215809D01*
X123619251Y-91157700D01*
X123600230Y-91106703D01*
X123570212Y-91026222D01*
X123570209Y-91026218D01*
X123570209Y-91026217D01*
X123554031Y-91004606D01*
X123529613Y-90939142D01*
X123544464Y-90870869D01*
X123593869Y-90821463D01*
X123605852Y-90815731D01*
X123612479Y-90812985D01*
X123612485Y-90812984D01*
X123738015Y-90740509D01*
X123840509Y-90638015D01*
X123912984Y-90512485D01*
X123950500Y-90372475D01*
X123950500Y-90227525D01*
X123938192Y-90181591D01*
X123939855Y-90111742D01*
X123979018Y-90053880D01*
X124043246Y-90026376D01*
X124057967Y-90025499D01*
X124300007Y-90025499D01*
X124300007Y-90025498D01*
X124396715Y-90010182D01*
X124513281Y-89950789D01*
X124605789Y-89858281D01*
X124619234Y-89831892D01*
X124667206Y-89781098D01*
X124735027Y-89764302D01*
X124801162Y-89786838D01*
X124844614Y-89841553D01*
X124847424Y-89849184D01*
X124889546Y-89976300D01*
X124889551Y-89976311D01*
X124980052Y-90123034D01*
X124980055Y-90123038D01*
X125101961Y-90244944D01*
X125101965Y-90244947D01*
X125248688Y-90335448D01*
X125248699Y-90335453D01*
X125412347Y-90389680D01*
X125513352Y-90399999D01*
X125550000Y-90399999D01*
X126050000Y-90399999D01*
X126086640Y-90399999D01*
X126086654Y-90399998D01*
X126187652Y-90389680D01*
X126351300Y-90335453D01*
X126351311Y-90335448D01*
X126498034Y-90244947D01*
X126498038Y-90244944D01*
X126619943Y-90123039D01*
X126694461Y-90002228D01*
X126746409Y-89955504D01*
X126815372Y-89944282D01*
X126879454Y-89972125D01*
X126905539Y-90002228D01*
X126980056Y-90123039D01*
X127101961Y-90244944D01*
X127101965Y-90244947D01*
X127248688Y-90335448D01*
X127248699Y-90335453D01*
X127412347Y-90389680D01*
X127513352Y-90399999D01*
X127550000Y-90399999D01*
X128050000Y-90399999D01*
X128086640Y-90399999D01*
X128086654Y-90399998D01*
X128187652Y-90389680D01*
X128351300Y-90335453D01*
X128351311Y-90335448D01*
X128498034Y-90244947D01*
X128498038Y-90244944D01*
X128619944Y-90123038D01*
X128619947Y-90123034D01*
X128710448Y-89976311D01*
X128710453Y-89976300D01*
X128764680Y-89812652D01*
X128774999Y-89711654D01*
X128775000Y-89711641D01*
X128775000Y-89700000D01*
X131573085Y-89700000D01*
X131576064Y-89732792D01*
X131576067Y-89732802D01*
X131623927Y-89886392D01*
X131707163Y-90024080D01*
X131820919Y-90137836D01*
X131958603Y-90221070D01*
X132112207Y-90268934D01*
X132178957Y-90275000D01*
X132600000Y-90275000D01*
X132600000Y-89700000D01*
X131573085Y-89700000D01*
X128775000Y-89700000D01*
X128775000Y-89612500D01*
X128050000Y-89612500D01*
X128050000Y-90399999D01*
X127550000Y-90399999D01*
X127550000Y-89612500D01*
X126050000Y-89612500D01*
X126050000Y-90399999D01*
X125550000Y-90399999D01*
X125550000Y-89486500D01*
X125569685Y-89419461D01*
X125622489Y-89373706D01*
X125674000Y-89362500D01*
X125800000Y-89362500D01*
X125800000Y-89236500D01*
X125810718Y-89199999D01*
X131573085Y-89199999D01*
X131573085Y-89200000D01*
X132600000Y-89200000D01*
X132600000Y-88625000D01*
X132178957Y-88625000D01*
X132112207Y-88631065D01*
X131958603Y-88678929D01*
X131820919Y-88762163D01*
X131707163Y-88875919D01*
X131623927Y-89013607D01*
X131576067Y-89167197D01*
X131576064Y-89167207D01*
X131573085Y-89199999D01*
X125810718Y-89199999D01*
X125819685Y-89169461D01*
X125872489Y-89123706D01*
X125924000Y-89112500D01*
X128774999Y-89112500D01*
X128774999Y-89013360D01*
X128774998Y-89013345D01*
X128764680Y-88912347D01*
X128710453Y-88748699D01*
X128710448Y-88748688D01*
X128619947Y-88601965D01*
X128619944Y-88601961D01*
X128580164Y-88562181D01*
X128546679Y-88500858D01*
X128551663Y-88431166D01*
X128593535Y-88375233D01*
X128658999Y-88350816D01*
X128667845Y-88350500D01*
X130273920Y-88350500D01*
X130384974Y-88328409D01*
X130418913Y-88321658D01*
X130555495Y-88265084D01*
X130678416Y-88182951D01*
X130782951Y-88078416D01*
X130865084Y-87955495D01*
X130921658Y-87818913D01*
X130925420Y-87800000D01*
X131573085Y-87800000D01*
X131576064Y-87832792D01*
X131576067Y-87832802D01*
X131623927Y-87986392D01*
X131707163Y-88124080D01*
X131820919Y-88237836D01*
X131958603Y-88321070D01*
X132112207Y-88368934D01*
X132178957Y-88375000D01*
X132600000Y-88375000D01*
X132600000Y-87800000D01*
X131573085Y-87800000D01*
X130925420Y-87800000D01*
X130935363Y-87750016D01*
X130938834Y-87732568D01*
X130950500Y-87673920D01*
X130950500Y-87526079D01*
X130921659Y-87381092D01*
X130921658Y-87381091D01*
X130921658Y-87381087D01*
X130888070Y-87299999D01*
X131573085Y-87299999D01*
X131573085Y-87300000D01*
X132600000Y-87300000D01*
X133100000Y-87300000D01*
X134126915Y-87300000D01*
X134126914Y-87299999D01*
X134123935Y-87267207D01*
X134123932Y-87267197D01*
X134076072Y-87113607D01*
X133992836Y-86975919D01*
X133879080Y-86862163D01*
X133741396Y-86778929D01*
X133587792Y-86731065D01*
X133521043Y-86725000D01*
X133100000Y-86725000D01*
X133100000Y-87300000D01*
X132600000Y-87300000D01*
X132600000Y-86725000D01*
X132178957Y-86725000D01*
X132112207Y-86731065D01*
X131958603Y-86778929D01*
X131820919Y-86862163D01*
X131707163Y-86975919D01*
X131623927Y-87113607D01*
X131576067Y-87267197D01*
X131576064Y-87267207D01*
X131573085Y-87299999D01*
X130888070Y-87299999D01*
X130865087Y-87244511D01*
X130865080Y-87244498D01*
X130782951Y-87121584D01*
X130782948Y-87121580D01*
X130678419Y-87017051D01*
X130678415Y-87017048D01*
X130605609Y-86968400D01*
X130560804Y-86914787D01*
X130550500Y-86865298D01*
X130550500Y-83796543D01*
X130570185Y-83729504D01*
X130586814Y-83708867D01*
X131955367Y-82340313D01*
X140249500Y-82340313D01*
X140249500Y-82659687D01*
X140254023Y-82705609D01*
X140280803Y-82977522D01*
X140343109Y-83290754D01*
X140435820Y-83596382D01*
X140558040Y-83891446D01*
X140558042Y-83891451D01*
X140708584Y-84173094D01*
X140708601Y-84173122D01*
X140886012Y-84438638D01*
X140886029Y-84438661D01*
X141088638Y-84685540D01*
X141314459Y-84911361D01*
X141314464Y-84911365D01*
X141314465Y-84911366D01*
X141561344Y-85113975D01*
X141561351Y-85113980D01*
X141561361Y-85113987D01*
X141826877Y-85291398D01*
X141826882Y-85291401D01*
X141826894Y-85291409D01*
X141826903Y-85291413D01*
X141826905Y-85291415D01*
X142108548Y-85441957D01*
X142108550Y-85441957D01*
X142108556Y-85441961D01*
X142403619Y-85564180D01*
X142709240Y-85656889D01*
X143022477Y-85719196D01*
X143340313Y-85750500D01*
X143340316Y-85750500D01*
X143659684Y-85750500D01*
X143659687Y-85750500D01*
X143977523Y-85719196D01*
X144290760Y-85656889D01*
X144596381Y-85564180D01*
X144891444Y-85441961D01*
X145173106Y-85291409D01*
X145438656Y-85113975D01*
X145685535Y-84911366D01*
X145911366Y-84685535D01*
X146113975Y-84438656D01*
X146291409Y-84173106D01*
X146441961Y-83891444D01*
X146564180Y-83596381D01*
X146656889Y-83290760D01*
X146719196Y-82977523D01*
X146750500Y-82659687D01*
X146750500Y-82340313D01*
X146719196Y-82022477D01*
X146656889Y-81709240D01*
X146564180Y-81403619D01*
X146441961Y-81108556D01*
X146413507Y-81055323D01*
X146291415Y-80826905D01*
X146291413Y-80826903D01*
X146291409Y-80826894D01*
X146290960Y-80826222D01*
X146113987Y-80561361D01*
X146113980Y-80561351D01*
X146113975Y-80561344D01*
X145911366Y-80314465D01*
X145911365Y-80314464D01*
X145911361Y-80314459D01*
X145685540Y-80088638D01*
X145438661Y-79886029D01*
X145438638Y-79886012D01*
X145173122Y-79708601D01*
X145173094Y-79708584D01*
X144891451Y-79558042D01*
X144891446Y-79558040D01*
X144873484Y-79550600D01*
X144673443Y-79467740D01*
X144596382Y-79435820D01*
X144290754Y-79343109D01*
X143977521Y-79280803D01*
X143977522Y-79280803D01*
X143738141Y-79257227D01*
X143659687Y-79249500D01*
X143340313Y-79249500D01*
X143267822Y-79256639D01*
X143022477Y-79280803D01*
X142709245Y-79343109D01*
X142403617Y-79435820D01*
X142108553Y-79558040D01*
X142108548Y-79558042D01*
X141826905Y-79708584D01*
X141826877Y-79708601D01*
X141561361Y-79886012D01*
X141561338Y-79886029D01*
X141314459Y-80088638D01*
X141088638Y-80314459D01*
X140886029Y-80561338D01*
X140886012Y-80561361D01*
X140708601Y-80826877D01*
X140708584Y-80826905D01*
X140558042Y-81108548D01*
X140558040Y-81108553D01*
X140435820Y-81403617D01*
X140343109Y-81709245D01*
X140280803Y-82022477D01*
X140263660Y-82196543D01*
X140249500Y-82340313D01*
X131955367Y-82340313D01*
X132367547Y-81928133D01*
X132428868Y-81894650D01*
X132498560Y-81899634D01*
X132529537Y-81916549D01*
X132557865Y-81937755D01*
X132601222Y-81970212D01*
X132693594Y-82004665D01*
X132732700Y-82019251D01*
X132790809Y-82025499D01*
X132790826Y-82025500D01*
X133384174Y-82025500D01*
X133384190Y-82025499D01*
X133442299Y-82019251D01*
X133573778Y-81970212D01*
X133686116Y-81886116D01*
X133770212Y-81773778D01*
X133819251Y-81642299D01*
X133823296Y-81604676D01*
X133825499Y-81584190D01*
X133825500Y-81584173D01*
X133825500Y-81015826D01*
X133825499Y-81015809D01*
X133819251Y-80957700D01*
X133802260Y-80912147D01*
X133770212Y-80826222D01*
X133686116Y-80713884D01*
X133686115Y-80713883D01*
X133607555Y-80655073D01*
X133565685Y-80599139D01*
X133560701Y-80529448D01*
X133594187Y-80468125D01*
X133642864Y-80438101D01*
X133726298Y-80410454D01*
X133726311Y-80410448D01*
X133873034Y-80319947D01*
X133873038Y-80319944D01*
X133994943Y-80198039D01*
X134048376Y-80111412D01*
X134100324Y-80064688D01*
X134169287Y-80053465D01*
X134233369Y-80081309D01*
X134237468Y-80085055D01*
X134238882Y-80086113D01*
X134238884Y-80086116D01*
X134351222Y-80170212D01*
X134481334Y-80218741D01*
X134499060Y-80232011D01*
X134519203Y-80241210D01*
X134526485Y-80252541D01*
X134537267Y-80260613D01*
X134545004Y-80281358D01*
X134556977Y-80299988D01*
X134560128Y-80321906D01*
X134561684Y-80326077D01*
X134562000Y-80334923D01*
X134562000Y-80493050D01*
X134542315Y-80560089D01*
X134489511Y-80605844D01*
X134481335Y-80609231D01*
X134426221Y-80629788D01*
X134313884Y-80713884D01*
X134229789Y-80826219D01*
X134180748Y-80957700D01*
X134174500Y-81015809D01*
X134174500Y-81584190D01*
X134180748Y-81642299D01*
X134229789Y-81773780D01*
X134249513Y-81800127D01*
X134313884Y-81886116D01*
X134426222Y-81970212D01*
X134518594Y-82004665D01*
X134557700Y-82019251D01*
X134615809Y-82025499D01*
X134615826Y-82025500D01*
X135209174Y-82025500D01*
X135209190Y-82025499D01*
X135267299Y-82019251D01*
X135398778Y-81970212D01*
X135511116Y-81886116D01*
X135595212Y-81773778D01*
X135644251Y-81642299D01*
X135648296Y-81604676D01*
X135650499Y-81584190D01*
X135650500Y-81584173D01*
X135650500Y-81015826D01*
X135650499Y-81015809D01*
X135644251Y-80957700D01*
X135627260Y-80912147D01*
X135595212Y-80826222D01*
X135511116Y-80713884D01*
X135398778Y-80629788D01*
X135394311Y-80628122D01*
X135343665Y-80609231D01*
X135325940Y-80595962D01*
X135305797Y-80586763D01*
X135298514Y-80575430D01*
X135287732Y-80567359D01*
X135279994Y-80546613D01*
X135268023Y-80527985D01*
X135264871Y-80506063D01*
X135263316Y-80501894D01*
X135263000Y-80493050D01*
X135263000Y-80306948D01*
X135282685Y-80239909D01*
X135335489Y-80194154D01*
X135343645Y-80190775D01*
X135398778Y-80170212D01*
X135511116Y-80086116D01*
X135595212Y-79973778D01*
X135644251Y-79842299D01*
X135647064Y-79816137D01*
X135650499Y-79784190D01*
X135650500Y-79784173D01*
X135650500Y-79215826D01*
X135650499Y-79215809D01*
X135644251Y-79157700D01*
X135627335Y-79112347D01*
X135595212Y-79026222D01*
X135511116Y-78913884D01*
X135443612Y-78863351D01*
X135398780Y-78829789D01*
X135398778Y-78829788D01*
X135372144Y-78819854D01*
X135267299Y-78780748D01*
X135209190Y-78774500D01*
X135209174Y-78774500D01*
X134540826Y-78774500D01*
X134540809Y-78774500D01*
X134482700Y-78780748D01*
X134351219Y-78829789D01*
X134274866Y-78886947D01*
X134238884Y-78913884D01*
X134238883Y-78913885D01*
X134231785Y-78919199D01*
X134230368Y-78917306D01*
X134180256Y-78944660D01*
X134110565Y-78939666D01*
X134054637Y-78897786D01*
X134048377Y-78888587D01*
X133994947Y-78801965D01*
X133994944Y-78801961D01*
X133873038Y-78680055D01*
X133873034Y-78680052D01*
X133726311Y-78589551D01*
X133726300Y-78589546D01*
X133583437Y-78542206D01*
X133525992Y-78502433D01*
X133499169Y-78437917D01*
X133511484Y-78369142D01*
X133559027Y-78317942D01*
X133622438Y-78300500D01*
X143497191Y-78300500D01*
X143502831Y-78300631D01*
X143881763Y-78318150D01*
X143893153Y-78319206D01*
X144265987Y-78371214D01*
X144277231Y-78373316D01*
X144643676Y-78459503D01*
X144654666Y-78462630D01*
X145011607Y-78582265D01*
X145022274Y-78586398D01*
X145366637Y-78738449D01*
X145376886Y-78743552D01*
X145481750Y-78801961D01*
X145705738Y-78926722D01*
X145715476Y-78932751D01*
X145751356Y-78957329D01*
X146003029Y-79129729D01*
X146026038Y-79145490D01*
X146035175Y-79152391D01*
X146302049Y-79374000D01*
X146324773Y-79392870D01*
X146333237Y-79400586D01*
X146599413Y-79666762D01*
X146607129Y-79675226D01*
X146847606Y-79964821D01*
X146854509Y-79973961D01*
X147067248Y-80284523D01*
X147073277Y-80294261D01*
X147256445Y-80623109D01*
X147261550Y-80633362D01*
X147413601Y-80977725D01*
X147417739Y-80988405D01*
X147537365Y-81345320D01*
X147540499Y-81356336D01*
X147626681Y-81722760D01*
X147628786Y-81734019D01*
X147680792Y-82106839D01*
X147681849Y-82118243D01*
X147699367Y-82497144D01*
X147699499Y-82502871D01*
X147699499Y-86900137D01*
X147679814Y-86967176D01*
X147627010Y-87012931D01*
X147557852Y-87022875D01*
X147507763Y-87000000D01*
X147500000Y-87000000D01*
X138642237Y-87000000D01*
X138575198Y-86980315D01*
X138567926Y-86975267D01*
X138473780Y-86904789D01*
X138473778Y-86904788D01*
X138441720Y-86892831D01*
X138342299Y-86855748D01*
X138284190Y-86849500D01*
X138284174Y-86849500D01*
X137715826Y-86849500D01*
X137715809Y-86849500D01*
X137657700Y-86855748D01*
X137526219Y-86904789D01*
X137432074Y-86975267D01*
X137366610Y-86999684D01*
X137357763Y-87000000D01*
X136346468Y-87000000D01*
X136306762Y-86990467D01*
X136305994Y-86992833D01*
X136296711Y-86989816D01*
X136200003Y-86974500D01*
X134899992Y-86974500D01*
X134899992Y-86974501D01*
X134803286Y-86989817D01*
X134803285Y-86989817D01*
X134725077Y-87029666D01*
X134686719Y-87049211D01*
X134686718Y-87049212D01*
X134686713Y-87049215D01*
X134594215Y-87141713D01*
X134594210Y-87141720D01*
X134534816Y-87258288D01*
X134519500Y-87354996D01*
X134519500Y-87543465D01*
X134510855Y-87572905D01*
X134504332Y-87602892D01*
X134500577Y-87607907D01*
X134499815Y-87610504D01*
X134483181Y-87631146D01*
X134308118Y-87806208D01*
X134246795Y-87839693D01*
X134177103Y-87834709D01*
X134128874Y-87802147D01*
X134126913Y-87800000D01*
X133100000Y-87800000D01*
X133100000Y-88375000D01*
X133521043Y-88375000D01*
X133587792Y-88368934D01*
X133741396Y-88321070D01*
X133879080Y-88237836D01*
X133879081Y-88237835D01*
X133906819Y-88210098D01*
X133968142Y-88176613D01*
X134037834Y-88181597D01*
X134093767Y-88223469D01*
X134118184Y-88288933D01*
X134118500Y-88297779D01*
X134118500Y-88702221D01*
X134098815Y-88769260D01*
X134046011Y-88815015D01*
X133976853Y-88824959D01*
X133913297Y-88795934D01*
X133906819Y-88789902D01*
X133879080Y-88762163D01*
X133741396Y-88678929D01*
X133587792Y-88631065D01*
X133521043Y-88625000D01*
X133100000Y-88625000D01*
X133100000Y-90275000D01*
X133521043Y-90275000D01*
X133587792Y-90268934D01*
X133741396Y-90221070D01*
X133879080Y-90137836D01*
X133879080Y-90137835D01*
X133920831Y-90096085D01*
X133982154Y-90062599D01*
X134051845Y-90067583D01*
X134107779Y-90109454D01*
X134128287Y-90151672D01*
X134136004Y-90180470D01*
X134142386Y-90204288D01*
X134142387Y-90204290D01*
X134188527Y-90284208D01*
X134188531Y-90284213D01*
X134467137Y-90562819D01*
X134500622Y-90624142D01*
X134495638Y-90693834D01*
X134453766Y-90749767D01*
X134388302Y-90774184D01*
X134379456Y-90774500D01*
X134015809Y-90774500D01*
X133957700Y-90780748D01*
X133826219Y-90829789D01*
X133713884Y-90913884D01*
X133629789Y-91026219D01*
X133580748Y-91157700D01*
X133574500Y-91215809D01*
X133574500Y-91784190D01*
X133580748Y-91842299D01*
X133629789Y-91973780D01*
X133644497Y-91993427D01*
X133713884Y-92086116D01*
X133826222Y-92170212D01*
X133826223Y-92170212D01*
X133826224Y-92170213D01*
X133826399Y-92170309D01*
X133826539Y-92170449D01*
X133833322Y-92175527D01*
X133832592Y-92176502D01*
X133875804Y-92219714D01*
X133890656Y-92287987D01*
X133866239Y-92353451D01*
X133864433Y-92355535D01*
X133864438Y-92355539D01*
X133859488Y-92361988D01*
X133787017Y-92487511D01*
X133787016Y-92487515D01*
X133749500Y-92627525D01*
X133749500Y-92772475D01*
X133782745Y-92896544D01*
X133787017Y-92912488D01*
X133859488Y-93038011D01*
X133859490Y-93038013D01*
X133859491Y-93038015D01*
X133961985Y-93140509D01*
X133961986Y-93140510D01*
X133961988Y-93140511D01*
X134087511Y-93212982D01*
X134087512Y-93212982D01*
X134087515Y-93212984D01*
X134227525Y-93250500D01*
X134227528Y-93250500D01*
X134372472Y-93250500D01*
X134372475Y-93250500D01*
X134512485Y-93212984D01*
X134638015Y-93140509D01*
X134740509Y-93038015D01*
X134812984Y-92912485D01*
X134850500Y-92772475D01*
X134850500Y-92627525D01*
X134812984Y-92487515D01*
X134812479Y-92486641D01*
X134736445Y-92354946D01*
X134737809Y-92354158D01*
X134715970Y-92297677D01*
X134730004Y-92229231D01*
X134778814Y-92179239D01*
X134796205Y-92171171D01*
X134798778Y-92170212D01*
X134911116Y-92086116D01*
X134995212Y-91973778D01*
X135044251Y-91842299D01*
X135045938Y-91826611D01*
X135050499Y-91784190D01*
X135050500Y-91784173D01*
X135050500Y-91445544D01*
X135056738Y-91424298D01*
X135058318Y-91402210D01*
X135066390Y-91391426D01*
X135070185Y-91378505D01*
X135086918Y-91364005D01*
X135100190Y-91346277D01*
X135112810Y-91341569D01*
X135122989Y-91332750D01*
X135144906Y-91329598D01*
X135165654Y-91321860D01*
X135178814Y-91324722D01*
X135192147Y-91322806D01*
X135212290Y-91332005D01*
X135233927Y-91336712D01*
X135251652Y-91349980D01*
X135255703Y-91351831D01*
X135262181Y-91357863D01*
X135413181Y-91508863D01*
X135446666Y-91570186D01*
X135449500Y-91596544D01*
X135449500Y-91784190D01*
X135455748Y-91842299D01*
X135492182Y-91939979D01*
X135500000Y-91983313D01*
X135500000Y-92500000D01*
X137772721Y-92500000D01*
X137839760Y-92519685D01*
X137885515Y-92572489D01*
X137895661Y-92640183D01*
X137894500Y-92648999D01*
X137894500Y-99851000D01*
X137915131Y-100007715D01*
X137935094Y-100082217D01*
X137935938Y-100084441D01*
X137936778Y-100086281D01*
X137995582Y-100228247D01*
X137995584Y-100228250D01*
X138091807Y-100353651D01*
X138091813Y-100353658D01*
X138146342Y-100408187D01*
X138146348Y-100408192D01*
X138271751Y-100504417D01*
X138417787Y-100564907D01*
X138492287Y-100584869D01*
X138620994Y-100601813D01*
X138648999Y-100605500D01*
X138649000Y-100605500D01*
X147351001Y-100605500D01*
X147366377Y-100603475D01*
X147507713Y-100584869D01*
X147507720Y-100584867D01*
X147507721Y-100584867D01*
X147543404Y-100575306D01*
X147613254Y-100576968D01*
X147671117Y-100616129D01*
X147698622Y-100680358D01*
X147699499Y-100695080D01*
X147699500Y-119452405D01*
X147699500Y-119497128D01*
X147699368Y-119502855D01*
X147681850Y-119881757D01*
X147680793Y-119893161D01*
X147628787Y-120265981D01*
X147626682Y-120277240D01*
X147540500Y-120643664D01*
X147537366Y-120654680D01*
X147417737Y-121011603D01*
X147413599Y-121022283D01*
X147261555Y-121366630D01*
X147256450Y-121376883D01*
X147073278Y-121705739D01*
X147067249Y-121715477D01*
X146854513Y-122026033D01*
X146847611Y-122035173D01*
X146607125Y-122324780D01*
X146599408Y-122333244D01*
X146333244Y-122599408D01*
X146324780Y-122607125D01*
X146035173Y-122847611D01*
X146026033Y-122854513D01*
X145715477Y-123067249D01*
X145705739Y-123073278D01*
X145376883Y-123256450D01*
X145366630Y-123261555D01*
X145022283Y-123413599D01*
X145011603Y-123417737D01*
X144654680Y-123537366D01*
X144643664Y-123540500D01*
X144277240Y-123626682D01*
X144265981Y-123628787D01*
X143893161Y-123680793D01*
X143881757Y-123681850D01*
X143502855Y-123699368D01*
X143497128Y-123699500D01*
X104502872Y-123699500D01*
X104497145Y-123699368D01*
X104118242Y-123681850D01*
X104106838Y-123680793D01*
X103734018Y-123628787D01*
X103722759Y-123626682D01*
X103356335Y-123540500D01*
X103345319Y-123537366D01*
X102988396Y-123417737D01*
X102977716Y-123413599D01*
X102633365Y-123261553D01*
X102623121Y-123256452D01*
X102516521Y-123197077D01*
X102294260Y-123073278D01*
X102284522Y-123067249D01*
X101973966Y-122854513D01*
X101964826Y-122847611D01*
X101675219Y-122607125D01*
X101666755Y-122599408D01*
X101400591Y-122333244D01*
X101392874Y-122324780D01*
X101368369Y-122295270D01*
X101152386Y-122035170D01*
X101145486Y-122026033D01*
X101087727Y-121941716D01*
X100932750Y-121715477D01*
X100926721Y-121705739D01*
X100856740Y-121580099D01*
X100743542Y-121376870D01*
X100738450Y-121366643D01*
X100586387Y-121022252D01*
X100582267Y-121011616D01*
X100462629Y-120654667D01*
X100459502Y-120643677D01*
X100373315Y-120277232D01*
X100371212Y-120265981D01*
X100352754Y-120133661D01*
X100319205Y-119893154D01*
X100318149Y-119881757D01*
X100317554Y-119868892D01*
X100300632Y-119502855D01*
X100300500Y-119497128D01*
X100300500Y-101397273D01*
X102599500Y-101397273D01*
X102599500Y-117947273D01*
X102599500Y-118052727D01*
X102613146Y-118103657D01*
X102626793Y-118154589D01*
X102653156Y-118200250D01*
X102679520Y-118245913D01*
X103319518Y-118885910D01*
X103319520Y-118885913D01*
X103394087Y-118960480D01*
X103454735Y-118995495D01*
X103463332Y-119000458D01*
X103470878Y-119006559D01*
X103485423Y-119027579D01*
X103503081Y-119046063D01*
X103508076Y-119058027D01*
X103508265Y-119057949D01*
X103510128Y-119062448D01*
X103579959Y-119199500D01*
X103588768Y-119216788D01*
X103690586Y-119356928D01*
X103813072Y-119479414D01*
X103953212Y-119581232D01*
X104107555Y-119659873D01*
X104110708Y-119660897D01*
X104111752Y-119661611D01*
X104112048Y-119661734D01*
X104112022Y-119661795D01*
X104168383Y-119700330D01*
X104195585Y-119764688D01*
X104183674Y-119833535D01*
X104136433Y-119885013D01*
X104110712Y-119896760D01*
X104011783Y-119928904D01*
X103822439Y-120025380D01*
X103768282Y-120064727D01*
X103768282Y-120064728D01*
X104400591Y-120697037D01*
X104337007Y-120714075D01*
X104222993Y-120779901D01*
X104129901Y-120872993D01*
X104064075Y-120987007D01*
X104047037Y-121050591D01*
X103414728Y-120418282D01*
X103414727Y-120418282D01*
X103375380Y-120472439D01*
X103278904Y-120661782D01*
X103213242Y-120863869D01*
X103213242Y-120863872D01*
X103180000Y-121073753D01*
X103180000Y-121286246D01*
X103213242Y-121496127D01*
X103213242Y-121496130D01*
X103278904Y-121698217D01*
X103375375Y-121887550D01*
X103414728Y-121941716D01*
X104047037Y-121309408D01*
X104064075Y-121372993D01*
X104129901Y-121487007D01*
X104222993Y-121580099D01*
X104337007Y-121645925D01*
X104400590Y-121662962D01*
X103768282Y-122295269D01*
X103768282Y-122295270D01*
X103822449Y-122334624D01*
X104011782Y-122431095D01*
X104213870Y-122496757D01*
X104423754Y-122530000D01*
X104636246Y-122530000D01*
X104846127Y-122496757D01*
X104846130Y-122496757D01*
X105048217Y-122431095D01*
X105237554Y-122334622D01*
X105291716Y-122295270D01*
X105291717Y-122295270D01*
X104659408Y-121662962D01*
X104722993Y-121645925D01*
X104837007Y-121580099D01*
X104930099Y-121487007D01*
X104995925Y-121372993D01*
X105012962Y-121309408D01*
X105645270Y-121941717D01*
X105645270Y-121941716D01*
X105684622Y-121887554D01*
X105781095Y-121698217D01*
X105846757Y-121496130D01*
X105846757Y-121496127D01*
X105880000Y-121286246D01*
X105880000Y-121073753D01*
X105846757Y-120863872D01*
X105846757Y-120863869D01*
X105781095Y-120661782D01*
X105684624Y-120472449D01*
X105645270Y-120418282D01*
X105645269Y-120418282D01*
X105012962Y-121050590D01*
X104995925Y-120987007D01*
X104930099Y-120872993D01*
X104837007Y-120779901D01*
X104722993Y-120714075D01*
X104659409Y-120697037D01*
X105106446Y-120249999D01*
X112695000Y-120249999D01*
X112695000Y-120250000D01*
X112712962Y-120443855D01*
X112766241Y-120631107D01*
X112766246Y-120631120D01*
X112853021Y-120805386D01*
X112970347Y-120960751D01*
X113114219Y-121091907D01*
X113114221Y-121091909D01*
X113279742Y-121194395D01*
X113279744Y-121194396D01*
X113279746Y-121194397D01*
X113461286Y-121264726D01*
X113652657Y-121300500D01*
X113652659Y-121300500D01*
X116347341Y-121300500D01*
X116347343Y-121300500D01*
X116538714Y-121264726D01*
X116720254Y-121194397D01*
X116885780Y-121091908D01*
X117029654Y-120960749D01*
X117146979Y-120805386D01*
X117233758Y-120631110D01*
X117287037Y-120443856D01*
X117305000Y-120250000D01*
X117305000Y-120249999D01*
X130695000Y-120249999D01*
X130695000Y-120250000D01*
X130712962Y-120443855D01*
X130766241Y-120631107D01*
X130766246Y-120631120D01*
X130853021Y-120805386D01*
X130970347Y-120960751D01*
X131114219Y-121091907D01*
X131114221Y-121091909D01*
X131279742Y-121194395D01*
X131279744Y-121194396D01*
X131279746Y-121194397D01*
X131461286Y-121264726D01*
X131652657Y-121300500D01*
X131652659Y-121300500D01*
X134347341Y-121300500D01*
X134347343Y-121300500D01*
X134538714Y-121264726D01*
X134720254Y-121194397D01*
X134885780Y-121091908D01*
X135029654Y-120960749D01*
X135146979Y-120805386D01*
X135233758Y-120631110D01*
X135287037Y-120443856D01*
X135305000Y-120250000D01*
X135287037Y-120056144D01*
X135233758Y-119868890D01*
X135227998Y-119857323D01*
X135149825Y-119700330D01*
X135146979Y-119694614D01*
X135029654Y-119539251D01*
X135029652Y-119539248D01*
X134885780Y-119408092D01*
X134885778Y-119408090D01*
X134720257Y-119305604D01*
X134720248Y-119305600D01*
X134584099Y-119252856D01*
X134538714Y-119235274D01*
X134347343Y-119199500D01*
X134289562Y-119199500D01*
X131797595Y-119199500D01*
X131750000Y-119199500D01*
X131652657Y-119199500D01*
X131461286Y-119235274D01*
X131461283Y-119235274D01*
X131461283Y-119235275D01*
X131279751Y-119305600D01*
X131279742Y-119305604D01*
X131114221Y-119408090D01*
X131114219Y-119408092D01*
X130970347Y-119539248D01*
X130853021Y-119694613D01*
X130766246Y-119868879D01*
X130766241Y-119868892D01*
X130712962Y-120056144D01*
X130695000Y-120249999D01*
X117305000Y-120249999D01*
X117287037Y-120056144D01*
X117233758Y-119868890D01*
X117227998Y-119857323D01*
X117149825Y-119700330D01*
X117146979Y-119694614D01*
X117029654Y-119539251D01*
X117029652Y-119539248D01*
X116885780Y-119408092D01*
X116885778Y-119408090D01*
X116720257Y-119305604D01*
X116720248Y-119305600D01*
X116584099Y-119252856D01*
X116538714Y-119235274D01*
X116347343Y-119199500D01*
X116289562Y-119199500D01*
X113797595Y-119199500D01*
X113750000Y-119199500D01*
X113652657Y-119199500D01*
X113461286Y-119235274D01*
X113461283Y-119235274D01*
X113461283Y-119235275D01*
X113279751Y-119305600D01*
X113279742Y-119305604D01*
X113114221Y-119408090D01*
X113114219Y-119408092D01*
X112970347Y-119539248D01*
X112853021Y-119694613D01*
X112766246Y-119868879D01*
X112766241Y-119868892D01*
X112712962Y-120056144D01*
X112695000Y-120249999D01*
X105106446Y-120249999D01*
X105199859Y-120156586D01*
X105291716Y-120064728D01*
X105237550Y-120025375D01*
X105048217Y-119928904D01*
X104949287Y-119896760D01*
X104891611Y-119857323D01*
X104864413Y-119792964D01*
X104876328Y-119724118D01*
X104923572Y-119672642D01*
X104949290Y-119660897D01*
X104952445Y-119659873D01*
X105106788Y-119581232D01*
X105246928Y-119479414D01*
X105369414Y-119356928D01*
X105471232Y-119216788D01*
X105549873Y-119062445D01*
X105603402Y-118897701D01*
X105630500Y-118726611D01*
X105630500Y-118553389D01*
X105603402Y-118382299D01*
X105549873Y-118217555D01*
X105471232Y-118063212D01*
X105369414Y-117923072D01*
X105246928Y-117800586D01*
X105106788Y-117698768D01*
X104952445Y-117620127D01*
X104787701Y-117566598D01*
X104787699Y-117566597D01*
X104787698Y-117566597D01*
X104656271Y-117545781D01*
X104616611Y-117539500D01*
X104443389Y-117539500D01*
X104403728Y-117545781D01*
X104272302Y-117566597D01*
X104107552Y-117620128D01*
X103953211Y-117698768D01*
X103873256Y-117756859D01*
X103813072Y-117800586D01*
X103813070Y-117800588D01*
X103813069Y-117800588D01*
X103690588Y-117923069D01*
X103687422Y-117926777D01*
X103686384Y-117925890D01*
X103676479Y-117933526D01*
X103665282Y-117948484D01*
X103649382Y-117954414D01*
X103635942Y-117964775D01*
X103617325Y-117966370D01*
X103599818Y-117972901D01*
X103583235Y-117969293D01*
X103566328Y-117970743D01*
X103549803Y-117962021D01*
X103531545Y-117958049D01*
X103505881Y-117938836D01*
X103504538Y-117938128D01*
X103503291Y-117936898D01*
X103436819Y-117870426D01*
X103403334Y-117809103D01*
X103400500Y-117782745D01*
X103400500Y-116799292D01*
X103420185Y-116732253D01*
X103472989Y-116686498D01*
X103542147Y-116676554D01*
X103605703Y-116705579D01*
X103624816Y-116726404D01*
X103690586Y-116816928D01*
X103813072Y-116939414D01*
X103953212Y-117041232D01*
X104107555Y-117119873D01*
X104272299Y-117173402D01*
X104443389Y-117200500D01*
X104443390Y-117200500D01*
X104616610Y-117200500D01*
X104616611Y-117200500D01*
X104787701Y-117173402D01*
X104952445Y-117119873D01*
X105106788Y-117041232D01*
X105246928Y-116939414D01*
X105369414Y-116816928D01*
X105471232Y-116676788D01*
X105549873Y-116522445D01*
X105603402Y-116357701D01*
X105630500Y-116186611D01*
X105630500Y-116013389D01*
X105603402Y-115842299D01*
X105590091Y-115801335D01*
X105588097Y-115731497D01*
X105620340Y-115675340D01*
X106362470Y-114933212D01*
X106408614Y-114853288D01*
X106422758Y-114800500D01*
X106432500Y-114764144D01*
X106432500Y-104860845D01*
X106699500Y-104860845D01*
X106699500Y-104960438D01*
X106699500Y-114452405D01*
X106699500Y-114500000D01*
X106699500Y-114639155D01*
X106733046Y-114915435D01*
X106773639Y-115080127D01*
X106799651Y-115185662D01*
X106898341Y-115445884D01*
X106983284Y-115607728D01*
X107027677Y-115692311D01*
X107185774Y-115921355D01*
X107370327Y-116129673D01*
X107578645Y-116314226D01*
X107807689Y-116472323D01*
X107962221Y-116553428D01*
X108054115Y-116601658D01*
X108314337Y-116700348D01*
X108314339Y-116700348D01*
X108314343Y-116700350D01*
X108584565Y-116766954D01*
X108798222Y-116792896D01*
X108860842Y-116800500D01*
X108860845Y-116800500D01*
X139139158Y-116800500D01*
X139197378Y-116793430D01*
X139415435Y-116766954D01*
X139685657Y-116700350D01*
X139945880Y-116601660D01*
X140192311Y-116472323D01*
X140421355Y-116314226D01*
X140629673Y-116129673D01*
X140814226Y-115921355D01*
X140972323Y-115692311D01*
X141101660Y-115445880D01*
X141200350Y-115185657D01*
X141266954Y-114915435D01*
X141300500Y-114639155D01*
X141300500Y-114500000D01*
X141300500Y-114452405D01*
X141300500Y-104960438D01*
X141300500Y-104860845D01*
X141266954Y-104584565D01*
X141200350Y-104314343D01*
X141185305Y-104274674D01*
X141101658Y-104054115D01*
X141013982Y-103887064D01*
X140972323Y-103807689D01*
X140814226Y-103578645D01*
X140629673Y-103370327D01*
X140421355Y-103185774D01*
X140192311Y-103027677D01*
X140107728Y-102983284D01*
X139945884Y-102898341D01*
X139685662Y-102799651D01*
X139621041Y-102783723D01*
X139415435Y-102733046D01*
X139277295Y-102716273D01*
X139139158Y-102699500D01*
X139139155Y-102699500D01*
X139039562Y-102699500D01*
X109047595Y-102699500D01*
X109000000Y-102699500D01*
X108860845Y-102699500D01*
X108860842Y-102699500D01*
X108695077Y-102719627D01*
X108584565Y-102733046D01*
X108447493Y-102766831D01*
X108314337Y-102799651D01*
X108054115Y-102898341D01*
X107807691Y-103027676D01*
X107807682Y-103027681D01*
X107578650Y-103185770D01*
X107370327Y-103370327D01*
X107185770Y-103578650D01*
X107027681Y-103807682D01*
X107027676Y-103807691D01*
X106898341Y-104054115D01*
X106799651Y-104314337D01*
X106799650Y-104314343D01*
X106733046Y-104584565D01*
X106699500Y-104860845D01*
X106432500Y-104860845D01*
X106432500Y-103914544D01*
X106452185Y-103847505D01*
X106468819Y-103826863D01*
X107958863Y-102336819D01*
X108020186Y-102303334D01*
X108046544Y-102300500D01*
X117296142Y-102300500D01*
X117296144Y-102300500D01*
X117385288Y-102276614D01*
X117465212Y-102230470D01*
X117777838Y-101917844D01*
X120460000Y-101917844D01*
X120466401Y-101977372D01*
X120466403Y-101977379D01*
X120516645Y-102112086D01*
X120516649Y-102112093D01*
X120602809Y-102227187D01*
X120602812Y-102227190D01*
X120717906Y-102313350D01*
X120717913Y-102313354D01*
X120852620Y-102363596D01*
X120852627Y-102363598D01*
X120912155Y-102369999D01*
X120912172Y-102370000D01*
X121210000Y-102370000D01*
X121710000Y-102370000D01*
X122007828Y-102370000D01*
X122007844Y-102369999D01*
X122067372Y-102363598D01*
X122067379Y-102363596D01*
X122202086Y-102313354D01*
X122202093Y-102313350D01*
X122317187Y-102227190D01*
X122317190Y-102227187D01*
X122403350Y-102112093D01*
X122403354Y-102112086D01*
X122453596Y-101977379D01*
X122453598Y-101977372D01*
X122459999Y-101917844D01*
X122460000Y-101917827D01*
X122460000Y-100620000D01*
X121710000Y-100620000D01*
X121710000Y-102370000D01*
X121210000Y-102370000D01*
X121210000Y-100620000D01*
X120460000Y-100620000D01*
X120460000Y-101917844D01*
X117777838Y-101917844D01*
X120248319Y-99447363D01*
X120309642Y-99413878D01*
X120379334Y-99418862D01*
X120435267Y-99460734D01*
X120459684Y-99526198D01*
X120460000Y-99535044D01*
X120460000Y-100120000D01*
X122460000Y-100120000D01*
X122460000Y-98825500D01*
X122462550Y-98816814D01*
X122461262Y-98807853D01*
X122472240Y-98783812D01*
X122479685Y-98758461D01*
X122486525Y-98752533D01*
X122490287Y-98744297D01*
X122512521Y-98730007D01*
X122532489Y-98712706D01*
X122543003Y-98710418D01*
X122549065Y-98706523D01*
X122584000Y-98701500D01*
X122804456Y-98701500D01*
X122871495Y-98721185D01*
X122892137Y-98737819D01*
X123213181Y-99058862D01*
X123246666Y-99120185D01*
X123249500Y-99146543D01*
X123249500Y-101894678D01*
X123264032Y-101967735D01*
X123264033Y-101967739D01*
X123264034Y-101967740D01*
X123319399Y-102050601D01*
X123402260Y-102105966D01*
X123402264Y-102105967D01*
X123475321Y-102120499D01*
X123475324Y-102120500D01*
X123475326Y-102120500D01*
X124524676Y-102120500D01*
X124524677Y-102120499D01*
X124597740Y-102105966D01*
X124680601Y-102050601D01*
X124735966Y-101967740D01*
X124750500Y-101894674D01*
X124750500Y-98845326D01*
X124750500Y-98845323D01*
X124750499Y-98845321D01*
X124735967Y-98772264D01*
X124735966Y-98772260D01*
X124717282Y-98744297D01*
X124680601Y-98689399D01*
X124597740Y-98634034D01*
X124597739Y-98634033D01*
X124597735Y-98634032D01*
X124524677Y-98619500D01*
X124524674Y-98619500D01*
X123816543Y-98619500D01*
X123749504Y-98599815D01*
X123728862Y-98583181D01*
X123216213Y-98070531D01*
X123216212Y-98070530D01*
X123139936Y-98026492D01*
X123091722Y-97975927D01*
X123078498Y-97907320D01*
X123104466Y-97842455D01*
X123114249Y-97831432D01*
X123568155Y-97377525D01*
X124849500Y-97377525D01*
X124849500Y-97522475D01*
X124887016Y-97662485D01*
X124887017Y-97662488D01*
X124959488Y-97788011D01*
X124959489Y-97788012D01*
X124959491Y-97788015D01*
X125061985Y-97890509D01*
X125061986Y-97890510D01*
X125061988Y-97890511D01*
X125187511Y-97962982D01*
X125187512Y-97962982D01*
X125187515Y-97962984D01*
X125194615Y-97964886D01*
X125254275Y-98001247D01*
X125284806Y-98064093D01*
X125276514Y-98133469D01*
X125260907Y-98160138D01*
X125259493Y-98161979D01*
X125187017Y-98287511D01*
X125187016Y-98287515D01*
X125149500Y-98427525D01*
X125149500Y-98572475D01*
X125186462Y-98710418D01*
X125187017Y-98712488D01*
X125259488Y-98838011D01*
X125259490Y-98838013D01*
X125259491Y-98838015D01*
X125361985Y-98940509D01*
X125361986Y-98940510D01*
X125361988Y-98940511D01*
X125487511Y-99012982D01*
X125487512Y-99012982D01*
X125487515Y-99012984D01*
X125627525Y-99050500D01*
X125665500Y-99050500D01*
X125732539Y-99070185D01*
X125778294Y-99122989D01*
X125789500Y-99174500D01*
X125789500Y-101894678D01*
X125804032Y-101967735D01*
X125804033Y-101967739D01*
X125804034Y-101967740D01*
X125859399Y-102050601D01*
X125942260Y-102105966D01*
X125942264Y-102105967D01*
X126015321Y-102120499D01*
X126015324Y-102120500D01*
X126015326Y-102120500D01*
X127064676Y-102120500D01*
X127064677Y-102120499D01*
X127137740Y-102105966D01*
X127220601Y-102050601D01*
X127275966Y-101967740D01*
X127290500Y-101894674D01*
X127290500Y-99249999D01*
X130695000Y-99249999D01*
X130695000Y-99250000D01*
X130712962Y-99443855D01*
X130766241Y-99631107D01*
X130766246Y-99631120D01*
X130853021Y-99805386D01*
X130970347Y-99960751D01*
X131103413Y-100082056D01*
X131108047Y-100086281D01*
X131114219Y-100091907D01*
X131114221Y-100091909D01*
X131279742Y-100194395D01*
X131279744Y-100194396D01*
X131279746Y-100194397D01*
X131461286Y-100264726D01*
X131652657Y-100300500D01*
X131652659Y-100300500D01*
X134347341Y-100300500D01*
X134347343Y-100300500D01*
X134538714Y-100264726D01*
X134720254Y-100194397D01*
X134885780Y-100091908D01*
X135029654Y-99960749D01*
X135146979Y-99805386D01*
X135233758Y-99631110D01*
X135287037Y-99443856D01*
X135305000Y-99250000D01*
X135300756Y-99204204D01*
X135287037Y-99056144D01*
X135276753Y-99020000D01*
X135233758Y-98868890D01*
X135212152Y-98825500D01*
X135167312Y-98735448D01*
X135146979Y-98694614D01*
X135075390Y-98599815D01*
X135029652Y-98539248D01*
X134885780Y-98408092D01*
X134885778Y-98408090D01*
X134720257Y-98305604D01*
X134720248Y-98305600D01*
X134549354Y-98239396D01*
X134538714Y-98235274D01*
X134347343Y-98199500D01*
X134289562Y-98199500D01*
X131797595Y-98199500D01*
X131750000Y-98199500D01*
X131652657Y-98199500D01*
X131461286Y-98235274D01*
X131461283Y-98235274D01*
X131461283Y-98235275D01*
X131279751Y-98305600D01*
X131279742Y-98305604D01*
X131114221Y-98408090D01*
X131114219Y-98408092D01*
X130970347Y-98539248D01*
X130853021Y-98694613D01*
X130766246Y-98868879D01*
X130766241Y-98868892D01*
X130712962Y-99056144D01*
X130695000Y-99249999D01*
X127290500Y-99249999D01*
X127290500Y-98845326D01*
X127290500Y-98845323D01*
X127290499Y-98845321D01*
X127275967Y-98772264D01*
X127275966Y-98772260D01*
X127257282Y-98744297D01*
X127220601Y-98689399D01*
X127137740Y-98634034D01*
X127137739Y-98634033D01*
X127137735Y-98634032D01*
X127064677Y-98619500D01*
X127064674Y-98619500D01*
X126374500Y-98619500D01*
X126307461Y-98599815D01*
X126261706Y-98547011D01*
X126250500Y-98495500D01*
X126250500Y-98427527D01*
X126250500Y-98427525D01*
X126212984Y-98287515D01*
X126185202Y-98239396D01*
X126140511Y-98161988D01*
X126140506Y-98161982D01*
X126038017Y-98059493D01*
X126038011Y-98059488D01*
X125912488Y-97987017D01*
X125912489Y-97987017D01*
X125911645Y-97986790D01*
X125905379Y-97985112D01*
X125845721Y-97948747D01*
X125815192Y-97885900D01*
X125823487Y-97816525D01*
X125839102Y-97789848D01*
X125840503Y-97788020D01*
X125840509Y-97788015D01*
X125912984Y-97662485D01*
X125950500Y-97522475D01*
X125950500Y-97496544D01*
X125970185Y-97429505D01*
X125986819Y-97408863D01*
X126278863Y-97116819D01*
X126340186Y-97083334D01*
X126366544Y-97080500D01*
X127064676Y-97080500D01*
X127064677Y-97080499D01*
X127137740Y-97065966D01*
X127220601Y-97010601D01*
X127275966Y-96927740D01*
X127290500Y-96854674D01*
X127290500Y-93805326D01*
X127290500Y-93805323D01*
X127290499Y-93805321D01*
X127275967Y-93732264D01*
X127275966Y-93732260D01*
X127250499Y-93694146D01*
X127220601Y-93649399D01*
X127137740Y-93594034D01*
X127137739Y-93594033D01*
X127137735Y-93594032D01*
X127064677Y-93579500D01*
X127064674Y-93579500D01*
X126015326Y-93579500D01*
X126015323Y-93579500D01*
X125942264Y-93594032D01*
X125942260Y-93594033D01*
X125859399Y-93649399D01*
X125804033Y-93732260D01*
X125804032Y-93732264D01*
X125789500Y-93805321D01*
X125789500Y-96563455D01*
X125769815Y-96630494D01*
X125753181Y-96651136D01*
X125541136Y-96863181D01*
X125479813Y-96896666D01*
X125453455Y-96899500D01*
X125327525Y-96899500D01*
X125198993Y-96933940D01*
X125187511Y-96937017D01*
X125061988Y-97009488D01*
X125061982Y-97009493D01*
X124959493Y-97111982D01*
X124959488Y-97111988D01*
X124887017Y-97237511D01*
X124887016Y-97237515D01*
X124849500Y-97377525D01*
X123568155Y-97377525D01*
X123828862Y-97116818D01*
X123890185Y-97083334D01*
X123916543Y-97080500D01*
X124524676Y-97080500D01*
X124524677Y-97080499D01*
X124597740Y-97065966D01*
X124680601Y-97010601D01*
X124735966Y-96927740D01*
X124750500Y-96854674D01*
X124750500Y-93805326D01*
X124750500Y-93805323D01*
X124750499Y-93805321D01*
X124735967Y-93732264D01*
X124735966Y-93732260D01*
X124710499Y-93694146D01*
X124680601Y-93649399D01*
X124597740Y-93594034D01*
X124597739Y-93594033D01*
X124597735Y-93594032D01*
X124524677Y-93579500D01*
X124524674Y-93579500D01*
X123475326Y-93579500D01*
X123475323Y-93579500D01*
X123402264Y-93594032D01*
X123402260Y-93594033D01*
X123319399Y-93649399D01*
X123264033Y-93732260D01*
X123264032Y-93732264D01*
X123249500Y-93805321D01*
X123249500Y-96653456D01*
X123229815Y-96720495D01*
X123213181Y-96741137D01*
X122391137Y-97563181D01*
X122329814Y-97596666D01*
X122303456Y-97599500D01*
X121261345Y-97599500D01*
X121194306Y-97579815D01*
X121148551Y-97527011D01*
X121138607Y-97457853D01*
X121167632Y-97394297D01*
X121173664Y-97387819D01*
X121444664Y-97116819D01*
X121505987Y-97083334D01*
X121532345Y-97080500D01*
X121984676Y-97080500D01*
X121984677Y-97080499D01*
X122057740Y-97065966D01*
X122140601Y-97010601D01*
X122195966Y-96927740D01*
X122210500Y-96854674D01*
X122210500Y-95560517D01*
X122219941Y-95513060D01*
X122221657Y-95508916D01*
X122221659Y-95508912D01*
X122250500Y-95363917D01*
X122250500Y-95216082D01*
X122250500Y-93974500D01*
X122270185Y-93907461D01*
X122322989Y-93861706D01*
X122364560Y-93852662D01*
X122364415Y-93851561D01*
X122372471Y-93850500D01*
X122372475Y-93850500D01*
X122512485Y-93812984D01*
X122638015Y-93740509D01*
X122740509Y-93638015D01*
X122812984Y-93512485D01*
X122850500Y-93372475D01*
X122850500Y-93227525D01*
X122812984Y-93087515D01*
X122800417Y-93065749D01*
X122740511Y-92961988D01*
X122740506Y-92961982D01*
X122638017Y-92859493D01*
X122638011Y-92859488D01*
X122512488Y-92787017D01*
X122512489Y-92787017D01*
X122501006Y-92783940D01*
X122372475Y-92749500D01*
X122372472Y-92749500D01*
X122062230Y-92749500D01*
X121995191Y-92729815D01*
X121983531Y-92720419D01*
X121983126Y-92720914D01*
X121978415Y-92717048D01*
X121855501Y-92634919D01*
X121855488Y-92634912D01*
X121718917Y-92578343D01*
X121718907Y-92578340D01*
X121573920Y-92549500D01*
X121573918Y-92549500D01*
X121426082Y-92549500D01*
X121426080Y-92549500D01*
X121281092Y-92578340D01*
X121281082Y-92578343D01*
X121144511Y-92634912D01*
X121144498Y-92634919D01*
X121021584Y-92717048D01*
X121021580Y-92717051D01*
X120917051Y-92821580D01*
X120917048Y-92821584D01*
X120834919Y-92944498D01*
X120834912Y-92944511D01*
X120778343Y-93081082D01*
X120778340Y-93081092D01*
X120749500Y-93226079D01*
X120749500Y-93656532D01*
X120729815Y-93723571D01*
X120728603Y-93725421D01*
X120724033Y-93732259D01*
X120709500Y-93805323D01*
X120709500Y-96667835D01*
X120689815Y-96734874D01*
X120673181Y-96755516D01*
X116767516Y-100661181D01*
X116706193Y-100694666D01*
X116679835Y-100697500D01*
X103299273Y-100697500D01*
X103197410Y-100724793D01*
X103106087Y-100777520D01*
X103106084Y-100777522D01*
X102679522Y-101204084D01*
X102679520Y-101204087D01*
X102626793Y-101295410D01*
X102599500Y-101397273D01*
X100300500Y-101397273D01*
X100300500Y-99070000D01*
X101279157Y-99070000D01*
X102133012Y-99070000D01*
X102115795Y-99079940D01*
X102059940Y-99135795D01*
X102020444Y-99204204D01*
X102000000Y-99280504D01*
X102000000Y-99359496D01*
X102020444Y-99435796D01*
X102059940Y-99504205D01*
X102115795Y-99560060D01*
X102133012Y-99570000D01*
X101279157Y-99570000D01*
X101290350Y-99626274D01*
X101290351Y-99626276D01*
X101369500Y-99817358D01*
X101369505Y-99817368D01*
X101484410Y-99989335D01*
X101484413Y-99989339D01*
X101630660Y-100135586D01*
X101630664Y-100135589D01*
X101802631Y-100250494D01*
X101802641Y-100250499D01*
X101993725Y-100329649D01*
X101993733Y-100329651D01*
X102196579Y-100369999D01*
X102196583Y-100370000D01*
X102350000Y-100370000D01*
X102350000Y-99620000D01*
X102850000Y-99620000D01*
X102850000Y-100370000D01*
X103003417Y-100370000D01*
X103003420Y-100369999D01*
X103206266Y-100329651D01*
X103206274Y-100329649D01*
X103397358Y-100250499D01*
X103397368Y-100250494D01*
X103569335Y-100135589D01*
X103569339Y-100135586D01*
X103715586Y-99989339D01*
X103715589Y-99989335D01*
X103830494Y-99817368D01*
X103830499Y-99817358D01*
X103909648Y-99626276D01*
X103909649Y-99626274D01*
X103920843Y-99570000D01*
X103066988Y-99570000D01*
X103084205Y-99560060D01*
X103140060Y-99504205D01*
X103179556Y-99435796D01*
X103200000Y-99359496D01*
X103200000Y-99280504D01*
X103179556Y-99204204D01*
X103140060Y-99135795D01*
X103084205Y-99079940D01*
X103066988Y-99070000D01*
X103920843Y-99070000D01*
X105079157Y-99070000D01*
X105933012Y-99070000D01*
X105915795Y-99079940D01*
X105859940Y-99135795D01*
X105820444Y-99204204D01*
X105800000Y-99280504D01*
X105800000Y-99359496D01*
X105820444Y-99435796D01*
X105859940Y-99504205D01*
X105915795Y-99560060D01*
X105933012Y-99570000D01*
X105079157Y-99570000D01*
X105090350Y-99626274D01*
X105090351Y-99626276D01*
X105169500Y-99817358D01*
X105169505Y-99817368D01*
X105284410Y-99989335D01*
X105284413Y-99989339D01*
X105430660Y-100135586D01*
X105430664Y-100135589D01*
X105602631Y-100250494D01*
X105602641Y-100250499D01*
X105793725Y-100329649D01*
X105793733Y-100329651D01*
X105996579Y-100369999D01*
X105996583Y-100370000D01*
X106150000Y-100370000D01*
X106150000Y-99620000D01*
X106650000Y-99620000D01*
X106650000Y-100370000D01*
X106803417Y-100370000D01*
X106803420Y-100369999D01*
X107006266Y-100329651D01*
X107006274Y-100329649D01*
X107197358Y-100250499D01*
X107197368Y-100250494D01*
X107369335Y-100135589D01*
X107369339Y-100135586D01*
X107515586Y-99989339D01*
X107515589Y-99989335D01*
X107630494Y-99817368D01*
X107630499Y-99817358D01*
X107709648Y-99626276D01*
X107709649Y-99626274D01*
X107720843Y-99570000D01*
X106866988Y-99570000D01*
X106884205Y-99560060D01*
X106940060Y-99504205D01*
X106979556Y-99435796D01*
X107000000Y-99359496D01*
X107000000Y-99280504D01*
X106991826Y-99249999D01*
X112695000Y-99249999D01*
X112695000Y-99250000D01*
X112712962Y-99443855D01*
X112766241Y-99631107D01*
X112766246Y-99631120D01*
X112853021Y-99805386D01*
X112970347Y-99960751D01*
X113103413Y-100082056D01*
X113108047Y-100086281D01*
X113114219Y-100091907D01*
X113114221Y-100091909D01*
X113279742Y-100194395D01*
X113279744Y-100194396D01*
X113279746Y-100194397D01*
X113461286Y-100264726D01*
X113652657Y-100300500D01*
X113652659Y-100300500D01*
X116347341Y-100300500D01*
X116347343Y-100300500D01*
X116538714Y-100264726D01*
X116720254Y-100194397D01*
X116885780Y-100091908D01*
X117029654Y-99960749D01*
X117146979Y-99805386D01*
X117233758Y-99631110D01*
X117287037Y-99443856D01*
X117305000Y-99250000D01*
X117300756Y-99204204D01*
X117287037Y-99056144D01*
X117276753Y-99020000D01*
X117233758Y-98868890D01*
X117212152Y-98825500D01*
X117167312Y-98735448D01*
X117146979Y-98694614D01*
X117075390Y-98599815D01*
X117029652Y-98539248D01*
X116885780Y-98408092D01*
X116885778Y-98408090D01*
X116720257Y-98305604D01*
X116720248Y-98305600D01*
X116549354Y-98239396D01*
X116538714Y-98235274D01*
X116347343Y-98199500D01*
X116289562Y-98199500D01*
X113797595Y-98199500D01*
X113750000Y-98199500D01*
X113652657Y-98199500D01*
X113461286Y-98235274D01*
X113461283Y-98235274D01*
X113461283Y-98235275D01*
X113279751Y-98305600D01*
X113279742Y-98305604D01*
X113114221Y-98408090D01*
X113114219Y-98408092D01*
X112970347Y-98539248D01*
X112853021Y-98694613D01*
X112766246Y-98868879D01*
X112766241Y-98868892D01*
X112712962Y-99056144D01*
X112695000Y-99249999D01*
X106991826Y-99249999D01*
X106979556Y-99204204D01*
X106940060Y-99135795D01*
X106884205Y-99079940D01*
X106866988Y-99070000D01*
X107720843Y-99070000D01*
X107709649Y-99013725D01*
X107709648Y-99013723D01*
X107630499Y-98822641D01*
X107630494Y-98822631D01*
X107515589Y-98650664D01*
X107515586Y-98650660D01*
X107430118Y-98565192D01*
X107396633Y-98503869D01*
X107401617Y-98434177D01*
X107430126Y-98389821D01*
X107435075Y-98384872D01*
X107523019Y-98239395D01*
X107562824Y-98111654D01*
X109025001Y-98111654D01*
X109035319Y-98212652D01*
X109089546Y-98376300D01*
X109089551Y-98376311D01*
X109180052Y-98523034D01*
X109180055Y-98523038D01*
X109301961Y-98644944D01*
X109301965Y-98644947D01*
X109448688Y-98735448D01*
X109448699Y-98735453D01*
X109612347Y-98789680D01*
X109713352Y-98799999D01*
X109750000Y-98799999D01*
X110250000Y-98799999D01*
X110286640Y-98799999D01*
X110286654Y-98799998D01*
X110387652Y-98789680D01*
X110551300Y-98735453D01*
X110551311Y-98735448D01*
X110698034Y-98644947D01*
X110698038Y-98644944D01*
X110819944Y-98523038D01*
X110819947Y-98523034D01*
X110910448Y-98376311D01*
X110910453Y-98376300D01*
X110964680Y-98212652D01*
X110974999Y-98111654D01*
X110975000Y-98111641D01*
X110975000Y-98062500D01*
X110250000Y-98062500D01*
X110250000Y-98799999D01*
X109750000Y-98799999D01*
X109750000Y-98062500D01*
X109025001Y-98062500D01*
X109025001Y-98111654D01*
X107562824Y-98111654D01*
X107573590Y-98077106D01*
X107579998Y-98006585D01*
X107580000Y-98006558D01*
X107580000Y-98000000D01*
X106730000Y-98000000D01*
X106730000Y-98656000D01*
X106720552Y-98688173D01*
X106711843Y-98720601D01*
X106710583Y-98722124D01*
X106710315Y-98723039D01*
X106708596Y-98724527D01*
X106689355Y-98747804D01*
X106650000Y-98783537D01*
X106650000Y-99020000D01*
X106150000Y-99020000D01*
X106150000Y-98264000D01*
X106169685Y-98196961D01*
X106194809Y-98175190D01*
X106230000Y-98140000D01*
X106230000Y-98000000D01*
X105380001Y-98000000D01*
X105380001Y-98006582D01*
X105386408Y-98077102D01*
X105386409Y-98077107D01*
X105436981Y-98239396D01*
X105487969Y-98323741D01*
X105505805Y-98391296D01*
X105484287Y-98457769D01*
X105450746Y-98490991D01*
X105430665Y-98504409D01*
X105430660Y-98504413D01*
X105284413Y-98650660D01*
X105284410Y-98650664D01*
X105169505Y-98822631D01*
X105169500Y-98822641D01*
X105090351Y-99013723D01*
X105090350Y-99013725D01*
X105079157Y-99070000D01*
X103920843Y-99070000D01*
X103909649Y-99013725D01*
X103909648Y-99013723D01*
X103830499Y-98822641D01*
X103830494Y-98822631D01*
X103715589Y-98650664D01*
X103715586Y-98650660D01*
X103569339Y-98504413D01*
X103569335Y-98504410D01*
X103397368Y-98389505D01*
X103397358Y-98389500D01*
X103206274Y-98310350D01*
X103206266Y-98310348D01*
X103003420Y-98270000D01*
X102850000Y-98270000D01*
X102850000Y-99020000D01*
X102350000Y-99020000D01*
X102350000Y-98270000D01*
X102196579Y-98270000D01*
X101993733Y-98310348D01*
X101993725Y-98310350D01*
X101802641Y-98389500D01*
X101802631Y-98389505D01*
X101630664Y-98504410D01*
X101630660Y-98504413D01*
X101484413Y-98650660D01*
X101484410Y-98650664D01*
X101369505Y-98822631D01*
X101369500Y-98822641D01*
X101290351Y-99013723D01*
X101290350Y-99013725D01*
X101279157Y-99070000D01*
X100300500Y-99070000D01*
X100300500Y-97477525D01*
X104049500Y-97477525D01*
X104049500Y-97622475D01*
X104060221Y-97662485D01*
X104087017Y-97762488D01*
X104159488Y-97888011D01*
X104159490Y-97888013D01*
X104159491Y-97888015D01*
X104261985Y-97990509D01*
X104261986Y-97990510D01*
X104261988Y-97990511D01*
X104387511Y-98062982D01*
X104387512Y-98062982D01*
X104387515Y-98062984D01*
X104527525Y-98100500D01*
X104527528Y-98100500D01*
X104672472Y-98100500D01*
X104672475Y-98100500D01*
X104812485Y-98062984D01*
X104938015Y-97990509D01*
X105040509Y-97888015D01*
X105112984Y-97762485D01*
X105150500Y-97622475D01*
X105150500Y-97477525D01*
X105112984Y-97337515D01*
X105068576Y-97260599D01*
X105040511Y-97211988D01*
X105040506Y-97211982D01*
X105036819Y-97208295D01*
X105003334Y-97146972D01*
X105000500Y-97120614D01*
X105000500Y-96817255D01*
X105009143Y-96787818D01*
X105015662Y-96757839D01*
X105019421Y-96752815D01*
X105020185Y-96750216D01*
X105036810Y-96729583D01*
X105038212Y-96728180D01*
X105041600Y-96724792D01*
X105102918Y-96691302D01*
X105172610Y-96696279D01*
X105216970Y-96724784D01*
X105412686Y-96920500D01*
X105456533Y-96945815D01*
X105473529Y-96955628D01*
X105521745Y-97006195D01*
X105534967Y-97074802D01*
X105517646Y-97127164D01*
X105436982Y-97260599D01*
X105436980Y-97260603D01*
X105387184Y-97420407D01*
X105393412Y-97500000D01*
X107579999Y-97500000D01*
X107579999Y-97493417D01*
X107573591Y-97422897D01*
X107573590Y-97422892D01*
X107523018Y-97260603D01*
X107435072Y-97115122D01*
X107327088Y-97007138D01*
X107293603Y-96945815D01*
X107297728Y-96878501D01*
X107306065Y-96854676D01*
X107327710Y-96792819D01*
X107330500Y-96763066D01*
X107330500Y-96276934D01*
X107327710Y-96247181D01*
X107327708Y-96247177D01*
X107327708Y-96247173D01*
X107283852Y-96121844D01*
X107283852Y-96121843D01*
X107251600Y-96078143D01*
X107244915Y-96059841D01*
X107233777Y-96043851D01*
X107233175Y-96027698D01*
X107227630Y-96012516D01*
X107231901Y-95993503D01*
X107231176Y-95974030D01*
X107240970Y-95953135D01*
X107242945Y-95944346D01*
X107244632Y-95941402D01*
X107250831Y-95930916D01*
X107253528Y-95928220D01*
X107260399Y-95914734D01*
X107262376Y-95911391D01*
X107285180Y-95890093D01*
X107306604Y-95867410D01*
X107310638Y-95866318D01*
X107313440Y-95863702D01*
X107334444Y-95859878D01*
X107369115Y-95850500D01*
X109150500Y-95850500D01*
X109217539Y-95870185D01*
X109263294Y-95922989D01*
X109274500Y-95974500D01*
X109274500Y-96284190D01*
X109280748Y-96342299D01*
X109319208Y-96445412D01*
X109329788Y-96473778D01*
X109413884Y-96586116D01*
X109444461Y-96609005D01*
X109515455Y-96662153D01*
X109557326Y-96718087D01*
X109562310Y-96787778D01*
X109528824Y-96849101D01*
X109480150Y-96879124D01*
X109448703Y-96889545D01*
X109448688Y-96889551D01*
X109301965Y-96980052D01*
X109301961Y-96980055D01*
X109180055Y-97101961D01*
X109180052Y-97101965D01*
X109089551Y-97248688D01*
X109089546Y-97248699D01*
X109035319Y-97412347D01*
X109025000Y-97513345D01*
X109025000Y-97562500D01*
X110974999Y-97562500D01*
X110974999Y-97513360D01*
X110974998Y-97513345D01*
X110964680Y-97412347D01*
X110910453Y-97248699D01*
X110910448Y-97248688D01*
X110819947Y-97101965D01*
X110819944Y-97101961D01*
X110698038Y-96980055D01*
X110698034Y-96980052D01*
X110551311Y-96889551D01*
X110551302Y-96889547D01*
X110519850Y-96879125D01*
X110462406Y-96839352D01*
X110435583Y-96774836D01*
X110447898Y-96706060D01*
X110484542Y-96662153D01*
X110586116Y-96586116D01*
X110670212Y-96473778D01*
X110719251Y-96342299D01*
X110725499Y-96284190D01*
X110725500Y-96284173D01*
X110725500Y-95690826D01*
X110725499Y-95690809D01*
X110719251Y-95632700D01*
X110692328Y-95560517D01*
X110670212Y-95501222D01*
X110586116Y-95388884D01*
X110518612Y-95338351D01*
X110473780Y-95304789D01*
X110473778Y-95304788D01*
X110447144Y-95294854D01*
X110342299Y-95255748D01*
X110284190Y-95249500D01*
X110284174Y-95249500D01*
X109808862Y-95249500D01*
X109789474Y-95243807D01*
X109769279Y-95243013D01*
X109747825Y-95231577D01*
X109741823Y-95229815D01*
X109739509Y-95227144D01*
X109733375Y-95223875D01*
X109727712Y-95219529D01*
X109647790Y-95173387D01*
X109647789Y-95173386D01*
X109647788Y-95173386D01*
X109558644Y-95149500D01*
X109558643Y-95149500D01*
X107369115Y-95149500D01*
X107357149Y-95145986D01*
X107344726Y-95147078D01*
X107324256Y-95136327D01*
X107302076Y-95129815D01*
X107292414Y-95119605D01*
X107282868Y-95114592D01*
X107265750Y-95091428D01*
X107261261Y-95086685D01*
X107259900Y-95084286D01*
X107253528Y-95071780D01*
X107251858Y-95070110D01*
X107246795Y-95061185D01*
X107240343Y-95033682D01*
X107230851Y-95007076D01*
X107232469Y-95000116D01*
X107230838Y-94993162D01*
X107240278Y-94966537D01*
X107246678Y-94939023D01*
X107253173Y-94928914D01*
X107253525Y-94928222D01*
X107253528Y-94928220D01*
X107258630Y-94918205D01*
X107306604Y-94867410D01*
X107369115Y-94850500D01*
X109558642Y-94850500D01*
X109558644Y-94850500D01*
X109647788Y-94826614D01*
X109664412Y-94817016D01*
X109727712Y-94780470D01*
X109733375Y-94776125D01*
X109798544Y-94750930D01*
X109808862Y-94750500D01*
X110284174Y-94750500D01*
X110284190Y-94750499D01*
X110342299Y-94744251D01*
X110473778Y-94695212D01*
X110586116Y-94611116D01*
X110670212Y-94498778D01*
X110719251Y-94367299D01*
X110725499Y-94309190D01*
X110725500Y-94309173D01*
X110725500Y-93715826D01*
X110725499Y-93715809D01*
X110719251Y-93657700D01*
X110697543Y-93599500D01*
X110670212Y-93526222D01*
X110586116Y-93413884D01*
X110530797Y-93372472D01*
X110484543Y-93337846D01*
X110442673Y-93281912D01*
X110437689Y-93212221D01*
X110471175Y-93150898D01*
X110519853Y-93120873D01*
X110551303Y-93110451D01*
X110551311Y-93110448D01*
X110698034Y-93019947D01*
X110698038Y-93019944D01*
X110819944Y-92898038D01*
X110819947Y-92898034D01*
X110910448Y-92751311D01*
X110910453Y-92751300D01*
X110964680Y-92587652D01*
X110974999Y-92486654D01*
X110975000Y-92486641D01*
X110975000Y-92437500D01*
X110124000Y-92437500D01*
X110056961Y-92417815D01*
X110011206Y-92365011D01*
X110000000Y-92313500D01*
X110000000Y-92187500D01*
X109874000Y-92187500D01*
X109806961Y-92167815D01*
X109761206Y-92115011D01*
X109750000Y-92063500D01*
X109750000Y-91937500D01*
X110250000Y-91937500D01*
X110974999Y-91937500D01*
X110974999Y-91888360D01*
X110974998Y-91888345D01*
X110964680Y-91787347D01*
X110910453Y-91623699D01*
X110910448Y-91623688D01*
X110819947Y-91476965D01*
X110819944Y-91476961D01*
X110698038Y-91355055D01*
X110698034Y-91355052D01*
X110551311Y-91264551D01*
X110551300Y-91264546D01*
X110387652Y-91210319D01*
X110286654Y-91200000D01*
X110250000Y-91200000D01*
X110250000Y-91937500D01*
X109750000Y-91937500D01*
X109750000Y-91200000D01*
X109713361Y-91200000D01*
X109713343Y-91200001D01*
X109612347Y-91210319D01*
X109448699Y-91264546D01*
X109448688Y-91264551D01*
X109301965Y-91355052D01*
X109301961Y-91355055D01*
X109180053Y-91476963D01*
X109180035Y-91476994D01*
X109180016Y-91477010D01*
X109175574Y-91482629D01*
X109174613Y-91481869D01*
X109128085Y-91523715D01*
X109059122Y-91534934D01*
X108995041Y-91507087D01*
X108956188Y-91449016D01*
X108950500Y-91411891D01*
X108950500Y-90188108D01*
X108970185Y-90121069D01*
X109022989Y-90075314D01*
X109092147Y-90065370D01*
X109155703Y-90094395D01*
X109175375Y-90117527D01*
X109175574Y-90117371D01*
X109179973Y-90122934D01*
X109180040Y-90123013D01*
X109180056Y-90123039D01*
X109301961Y-90244944D01*
X109301965Y-90244947D01*
X109448688Y-90335448D01*
X109448699Y-90335453D01*
X109612347Y-90389680D01*
X109713352Y-90399999D01*
X109750000Y-90399999D01*
X110250000Y-90399999D01*
X110286640Y-90399999D01*
X110286654Y-90399998D01*
X110387652Y-90389680D01*
X110551300Y-90335453D01*
X110551311Y-90335448D01*
X110698034Y-90244947D01*
X110698038Y-90244944D01*
X110819944Y-90123038D01*
X110819947Y-90123034D01*
X110910448Y-89976311D01*
X110910453Y-89976300D01*
X110964680Y-89812652D01*
X110974999Y-89711654D01*
X110975000Y-89711641D01*
X110975000Y-89612500D01*
X110250000Y-89612500D01*
X110250000Y-90399999D01*
X109750000Y-90399999D01*
X109750000Y-89486500D01*
X109769685Y-89419461D01*
X109822489Y-89373706D01*
X109874000Y-89362500D01*
X110000000Y-89362500D01*
X110000000Y-89254996D01*
X111419500Y-89254996D01*
X111419500Y-89645007D01*
X111434817Y-89741713D01*
X111434817Y-89741714D01*
X111454362Y-89780073D01*
X111494211Y-89858281D01*
X111494213Y-89858283D01*
X111494215Y-89858286D01*
X111586713Y-89950784D01*
X111586716Y-89950786D01*
X111586719Y-89950789D01*
X111703285Y-90010182D01*
X111703286Y-90010182D01*
X111703288Y-90010183D01*
X111703287Y-90010183D01*
X111746618Y-90017045D01*
X111799997Y-90025500D01*
X112413000Y-90025499D01*
X112480039Y-90045183D01*
X112525794Y-90097987D01*
X112537000Y-90149499D01*
X112537000Y-90693050D01*
X112517315Y-90760089D01*
X112464511Y-90805844D01*
X112456335Y-90809231D01*
X112401221Y-90829788D01*
X112288884Y-90913884D01*
X112204789Y-91026219D01*
X112155748Y-91157700D01*
X112149500Y-91215809D01*
X112149500Y-91784190D01*
X112155748Y-91842299D01*
X112204789Y-91973780D01*
X112219497Y-91993427D01*
X112288884Y-92086116D01*
X112401222Y-92170212D01*
X112475816Y-92198034D01*
X112532700Y-92219251D01*
X112590809Y-92225499D01*
X112590826Y-92225500D01*
X113184174Y-92225500D01*
X113184190Y-92225499D01*
X113242299Y-92219251D01*
X113373778Y-92170212D01*
X113486116Y-92086116D01*
X113562153Y-91984542D01*
X113618086Y-91942673D01*
X113687778Y-91937689D01*
X113749101Y-91971174D01*
X113779125Y-92019850D01*
X113789547Y-92051302D01*
X113789551Y-92051311D01*
X113880052Y-92198034D01*
X113880055Y-92198038D01*
X114001961Y-92319944D01*
X114001965Y-92319947D01*
X114148688Y-92410448D01*
X114148699Y-92410453D01*
X114312347Y-92464680D01*
X114413351Y-92474999D01*
X114962500Y-92474999D01*
X115011640Y-92474999D01*
X115011654Y-92474998D01*
X115112652Y-92464680D01*
X115276300Y-92410453D01*
X115276311Y-92410448D01*
X115423034Y-92319947D01*
X115423038Y-92319944D01*
X115544944Y-92198038D01*
X115544947Y-92198034D01*
X115635448Y-92051311D01*
X115635453Y-92051300D01*
X115689680Y-91887652D01*
X115699999Y-91786654D01*
X118300001Y-91786654D01*
X118310319Y-91887652D01*
X118364546Y-92051300D01*
X118364551Y-92051311D01*
X118455052Y-92198034D01*
X118455055Y-92198038D01*
X118576961Y-92319944D01*
X118576965Y-92319947D01*
X118723688Y-92410448D01*
X118723699Y-92410453D01*
X118887347Y-92464680D01*
X118988351Y-92474999D01*
X119037499Y-92474998D01*
X119037500Y-92474998D01*
X119037500Y-91750000D01*
X118300001Y-91750000D01*
X118300001Y-91786654D01*
X115699999Y-91786654D01*
X115700000Y-91786641D01*
X115700000Y-91750000D01*
X114962500Y-91750000D01*
X114962500Y-92474999D01*
X114413351Y-92474999D01*
X114462499Y-92474998D01*
X114462500Y-92474998D01*
X114462500Y-91250000D01*
X114962500Y-91250000D01*
X115699999Y-91250000D01*
X115699999Y-91213361D01*
X115699998Y-91213345D01*
X118300000Y-91213345D01*
X118300000Y-91250000D01*
X119037500Y-91250000D01*
X119037500Y-90525000D01*
X119019316Y-90506816D01*
X119014198Y-90505314D01*
X118968443Y-90452510D01*
X118958499Y-90383352D01*
X118987524Y-90319796D01*
X119016140Y-90295461D01*
X119098034Y-90244947D01*
X119098038Y-90244944D01*
X119219944Y-90123038D01*
X119219947Y-90123034D01*
X119310448Y-89976311D01*
X119310453Y-89976300D01*
X119364680Y-89812652D01*
X119374999Y-89711654D01*
X119375000Y-89711641D01*
X119375000Y-89612500D01*
X118650000Y-89612500D01*
X118650000Y-90399999D01*
X118684460Y-90434459D01*
X118717945Y-90495782D01*
X118712961Y-90565474D01*
X118671089Y-90621407D01*
X118661877Y-90627678D01*
X118576962Y-90680054D01*
X118455055Y-90801961D01*
X118455052Y-90801965D01*
X118364551Y-90948688D01*
X118364546Y-90948699D01*
X118310319Y-91112347D01*
X118300000Y-91213345D01*
X115699998Y-91213345D01*
X115699998Y-91213344D01*
X115689680Y-91112347D01*
X115635453Y-90948699D01*
X115635448Y-90948688D01*
X115544947Y-90801965D01*
X115544944Y-90801961D01*
X115423038Y-90680055D01*
X115423034Y-90680052D01*
X115276311Y-90589551D01*
X115276300Y-90589546D01*
X115112652Y-90535319D01*
X115011654Y-90525000D01*
X114962500Y-90525000D01*
X114962500Y-91250000D01*
X114462500Y-91250000D01*
X114462500Y-90524999D01*
X114445692Y-90508191D01*
X114426825Y-90473638D01*
X114412208Y-90446869D01*
X114417192Y-90377177D01*
X114445689Y-90332834D01*
X114540509Y-90238015D01*
X114612984Y-90112485D01*
X114612985Y-90112479D01*
X114616096Y-90104973D01*
X114618608Y-90106013D01*
X114648036Y-90057740D01*
X114710885Y-90027215D01*
X114731441Y-90025499D01*
X115800007Y-90025499D01*
X115800007Y-90025498D01*
X115896715Y-90010182D01*
X116013281Y-89950789D01*
X116105789Y-89858281D01*
X116165182Y-89741715D01*
X116166596Y-89732792D01*
X116169944Y-89711654D01*
X117425001Y-89711654D01*
X117435319Y-89812652D01*
X117489546Y-89976300D01*
X117489551Y-89976311D01*
X117580052Y-90123034D01*
X117580055Y-90123038D01*
X117701961Y-90244944D01*
X117701965Y-90244947D01*
X117848688Y-90335448D01*
X117848699Y-90335453D01*
X118012347Y-90389680D01*
X118113352Y-90399999D01*
X118150000Y-90399999D01*
X118150000Y-89612500D01*
X117425001Y-89612500D01*
X117425001Y-89711654D01*
X116169944Y-89711654D01*
X116180500Y-89645003D01*
X116180500Y-89561138D01*
X116180499Y-89254997D01*
X116180117Y-89250147D01*
X116182076Y-89249992D01*
X116189939Y-89188951D01*
X116215797Y-89151118D01*
X116292837Y-89074078D01*
X116376072Y-88936392D01*
X116423932Y-88782802D01*
X116423935Y-88782792D01*
X116426914Y-88750000D01*
X113873085Y-88750000D01*
X113876064Y-88782792D01*
X113876067Y-88782802D01*
X113923927Y-88936392D01*
X114007163Y-89074080D01*
X114076814Y-89143731D01*
X114110299Y-89205054D01*
X114105315Y-89274746D01*
X114063443Y-89330679D01*
X114021228Y-89351186D01*
X113887516Y-89387015D01*
X113887511Y-89387017D01*
X113761988Y-89459488D01*
X113692180Y-89529296D01*
X113630856Y-89562780D01*
X113561165Y-89557795D01*
X113505231Y-89515924D01*
X113480815Y-89450459D01*
X113480499Y-89441614D01*
X113480499Y-89254992D01*
X113465182Y-89158286D01*
X113465182Y-89158285D01*
X113447563Y-89123706D01*
X113405789Y-89041719D01*
X113405785Y-89041715D01*
X113405784Y-89041713D01*
X113313286Y-88949215D01*
X113313282Y-88949212D01*
X113313281Y-88949211D01*
X113196715Y-88889818D01*
X113196714Y-88889817D01*
X113196711Y-88889816D01*
X113196712Y-88889816D01*
X113100003Y-88874500D01*
X111799992Y-88874500D01*
X111799992Y-88874501D01*
X111703286Y-88889817D01*
X111703285Y-88889817D01*
X111625077Y-88929666D01*
X111586719Y-88949211D01*
X111586718Y-88949212D01*
X111586713Y-88949215D01*
X111494215Y-89041713D01*
X111494210Y-89041720D01*
X111434816Y-89158288D01*
X111419500Y-89254996D01*
X110000000Y-89254996D01*
X110000000Y-89236500D01*
X110019685Y-89169461D01*
X110072489Y-89123706D01*
X110124000Y-89112500D01*
X110974999Y-89112500D01*
X110974999Y-89013360D01*
X110974998Y-89013345D01*
X110964680Y-88912347D01*
X110910453Y-88748699D01*
X110910448Y-88748688D01*
X110819947Y-88601965D01*
X110819944Y-88601961D01*
X110698037Y-88480054D01*
X110637630Y-88442794D01*
X110627864Y-88431935D01*
X110615045Y-88424936D01*
X110604966Y-88406477D01*
X110590906Y-88390845D01*
X110588560Y-88376431D01*
X110581561Y-88363612D01*
X110583061Y-88342635D01*
X110579685Y-88321883D01*
X110585594Y-88307234D01*
X110586547Y-88293921D01*
X110603460Y-88262946D01*
X110613152Y-88249999D01*
X113873085Y-88249999D01*
X113873085Y-88250000D01*
X116426914Y-88250000D01*
X116462256Y-88211300D01*
X116521999Y-88175071D01*
X116591845Y-88176893D01*
X116601267Y-88180356D01*
X116710256Y-88225501D01*
X116710260Y-88225501D01*
X116710261Y-88225502D01*
X116835928Y-88250500D01*
X116835931Y-88250500D01*
X116964071Y-88250500D01*
X117049265Y-88233553D01*
X117089744Y-88225501D01*
X117208127Y-88176465D01*
X117314669Y-88105276D01*
X117383127Y-88036817D01*
X117410058Y-88022111D01*
X117435872Y-88005523D01*
X117442071Y-88004631D01*
X117444448Y-88003334D01*
X117470807Y-88000500D01*
X117579064Y-88000500D01*
X117646103Y-88020185D01*
X117691858Y-88072989D01*
X117695242Y-88081156D01*
X117729788Y-88173778D01*
X117729789Y-88173779D01*
X117729790Y-88173782D01*
X117796538Y-88262945D01*
X117820956Y-88328409D01*
X117806105Y-88396682D01*
X117762370Y-88442794D01*
X117701962Y-88480054D01*
X117580055Y-88601961D01*
X117580052Y-88601965D01*
X117489551Y-88748688D01*
X117489546Y-88748699D01*
X117435319Y-88912347D01*
X117425000Y-89013345D01*
X117425000Y-89112500D01*
X119374999Y-89112500D01*
X119374999Y-89013360D01*
X119374998Y-89013345D01*
X119364680Y-88912347D01*
X119310453Y-88748699D01*
X119310448Y-88748688D01*
X119219947Y-88601965D01*
X119219944Y-88601961D01*
X119098037Y-88480054D01*
X119037630Y-88442794D01*
X119027864Y-88431936D01*
X119015046Y-88424937D01*
X119004967Y-88406479D01*
X118990906Y-88390845D01*
X118988560Y-88376430D01*
X118981562Y-88363613D01*
X118983062Y-88342637D01*
X118979685Y-88321883D01*
X118985593Y-88307235D01*
X118986546Y-88293922D01*
X119003458Y-88262948D01*
X119056102Y-88192625D01*
X119107914Y-88152377D01*
X119112477Y-88150486D01*
X119112485Y-88150484D01*
X119134108Y-88138000D01*
X119155761Y-88125499D01*
X119170288Y-88117112D01*
X119232287Y-88100500D01*
X120154513Y-88100500D01*
X120193158Y-88109775D01*
X120194006Y-88107167D01*
X120203288Y-88110183D01*
X120240432Y-88116065D01*
X120299997Y-88125500D01*
X121600002Y-88125499D01*
X121600007Y-88125499D01*
X121600007Y-88125498D01*
X121696715Y-88110182D01*
X121813281Y-88050789D01*
X121905789Y-87958281D01*
X121965182Y-87841715D01*
X121965503Y-87839693D01*
X121972608Y-87794828D01*
X121980500Y-87745003D01*
X121980499Y-87354998D01*
X121980499Y-87354996D01*
X121980499Y-87354992D01*
X121965182Y-87258286D01*
X121965182Y-87258285D01*
X121933951Y-87196991D01*
X121905789Y-87141719D01*
X121905785Y-87141715D01*
X121905784Y-87141713D01*
X121813286Y-87049215D01*
X121813282Y-87049212D01*
X121813281Y-87049211D01*
X121696715Y-86989818D01*
X121696714Y-86989817D01*
X121696711Y-86989816D01*
X121696712Y-86989816D01*
X121600003Y-86974500D01*
X120299992Y-86974500D01*
X120299992Y-86974501D01*
X120203289Y-86989816D01*
X120194007Y-86992833D01*
X120193159Y-86990224D01*
X120154514Y-86999500D01*
X119041569Y-86999500D01*
X118974530Y-86979815D01*
X118967258Y-86974767D01*
X118873780Y-86904789D01*
X118873778Y-86904788D01*
X118841720Y-86892831D01*
X118742299Y-86855748D01*
X118684190Y-86849500D01*
X118684174Y-86849500D01*
X118115826Y-86849500D01*
X118115809Y-86849500D01*
X118057700Y-86855748D01*
X117926219Y-86904789D01*
X117832742Y-86974767D01*
X117767278Y-86999184D01*
X117758431Y-86999500D01*
X117174767Y-86999500D01*
X117127315Y-86990061D01*
X117089748Y-86974500D01*
X117089738Y-86974497D01*
X116964071Y-86949500D01*
X116964069Y-86949500D01*
X116835931Y-86949500D01*
X116835929Y-86949500D01*
X116710261Y-86974497D01*
X116710251Y-86974500D01*
X116672685Y-86990061D01*
X116625233Y-86999500D01*
X115945487Y-86999500D01*
X115906841Y-86990224D01*
X115905994Y-86992833D01*
X115896711Y-86989816D01*
X115800003Y-86974500D01*
X114499992Y-86974500D01*
X114499992Y-86974501D01*
X114403286Y-86989817D01*
X114403285Y-86989817D01*
X114325077Y-87029666D01*
X114286719Y-87049211D01*
X114286718Y-87049212D01*
X114286713Y-87049215D01*
X114194215Y-87141713D01*
X114194210Y-87141720D01*
X114134816Y-87258288D01*
X114119500Y-87354996D01*
X114119500Y-87745007D01*
X114119883Y-87749864D01*
X114117939Y-87750016D01*
X114110024Y-87811128D01*
X114084202Y-87848881D01*
X114007162Y-87925921D01*
X113923927Y-88063607D01*
X113876067Y-88217197D01*
X113876064Y-88217207D01*
X113873085Y-88249999D01*
X110613152Y-88249999D01*
X110631493Y-88225500D01*
X110636413Y-88218928D01*
X110646618Y-88205295D01*
X110670212Y-88173778D01*
X110670215Y-88173769D01*
X110674463Y-88165993D01*
X110677545Y-88167676D01*
X110709374Y-88125199D01*
X110774850Y-88100812D01*
X110783639Y-88100500D01*
X111654513Y-88100500D01*
X111693158Y-88109775D01*
X111694006Y-88107167D01*
X111703288Y-88110183D01*
X111740432Y-88116065D01*
X111799997Y-88125500D01*
X113100002Y-88125499D01*
X113100007Y-88125499D01*
X113100007Y-88125498D01*
X113196715Y-88110182D01*
X113313281Y-88050789D01*
X113405789Y-87958281D01*
X113465182Y-87841715D01*
X113465503Y-87839693D01*
X113472608Y-87794828D01*
X113480500Y-87745003D01*
X113480499Y-87354998D01*
X113480499Y-87354996D01*
X113480499Y-87354992D01*
X113465182Y-87258286D01*
X113465182Y-87258285D01*
X113433951Y-87196991D01*
X113405789Y-87141719D01*
X113405785Y-87141715D01*
X113405784Y-87141713D01*
X113313286Y-87049215D01*
X113313282Y-87049212D01*
X113313281Y-87049211D01*
X113196715Y-86989818D01*
X113196714Y-86989817D01*
X113196711Y-86989816D01*
X113196712Y-86989816D01*
X113100003Y-86974500D01*
X112174500Y-86974500D01*
X112107461Y-86954815D01*
X112061706Y-86902011D01*
X112050500Y-86850500D01*
X112050500Y-82196543D01*
X112070185Y-82129504D01*
X112086815Y-82108866D01*
X112311545Y-81884135D01*
X112372866Y-81850652D01*
X112442557Y-81855636D01*
X112481761Y-81880831D01*
X112481785Y-81880801D01*
X112482214Y-81881122D01*
X112486905Y-81884137D01*
X112488881Y-81886113D01*
X112488882Y-81886114D01*
X112488884Y-81886116D01*
X112601222Y-81970212D01*
X112693594Y-82004665D01*
X112732700Y-82019251D01*
X112790809Y-82025499D01*
X112790826Y-82025500D01*
X113384174Y-82025500D01*
X113384190Y-82025499D01*
X113442299Y-82019251D01*
X113573778Y-81970212D01*
X113686116Y-81886116D01*
X113770212Y-81773778D01*
X113819251Y-81642299D01*
X113823296Y-81604676D01*
X113825499Y-81584190D01*
X113825500Y-81584173D01*
X113825500Y-81015826D01*
X113825499Y-81015809D01*
X113819251Y-80957700D01*
X113802260Y-80912147D01*
X113770212Y-80826222D01*
X113686116Y-80713884D01*
X113615710Y-80661178D01*
X113573780Y-80629789D01*
X113573778Y-80629788D01*
X113541688Y-80617819D01*
X113442299Y-80580748D01*
X113384190Y-80574500D01*
X113384174Y-80574500D01*
X112845544Y-80574500D01*
X112824298Y-80568261D01*
X112802210Y-80566682D01*
X112791426Y-80558609D01*
X112778505Y-80554815D01*
X112764005Y-80538081D01*
X112746277Y-80524810D01*
X112741569Y-80512189D01*
X112732750Y-80502011D01*
X112729598Y-80480093D01*
X112721860Y-80459346D01*
X112724722Y-80446185D01*
X112722806Y-80432853D01*
X112732005Y-80412709D01*
X112736712Y-80391073D01*
X112749980Y-80373347D01*
X112751831Y-80369297D01*
X112757863Y-80362819D01*
X112858863Y-80261819D01*
X112920186Y-80228334D01*
X112946544Y-80225500D01*
X113459174Y-80225500D01*
X113459190Y-80225499D01*
X113517299Y-80219251D01*
X113518666Y-80218741D01*
X113648778Y-80170212D01*
X113761116Y-80086116D01*
X113845212Y-79973778D01*
X113883818Y-79870268D01*
X113925690Y-79814337D01*
X113991154Y-79789920D01*
X114059427Y-79804772D01*
X114108832Y-79854177D01*
X114116179Y-79870265D01*
X114154788Y-79973778D01*
X114154789Y-79973780D01*
X114188351Y-80018612D01*
X114238884Y-80086116D01*
X114351222Y-80170212D01*
X114481334Y-80218741D01*
X114499060Y-80232011D01*
X114519203Y-80241210D01*
X114526485Y-80252541D01*
X114537267Y-80260613D01*
X114545004Y-80281358D01*
X114556977Y-80299988D01*
X114560128Y-80321906D01*
X114561684Y-80326077D01*
X114562000Y-80334923D01*
X114562000Y-80493050D01*
X114542315Y-80560089D01*
X114489511Y-80605844D01*
X114481335Y-80609231D01*
X114426221Y-80629788D01*
X114313884Y-80713884D01*
X114229789Y-80826219D01*
X114180748Y-80957700D01*
X114174500Y-81015809D01*
X114174500Y-81584190D01*
X114180748Y-81642299D01*
X114229789Y-81773780D01*
X114249513Y-81800127D01*
X114313884Y-81886116D01*
X114426222Y-81970212D01*
X114518594Y-82004665D01*
X114557700Y-82019251D01*
X114615809Y-82025499D01*
X114615826Y-82025500D01*
X115209174Y-82025500D01*
X115209190Y-82025499D01*
X115267299Y-82019251D01*
X115398778Y-81970212D01*
X115511116Y-81886116D01*
X115595212Y-81773778D01*
X115644251Y-81642299D01*
X115648296Y-81604676D01*
X115650499Y-81584190D01*
X115650500Y-81584173D01*
X115650500Y-81015826D01*
X115650499Y-81015809D01*
X115644251Y-80957700D01*
X115627260Y-80912147D01*
X115595212Y-80826222D01*
X115593207Y-80823544D01*
X115593207Y-80823542D01*
X115542136Y-80755321D01*
X119599500Y-80755321D01*
X119599500Y-81604678D01*
X119614032Y-81677735D01*
X119614033Y-81677739D01*
X119620565Y-81687515D01*
X119669399Y-81760601D01*
X119719520Y-81794090D01*
X119752260Y-81815966D01*
X119752264Y-81815967D01*
X119825321Y-81830499D01*
X119825324Y-81830500D01*
X120776000Y-81830500D01*
X120843039Y-81850185D01*
X120888794Y-81902989D01*
X120900000Y-81954500D01*
X120900000Y-82627844D01*
X120906401Y-82687372D01*
X120906403Y-82687379D01*
X120956645Y-82822086D01*
X120956649Y-82822093D01*
X121042809Y-82937187D01*
X121042812Y-82937190D01*
X121157906Y-83023350D01*
X121157913Y-83023354D01*
X121292620Y-83073596D01*
X121292627Y-83073598D01*
X121352155Y-83079999D01*
X121352172Y-83080000D01*
X121500000Y-83080000D01*
X121500000Y-80580000D01*
X121352155Y-80580000D01*
X121292627Y-80586401D01*
X121292619Y-80586403D01*
X121166979Y-80633264D01*
X121097287Y-80638248D01*
X121035965Y-80604763D01*
X121030603Y-80599401D01*
X121030601Y-80599400D01*
X121030601Y-80599399D01*
X120971768Y-80560089D01*
X120947739Y-80544033D01*
X120947735Y-80544032D01*
X120874677Y-80529500D01*
X120874674Y-80529500D01*
X119825326Y-80529500D01*
X119825323Y-80529500D01*
X119752264Y-80544032D01*
X119752260Y-80544033D01*
X119669399Y-80599399D01*
X119614033Y-80682260D01*
X119614032Y-80682264D01*
X119599500Y-80755321D01*
X115542136Y-80755321D01*
X115511117Y-80713886D01*
X115511118Y-80713886D01*
X115511116Y-80713884D01*
X115398778Y-80629788D01*
X115394311Y-80628122D01*
X115343665Y-80609231D01*
X115325940Y-80595962D01*
X115305797Y-80586763D01*
X115298514Y-80575430D01*
X115287732Y-80567359D01*
X115279994Y-80546613D01*
X115268023Y-80527985D01*
X115264871Y-80506063D01*
X115263316Y-80501894D01*
X115263000Y-80493050D01*
X115263000Y-80306948D01*
X115282685Y-80239909D01*
X115335489Y-80194154D01*
X115343645Y-80190775D01*
X115398778Y-80170212D01*
X115440479Y-80138995D01*
X121799499Y-80138995D01*
X121826418Y-80274322D01*
X121826421Y-80274332D01*
X121879221Y-80401804D01*
X121879228Y-80401817D01*
X121931531Y-80480093D01*
X121955886Y-80516542D01*
X121963679Y-80524335D01*
X121997165Y-80585655D01*
X122000000Y-80612018D01*
X122000000Y-83080000D01*
X122147828Y-83080000D01*
X122147844Y-83079999D01*
X122207372Y-83073598D01*
X122207379Y-83073596D01*
X122342086Y-83023354D01*
X122342093Y-83023350D01*
X122457187Y-82937190D01*
X122457190Y-82937187D01*
X122543350Y-82822093D01*
X122547604Y-82814304D01*
X122549646Y-82815419D01*
X122583920Y-82769620D01*
X122649380Y-82745191D01*
X122717655Y-82760032D01*
X122727132Y-82765768D01*
X122799773Y-82814304D01*
X122802260Y-82815966D01*
X122802264Y-82815967D01*
X122875321Y-82830499D01*
X122875324Y-82830500D01*
X122875326Y-82830500D01*
X123624676Y-82830500D01*
X123624677Y-82830499D01*
X123697740Y-82815966D01*
X123780601Y-82760601D01*
X123835966Y-82677740D01*
X123850500Y-82604674D01*
X123850500Y-82537870D01*
X123870185Y-82470831D01*
X123922989Y-82425076D01*
X123992147Y-82415132D01*
X124006573Y-82418090D01*
X124127525Y-82450500D01*
X124127528Y-82450500D01*
X124272472Y-82450500D01*
X124272475Y-82450500D01*
X124412485Y-82412984D01*
X124538015Y-82340509D01*
X124640509Y-82238015D01*
X124712984Y-82112485D01*
X124750500Y-81972475D01*
X124750500Y-81827525D01*
X124712984Y-81687515D01*
X124707340Y-81677740D01*
X124640511Y-81561988D01*
X124640506Y-81561982D01*
X124538017Y-81459493D01*
X124538011Y-81459488D01*
X124412488Y-81387017D01*
X124412489Y-81387017D01*
X124393407Y-81381904D01*
X124272475Y-81349500D01*
X124127525Y-81349500D01*
X124006593Y-81381903D01*
X123936744Y-81380241D01*
X123878881Y-81341079D01*
X123851377Y-81276850D01*
X123850500Y-81262129D01*
X123850500Y-81055323D01*
X123850499Y-81055321D01*
X123835967Y-80982264D01*
X123835966Y-80982260D01*
X123835965Y-80982259D01*
X123780601Y-80899399D01*
X123706829Y-80850107D01*
X123697739Y-80844033D01*
X123697735Y-80844032D01*
X123624677Y-80829500D01*
X123624674Y-80829500D01*
X123030519Y-80829500D01*
X122963480Y-80809815D01*
X122917725Y-80757011D01*
X122907781Y-80687853D01*
X122936806Y-80624297D01*
X122942838Y-80617819D01*
X123044111Y-80516545D01*
X123044114Y-80516542D01*
X123120775Y-80401811D01*
X123173580Y-80274328D01*
X123194290Y-80170212D01*
X123200500Y-80138995D01*
X123200500Y-80001004D01*
X123173581Y-79865677D01*
X123173580Y-79865676D01*
X123173580Y-79865672D01*
X123153062Y-79816137D01*
X123120778Y-79738195D01*
X123120771Y-79738182D01*
X123044114Y-79623458D01*
X123044111Y-79623454D01*
X122946545Y-79525888D01*
X122946541Y-79525885D01*
X122831817Y-79449228D01*
X122831804Y-79449221D01*
X122704332Y-79396421D01*
X122704322Y-79396418D01*
X122568995Y-79369500D01*
X122568993Y-79369500D01*
X122431007Y-79369500D01*
X122431005Y-79369500D01*
X122295677Y-79396418D01*
X122295667Y-79396421D01*
X122168195Y-79449221D01*
X122168182Y-79449228D01*
X122053458Y-79525885D01*
X122053454Y-79525888D01*
X121955888Y-79623454D01*
X121955885Y-79623458D01*
X121879228Y-79738182D01*
X121879221Y-79738195D01*
X121826421Y-79865667D01*
X121826418Y-79865677D01*
X121799500Y-80001004D01*
X121799500Y-80001007D01*
X121799500Y-80138993D01*
X121799500Y-80138995D01*
X121799499Y-80138995D01*
X115440479Y-80138995D01*
X115511116Y-80086116D01*
X115595212Y-79973778D01*
X115644251Y-79842299D01*
X115649283Y-79795495D01*
X115650499Y-79784190D01*
X115650500Y-79784173D01*
X115650500Y-79215826D01*
X115650499Y-79215809D01*
X115644251Y-79157700D01*
X115627335Y-79112347D01*
X115595212Y-79026222D01*
X115511116Y-78913884D01*
X115443612Y-78863351D01*
X115398780Y-78829789D01*
X115398778Y-78829788D01*
X115372144Y-78819854D01*
X115267299Y-78780748D01*
X115209190Y-78774500D01*
X115209174Y-78774500D01*
X114540826Y-78774500D01*
X114540809Y-78774500D01*
X114482700Y-78780748D01*
X114351219Y-78829789D01*
X114238884Y-78913884D01*
X114154787Y-79026222D01*
X114116181Y-79129729D01*
X114074310Y-79185663D01*
X114008845Y-79210079D01*
X113940572Y-79195227D01*
X113891167Y-79145821D01*
X113883819Y-79129729D01*
X113845212Y-79026222D01*
X113845210Y-79026219D01*
X113761116Y-78913884D01*
X113693612Y-78863351D01*
X113648780Y-78829789D01*
X113648778Y-78829788D01*
X113622144Y-78819854D01*
X113517299Y-78780748D01*
X113459190Y-78774500D01*
X113459174Y-78774500D01*
X112790826Y-78774500D01*
X112790809Y-78774500D01*
X112732700Y-78780748D01*
X112601219Y-78829789D01*
X112488884Y-78913884D01*
X112404789Y-79026219D01*
X112355748Y-79157700D01*
X112349500Y-79215809D01*
X112349500Y-79728456D01*
X112329815Y-79795495D01*
X112313181Y-79816137D01*
X111018531Y-81110786D01*
X111018527Y-81110791D01*
X110972387Y-81190709D01*
X110972386Y-81190712D01*
X110948500Y-81279856D01*
X110948500Y-85780214D01*
X110928815Y-85847253D01*
X110886501Y-85887601D01*
X110761985Y-85959491D01*
X110761982Y-85959493D01*
X110659493Y-86061982D01*
X110659488Y-86061988D01*
X110587017Y-86187511D01*
X110587016Y-86187515D01*
X110549500Y-86327525D01*
X110549500Y-86472475D01*
X110587016Y-86612485D01*
X110587017Y-86612488D01*
X110659489Y-86738012D01*
X110662683Y-86742174D01*
X110687879Y-86807343D01*
X110673842Y-86875788D01*
X110625029Y-86925779D01*
X110556939Y-86941444D01*
X110491188Y-86917809D01*
X110489999Y-86916930D01*
X110473782Y-86904790D01*
X110473779Y-86904789D01*
X110473778Y-86904788D01*
X110429484Y-86888267D01*
X110342299Y-86855748D01*
X110284190Y-86849500D01*
X110284174Y-86849500D01*
X109715826Y-86849500D01*
X109715809Y-86849500D01*
X109657700Y-86855748D01*
X109526219Y-86904789D01*
X109459394Y-86954815D01*
X109413884Y-86988884D01*
X109413883Y-86988885D01*
X109413882Y-86988886D01*
X109377631Y-87037311D01*
X109321698Y-87079182D01*
X109278365Y-87087000D01*
X109190025Y-87087000D01*
X109085017Y-87115137D01*
X109050014Y-87124516D01*
X108924486Y-87196989D01*
X108924483Y-87196991D01*
X107959491Y-88161983D01*
X107959487Y-88161988D01*
X107893491Y-88276299D01*
X107887018Y-88287510D01*
X107887016Y-88287513D01*
X107881732Y-88307234D01*
X107849500Y-88427525D01*
X107849500Y-88427527D01*
X107849500Y-90101623D01*
X107829815Y-90168662D01*
X107777011Y-90214417D01*
X107707853Y-90224361D01*
X107644297Y-90195336D01*
X107622398Y-90170514D01*
X107515589Y-90010664D01*
X107515586Y-90010660D01*
X107369339Y-89864413D01*
X107369335Y-89864410D01*
X107197368Y-89749505D01*
X107197358Y-89749500D01*
X107006274Y-89670350D01*
X107006266Y-89670348D01*
X106803420Y-89630000D01*
X106650000Y-89630000D01*
X106650000Y-90380000D01*
X106150000Y-90380000D01*
X106150000Y-89630000D01*
X105996579Y-89630000D01*
X105793733Y-89670348D01*
X105793725Y-89670350D01*
X105602641Y-89749500D01*
X105602631Y-89749505D01*
X105430664Y-89864410D01*
X105430660Y-89864413D01*
X105284413Y-90010660D01*
X105284410Y-90010664D01*
X105169505Y-90182631D01*
X105169500Y-90182641D01*
X105090351Y-90373723D01*
X105090350Y-90373725D01*
X105079157Y-90430000D01*
X105933012Y-90430000D01*
X105915795Y-90439940D01*
X105859940Y-90495795D01*
X105820444Y-90564204D01*
X105800000Y-90640504D01*
X105800000Y-90719496D01*
X105820444Y-90795796D01*
X105859940Y-90864205D01*
X105915795Y-90920060D01*
X105933012Y-90930000D01*
X105079157Y-90930000D01*
X105090350Y-90986274D01*
X105090351Y-90986276D01*
X105169500Y-91177358D01*
X105169505Y-91177368D01*
X105284410Y-91349335D01*
X105284413Y-91349339D01*
X105430659Y-91495585D01*
X105450741Y-91509003D01*
X105495547Y-91562615D01*
X105504256Y-91631940D01*
X105487969Y-91676256D01*
X105436982Y-91760599D01*
X105436980Y-91760603D01*
X105386409Y-91922893D01*
X105380000Y-91993427D01*
X105380000Y-92000000D01*
X106230000Y-92000000D01*
X106230000Y-91860000D01*
X106211709Y-91841709D01*
X106206961Y-91840315D01*
X106161206Y-91787511D01*
X106150000Y-91736000D01*
X106150000Y-90980000D01*
X106650000Y-90980000D01*
X106650000Y-91220000D01*
X106668290Y-91238290D01*
X106673039Y-91239685D01*
X106718794Y-91292489D01*
X106730000Y-91344000D01*
X106730000Y-92000000D01*
X107579999Y-92000000D01*
X107579999Y-91993417D01*
X107573591Y-91922897D01*
X107573590Y-91922892D01*
X107523018Y-91760603D01*
X107435072Y-91615122D01*
X107430118Y-91610168D01*
X107396633Y-91548845D01*
X107401617Y-91479153D01*
X107430119Y-91434805D01*
X107515586Y-91349339D01*
X107515589Y-91349336D01*
X107622398Y-91189485D01*
X107676010Y-91144680D01*
X107745335Y-91135973D01*
X107808362Y-91166127D01*
X107845082Y-91225570D01*
X107849500Y-91258376D01*
X107849500Y-92120613D01*
X107829815Y-92187652D01*
X107813181Y-92208294D01*
X107557794Y-92463681D01*
X107496471Y-92497166D01*
X107470113Y-92500000D01*
X105380001Y-92500000D01*
X105380001Y-92506582D01*
X105386408Y-92577102D01*
X105386409Y-92577107D01*
X105436981Y-92739396D01*
X105517647Y-92872834D01*
X105535483Y-92940389D01*
X105513965Y-93006862D01*
X105473531Y-93044371D01*
X105412686Y-93079500D01*
X105412683Y-93079502D01*
X104799502Y-93692683D01*
X104799500Y-93692686D01*
X104733608Y-93806812D01*
X104699500Y-93934108D01*
X104699500Y-95882745D01*
X104679815Y-95949784D01*
X104663181Y-95970426D01*
X104279522Y-96354084D01*
X104279518Y-96354090D01*
X104226792Y-96445412D01*
X104226793Y-96445413D01*
X104199500Y-96547273D01*
X104199500Y-97120614D01*
X104179815Y-97187653D01*
X104163181Y-97208295D01*
X104159493Y-97211982D01*
X104159488Y-97211988D01*
X104087017Y-97337511D01*
X104087016Y-97337515D01*
X104049500Y-97477525D01*
X100300500Y-97477525D01*
X100300500Y-90430000D01*
X101279157Y-90430000D01*
X102133012Y-90430000D01*
X102115795Y-90439940D01*
X102059940Y-90495795D01*
X102020444Y-90564204D01*
X102000000Y-90640504D01*
X102000000Y-90719496D01*
X102020444Y-90795796D01*
X102059940Y-90864205D01*
X102115795Y-90920060D01*
X102133012Y-90930000D01*
X101279157Y-90930000D01*
X101290350Y-90986274D01*
X101290351Y-90986276D01*
X101369500Y-91177358D01*
X101369505Y-91177368D01*
X101484410Y-91349335D01*
X101484413Y-91349339D01*
X101630660Y-91495586D01*
X101630664Y-91495589D01*
X101802631Y-91610494D01*
X101802641Y-91610499D01*
X101993725Y-91689649D01*
X101993733Y-91689651D01*
X102196579Y-91729999D01*
X102196583Y-91730000D01*
X102350000Y-91730000D01*
X102350000Y-90980000D01*
X102850000Y-90980000D01*
X102850000Y-91730000D01*
X103003417Y-91730000D01*
X103003420Y-91729999D01*
X103206266Y-91689651D01*
X103206274Y-91689649D01*
X103397358Y-91610499D01*
X103397368Y-91610494D01*
X103569335Y-91495589D01*
X103569339Y-91495586D01*
X103715586Y-91349339D01*
X103715589Y-91349335D01*
X103830494Y-91177368D01*
X103830499Y-91177358D01*
X103909648Y-90986276D01*
X103909649Y-90986274D01*
X103920843Y-90930000D01*
X103066988Y-90930000D01*
X103084205Y-90920060D01*
X103140060Y-90864205D01*
X103179556Y-90795796D01*
X103200000Y-90719496D01*
X103200000Y-90640504D01*
X103179556Y-90564204D01*
X103140060Y-90495795D01*
X103084205Y-90439940D01*
X103066988Y-90430000D01*
X103920843Y-90430000D01*
X103909649Y-90373725D01*
X103909648Y-90373723D01*
X103830499Y-90182641D01*
X103830494Y-90182631D01*
X103715589Y-90010664D01*
X103715586Y-90010660D01*
X103569339Y-89864413D01*
X103569335Y-89864410D01*
X103397368Y-89749505D01*
X103397358Y-89749500D01*
X103206274Y-89670350D01*
X103206266Y-89670348D01*
X103003420Y-89630000D01*
X102850000Y-89630000D01*
X102850000Y-90380000D01*
X102350000Y-90380000D01*
X102350000Y-89630000D01*
X102196579Y-89630000D01*
X101993733Y-89670348D01*
X101993725Y-89670350D01*
X101802641Y-89749500D01*
X101802631Y-89749505D01*
X101630664Y-89864410D01*
X101630660Y-89864413D01*
X101484413Y-90010660D01*
X101484410Y-90010664D01*
X101369505Y-90182631D01*
X101369500Y-90182641D01*
X101290351Y-90373723D01*
X101290350Y-90373725D01*
X101279157Y-90430000D01*
X100300500Y-90430000D01*
X100300500Y-82502871D01*
X100300632Y-82497144D01*
X100307882Y-82340313D01*
X101249500Y-82340313D01*
X101249500Y-82659687D01*
X101254023Y-82705609D01*
X101280803Y-82977522D01*
X101343109Y-83290754D01*
X101435820Y-83596382D01*
X101558040Y-83891446D01*
X101558042Y-83891451D01*
X101708584Y-84173094D01*
X101708601Y-84173122D01*
X101886012Y-84438638D01*
X101886029Y-84438661D01*
X102088638Y-84685540D01*
X102314459Y-84911361D01*
X102314464Y-84911365D01*
X102314465Y-84911366D01*
X102561344Y-85113975D01*
X102561351Y-85113980D01*
X102561361Y-85113987D01*
X102826877Y-85291398D01*
X102826882Y-85291401D01*
X102826894Y-85291409D01*
X102826903Y-85291413D01*
X102826905Y-85291415D01*
X103108548Y-85441957D01*
X103108550Y-85441957D01*
X103108556Y-85441961D01*
X103403619Y-85564180D01*
X103709240Y-85656889D01*
X104022477Y-85719196D01*
X104340313Y-85750500D01*
X104340316Y-85750500D01*
X104659684Y-85750500D01*
X104659687Y-85750500D01*
X104977523Y-85719196D01*
X105290760Y-85656889D01*
X105596381Y-85564180D01*
X105891444Y-85441961D01*
X106173106Y-85291409D01*
X106438656Y-85113975D01*
X106685535Y-84911366D01*
X106911366Y-84685535D01*
X107113975Y-84438656D01*
X107291409Y-84173106D01*
X107441961Y-83891444D01*
X107564180Y-83596381D01*
X107656889Y-83290760D01*
X107719196Y-82977523D01*
X107750500Y-82659687D01*
X107750500Y-82340313D01*
X107719196Y-82022477D01*
X107656889Y-81709240D01*
X107564180Y-81403619D01*
X107441961Y-81108556D01*
X107413507Y-81055323D01*
X107291415Y-80826905D01*
X107291413Y-80826903D01*
X107291409Y-80826894D01*
X107290960Y-80826222D01*
X107113987Y-80561361D01*
X107113980Y-80561351D01*
X107113975Y-80561344D01*
X106911366Y-80314465D01*
X106911365Y-80314464D01*
X106911361Y-80314459D01*
X106685540Y-80088638D01*
X106438661Y-79886029D01*
X106438638Y-79886012D01*
X106173122Y-79708601D01*
X106173094Y-79708584D01*
X105891451Y-79558042D01*
X105891446Y-79558040D01*
X105873484Y-79550600D01*
X105673443Y-79467740D01*
X105596382Y-79435820D01*
X105290754Y-79343109D01*
X104977521Y-79280803D01*
X104977522Y-79280803D01*
X104738141Y-79257227D01*
X104659687Y-79249500D01*
X104340313Y-79249500D01*
X104267822Y-79256639D01*
X104022477Y-79280803D01*
X103709245Y-79343109D01*
X103403617Y-79435820D01*
X103108553Y-79558040D01*
X103108548Y-79558042D01*
X102826905Y-79708584D01*
X102826877Y-79708601D01*
X102561361Y-79886012D01*
X102561338Y-79886029D01*
X102314459Y-80088638D01*
X102088638Y-80314459D01*
X101886029Y-80561338D01*
X101886012Y-80561361D01*
X101708601Y-80826877D01*
X101708584Y-80826905D01*
X101558042Y-81108548D01*
X101558040Y-81108553D01*
X101435820Y-81403617D01*
X101343109Y-81709245D01*
X101280803Y-82022477D01*
X101263660Y-82196543D01*
X101249500Y-82340313D01*
X100307882Y-82340313D01*
X100318149Y-82118235D01*
X100319206Y-82106838D01*
X100371214Y-81734007D01*
X100373317Y-81722760D01*
X100459504Y-81356316D01*
X100462627Y-81345338D01*
X100582269Y-80988376D01*
X100586397Y-80977725D01*
X100738454Y-80633347D01*
X100743537Y-80623138D01*
X100926724Y-80294254D01*
X100932746Y-80284527D01*
X101145495Y-79973953D01*
X101152377Y-79964839D01*
X101392884Y-79675207D01*
X101400585Y-79666762D01*
X101666766Y-79400580D01*
X101675207Y-79392884D01*
X101964839Y-79152377D01*
X101973961Y-79145490D01*
X102284527Y-78932746D01*
X102294254Y-78926724D01*
X102623138Y-78743537D01*
X102633347Y-78738454D01*
X102977736Y-78586392D01*
X102988376Y-78582269D01*
X103345338Y-78462627D01*
X103356316Y-78459504D01*
X103722771Y-78373314D01*
X103734007Y-78371214D01*
X104106847Y-78319205D01*
X104118233Y-78318149D01*
X104497144Y-78300631D01*
X104502869Y-78300500D01*
X119499600Y-78300500D01*
X119566638Y-78320185D01*
G37*
%TD.AperFunction*%
%TD*%
%TA.AperFunction,Conductor*%
%TO.N,/NOTHING*%
G36*
X141325001Y-92519962D02*
G01*
X141379539Y-92574500D01*
X141399501Y-92649000D01*
X141399501Y-93339360D01*
X141399502Y-93339366D01*
X141414956Y-93456761D01*
X141475463Y-93602840D01*
X141475464Y-93602841D01*
X141571718Y-93728282D01*
X141697159Y-93824536D01*
X141843238Y-93885044D01*
X141843241Y-93885044D01*
X141843243Y-93885045D01*
X141843240Y-93885045D01*
X141907697Y-93893530D01*
X141960639Y-93900500D01*
X142939360Y-93900499D01*
X143056762Y-93885044D01*
X143129801Y-93854790D01*
X143202840Y-93824537D01*
X143202840Y-93824536D01*
X143202841Y-93824536D01*
X143206517Y-93821715D01*
X143209294Y-93819585D01*
X143280550Y-93790069D01*
X143357019Y-93800135D01*
X143390706Y-93819585D01*
X143397159Y-93824536D01*
X143397159Y-93824537D01*
X143543240Y-93885045D01*
X143607697Y-93893530D01*
X143660639Y-93900500D01*
X144639360Y-93900499D01*
X144756762Y-93885044D01*
X144902841Y-93824536D01*
X145028282Y-93728282D01*
X145124536Y-93602841D01*
X145185044Y-93456762D01*
X145200500Y-93339361D01*
X145200500Y-92649000D01*
X145220462Y-92574500D01*
X145275000Y-92519962D01*
X145349500Y-92500000D01*
X147351000Y-92500000D01*
X147425500Y-92519962D01*
X147480038Y-92574500D01*
X147500000Y-92649000D01*
X147500000Y-99851000D01*
X147480038Y-99925500D01*
X147425500Y-99980038D01*
X147351000Y-100000000D01*
X138649000Y-100000000D01*
X138574500Y-99980038D01*
X138519962Y-99925500D01*
X138500000Y-99851000D01*
X138500000Y-96644794D01*
X139500001Y-96644794D01*
X139502909Y-96669874D01*
X139548212Y-96772477D01*
X139627521Y-96851786D01*
X139730128Y-96897091D01*
X139755204Y-96899999D01*
X140075000Y-96899999D01*
X140875000Y-96899999D01*
X141194795Y-96899999D01*
X141219874Y-96897090D01*
X141322477Y-96851787D01*
X141322478Y-96851787D01*
X141401786Y-96772478D01*
X141447091Y-96669871D01*
X141450000Y-96644795D01*
X141450000Y-96644794D01*
X145150001Y-96644794D01*
X145152909Y-96669874D01*
X145198212Y-96772477D01*
X145277521Y-96851786D01*
X145380128Y-96897091D01*
X145405204Y-96899999D01*
X145725000Y-96899999D01*
X146525000Y-96899999D01*
X146844795Y-96899999D01*
X146869874Y-96897090D01*
X146972477Y-96851787D01*
X146972478Y-96851787D01*
X147051786Y-96772478D01*
X147097091Y-96669871D01*
X147100000Y-96644795D01*
X147100000Y-96050000D01*
X146525000Y-96050000D01*
X146525000Y-96899999D01*
X145725000Y-96899999D01*
X145725000Y-96050000D01*
X145150001Y-96050000D01*
X145150001Y-96644794D01*
X141450000Y-96644794D01*
X141450000Y-96050000D01*
X140875000Y-96050000D01*
X140875000Y-96899999D01*
X140075000Y-96899999D01*
X140075000Y-96050000D01*
X139500001Y-96050000D01*
X139500001Y-96644794D01*
X138500000Y-96644794D01*
X138500000Y-94655204D01*
X139500000Y-94655204D01*
X139500000Y-95250000D01*
X140075000Y-95250000D01*
X140875000Y-95250000D01*
X141449999Y-95250000D01*
X141449999Y-94655205D01*
X141449999Y-94655204D01*
X145150000Y-94655204D01*
X145150000Y-95250000D01*
X145725000Y-95250000D01*
X146525000Y-95250000D01*
X147099999Y-95250000D01*
X147099999Y-94655205D01*
X147097090Y-94630125D01*
X147051787Y-94527522D01*
X146972478Y-94448213D01*
X146869871Y-94402908D01*
X146844796Y-94400000D01*
X146525000Y-94400000D01*
X146525000Y-95250000D01*
X145725000Y-95250000D01*
X145725000Y-94400000D01*
X145405205Y-94400000D01*
X145380125Y-94402909D01*
X145277522Y-94448212D01*
X145277522Y-94448213D01*
X145198213Y-94527521D01*
X145152908Y-94630128D01*
X145150000Y-94655204D01*
X141449999Y-94655204D01*
X141447090Y-94630125D01*
X141401787Y-94527522D01*
X141322478Y-94448213D01*
X141219871Y-94402908D01*
X141194796Y-94400000D01*
X140875000Y-94400000D01*
X140875000Y-95250000D01*
X140075000Y-95250000D01*
X140075000Y-94400000D01*
X139755205Y-94400000D01*
X139730125Y-94402909D01*
X139627522Y-94448212D01*
X139627522Y-94448213D01*
X139548213Y-94527521D01*
X139502908Y-94630128D01*
X139500000Y-94655204D01*
X138500000Y-94655204D01*
X138500000Y-92649000D01*
X138519962Y-92574500D01*
X138574500Y-92519962D01*
X138649000Y-92500000D01*
X141250501Y-92500000D01*
X141325001Y-92519962D01*
G37*
%TD.AperFunction*%
%TD*%
M02*
