%TF.GenerationSoftware,KiCad,Pcbnew,9.0.6*%
%TF.CreationDate,2026-04-26T12:42:53+02:00*%
%TF.ProjectId,sao_powerboard,73616f5f-706f-4776-9572-626f6172642e,rev?*%
%TF.SameCoordinates,Original*%
%TF.FileFunction,Copper,L2,Bot*%
%TF.FilePolarity,Positive*%
%FSLAX46Y46*%
G04 Gerber Fmt 4.6, Leading zero omitted, Abs format (unit mm)*
G04 Created by KiCad (PCBNEW 9.0.6) date 2026-04-26 12:42:53*
%MOMM*%
%LPD*%
G01*
G04 APERTURE LIST*
%TA.AperFunction,ComponentPad*%
%ADD10R,1.700000X1.700000*%
%TD*%
%TA.AperFunction,ComponentPad*%
%ADD11C,1.700000*%
%TD*%
%TA.AperFunction,HeatsinkPad*%
%ADD12O,1.700000X1.100000*%
%TD*%
%TA.AperFunction,ViaPad*%
%ADD13C,0.600000*%
%TD*%
%TA.AperFunction,ViaPad*%
%ADD14C,6.000000*%
%TD*%
%TA.AperFunction,ViaPad*%
%ADD15C,1.000000*%
%TD*%
%TA.AperFunction,ViaPad*%
%ADD16C,0.800000*%
%TD*%
%TA.AperFunction,Conductor*%
%ADD17C,1.000000*%
%TD*%
%TA.AperFunction,Conductor*%
%ADD18C,0.200000*%
%TD*%
%TA.AperFunction,Conductor*%
%ADD19C,0.300000*%
%TD*%
%TA.AperFunction,Conductor*%
%ADD20C,0.600000*%
%TD*%
G04 APERTURE END LIST*
D10*
%TO.P,J4,1,Pin_1*%
%TO.N,VBUS*%
X104530000Y-103400000D03*
D11*
%TO.P,J4,2,Pin_2*%
%TO.N,GND*%
X104530000Y-105940000D03*
%TO.P,J4,3,Pin_3*%
%TO.N,/GPIO1*%
X104530000Y-108480000D03*
%TO.P,J4,4,Pin_4*%
%TO.N,/GPIO2*%
X104530000Y-111020000D03*
%TO.P,J4,5,Pin_5*%
%TO.N,/SDA*%
X104530000Y-113560000D03*
%TO.P,J4,6,Pin_6*%
%TO.N,/SCL*%
X104530000Y-116100000D03*
%TO.P,J4,7,Pin_7*%
%TO.N,+3V3*%
X104530000Y-118640000D03*
%TO.P,J4,8,Pin_8*%
%TO.N,GND*%
X104530000Y-121180000D03*
%TD*%
D12*
%TO.P,J1,S1,SHIELD*%
%TO.N,GND*%
X106400000Y-90680000D03*
X102600000Y-90680000D03*
X106400000Y-99320000D03*
X102600000Y-99320000D03*
%TD*%
D13*
%TO.N,+3V3*%
X122300000Y-93300000D03*
%TO.N,GND*%
X128800000Y-91150000D03*
X129500000Y-101850000D03*
%TO.N,VBUS*%
X104600000Y-97550000D03*
%TO.N,+3V3*%
X125200000Y-92900000D03*
%TO.N,GND*%
X119250000Y-102150000D03*
X119700000Y-100950000D03*
%TO.N,/GPIO2*%
X125700000Y-98500000D03*
%TO.N,/GPIO1*%
X125400000Y-97450000D03*
D14*
%TO.N,*%
X104500000Y-82500000D03*
X143500000Y-82500000D03*
D15*
%TO.N,+3V3*%
X130200000Y-87600000D03*
X121500000Y-93300000D03*
D13*
%TO.N,GND*%
X119700000Y-85900000D03*
X119300000Y-93200000D03*
X133100000Y-85900000D03*
X111300000Y-95800000D03*
X130600000Y-93200000D03*
X122300000Y-88500000D03*
X111300000Y-90800000D03*
X116900000Y-95800000D03*
X111300000Y-93300000D03*
X127400000Y-91200000D03*
X126100000Y-91200000D03*
X121500000Y-85900000D03*
X134500000Y-85900000D03*
X108200000Y-97800000D03*
X111300000Y-88500000D03*
X131800000Y-85900000D03*
%TO.N,/CHRGSTAT*%
X114100000Y-89900000D03*
X111100000Y-86400000D03*
%TO.N,+BATT*%
X134300000Y-92700000D03*
D16*
X139400000Y-90900000D03*
X116900000Y-87600000D03*
D13*
%TO.N,Net-(SW1-B)*%
X123400000Y-90300000D03*
X124200000Y-81900000D03*
%TO.N,Net-(SW1-A)*%
X129600000Y-86600000D03*
X131200000Y-91100000D03*
%TD*%
D17*
%TO.N,+3V3*%
X122300000Y-93300000D02*
X121500000Y-93300000D01*
X121500000Y-93300000D02*
X121900000Y-92900000D01*
X121900000Y-92900000D02*
X125200000Y-92900000D01*
D18*
%TO.N,/GPIO1*%
X125400000Y-97450000D02*
X125400000Y-97650000D01*
X125400000Y-97650000D02*
X125101000Y-97949000D01*
X120683900Y-97949000D02*
X117083900Y-101549000D01*
X125101000Y-97949000D02*
X120683900Y-97949000D01*
X117083900Y-101549000D02*
X107501000Y-101549000D01*
X107501000Y-101549000D02*
X105681000Y-103369000D01*
X105681000Y-103369000D02*
X105681000Y-107669000D01*
X105681000Y-107669000D02*
X104870000Y-108480000D01*
X104870000Y-108480000D02*
X104530000Y-108480000D01*
%TO.N,/GPIO2*%
X125550000Y-98350000D02*
X120850000Y-98350000D01*
X120850000Y-98350000D02*
X117250000Y-101950000D01*
X125700000Y-98500000D02*
X125550000Y-98350000D01*
X117250000Y-101950000D02*
X107667100Y-101950000D01*
X106082000Y-103535100D02*
X106082000Y-109468000D01*
X107667100Y-101950000D02*
X106082000Y-103535100D01*
X106082000Y-109468000D02*
X104530000Y-111020000D01*
D17*
%TO.N,+3V3*%
X125200000Y-92900000D02*
X128900000Y-92900000D01*
X128900000Y-92900000D02*
X130200000Y-91600000D01*
X130200000Y-91600000D02*
X130200000Y-87600000D01*
D19*
%TO.N,VBUS*%
X104600000Y-103330000D02*
X104600000Y-97550000D01*
X104530000Y-103400000D02*
X104600000Y-103330000D01*
D18*
%TO.N,+3V3*%
X130100000Y-87500000D02*
X130200000Y-87600000D01*
%TO.N,/CHRGSTAT*%
X111100000Y-86400000D02*
X111100000Y-86500000D01*
X114100000Y-89500000D02*
X114100000Y-89900000D01*
X111100000Y-86500000D02*
X114100000Y-89500000D01*
D20*
%TO.N,+BATT*%
X119000000Y-95100000D02*
X116900000Y-93000000D01*
D18*
X134300000Y-92700000D02*
X133750000Y-92150000D01*
D20*
X134800000Y-90800000D02*
X132950000Y-92650000D01*
D18*
X133750000Y-92150000D02*
X133450000Y-92150000D01*
D20*
X139300000Y-90800000D02*
X134800000Y-90800000D01*
X116900000Y-93000000D02*
X116900000Y-87600000D01*
X132950000Y-92650000D02*
X130500000Y-95100000D01*
D18*
X133450000Y-92150000D02*
X132950000Y-92650000D01*
D20*
X139400000Y-90900000D02*
X139300000Y-90800000D01*
X130500000Y-95100000D02*
X119000000Y-95100000D01*
D18*
%TO.N,Net-(SW1-B)*%
X124200000Y-81900000D02*
X121900000Y-81900000D01*
X120600000Y-89100000D02*
X121800000Y-90300000D01*
X121800000Y-90300000D02*
X123400000Y-90300000D01*
X121900000Y-81900000D02*
X120600000Y-83200000D01*
X120600000Y-83200000D02*
X120600000Y-89100000D01*
%TO.N,Net-(SW1-A)*%
X131001000Y-91001000D02*
X131001000Y-87268215D01*
X131200000Y-91100000D02*
X131100000Y-91100000D01*
X131001000Y-87268215D02*
X130332785Y-86600000D01*
X130332785Y-86600000D02*
X129600000Y-86600000D01*
X131100000Y-91100000D02*
X131001000Y-91001000D01*
%TD*%
%TA.AperFunction,Conductor*%
%TO.N,GND*%
G36*
X143502831Y-78300631D02*
G01*
X143881763Y-78318150D01*
X143893153Y-78319206D01*
X144265987Y-78371214D01*
X144277231Y-78373316D01*
X144643676Y-78459503D01*
X144654666Y-78462630D01*
X145011607Y-78582265D01*
X145022274Y-78586398D01*
X145366637Y-78738449D01*
X145376890Y-78743554D01*
X145705738Y-78926722D01*
X145715476Y-78932751D01*
X146026038Y-79145490D01*
X146035175Y-79152391D01*
X146324773Y-79392870D01*
X146333237Y-79400586D01*
X146599413Y-79666762D01*
X146607129Y-79675226D01*
X146847606Y-79964821D01*
X146854509Y-79973961D01*
X147067248Y-80284523D01*
X147073277Y-80294261D01*
X147256445Y-80623109D01*
X147261550Y-80633362D01*
X147413601Y-80977725D01*
X147417739Y-80988405D01*
X147537365Y-81345320D01*
X147540499Y-81356336D01*
X147626681Y-81722760D01*
X147628786Y-81734019D01*
X147680792Y-82106839D01*
X147681849Y-82118243D01*
X147699367Y-82497144D01*
X147699499Y-82502871D01*
X147699500Y-119452405D01*
X147699500Y-119497128D01*
X147699368Y-119502855D01*
X147681850Y-119881757D01*
X147680793Y-119893161D01*
X147628787Y-120265981D01*
X147626682Y-120277240D01*
X147540500Y-120643664D01*
X147537366Y-120654680D01*
X147417737Y-121011603D01*
X147413599Y-121022283D01*
X147261555Y-121366630D01*
X147256450Y-121376883D01*
X147073278Y-121705739D01*
X147067249Y-121715477D01*
X146854513Y-122026033D01*
X146847611Y-122035173D01*
X146607125Y-122324780D01*
X146599408Y-122333244D01*
X146333244Y-122599408D01*
X146324780Y-122607125D01*
X146035173Y-122847611D01*
X146026033Y-122854513D01*
X145715477Y-123067249D01*
X145705739Y-123073278D01*
X145376883Y-123256450D01*
X145366630Y-123261555D01*
X145022283Y-123413599D01*
X145011603Y-123417737D01*
X144654680Y-123537366D01*
X144643664Y-123540500D01*
X144277240Y-123626682D01*
X144265981Y-123628787D01*
X143893161Y-123680793D01*
X143881757Y-123681850D01*
X143502855Y-123699368D01*
X143497128Y-123699500D01*
X104502872Y-123699500D01*
X104497145Y-123699368D01*
X104118242Y-123681850D01*
X104106838Y-123680793D01*
X103734018Y-123628787D01*
X103722759Y-123626682D01*
X103356335Y-123540500D01*
X103345319Y-123537366D01*
X102988396Y-123417737D01*
X102977716Y-123413599D01*
X102633365Y-123261553D01*
X102623121Y-123256452D01*
X102516521Y-123197077D01*
X102294260Y-123073278D01*
X102284522Y-123067249D01*
X101973966Y-122854513D01*
X101964826Y-122847611D01*
X101675219Y-122607125D01*
X101666755Y-122599408D01*
X101400591Y-122333244D01*
X101392874Y-122324780D01*
X101368369Y-122295270D01*
X101152386Y-122035170D01*
X101145486Y-122026033D01*
X101087727Y-121941716D01*
X100932750Y-121715477D01*
X100926721Y-121705739D01*
X100856740Y-121580099D01*
X100743542Y-121376870D01*
X100738450Y-121366643D01*
X100609127Y-121073753D01*
X103180000Y-121073753D01*
X103180000Y-121286246D01*
X103213242Y-121496127D01*
X103213242Y-121496130D01*
X103278904Y-121698217D01*
X103375375Y-121887550D01*
X103414728Y-121941716D01*
X104047037Y-121309408D01*
X104064075Y-121372993D01*
X104129901Y-121487007D01*
X104222993Y-121580099D01*
X104337007Y-121645925D01*
X104400590Y-121662962D01*
X103768282Y-122295269D01*
X103768282Y-122295270D01*
X103822449Y-122334624D01*
X104011782Y-122431095D01*
X104213870Y-122496757D01*
X104423754Y-122530000D01*
X104636246Y-122530000D01*
X104846127Y-122496757D01*
X104846130Y-122496757D01*
X105048217Y-122431095D01*
X105237554Y-122334622D01*
X105291716Y-122295270D01*
X105291717Y-122295270D01*
X104659408Y-121662962D01*
X104722993Y-121645925D01*
X104837007Y-121580099D01*
X104930099Y-121487007D01*
X104995925Y-121372993D01*
X105012962Y-121309408D01*
X105645270Y-121941717D01*
X105645270Y-121941716D01*
X105684622Y-121887554D01*
X105781095Y-121698217D01*
X105846757Y-121496130D01*
X105846757Y-121496127D01*
X105880000Y-121286246D01*
X105880000Y-121073753D01*
X105846757Y-120863872D01*
X105846757Y-120863869D01*
X105781095Y-120661782D01*
X105684624Y-120472449D01*
X105645270Y-120418282D01*
X105645269Y-120418282D01*
X105012962Y-121050590D01*
X104995925Y-120987007D01*
X104930099Y-120872993D01*
X104837007Y-120779901D01*
X104722993Y-120714075D01*
X104659409Y-120697037D01*
X105106446Y-120249999D01*
X112695000Y-120249999D01*
X112695000Y-120250000D01*
X112712962Y-120443855D01*
X112766241Y-120631107D01*
X112766246Y-120631120D01*
X112853021Y-120805386D01*
X112970347Y-120960751D01*
X113114219Y-121091907D01*
X113114221Y-121091909D01*
X113279742Y-121194395D01*
X113279744Y-121194396D01*
X113279746Y-121194397D01*
X113461286Y-121264726D01*
X113652657Y-121300500D01*
X113652659Y-121300500D01*
X116347341Y-121300500D01*
X116347343Y-121300500D01*
X116538714Y-121264726D01*
X116720254Y-121194397D01*
X116885780Y-121091908D01*
X117029654Y-120960749D01*
X117146979Y-120805386D01*
X117233758Y-120631110D01*
X117287037Y-120443856D01*
X117305000Y-120250000D01*
X117305000Y-120249999D01*
X130695000Y-120249999D01*
X130695000Y-120250000D01*
X130712962Y-120443855D01*
X130766241Y-120631107D01*
X130766246Y-120631120D01*
X130853021Y-120805386D01*
X130970347Y-120960751D01*
X131114219Y-121091907D01*
X131114221Y-121091909D01*
X131279742Y-121194395D01*
X131279744Y-121194396D01*
X131279746Y-121194397D01*
X131461286Y-121264726D01*
X131652657Y-121300500D01*
X131652659Y-121300500D01*
X134347341Y-121300500D01*
X134347343Y-121300500D01*
X134538714Y-121264726D01*
X134720254Y-121194397D01*
X134885780Y-121091908D01*
X135029654Y-120960749D01*
X135146979Y-120805386D01*
X135233758Y-120631110D01*
X135287037Y-120443856D01*
X135305000Y-120250000D01*
X135287037Y-120056144D01*
X135233758Y-119868890D01*
X135227998Y-119857323D01*
X135149825Y-119700330D01*
X135146979Y-119694614D01*
X135029654Y-119539251D01*
X135029652Y-119539248D01*
X134885780Y-119408092D01*
X134885778Y-119408090D01*
X134720257Y-119305604D01*
X134720248Y-119305600D01*
X134584099Y-119252856D01*
X134538714Y-119235274D01*
X134347343Y-119199500D01*
X134289562Y-119199500D01*
X131797595Y-119199500D01*
X131750000Y-119199500D01*
X131652657Y-119199500D01*
X131461286Y-119235274D01*
X131461283Y-119235274D01*
X131461283Y-119235275D01*
X131279751Y-119305600D01*
X131279742Y-119305604D01*
X131114221Y-119408090D01*
X131114219Y-119408092D01*
X130970347Y-119539248D01*
X130853021Y-119694613D01*
X130766246Y-119868879D01*
X130766241Y-119868892D01*
X130712962Y-120056144D01*
X130695000Y-120249999D01*
X117305000Y-120249999D01*
X117287037Y-120056144D01*
X117233758Y-119868890D01*
X117227998Y-119857323D01*
X117149825Y-119700330D01*
X117146979Y-119694614D01*
X117029654Y-119539251D01*
X117029652Y-119539248D01*
X116885780Y-119408092D01*
X116885778Y-119408090D01*
X116720257Y-119305604D01*
X116720248Y-119305600D01*
X116584099Y-119252856D01*
X116538714Y-119235274D01*
X116347343Y-119199500D01*
X116289562Y-119199500D01*
X113797595Y-119199500D01*
X113750000Y-119199500D01*
X113652657Y-119199500D01*
X113461286Y-119235274D01*
X113461283Y-119235274D01*
X113461283Y-119235275D01*
X113279751Y-119305600D01*
X113279742Y-119305604D01*
X113114221Y-119408090D01*
X113114219Y-119408092D01*
X112970347Y-119539248D01*
X112853021Y-119694613D01*
X112766246Y-119868879D01*
X112766241Y-119868892D01*
X112712962Y-120056144D01*
X112695000Y-120249999D01*
X105106446Y-120249999D01*
X105199859Y-120156586D01*
X105291716Y-120064728D01*
X105237550Y-120025375D01*
X105048217Y-119928904D01*
X104949287Y-119896760D01*
X104891611Y-119857323D01*
X104864413Y-119792964D01*
X104876328Y-119724118D01*
X104923572Y-119672642D01*
X104949290Y-119660897D01*
X104952445Y-119659873D01*
X105106788Y-119581232D01*
X105246928Y-119479414D01*
X105369414Y-119356928D01*
X105471232Y-119216788D01*
X105549873Y-119062445D01*
X105603402Y-118897701D01*
X105630500Y-118726611D01*
X105630500Y-118553389D01*
X105603402Y-118382299D01*
X105549873Y-118217555D01*
X105471232Y-118063212D01*
X105369414Y-117923072D01*
X105246928Y-117800586D01*
X105106788Y-117698768D01*
X104952445Y-117620127D01*
X104787701Y-117566598D01*
X104787699Y-117566597D01*
X104787698Y-117566597D01*
X104656271Y-117545781D01*
X104616611Y-117539500D01*
X104443389Y-117539500D01*
X104403728Y-117545781D01*
X104272302Y-117566597D01*
X104107552Y-117620128D01*
X103953211Y-117698768D01*
X103873256Y-117756859D01*
X103813072Y-117800586D01*
X103813070Y-117800588D01*
X103813069Y-117800588D01*
X103690588Y-117923069D01*
X103690588Y-117923070D01*
X103690586Y-117923072D01*
X103646859Y-117983256D01*
X103588768Y-118063211D01*
X103510128Y-118217552D01*
X103456597Y-118382302D01*
X103429500Y-118553389D01*
X103429500Y-118726611D01*
X103456598Y-118897701D01*
X103510127Y-119062445D01*
X103588768Y-119216788D01*
X103690586Y-119356928D01*
X103813072Y-119479414D01*
X103953212Y-119581232D01*
X104107555Y-119659873D01*
X104110708Y-119660897D01*
X104111752Y-119661611D01*
X104112048Y-119661734D01*
X104112022Y-119661795D01*
X104168383Y-119700330D01*
X104195585Y-119764688D01*
X104183674Y-119833535D01*
X104136433Y-119885013D01*
X104110712Y-119896760D01*
X104011783Y-119928904D01*
X103822439Y-120025380D01*
X103768282Y-120064727D01*
X103768282Y-120064728D01*
X104400591Y-120697037D01*
X104337007Y-120714075D01*
X104222993Y-120779901D01*
X104129901Y-120872993D01*
X104064075Y-120987007D01*
X104047037Y-121050591D01*
X103414728Y-120418282D01*
X103414727Y-120418282D01*
X103375380Y-120472439D01*
X103278904Y-120661782D01*
X103213242Y-120863869D01*
X103213242Y-120863872D01*
X103180000Y-121073753D01*
X100609127Y-121073753D01*
X100586387Y-121022252D01*
X100582267Y-121011616D01*
X100462629Y-120654667D01*
X100459502Y-120643677D01*
X100373315Y-120277232D01*
X100371212Y-120265981D01*
X100352754Y-120133661D01*
X100319205Y-119893154D01*
X100318149Y-119881757D01*
X100317554Y-119868892D01*
X100300632Y-119502855D01*
X100300500Y-119497128D01*
X100300500Y-116013389D01*
X103429500Y-116013389D01*
X103429500Y-116186611D01*
X103437677Y-116238239D01*
X103449712Y-116314229D01*
X103456598Y-116357701D01*
X103510127Y-116522445D01*
X103588768Y-116676788D01*
X103690586Y-116816928D01*
X103813072Y-116939414D01*
X103953212Y-117041232D01*
X104107555Y-117119873D01*
X104272299Y-117173402D01*
X104443389Y-117200500D01*
X104443390Y-117200500D01*
X104616610Y-117200500D01*
X104616611Y-117200500D01*
X104787701Y-117173402D01*
X104952445Y-117119873D01*
X105106788Y-117041232D01*
X105246928Y-116939414D01*
X105369414Y-116816928D01*
X105471232Y-116676788D01*
X105549873Y-116522445D01*
X105603402Y-116357701D01*
X105630500Y-116186611D01*
X105630500Y-116013389D01*
X105603402Y-115842299D01*
X105549873Y-115677555D01*
X105471232Y-115523212D01*
X105369414Y-115383072D01*
X105246928Y-115260586D01*
X105106788Y-115158768D01*
X104952445Y-115080127D01*
X104787701Y-115026598D01*
X104787699Y-115026597D01*
X104787698Y-115026597D01*
X104656271Y-115005781D01*
X104616611Y-114999500D01*
X104443389Y-114999500D01*
X104403728Y-115005781D01*
X104272302Y-115026597D01*
X104107552Y-115080128D01*
X103953211Y-115158768D01*
X103888206Y-115205998D01*
X103813072Y-115260586D01*
X103813070Y-115260588D01*
X103813069Y-115260588D01*
X103690588Y-115383069D01*
X103690588Y-115383070D01*
X103690586Y-115383072D01*
X103664614Y-115418819D01*
X103588768Y-115523211D01*
X103510128Y-115677552D01*
X103510127Y-115677554D01*
X103510127Y-115677555D01*
X103483362Y-115759927D01*
X103456597Y-115842302D01*
X103442753Y-115929710D01*
X103429500Y-116013389D01*
X100300500Y-116013389D01*
X100300500Y-113473389D01*
X103429500Y-113473389D01*
X103429500Y-113646611D01*
X103456598Y-113817701D01*
X103510127Y-113982445D01*
X103588768Y-114136788D01*
X103690586Y-114276928D01*
X103813072Y-114399414D01*
X103953212Y-114501232D01*
X104107555Y-114579873D01*
X104272299Y-114633402D01*
X104443389Y-114660500D01*
X104443390Y-114660500D01*
X104616610Y-114660500D01*
X104616611Y-114660500D01*
X104787701Y-114633402D01*
X104952445Y-114579873D01*
X105106788Y-114501232D01*
X105246928Y-114399414D01*
X105369414Y-114276928D01*
X105471232Y-114136788D01*
X105549873Y-113982445D01*
X105603402Y-113817701D01*
X105630500Y-113646611D01*
X105630500Y-113473389D01*
X105603402Y-113302299D01*
X105549873Y-113137555D01*
X105471232Y-112983212D01*
X105369414Y-112843072D01*
X105246928Y-112720586D01*
X105106788Y-112618768D01*
X104952445Y-112540127D01*
X104787701Y-112486598D01*
X104787699Y-112486597D01*
X104787698Y-112486597D01*
X104656271Y-112465781D01*
X104616611Y-112459500D01*
X104443389Y-112459500D01*
X104403728Y-112465781D01*
X104272302Y-112486597D01*
X104107552Y-112540128D01*
X103953211Y-112618768D01*
X103873256Y-112676859D01*
X103813072Y-112720586D01*
X103813070Y-112720588D01*
X103813069Y-112720588D01*
X103690588Y-112843069D01*
X103690588Y-112843070D01*
X103690586Y-112843072D01*
X103646859Y-112903256D01*
X103588768Y-112983211D01*
X103510128Y-113137552D01*
X103456597Y-113302302D01*
X103429500Y-113473389D01*
X100300500Y-113473389D01*
X100300500Y-105833753D01*
X103180000Y-105833753D01*
X103180000Y-106046246D01*
X103213242Y-106256127D01*
X103213242Y-106256130D01*
X103278904Y-106458217D01*
X103375375Y-106647550D01*
X103414728Y-106701716D01*
X104047037Y-106069408D01*
X104064075Y-106132993D01*
X104129901Y-106247007D01*
X104222993Y-106340099D01*
X104337007Y-106405925D01*
X104400589Y-106422962D01*
X103768282Y-107055269D01*
X103768282Y-107055270D01*
X103822449Y-107094624D01*
X104011784Y-107191096D01*
X104110711Y-107223239D01*
X104168387Y-107262676D01*
X104195586Y-107327034D01*
X104183672Y-107395881D01*
X104136428Y-107447357D01*
X104110722Y-107459097D01*
X104109522Y-107459487D01*
X104107550Y-107460128D01*
X103953211Y-107538768D01*
X103873256Y-107596859D01*
X103813072Y-107640586D01*
X103813070Y-107640588D01*
X103813069Y-107640588D01*
X103690588Y-107763069D01*
X103690588Y-107763070D01*
X103690586Y-107763072D01*
X103646859Y-107823256D01*
X103588768Y-107903211D01*
X103510128Y-108057552D01*
X103456597Y-108222302D01*
X103453866Y-108239548D01*
X103429500Y-108393389D01*
X103429500Y-108566611D01*
X103456598Y-108737701D01*
X103510127Y-108902445D01*
X103588768Y-109056788D01*
X103690586Y-109196928D01*
X103813072Y-109319414D01*
X103953212Y-109421232D01*
X104107555Y-109499873D01*
X104272299Y-109553402D01*
X104443389Y-109580500D01*
X104443390Y-109580500D01*
X104616610Y-109580500D01*
X104616611Y-109580500D01*
X104787701Y-109553402D01*
X104952445Y-109499873D01*
X105106788Y-109421232D01*
X105246928Y-109319414D01*
X105369414Y-109196928D01*
X105471232Y-109056788D01*
X105497015Y-109006186D01*
X105544989Y-108955390D01*
X105612810Y-108938594D01*
X105678945Y-108961131D01*
X105722397Y-109015846D01*
X105731500Y-109062480D01*
X105731500Y-109271455D01*
X105711815Y-109338494D01*
X105695181Y-109359136D01*
X105082969Y-109971347D01*
X105021646Y-110004832D01*
X104956970Y-110001597D01*
X104787698Y-109946597D01*
X104656271Y-109925781D01*
X104616611Y-109919500D01*
X104443389Y-109919500D01*
X104403728Y-109925781D01*
X104272302Y-109946597D01*
X104107552Y-110000128D01*
X103953211Y-110078768D01*
X103873256Y-110136859D01*
X103813072Y-110180586D01*
X103813070Y-110180588D01*
X103813069Y-110180588D01*
X103690588Y-110303069D01*
X103690588Y-110303070D01*
X103690586Y-110303072D01*
X103646859Y-110363256D01*
X103588768Y-110443211D01*
X103510128Y-110597552D01*
X103456597Y-110762302D01*
X103456597Y-110762304D01*
X103429500Y-110933389D01*
X103429500Y-111106611D01*
X103456598Y-111277701D01*
X103510127Y-111442445D01*
X103588768Y-111596788D01*
X103690586Y-111736928D01*
X103813072Y-111859414D01*
X103953212Y-111961232D01*
X104107555Y-112039873D01*
X104272299Y-112093402D01*
X104443389Y-112120500D01*
X104443390Y-112120500D01*
X104616610Y-112120500D01*
X104616611Y-112120500D01*
X104787701Y-112093402D01*
X104952445Y-112039873D01*
X105106788Y-111961232D01*
X105246928Y-111859414D01*
X105369414Y-111736928D01*
X105471232Y-111596788D01*
X105549873Y-111442445D01*
X105603402Y-111277701D01*
X105630500Y-111106611D01*
X105630500Y-110933389D01*
X105603402Y-110762299D01*
X105549873Y-110597555D01*
X105549869Y-110597547D01*
X105548401Y-110593029D01*
X105546406Y-110523188D01*
X105578649Y-110467031D01*
X106362469Y-109683213D01*
X106408614Y-109603288D01*
X106414720Y-109580500D01*
X106432500Y-109514144D01*
X106432500Y-104860845D01*
X106699500Y-104860845D01*
X106699500Y-104960438D01*
X106699500Y-114452405D01*
X106699500Y-114500000D01*
X106699500Y-114639155D01*
X106733046Y-114915435D01*
X106773639Y-115080127D01*
X106799651Y-115185662D01*
X106898341Y-115445884D01*
X106983284Y-115607728D01*
X107027677Y-115692311D01*
X107185774Y-115921355D01*
X107370327Y-116129673D01*
X107578645Y-116314226D01*
X107807689Y-116472323D01*
X107962221Y-116553428D01*
X108054115Y-116601658D01*
X108314337Y-116700348D01*
X108314339Y-116700348D01*
X108314343Y-116700350D01*
X108584565Y-116766954D01*
X108798222Y-116792896D01*
X108860842Y-116800500D01*
X108860845Y-116800500D01*
X139139158Y-116800500D01*
X139197378Y-116793430D01*
X139415435Y-116766954D01*
X139685657Y-116700350D01*
X139945880Y-116601660D01*
X140192311Y-116472323D01*
X140421355Y-116314226D01*
X140629673Y-116129673D01*
X140814226Y-115921355D01*
X140972323Y-115692311D01*
X141101660Y-115445880D01*
X141200350Y-115185657D01*
X141266954Y-114915435D01*
X141300500Y-114639155D01*
X141300500Y-114500000D01*
X141300500Y-114452405D01*
X141300500Y-104960438D01*
X141300500Y-104860845D01*
X141266954Y-104584565D01*
X141200350Y-104314343D01*
X141185305Y-104274674D01*
X141101658Y-104054115D01*
X141013982Y-103887064D01*
X140972323Y-103807689D01*
X140814226Y-103578645D01*
X140629673Y-103370327D01*
X140421355Y-103185774D01*
X140192311Y-103027677D01*
X140107728Y-102983284D01*
X139945884Y-102898341D01*
X139685662Y-102799651D01*
X139621041Y-102783723D01*
X139415435Y-102733046D01*
X139243232Y-102712137D01*
X139139158Y-102699500D01*
X139139155Y-102699500D01*
X139039562Y-102699500D01*
X109047595Y-102699500D01*
X109000000Y-102699500D01*
X108860845Y-102699500D01*
X108860842Y-102699500D01*
X108695077Y-102719627D01*
X108584565Y-102733046D01*
X108447493Y-102766831D01*
X108314337Y-102799651D01*
X108054115Y-102898341D01*
X107807691Y-103027676D01*
X107807682Y-103027681D01*
X107578650Y-103185770D01*
X107370327Y-103370327D01*
X107185770Y-103578650D01*
X107027681Y-103807682D01*
X107027676Y-103807691D01*
X106898341Y-104054115D01*
X106799651Y-104314337D01*
X106791418Y-104347740D01*
X106733046Y-104584565D01*
X106699500Y-104860845D01*
X106432500Y-104860845D01*
X106432500Y-103731644D01*
X106452185Y-103664605D01*
X106468819Y-103643963D01*
X107775963Y-102336819D01*
X107837286Y-102303334D01*
X107863644Y-102300500D01*
X117296142Y-102300500D01*
X117296144Y-102300500D01*
X117385288Y-102276614D01*
X117465212Y-102230470D01*
X120445683Y-99249999D01*
X130695000Y-99249999D01*
X130695000Y-99250000D01*
X130712962Y-99443855D01*
X130766241Y-99631107D01*
X130766246Y-99631120D01*
X130853021Y-99805386D01*
X130970347Y-99960751D01*
X131114219Y-100091907D01*
X131114221Y-100091909D01*
X131279742Y-100194395D01*
X131279744Y-100194396D01*
X131279746Y-100194397D01*
X131461286Y-100264726D01*
X131652657Y-100300500D01*
X131652659Y-100300500D01*
X134347341Y-100300500D01*
X134347343Y-100300500D01*
X134538714Y-100264726D01*
X134720254Y-100194397D01*
X134885780Y-100091908D01*
X135029654Y-99960749D01*
X135146979Y-99805386D01*
X135233758Y-99631110D01*
X135287037Y-99443856D01*
X135305000Y-99250000D01*
X135300756Y-99204204D01*
X135287037Y-99056144D01*
X135276753Y-99020000D01*
X135233758Y-98868890D01*
X135207330Y-98815816D01*
X135179060Y-98759042D01*
X135146979Y-98694614D01*
X135054744Y-98572475D01*
X135029652Y-98539248D01*
X134885780Y-98408092D01*
X134885778Y-98408090D01*
X134720257Y-98305604D01*
X134720248Y-98305600D01*
X134584099Y-98252856D01*
X134538714Y-98235274D01*
X134347343Y-98199500D01*
X134289562Y-98199500D01*
X131797595Y-98199500D01*
X131750000Y-98199500D01*
X131652657Y-98199500D01*
X131461286Y-98235274D01*
X131461283Y-98235274D01*
X131461283Y-98235275D01*
X131279751Y-98305600D01*
X131279742Y-98305604D01*
X131114221Y-98408090D01*
X131114219Y-98408092D01*
X130970347Y-98539248D01*
X130853021Y-98694613D01*
X130766246Y-98868879D01*
X130766241Y-98868892D01*
X130712962Y-99056144D01*
X130695000Y-99249999D01*
X120445683Y-99249999D01*
X120958863Y-98736819D01*
X121020186Y-98703334D01*
X121046544Y-98700500D01*
X125108505Y-98700500D01*
X125175544Y-98720185D01*
X125215892Y-98762500D01*
X125259491Y-98838015D01*
X125361985Y-98940509D01*
X125361986Y-98940510D01*
X125361988Y-98940511D01*
X125487511Y-99012982D01*
X125487512Y-99012982D01*
X125487515Y-99012984D01*
X125627525Y-99050500D01*
X125627528Y-99050500D01*
X125772472Y-99050500D01*
X125772475Y-99050500D01*
X125912485Y-99012984D01*
X126038015Y-98940509D01*
X126140509Y-98838015D01*
X126212984Y-98712485D01*
X126250500Y-98572475D01*
X126250500Y-98427525D01*
X126212984Y-98287515D01*
X126162168Y-98199500D01*
X126140511Y-98161988D01*
X126140506Y-98161982D01*
X126038017Y-98059493D01*
X126038011Y-98059488D01*
X125912488Y-97987017D01*
X125912489Y-97987017D01*
X125911645Y-97986790D01*
X125905379Y-97985112D01*
X125845721Y-97948747D01*
X125815192Y-97885900D01*
X125823487Y-97816525D01*
X125839102Y-97789848D01*
X125840503Y-97788020D01*
X125840509Y-97788015D01*
X125912984Y-97662485D01*
X125950500Y-97522475D01*
X125950500Y-97377525D01*
X125912984Y-97237515D01*
X125898244Y-97211985D01*
X125840511Y-97111988D01*
X125840506Y-97111982D01*
X125738017Y-97009493D01*
X125738011Y-97009488D01*
X125612488Y-96937017D01*
X125612489Y-96937017D01*
X125601006Y-96933940D01*
X125472475Y-96899500D01*
X125327525Y-96899500D01*
X125198993Y-96933940D01*
X125187511Y-96937017D01*
X125061988Y-97009488D01*
X125061982Y-97009493D01*
X124959493Y-97111982D01*
X124959488Y-97111988D01*
X124887017Y-97237511D01*
X124887016Y-97237515D01*
X124849500Y-97377525D01*
X124849500Y-97377527D01*
X124849500Y-97474500D01*
X124829815Y-97541539D01*
X124777011Y-97587294D01*
X124725500Y-97598500D01*
X120637756Y-97598500D01*
X120548612Y-97622386D01*
X120548609Y-97622387D01*
X120468691Y-97668527D01*
X120468686Y-97668531D01*
X116975037Y-101162181D01*
X116913714Y-101195666D01*
X116887356Y-101198500D01*
X107454856Y-101198500D01*
X107365712Y-101222386D01*
X107365709Y-101222387D01*
X107285791Y-101268527D01*
X107285786Y-101268531D01*
X105842181Y-102712137D01*
X105780858Y-102745622D01*
X105711166Y-102740638D01*
X105655233Y-102698766D01*
X105630816Y-102633302D01*
X105630500Y-102624456D01*
X105630500Y-102525323D01*
X105630499Y-102525321D01*
X105615967Y-102452264D01*
X105615966Y-102452260D01*
X105560601Y-102369399D01*
X105477740Y-102314034D01*
X105477739Y-102314033D01*
X105477735Y-102314032D01*
X105404677Y-102299500D01*
X105404674Y-102299500D01*
X105124500Y-102299500D01*
X105057461Y-102279815D01*
X105011706Y-102227011D01*
X105000500Y-102175500D01*
X105000500Y-99973206D01*
X105020185Y-99906167D01*
X105072989Y-99860412D01*
X105142147Y-99850468D01*
X105205703Y-99879493D01*
X105227603Y-99904316D01*
X105284412Y-99989338D01*
X105430660Y-100135586D01*
X105430664Y-100135589D01*
X105602631Y-100250494D01*
X105602641Y-100250499D01*
X105793725Y-100329649D01*
X105793733Y-100329651D01*
X105996579Y-100369999D01*
X105996583Y-100370000D01*
X106150000Y-100370000D01*
X106150000Y-99620000D01*
X106650000Y-99620000D01*
X106650000Y-100370000D01*
X106803417Y-100370000D01*
X106803420Y-100369999D01*
X107006266Y-100329651D01*
X107006274Y-100329649D01*
X107197358Y-100250499D01*
X107197368Y-100250494D01*
X107369335Y-100135589D01*
X107369339Y-100135586D01*
X107515586Y-99989339D01*
X107515589Y-99989335D01*
X107630494Y-99817368D01*
X107630499Y-99817358D01*
X107709648Y-99626276D01*
X107709649Y-99626274D01*
X107720843Y-99570000D01*
X106866988Y-99570000D01*
X106884205Y-99560060D01*
X106940060Y-99504205D01*
X106979556Y-99435796D01*
X107000000Y-99359496D01*
X107000000Y-99280504D01*
X106991826Y-99249999D01*
X112695000Y-99249999D01*
X112695000Y-99250000D01*
X112712962Y-99443855D01*
X112766241Y-99631107D01*
X112766246Y-99631120D01*
X112853021Y-99805386D01*
X112970347Y-99960751D01*
X113114219Y-100091907D01*
X113114221Y-100091909D01*
X113279742Y-100194395D01*
X113279744Y-100194396D01*
X113279746Y-100194397D01*
X113461286Y-100264726D01*
X113652657Y-100300500D01*
X113652659Y-100300500D01*
X116347341Y-100300500D01*
X116347343Y-100300500D01*
X116538714Y-100264726D01*
X116720254Y-100194397D01*
X116885780Y-100091908D01*
X117029654Y-99960749D01*
X117146979Y-99805386D01*
X117233758Y-99631110D01*
X117287037Y-99443856D01*
X117305000Y-99250000D01*
X117300756Y-99204204D01*
X117287037Y-99056144D01*
X117276753Y-99020000D01*
X117233758Y-98868890D01*
X117207330Y-98815816D01*
X117179060Y-98759042D01*
X117146979Y-98694614D01*
X117054744Y-98572475D01*
X117029652Y-98539248D01*
X116885780Y-98408092D01*
X116885778Y-98408090D01*
X116720257Y-98305604D01*
X116720248Y-98305600D01*
X116584099Y-98252856D01*
X116538714Y-98235274D01*
X116347343Y-98199500D01*
X116289562Y-98199500D01*
X113797595Y-98199500D01*
X113750000Y-98199500D01*
X113652657Y-98199500D01*
X113461286Y-98235274D01*
X113461283Y-98235274D01*
X113461283Y-98235275D01*
X113279751Y-98305600D01*
X113279742Y-98305604D01*
X113114221Y-98408090D01*
X113114219Y-98408092D01*
X112970347Y-98539248D01*
X112853021Y-98694613D01*
X112766246Y-98868879D01*
X112766241Y-98868892D01*
X112712962Y-99056144D01*
X112695000Y-99249999D01*
X106991826Y-99249999D01*
X106979556Y-99204204D01*
X106940060Y-99135795D01*
X106884205Y-99079940D01*
X106866988Y-99070000D01*
X107720843Y-99070000D01*
X107709649Y-99013725D01*
X107709648Y-99013723D01*
X107630499Y-98822641D01*
X107630494Y-98822631D01*
X107515589Y-98650664D01*
X107515586Y-98650660D01*
X107369339Y-98504413D01*
X107369335Y-98504410D01*
X107197368Y-98389505D01*
X107197358Y-98389500D01*
X107006274Y-98310350D01*
X107006266Y-98310348D01*
X106803420Y-98270000D01*
X106650000Y-98270000D01*
X106650000Y-99020000D01*
X106150000Y-99020000D01*
X106150000Y-98270000D01*
X105996579Y-98270000D01*
X105793733Y-98310348D01*
X105793725Y-98310350D01*
X105602641Y-98389500D01*
X105602631Y-98389505D01*
X105430664Y-98504410D01*
X105430660Y-98504413D01*
X105284413Y-98650660D01*
X105284410Y-98650664D01*
X105227602Y-98735684D01*
X105173990Y-98780489D01*
X105104665Y-98789196D01*
X105041637Y-98759042D01*
X105004918Y-98699599D01*
X105000500Y-98666793D01*
X105000500Y-97979386D01*
X105020185Y-97912347D01*
X105036819Y-97891705D01*
X105038015Y-97890509D01*
X105040509Y-97888015D01*
X105112984Y-97762485D01*
X105150500Y-97622475D01*
X105150500Y-97477525D01*
X105112984Y-97337515D01*
X105055246Y-97237511D01*
X105040511Y-97211988D01*
X105040506Y-97211982D01*
X104938017Y-97109493D01*
X104938011Y-97109488D01*
X104812488Y-97037017D01*
X104812489Y-97037017D01*
X104801006Y-97033940D01*
X104672475Y-96999500D01*
X104527525Y-96999500D01*
X104398993Y-97033940D01*
X104387511Y-97037017D01*
X104261988Y-97109488D01*
X104261982Y-97109493D01*
X104159493Y-97211982D01*
X104159488Y-97211988D01*
X104087017Y-97337511D01*
X104087016Y-97337515D01*
X104049500Y-97477525D01*
X104049500Y-97622475D01*
X104060221Y-97662485D01*
X104087017Y-97762488D01*
X104159488Y-97888011D01*
X104159493Y-97888017D01*
X104163181Y-97891705D01*
X104196666Y-97953028D01*
X104199500Y-97979386D01*
X104199500Y-102175500D01*
X104179815Y-102242539D01*
X104127011Y-102288294D01*
X104075500Y-102299500D01*
X103655323Y-102299500D01*
X103582264Y-102314032D01*
X103582260Y-102314033D01*
X103499399Y-102369399D01*
X103444033Y-102452260D01*
X103444032Y-102452264D01*
X103429500Y-102525321D01*
X103429500Y-104274678D01*
X103444032Y-104347735D01*
X103444033Y-104347739D01*
X103444034Y-104347740D01*
X103499399Y-104430601D01*
X103582260Y-104485966D01*
X103582264Y-104485967D01*
X103655321Y-104500499D01*
X103655324Y-104500500D01*
X103655326Y-104500500D01*
X103865051Y-104500500D01*
X103932090Y-104520185D01*
X103977845Y-104572989D01*
X103987789Y-104642147D01*
X103958764Y-104705703D01*
X103921346Y-104734985D01*
X103822439Y-104785380D01*
X103768282Y-104824727D01*
X103768282Y-104824728D01*
X104400591Y-105457037D01*
X104337007Y-105474075D01*
X104222993Y-105539901D01*
X104129901Y-105632993D01*
X104064075Y-105747007D01*
X104047037Y-105810591D01*
X103414728Y-105178282D01*
X103414727Y-105178282D01*
X103375380Y-105232439D01*
X103278904Y-105421782D01*
X103213242Y-105623869D01*
X103213242Y-105623872D01*
X103180000Y-105833753D01*
X100300500Y-105833753D01*
X100300500Y-99070000D01*
X101279157Y-99070000D01*
X102133012Y-99070000D01*
X102115795Y-99079940D01*
X102059940Y-99135795D01*
X102020444Y-99204204D01*
X102000000Y-99280504D01*
X102000000Y-99359496D01*
X102020444Y-99435796D01*
X102059940Y-99504205D01*
X102115795Y-99560060D01*
X102133012Y-99570000D01*
X101279157Y-99570000D01*
X101290350Y-99626274D01*
X101290351Y-99626276D01*
X101369500Y-99817358D01*
X101369505Y-99817368D01*
X101484410Y-99989335D01*
X101484413Y-99989339D01*
X101630660Y-100135586D01*
X101630664Y-100135589D01*
X101802631Y-100250494D01*
X101802641Y-100250499D01*
X101993725Y-100329649D01*
X101993733Y-100329651D01*
X102196579Y-100369999D01*
X102196583Y-100370000D01*
X102350000Y-100370000D01*
X102350000Y-99620000D01*
X102850000Y-99620000D01*
X102850000Y-100370000D01*
X103003417Y-100370000D01*
X103003420Y-100369999D01*
X103206266Y-100329651D01*
X103206274Y-100329649D01*
X103397358Y-100250499D01*
X103397368Y-100250494D01*
X103569335Y-100135589D01*
X103569339Y-100135586D01*
X103715586Y-99989339D01*
X103715589Y-99989335D01*
X103830494Y-99817368D01*
X103830499Y-99817358D01*
X103909648Y-99626276D01*
X103909649Y-99626274D01*
X103920843Y-99570000D01*
X103066988Y-99570000D01*
X103084205Y-99560060D01*
X103140060Y-99504205D01*
X103179556Y-99435796D01*
X103200000Y-99359496D01*
X103200000Y-99280504D01*
X103179556Y-99204204D01*
X103140060Y-99135795D01*
X103084205Y-99079940D01*
X103066988Y-99070000D01*
X103920843Y-99070000D01*
X103909649Y-99013725D01*
X103909648Y-99013723D01*
X103830499Y-98822641D01*
X103830494Y-98822631D01*
X103715589Y-98650664D01*
X103715586Y-98650660D01*
X103569339Y-98504413D01*
X103569335Y-98504410D01*
X103397368Y-98389505D01*
X103397358Y-98389500D01*
X103206274Y-98310350D01*
X103206266Y-98310348D01*
X103003420Y-98270000D01*
X102850000Y-98270000D01*
X102850000Y-99020000D01*
X102350000Y-99020000D01*
X102350000Y-98270000D01*
X102196579Y-98270000D01*
X101993733Y-98310348D01*
X101993725Y-98310350D01*
X101802641Y-98389500D01*
X101802631Y-98389505D01*
X101630664Y-98504410D01*
X101630660Y-98504413D01*
X101484413Y-98650660D01*
X101484410Y-98650664D01*
X101369505Y-98822631D01*
X101369500Y-98822641D01*
X101290351Y-99013723D01*
X101290350Y-99013725D01*
X101279157Y-99070000D01*
X100300500Y-99070000D01*
X100300500Y-90430000D01*
X101279157Y-90430000D01*
X102133012Y-90430000D01*
X102115795Y-90439940D01*
X102059940Y-90495795D01*
X102020444Y-90564204D01*
X102000000Y-90640504D01*
X102000000Y-90719496D01*
X102020444Y-90795796D01*
X102059940Y-90864205D01*
X102115795Y-90920060D01*
X102133012Y-90930000D01*
X101279157Y-90930000D01*
X101290350Y-90986274D01*
X101290351Y-90986276D01*
X101369500Y-91177358D01*
X101369505Y-91177368D01*
X101484410Y-91349335D01*
X101484413Y-91349339D01*
X101630660Y-91495586D01*
X101630664Y-91495589D01*
X101802631Y-91610494D01*
X101802641Y-91610499D01*
X101993725Y-91689649D01*
X101993733Y-91689651D01*
X102196579Y-91729999D01*
X102196583Y-91730000D01*
X102350000Y-91730000D01*
X102350000Y-90980000D01*
X102850000Y-90980000D01*
X102850000Y-91730000D01*
X103003417Y-91730000D01*
X103003420Y-91729999D01*
X103206266Y-91689651D01*
X103206274Y-91689649D01*
X103397358Y-91610499D01*
X103397368Y-91610494D01*
X103569335Y-91495589D01*
X103569339Y-91495586D01*
X103715586Y-91349339D01*
X103715589Y-91349335D01*
X103830494Y-91177368D01*
X103830499Y-91177358D01*
X103909648Y-90986276D01*
X103909649Y-90986274D01*
X103920843Y-90930000D01*
X103066988Y-90930000D01*
X103084205Y-90920060D01*
X103140060Y-90864205D01*
X103179556Y-90795796D01*
X103200000Y-90719496D01*
X103200000Y-90640504D01*
X103179556Y-90564204D01*
X103140060Y-90495795D01*
X103084205Y-90439940D01*
X103066988Y-90430000D01*
X103920843Y-90430000D01*
X105079157Y-90430000D01*
X105933012Y-90430000D01*
X105915795Y-90439940D01*
X105859940Y-90495795D01*
X105820444Y-90564204D01*
X105800000Y-90640504D01*
X105800000Y-90719496D01*
X105820444Y-90795796D01*
X105859940Y-90864205D01*
X105915795Y-90920060D01*
X105933012Y-90930000D01*
X105079157Y-90930000D01*
X105090350Y-90986274D01*
X105090351Y-90986276D01*
X105169500Y-91177358D01*
X105169505Y-91177368D01*
X105284410Y-91349335D01*
X105284413Y-91349339D01*
X105430660Y-91495586D01*
X105430664Y-91495589D01*
X105602631Y-91610494D01*
X105602641Y-91610499D01*
X105793725Y-91689649D01*
X105793733Y-91689651D01*
X105996579Y-91729999D01*
X105996583Y-91730000D01*
X106150000Y-91730000D01*
X106150000Y-90980000D01*
X106650000Y-90980000D01*
X106650000Y-91730000D01*
X106803417Y-91730000D01*
X106803420Y-91729999D01*
X107006266Y-91689651D01*
X107006274Y-91689649D01*
X107197358Y-91610499D01*
X107197368Y-91610494D01*
X107369335Y-91495589D01*
X107369339Y-91495586D01*
X107515586Y-91349339D01*
X107515589Y-91349335D01*
X107630494Y-91177368D01*
X107630499Y-91177358D01*
X107709648Y-90986276D01*
X107709649Y-90986274D01*
X107720843Y-90930000D01*
X106866988Y-90930000D01*
X106884205Y-90920060D01*
X106940060Y-90864205D01*
X106979556Y-90795796D01*
X107000000Y-90719496D01*
X107000000Y-90640504D01*
X106979556Y-90564204D01*
X106940060Y-90495795D01*
X106884205Y-90439940D01*
X106866988Y-90430000D01*
X107720843Y-90430000D01*
X107709649Y-90373725D01*
X107709648Y-90373723D01*
X107630499Y-90182641D01*
X107630494Y-90182631D01*
X107515589Y-90010664D01*
X107515586Y-90010660D01*
X107369339Y-89864413D01*
X107369335Y-89864410D01*
X107197368Y-89749505D01*
X107197358Y-89749500D01*
X107006274Y-89670350D01*
X107006266Y-89670348D01*
X106803420Y-89630000D01*
X106650000Y-89630000D01*
X106650000Y-90380000D01*
X106150000Y-90380000D01*
X106150000Y-89630000D01*
X105996579Y-89630000D01*
X105793733Y-89670348D01*
X105793725Y-89670350D01*
X105602641Y-89749500D01*
X105602631Y-89749505D01*
X105430664Y-89864410D01*
X105430660Y-89864413D01*
X105284413Y-90010660D01*
X105284410Y-90010664D01*
X105169505Y-90182631D01*
X105169500Y-90182641D01*
X105090351Y-90373723D01*
X105090350Y-90373725D01*
X105079157Y-90430000D01*
X103920843Y-90430000D01*
X103909649Y-90373725D01*
X103909648Y-90373723D01*
X103830499Y-90182641D01*
X103830494Y-90182631D01*
X103715589Y-90010664D01*
X103715586Y-90010660D01*
X103569339Y-89864413D01*
X103569335Y-89864410D01*
X103397368Y-89749505D01*
X103397358Y-89749500D01*
X103206274Y-89670350D01*
X103206266Y-89670348D01*
X103003420Y-89630000D01*
X102850000Y-89630000D01*
X102850000Y-90380000D01*
X102350000Y-90380000D01*
X102350000Y-89630000D01*
X102196579Y-89630000D01*
X101993733Y-89670348D01*
X101993725Y-89670350D01*
X101802641Y-89749500D01*
X101802631Y-89749505D01*
X101630664Y-89864410D01*
X101630660Y-89864413D01*
X101484413Y-90010660D01*
X101484410Y-90010664D01*
X101369505Y-90182631D01*
X101369500Y-90182641D01*
X101290351Y-90373723D01*
X101290350Y-90373725D01*
X101279157Y-90430000D01*
X100300500Y-90430000D01*
X100300500Y-86327525D01*
X110549500Y-86327525D01*
X110549500Y-86472475D01*
X110580466Y-86588039D01*
X110587017Y-86612488D01*
X110659488Y-86738011D01*
X110659490Y-86738013D01*
X110659491Y-86738015D01*
X110761985Y-86840509D01*
X110887515Y-86912984D01*
X111027525Y-86950500D01*
X111027529Y-86950500D01*
X111032713Y-86951889D01*
X111088301Y-86983983D01*
X113594703Y-89490385D01*
X113628188Y-89551708D01*
X113623204Y-89621400D01*
X113614410Y-89640064D01*
X113587018Y-89687509D01*
X113587017Y-89687510D01*
X113587016Y-89687515D01*
X113549500Y-89827525D01*
X113549500Y-89972475D01*
X113587016Y-90112485D01*
X113587017Y-90112488D01*
X113659488Y-90238011D01*
X113659490Y-90238013D01*
X113659491Y-90238015D01*
X113761985Y-90340509D01*
X113761986Y-90340510D01*
X113761988Y-90340511D01*
X113887511Y-90412982D01*
X113887512Y-90412982D01*
X113887515Y-90412984D01*
X114027525Y-90450500D01*
X114027528Y-90450500D01*
X114172472Y-90450500D01*
X114172475Y-90450500D01*
X114312485Y-90412984D01*
X114438015Y-90340509D01*
X114540509Y-90238015D01*
X114612984Y-90112485D01*
X114650500Y-89972475D01*
X114650500Y-89827525D01*
X114612984Y-89687515D01*
X114574812Y-89621400D01*
X114540511Y-89561988D01*
X114540506Y-89561982D01*
X114480626Y-89502102D01*
X114475281Y-89493920D01*
X114470160Y-89490205D01*
X114461732Y-89473180D01*
X114452785Y-89459484D01*
X114450303Y-89453122D01*
X114426614Y-89364712D01*
X114398035Y-89315212D01*
X114380470Y-89284788D01*
X112759753Y-87664071D01*
X116249499Y-87664071D01*
X116274497Y-87789738D01*
X116274499Y-87789744D01*
X116323533Y-87908124D01*
X116323534Y-87908126D01*
X116323535Y-87908127D01*
X116328600Y-87915708D01*
X116349480Y-87982383D01*
X116349500Y-87984600D01*
X116349500Y-93072477D01*
X116358700Y-93106813D01*
X116358701Y-93106813D01*
X116358701Y-93106814D01*
X116387016Y-93212485D01*
X116459490Y-93338015D01*
X118661985Y-95540510D01*
X118787515Y-95612984D01*
X118927525Y-95650500D01*
X118927528Y-95650500D01*
X130572472Y-95650500D01*
X130572474Y-95650500D01*
X130572475Y-95650500D01*
X130712485Y-95612984D01*
X130838015Y-95540510D01*
X133390510Y-92988015D01*
X133567321Y-92811202D01*
X133628639Y-92777721D01*
X133698331Y-92782705D01*
X133754265Y-92824576D01*
X133774771Y-92866789D01*
X133782403Y-92895268D01*
X133787017Y-92912489D01*
X133859488Y-93038011D01*
X133859490Y-93038013D01*
X133859491Y-93038015D01*
X133961985Y-93140509D01*
X133961986Y-93140510D01*
X133961988Y-93140511D01*
X134087511Y-93212982D01*
X134087512Y-93212982D01*
X134087515Y-93212984D01*
X134227525Y-93250500D01*
X134227528Y-93250500D01*
X134372472Y-93250500D01*
X134372475Y-93250500D01*
X134512485Y-93212984D01*
X134638015Y-93140509D01*
X134740509Y-93038015D01*
X134812984Y-92912485D01*
X134850500Y-92772475D01*
X134850500Y-92627525D01*
X134812984Y-92487515D01*
X134740509Y-92361985D01*
X134638015Y-92259491D01*
X134638013Y-92259490D01*
X134638011Y-92259488D01*
X134512489Y-92187017D01*
X134507159Y-92185589D01*
X134466790Y-92174772D01*
X134407132Y-92138407D01*
X134376604Y-92075560D01*
X134384899Y-92006184D01*
X134411203Y-91967320D01*
X134991706Y-91386819D01*
X135053029Y-91353334D01*
X135079387Y-91350500D01*
X138879192Y-91350500D01*
X138946231Y-91370185D01*
X138966873Y-91386819D01*
X138985327Y-91405273D01*
X138985331Y-91405276D01*
X139091866Y-91476461D01*
X139091872Y-91476464D01*
X139091873Y-91476465D01*
X139210256Y-91525501D01*
X139210260Y-91525501D01*
X139210261Y-91525502D01*
X139335928Y-91550500D01*
X139335931Y-91550500D01*
X139464071Y-91550500D01*
X139548615Y-91533682D01*
X139589744Y-91525501D01*
X139708127Y-91476465D01*
X139814669Y-91405276D01*
X139905276Y-91314669D01*
X139976465Y-91208127D01*
X140025501Y-91089744D01*
X140037877Y-91027527D01*
X140050500Y-90964071D01*
X140050500Y-90835928D01*
X140025502Y-90710261D01*
X140025501Y-90710260D01*
X140025501Y-90710256D01*
X139976465Y-90591873D01*
X139976464Y-90591872D01*
X139976461Y-90591866D01*
X139905276Y-90485331D01*
X139905273Y-90485327D01*
X139814672Y-90394726D01*
X139814668Y-90394723D01*
X139708133Y-90323538D01*
X139708124Y-90323533D01*
X139589744Y-90274499D01*
X139589738Y-90274497D01*
X139464071Y-90249500D01*
X139464069Y-90249500D01*
X139372475Y-90249500D01*
X134727525Y-90249500D01*
X134634228Y-90274499D01*
X134634227Y-90274498D01*
X134587519Y-90287014D01*
X134587514Y-90287016D01*
X134461986Y-90359489D01*
X134461983Y-90359491D01*
X130308294Y-94513181D01*
X130246971Y-94546666D01*
X130220613Y-94549500D01*
X119279387Y-94549500D01*
X119212348Y-94529815D01*
X119191706Y-94513181D01*
X118052445Y-93373920D01*
X120749499Y-93373920D01*
X120778340Y-93518907D01*
X120778342Y-93518913D01*
X120834913Y-93655490D01*
X120834915Y-93655493D01*
X120846753Y-93673211D01*
X120846752Y-93673211D01*
X120917046Y-93778414D01*
X120917047Y-93778415D01*
X120917048Y-93778416D01*
X121021584Y-93882952D01*
X121095270Y-93932186D01*
X121144505Y-93965084D01*
X121144506Y-93965084D01*
X121144507Y-93965085D01*
X121144509Y-93965086D01*
X121281082Y-94021656D01*
X121281087Y-94021658D01*
X121281091Y-94021658D01*
X121281092Y-94021659D01*
X121426079Y-94050500D01*
X121426082Y-94050500D01*
X122373920Y-94050500D01*
X122471462Y-94031096D01*
X122518913Y-94021658D01*
X122655495Y-93965084D01*
X122778416Y-93882951D01*
X122882951Y-93778416D01*
X122902112Y-93749739D01*
X122931600Y-93705609D01*
X122985213Y-93660804D01*
X123034702Y-93650500D01*
X128973920Y-93650500D01*
X129071462Y-93631096D01*
X129118913Y-93621658D01*
X129255495Y-93565084D01*
X129324595Y-93518913D01*
X129378416Y-93482952D01*
X130782952Y-92078415D01*
X130810205Y-92037627D01*
X130865084Y-91955495D01*
X130888518Y-91898920D01*
X130921659Y-91818912D01*
X130938052Y-91736496D01*
X130970435Y-91674590D01*
X131031150Y-91640015D01*
X131091761Y-91640916D01*
X131127525Y-91650500D01*
X131127527Y-91650500D01*
X131272472Y-91650500D01*
X131272475Y-91650500D01*
X131412485Y-91612984D01*
X131538015Y-91540509D01*
X131640509Y-91438015D01*
X131712984Y-91312485D01*
X131750500Y-91172475D01*
X131750500Y-91027525D01*
X131712984Y-90887515D01*
X131691613Y-90850500D01*
X131640511Y-90761988D01*
X131640506Y-90761982D01*
X131538017Y-90659493D01*
X131538015Y-90659491D01*
X131466999Y-90618489D01*
X131413499Y-90587601D01*
X131365284Y-90537033D01*
X131351500Y-90480214D01*
X131351500Y-87222073D01*
X131351500Y-87222071D01*
X131327614Y-87132927D01*
X131308315Y-87099500D01*
X131281470Y-87053003D01*
X130547997Y-86319530D01*
X130547996Y-86319529D01*
X130547993Y-86319527D01*
X130468075Y-86273387D01*
X130468074Y-86273386D01*
X130468073Y-86273386D01*
X130378929Y-86249500D01*
X130378928Y-86249500D01*
X130079386Y-86249500D01*
X130012347Y-86229815D01*
X129991705Y-86213181D01*
X129938017Y-86159493D01*
X129938011Y-86159488D01*
X129812488Y-86087017D01*
X129812489Y-86087017D01*
X129801006Y-86083940D01*
X129672475Y-86049500D01*
X129527525Y-86049500D01*
X129398993Y-86083940D01*
X129387511Y-86087017D01*
X129261988Y-86159488D01*
X129261982Y-86159493D01*
X129159493Y-86261982D01*
X129159488Y-86261988D01*
X129087017Y-86387511D01*
X129087016Y-86387515D01*
X129049500Y-86527525D01*
X129049500Y-86672475D01*
X129087016Y-86812485D01*
X129087017Y-86812488D01*
X129159488Y-86938011D01*
X129159490Y-86938013D01*
X129159491Y-86938015D01*
X129261985Y-87040509D01*
X129261986Y-87040510D01*
X129261988Y-87040511D01*
X129387511Y-87112982D01*
X129387512Y-87112982D01*
X129387515Y-87112984D01*
X129432651Y-87125078D01*
X129492309Y-87161442D01*
X129522838Y-87224289D01*
X129515116Y-87292304D01*
X129478343Y-87381082D01*
X129478340Y-87381092D01*
X129449500Y-87526079D01*
X129449500Y-91237770D01*
X129429815Y-91304809D01*
X129413181Y-91325451D01*
X128625451Y-92113181D01*
X128564128Y-92146666D01*
X128537770Y-92149500D01*
X121826080Y-92149500D01*
X121681092Y-92178340D01*
X121681082Y-92178343D01*
X121544511Y-92234912D01*
X121544498Y-92234919D01*
X121421584Y-92317048D01*
X121421580Y-92317051D01*
X120917050Y-92821580D01*
X120917044Y-92821588D01*
X120867812Y-92895268D01*
X120867813Y-92895269D01*
X120834921Y-92944496D01*
X120834914Y-92944508D01*
X120778342Y-93081086D01*
X120778340Y-93081092D01*
X120749500Y-93226079D01*
X120749500Y-93226082D01*
X120749500Y-93373918D01*
X120749500Y-93373920D01*
X120749499Y-93373920D01*
X118052445Y-93373920D01*
X117486819Y-92808294D01*
X117453334Y-92746971D01*
X117450500Y-92720613D01*
X117450500Y-87984600D01*
X117470185Y-87917561D01*
X117471359Y-87915768D01*
X117476465Y-87908127D01*
X117525501Y-87789744D01*
X117550500Y-87664069D01*
X117550500Y-87535931D01*
X117550500Y-87535928D01*
X117525502Y-87410261D01*
X117525501Y-87410260D01*
X117525501Y-87410256D01*
X117476465Y-87291873D01*
X117476464Y-87291872D01*
X117476461Y-87291866D01*
X117405276Y-87185331D01*
X117405273Y-87185327D01*
X117314672Y-87094726D01*
X117314668Y-87094723D01*
X117208133Y-87023538D01*
X117208124Y-87023533D01*
X117089744Y-86974499D01*
X117089738Y-86974497D01*
X116964071Y-86949500D01*
X116964069Y-86949500D01*
X116835931Y-86949500D01*
X116835929Y-86949500D01*
X116710261Y-86974497D01*
X116710255Y-86974499D01*
X116591875Y-87023533D01*
X116591866Y-87023538D01*
X116485331Y-87094723D01*
X116485327Y-87094726D01*
X116394726Y-87185327D01*
X116394723Y-87185331D01*
X116323538Y-87291866D01*
X116323533Y-87291875D01*
X116274499Y-87410255D01*
X116274497Y-87410261D01*
X116249500Y-87535928D01*
X116249500Y-87535931D01*
X116249500Y-87664069D01*
X116249500Y-87664071D01*
X116249499Y-87664071D01*
X112759753Y-87664071D01*
X111683721Y-86588039D01*
X111650236Y-86526716D01*
X111651336Y-86480783D01*
X111649439Y-86480534D01*
X111650500Y-86472475D01*
X111650500Y-86327527D01*
X111650500Y-86327525D01*
X111612984Y-86187515D01*
X111596805Y-86159493D01*
X111540511Y-86061988D01*
X111540506Y-86061982D01*
X111438017Y-85959493D01*
X111438011Y-85959488D01*
X111312488Y-85887017D01*
X111312489Y-85887017D01*
X111301006Y-85883940D01*
X111172475Y-85849500D01*
X111027525Y-85849500D01*
X110898993Y-85883940D01*
X110887511Y-85887017D01*
X110761988Y-85959488D01*
X110761982Y-85959493D01*
X110659493Y-86061982D01*
X110659488Y-86061988D01*
X110587017Y-86187511D01*
X110587016Y-86187515D01*
X110549500Y-86327525D01*
X100300500Y-86327525D01*
X100300500Y-82502871D01*
X100300632Y-82497144D01*
X100307873Y-82340511D01*
X100307882Y-82340316D01*
X101249500Y-82340316D01*
X101249500Y-82659683D01*
X101280803Y-82977522D01*
X101343109Y-83290754D01*
X101435820Y-83596382D01*
X101558040Y-83891446D01*
X101558042Y-83891451D01*
X101708584Y-84173094D01*
X101708601Y-84173122D01*
X101886012Y-84438638D01*
X101886029Y-84438661D01*
X102088638Y-84685540D01*
X102314459Y-84911361D01*
X102314464Y-84911365D01*
X102314465Y-84911366D01*
X102561344Y-85113975D01*
X102561351Y-85113980D01*
X102561361Y-85113987D01*
X102826877Y-85291398D01*
X102826882Y-85291401D01*
X102826894Y-85291409D01*
X102826903Y-85291413D01*
X102826905Y-85291415D01*
X103108548Y-85441957D01*
X103108550Y-85441957D01*
X103108556Y-85441961D01*
X103403619Y-85564180D01*
X103709240Y-85656889D01*
X104022477Y-85719196D01*
X104340313Y-85750500D01*
X104340316Y-85750500D01*
X104659684Y-85750500D01*
X104659687Y-85750500D01*
X104977523Y-85719196D01*
X105290760Y-85656889D01*
X105596381Y-85564180D01*
X105891444Y-85441961D01*
X106173106Y-85291409D01*
X106438656Y-85113975D01*
X106685535Y-84911366D01*
X106911366Y-84685535D01*
X107113975Y-84438656D01*
X107291409Y-84173106D01*
X107441961Y-83891444D01*
X107564180Y-83596381D01*
X107656889Y-83290760D01*
X107684121Y-83153856D01*
X120249500Y-83153856D01*
X120249500Y-89146143D01*
X120269163Y-89219529D01*
X120273385Y-89235285D01*
X120273387Y-89235290D01*
X120319527Y-89315208D01*
X120319529Y-89315211D01*
X120319530Y-89315212D01*
X121519531Y-90515212D01*
X121584788Y-90580469D01*
X121584791Y-90580470D01*
X121584794Y-90580473D01*
X121664706Y-90626611D01*
X121664707Y-90626611D01*
X121664712Y-90626614D01*
X121753856Y-90650500D01*
X122920614Y-90650500D01*
X122987653Y-90670185D01*
X123008295Y-90686819D01*
X123061985Y-90740509D01*
X123061986Y-90740510D01*
X123061988Y-90740511D01*
X123187511Y-90812982D01*
X123187512Y-90812982D01*
X123187515Y-90812984D01*
X123327525Y-90850500D01*
X123327528Y-90850500D01*
X123472472Y-90850500D01*
X123472475Y-90850500D01*
X123612485Y-90812984D01*
X123738015Y-90740509D01*
X123840509Y-90638015D01*
X123912984Y-90512485D01*
X123950500Y-90372475D01*
X123950500Y-90227525D01*
X123912984Y-90087515D01*
X123846565Y-89972475D01*
X123840511Y-89961988D01*
X123840506Y-89961982D01*
X123738017Y-89859493D01*
X123738011Y-89859488D01*
X123612488Y-89787017D01*
X123612489Y-89787017D01*
X123601006Y-89783940D01*
X123472475Y-89749500D01*
X123327525Y-89749500D01*
X123198993Y-89783940D01*
X123187511Y-89787017D01*
X123061988Y-89859488D01*
X123061982Y-89859493D01*
X123008295Y-89913181D01*
X122946972Y-89946666D01*
X122920614Y-89949500D01*
X121996543Y-89949500D01*
X121929504Y-89929815D01*
X121908862Y-89913181D01*
X120986819Y-88991137D01*
X120953334Y-88929814D01*
X120950500Y-88903456D01*
X120950500Y-83396544D01*
X120970185Y-83329505D01*
X120986819Y-83308863D01*
X122008863Y-82286819D01*
X122070186Y-82253334D01*
X122096544Y-82250500D01*
X123720614Y-82250500D01*
X123787653Y-82270185D01*
X123808295Y-82286819D01*
X123861985Y-82340509D01*
X123861986Y-82340510D01*
X123861988Y-82340511D01*
X123987511Y-82412982D01*
X123987512Y-82412982D01*
X123987515Y-82412984D01*
X124127525Y-82450500D01*
X124127528Y-82450500D01*
X124272472Y-82450500D01*
X124272475Y-82450500D01*
X124412485Y-82412984D01*
X124538015Y-82340509D01*
X124538208Y-82340316D01*
X140249500Y-82340316D01*
X140249500Y-82659683D01*
X140280803Y-82977522D01*
X140343109Y-83290754D01*
X140435820Y-83596382D01*
X140558040Y-83891446D01*
X140558042Y-83891451D01*
X140708584Y-84173094D01*
X140708601Y-84173122D01*
X140886012Y-84438638D01*
X140886029Y-84438661D01*
X141088638Y-84685540D01*
X141314459Y-84911361D01*
X141314464Y-84911365D01*
X141314465Y-84911366D01*
X141561344Y-85113975D01*
X141561351Y-85113980D01*
X141561361Y-85113987D01*
X141826877Y-85291398D01*
X141826882Y-85291401D01*
X141826894Y-85291409D01*
X141826903Y-85291413D01*
X141826905Y-85291415D01*
X142108548Y-85441957D01*
X142108550Y-85441957D01*
X142108556Y-85441961D01*
X142403619Y-85564180D01*
X142709240Y-85656889D01*
X143022477Y-85719196D01*
X143340313Y-85750500D01*
X143340316Y-85750500D01*
X143659684Y-85750500D01*
X143659687Y-85750500D01*
X143977523Y-85719196D01*
X144290760Y-85656889D01*
X144596381Y-85564180D01*
X144891444Y-85441961D01*
X145173106Y-85291409D01*
X145438656Y-85113975D01*
X145685535Y-84911366D01*
X145911366Y-84685535D01*
X146113975Y-84438656D01*
X146291409Y-84173106D01*
X146441961Y-83891444D01*
X146564180Y-83596381D01*
X146656889Y-83290760D01*
X146719196Y-82977523D01*
X146750500Y-82659687D01*
X146750500Y-82340313D01*
X146719196Y-82022477D01*
X146656889Y-81709240D01*
X146564180Y-81403619D01*
X146441961Y-81108556D01*
X146372025Y-80977716D01*
X146291415Y-80826905D01*
X146291413Y-80826903D01*
X146291409Y-80826894D01*
X146253728Y-80770500D01*
X146113987Y-80561361D01*
X146113980Y-80561351D01*
X146113975Y-80561344D01*
X145911366Y-80314465D01*
X145911365Y-80314464D01*
X145911361Y-80314459D01*
X145685540Y-80088638D01*
X145438661Y-79886029D01*
X145438638Y-79886012D01*
X145173122Y-79708601D01*
X145173094Y-79708584D01*
X144891451Y-79558042D01*
X144891446Y-79558040D01*
X144596382Y-79435820D01*
X144290754Y-79343109D01*
X143977521Y-79280803D01*
X143977522Y-79280803D01*
X143738141Y-79257227D01*
X143659687Y-79249500D01*
X143340313Y-79249500D01*
X143267822Y-79256639D01*
X143022477Y-79280803D01*
X142709245Y-79343109D01*
X142403617Y-79435820D01*
X142108553Y-79558040D01*
X142108548Y-79558042D01*
X141826905Y-79708584D01*
X141826877Y-79708601D01*
X141561361Y-79886012D01*
X141561338Y-79886029D01*
X141314459Y-80088638D01*
X141088638Y-80314459D01*
X140886029Y-80561338D01*
X140886012Y-80561361D01*
X140708601Y-80826877D01*
X140708584Y-80826905D01*
X140558042Y-81108548D01*
X140558040Y-81108553D01*
X140435820Y-81403617D01*
X140343109Y-81709245D01*
X140280803Y-82022477D01*
X140249500Y-82340316D01*
X124538208Y-82340316D01*
X124640509Y-82238015D01*
X124712984Y-82112485D01*
X124750500Y-81972475D01*
X124750500Y-81827525D01*
X124712984Y-81687515D01*
X124673733Y-81619531D01*
X124640511Y-81561988D01*
X124640506Y-81561982D01*
X124538017Y-81459493D01*
X124538011Y-81459488D01*
X124412488Y-81387017D01*
X124412489Y-81387017D01*
X124401006Y-81383940D01*
X124272475Y-81349500D01*
X124127525Y-81349500D01*
X123998993Y-81383940D01*
X123987511Y-81387017D01*
X123861988Y-81459488D01*
X123861982Y-81459493D01*
X123808295Y-81513181D01*
X123746972Y-81546666D01*
X123720614Y-81549500D01*
X121853856Y-81549500D01*
X121764712Y-81573386D01*
X121764709Y-81573387D01*
X121684791Y-81619527D01*
X121684786Y-81619531D01*
X120319531Y-82984786D01*
X120319527Y-82984791D01*
X120273387Y-83064709D01*
X120273386Y-83064712D01*
X120249500Y-83153856D01*
X107684121Y-83153856D01*
X107719196Y-82977523D01*
X107750500Y-82659687D01*
X107750500Y-82340313D01*
X107719196Y-82022477D01*
X107656889Y-81709240D01*
X107564180Y-81403619D01*
X107441961Y-81108556D01*
X107372025Y-80977716D01*
X107291415Y-80826905D01*
X107291413Y-80826903D01*
X107291409Y-80826894D01*
X107253728Y-80770500D01*
X107113987Y-80561361D01*
X107113980Y-80561351D01*
X107113975Y-80561344D01*
X106911366Y-80314465D01*
X106911365Y-80314464D01*
X106911361Y-80314459D01*
X106735897Y-80138995D01*
X121799499Y-80138995D01*
X121826418Y-80274322D01*
X121826421Y-80274332D01*
X121879221Y-80401804D01*
X121879228Y-80401817D01*
X121955885Y-80516541D01*
X121955888Y-80516545D01*
X122053454Y-80614111D01*
X122053458Y-80614114D01*
X122168182Y-80690771D01*
X122168195Y-80690778D01*
X122295667Y-80743578D01*
X122295672Y-80743580D01*
X122295676Y-80743580D01*
X122295677Y-80743581D01*
X122431004Y-80770500D01*
X122431007Y-80770500D01*
X122568995Y-80770500D01*
X122660041Y-80752389D01*
X122704328Y-80743580D01*
X122831811Y-80690775D01*
X122946542Y-80614114D01*
X123044114Y-80516542D01*
X123120775Y-80401811D01*
X123173580Y-80274328D01*
X123200500Y-80138995D01*
X124799499Y-80138995D01*
X124826418Y-80274322D01*
X124826421Y-80274332D01*
X124879221Y-80401804D01*
X124879228Y-80401817D01*
X124955885Y-80516541D01*
X124955888Y-80516545D01*
X125053454Y-80614111D01*
X125053458Y-80614114D01*
X125168182Y-80690771D01*
X125168195Y-80690778D01*
X125295667Y-80743578D01*
X125295672Y-80743580D01*
X125295676Y-80743580D01*
X125295677Y-80743581D01*
X125431004Y-80770500D01*
X125431007Y-80770500D01*
X125568995Y-80770500D01*
X125660041Y-80752389D01*
X125704328Y-80743580D01*
X125831811Y-80690775D01*
X125946542Y-80614114D01*
X126044114Y-80516542D01*
X126120775Y-80401811D01*
X126173580Y-80274328D01*
X126200500Y-80138993D01*
X126200500Y-80001007D01*
X126200500Y-80001004D01*
X126173581Y-79865677D01*
X126173580Y-79865676D01*
X126173580Y-79865672D01*
X126173578Y-79865667D01*
X126120778Y-79738195D01*
X126120771Y-79738182D01*
X126044114Y-79623458D01*
X126044111Y-79623454D01*
X125946545Y-79525888D01*
X125946541Y-79525885D01*
X125831817Y-79449228D01*
X125831804Y-79449221D01*
X125704332Y-79396421D01*
X125704322Y-79396418D01*
X125568995Y-79369500D01*
X125568993Y-79369500D01*
X125431007Y-79369500D01*
X125431005Y-79369500D01*
X125295677Y-79396418D01*
X125295667Y-79396421D01*
X125168195Y-79449221D01*
X125168182Y-79449228D01*
X125053458Y-79525885D01*
X125053454Y-79525888D01*
X124955888Y-79623454D01*
X124955885Y-79623458D01*
X124879228Y-79738182D01*
X124879221Y-79738195D01*
X124826421Y-79865667D01*
X124826418Y-79865677D01*
X124799500Y-80001004D01*
X124799500Y-80001007D01*
X124799500Y-80138993D01*
X124799500Y-80138995D01*
X124799499Y-80138995D01*
X123200500Y-80138995D01*
X123200500Y-80138993D01*
X123200500Y-80001007D01*
X123200500Y-80001004D01*
X123173581Y-79865677D01*
X123173580Y-79865676D01*
X123173580Y-79865672D01*
X123173578Y-79865667D01*
X123120778Y-79738195D01*
X123120771Y-79738182D01*
X123044114Y-79623458D01*
X123044111Y-79623454D01*
X122946545Y-79525888D01*
X122946541Y-79525885D01*
X122831817Y-79449228D01*
X122831804Y-79449221D01*
X122704332Y-79396421D01*
X122704322Y-79396418D01*
X122568995Y-79369500D01*
X122568993Y-79369500D01*
X122431007Y-79369500D01*
X122431005Y-79369500D01*
X122295677Y-79396418D01*
X122295667Y-79396421D01*
X122168195Y-79449221D01*
X122168182Y-79449228D01*
X122053458Y-79525885D01*
X122053454Y-79525888D01*
X121955888Y-79623454D01*
X121955885Y-79623458D01*
X121879228Y-79738182D01*
X121879221Y-79738195D01*
X121826421Y-79865667D01*
X121826418Y-79865677D01*
X121799500Y-80001004D01*
X121799500Y-80001007D01*
X121799500Y-80138993D01*
X121799500Y-80138995D01*
X121799499Y-80138995D01*
X106735897Y-80138995D01*
X106685540Y-80088638D01*
X106438661Y-79886029D01*
X106438638Y-79886012D01*
X106173122Y-79708601D01*
X106173094Y-79708584D01*
X105891451Y-79558042D01*
X105891446Y-79558040D01*
X105596382Y-79435820D01*
X105290754Y-79343109D01*
X104977521Y-79280803D01*
X104977522Y-79280803D01*
X104738141Y-79257227D01*
X104659687Y-79249500D01*
X104340313Y-79249500D01*
X104267822Y-79256639D01*
X104022477Y-79280803D01*
X103709245Y-79343109D01*
X103403617Y-79435820D01*
X103108553Y-79558040D01*
X103108548Y-79558042D01*
X102826905Y-79708584D01*
X102826877Y-79708601D01*
X102561361Y-79886012D01*
X102561338Y-79886029D01*
X102314459Y-80088638D01*
X102088638Y-80314459D01*
X101886029Y-80561338D01*
X101886012Y-80561361D01*
X101708601Y-80826877D01*
X101708584Y-80826905D01*
X101558042Y-81108548D01*
X101558040Y-81108553D01*
X101435820Y-81403617D01*
X101343109Y-81709245D01*
X101280803Y-82022477D01*
X101249500Y-82340316D01*
X100307882Y-82340316D01*
X100318149Y-82118235D01*
X100319206Y-82106838D01*
X100337949Y-81972475D01*
X100371214Y-81734007D01*
X100373317Y-81722760D01*
X100459504Y-81356316D01*
X100462627Y-81345338D01*
X100582269Y-80988376D01*
X100586397Y-80977725D01*
X100738454Y-80633347D01*
X100743537Y-80623138D01*
X100926724Y-80294254D01*
X100932746Y-80284527D01*
X101145495Y-79973953D01*
X101152377Y-79964839D01*
X101392884Y-79675207D01*
X101400585Y-79666762D01*
X101666766Y-79400580D01*
X101675207Y-79392884D01*
X101964839Y-79152377D01*
X101973961Y-79145490D01*
X102284527Y-78932746D01*
X102294254Y-78926724D01*
X102623138Y-78743537D01*
X102633347Y-78738454D01*
X102977736Y-78586392D01*
X102988376Y-78582269D01*
X103345338Y-78462627D01*
X103356316Y-78459504D01*
X103722771Y-78373314D01*
X103734007Y-78371214D01*
X104106847Y-78319205D01*
X104118233Y-78318149D01*
X104497144Y-78300631D01*
X104502869Y-78300500D01*
X143497191Y-78300500D01*
X143502831Y-78300631D01*
G37*
%TD.AperFunction*%
%TD*%
M02*
