%TF.GenerationSoftware,KiCad,Pcbnew,9.0.6*%
%TF.CreationDate,2026-04-26T12:42:53+02:00*%
%TF.ProjectId,sao_powerboard,73616f5f-706f-4776-9572-626f6172642e,rev?*%
%TF.SameCoordinates,Original*%
%TF.FileFunction,Legend,Bot*%
%TF.FilePolarity,Positive*%
%FSLAX46Y46*%
G04 Gerber Fmt 4.6, Leading zero omitted, Abs format (unit mm)*
G04 Created by KiCad (PCBNEW 9.0.6) date 2026-04-26 12:42:53*
%MOMM*%
%LPD*%
G01*
G04 APERTURE LIST*
%ADD10C,0.200000*%
%ADD11C,0.250000*%
%ADD12C,0.000000*%
G04 APERTURE END LIST*
D10*
X143320002Y-93437275D02*
X142805717Y-93437275D01*
X143062859Y-94437275D02*
X143062859Y-93437275D01*
X142505717Y-94437275D02*
X142505717Y-93437275D01*
X142120003Y-94437275D02*
X142120003Y-93913465D01*
X142120003Y-93913465D02*
X142162860Y-93818227D01*
X142162860Y-93818227D02*
X142248574Y-93770608D01*
X142248574Y-93770608D02*
X142377145Y-93770608D01*
X142377145Y-93770608D02*
X142462860Y-93818227D01*
X142462860Y-93818227D02*
X142505717Y-93865846D01*
X141348574Y-94389656D02*
X141434288Y-94437275D01*
X141434288Y-94437275D02*
X141605717Y-94437275D01*
X141605717Y-94437275D02*
X141691431Y-94389656D01*
X141691431Y-94389656D02*
X141734288Y-94294417D01*
X141734288Y-94294417D02*
X141734288Y-93913465D01*
X141734288Y-93913465D02*
X141691431Y-93818227D01*
X141691431Y-93818227D02*
X141605717Y-93770608D01*
X141605717Y-93770608D02*
X141434288Y-93770608D01*
X141434288Y-93770608D02*
X141348574Y-93818227D01*
X141348574Y-93818227D02*
X141305717Y-93913465D01*
X141305717Y-93913465D02*
X141305717Y-94008703D01*
X141305717Y-94008703D02*
X141734288Y-94103941D01*
X140234288Y-94437275D02*
X140234288Y-93437275D01*
X140234288Y-93818227D02*
X140148574Y-93770608D01*
X140148574Y-93770608D02*
X139977145Y-93770608D01*
X139977145Y-93770608D02*
X139891431Y-93818227D01*
X139891431Y-93818227D02*
X139848574Y-93865846D01*
X139848574Y-93865846D02*
X139805716Y-93961084D01*
X139805716Y-93961084D02*
X139805716Y-94246798D01*
X139805716Y-94246798D02*
X139848574Y-94342036D01*
X139848574Y-94342036D02*
X139891431Y-94389656D01*
X139891431Y-94389656D02*
X139977145Y-94437275D01*
X139977145Y-94437275D02*
X140148574Y-94437275D01*
X140148574Y-94437275D02*
X140234288Y-94389656D01*
X139034288Y-94437275D02*
X139034288Y-93913465D01*
X139034288Y-93913465D02*
X139077145Y-93818227D01*
X139077145Y-93818227D02*
X139162859Y-93770608D01*
X139162859Y-93770608D02*
X139334288Y-93770608D01*
X139334288Y-93770608D02*
X139420002Y-93818227D01*
X139034288Y-94389656D02*
X139120002Y-94437275D01*
X139120002Y-94437275D02*
X139334288Y-94437275D01*
X139334288Y-94437275D02*
X139420002Y-94389656D01*
X139420002Y-94389656D02*
X139462859Y-94294417D01*
X139462859Y-94294417D02*
X139462859Y-94199179D01*
X139462859Y-94199179D02*
X139420002Y-94103941D01*
X139420002Y-94103941D02*
X139334288Y-94056322D01*
X139334288Y-94056322D02*
X139120002Y-94056322D01*
X139120002Y-94056322D02*
X139034288Y-94008703D01*
X138734287Y-93770608D02*
X138391430Y-93770608D01*
X138605716Y-93437275D02*
X138605716Y-94294417D01*
X138605716Y-94294417D02*
X138562859Y-94389656D01*
X138562859Y-94389656D02*
X138477144Y-94437275D01*
X138477144Y-94437275D02*
X138391430Y-94437275D01*
X138220001Y-93770608D02*
X137877144Y-93770608D01*
X138091430Y-93437275D02*
X138091430Y-94294417D01*
X138091430Y-94294417D02*
X138048573Y-94389656D01*
X138048573Y-94389656D02*
X137962858Y-94437275D01*
X137962858Y-94437275D02*
X137877144Y-94437275D01*
X137234287Y-94389656D02*
X137320001Y-94437275D01*
X137320001Y-94437275D02*
X137491430Y-94437275D01*
X137491430Y-94437275D02*
X137577144Y-94389656D01*
X137577144Y-94389656D02*
X137620001Y-94294417D01*
X137620001Y-94294417D02*
X137620001Y-93913465D01*
X137620001Y-93913465D02*
X137577144Y-93818227D01*
X137577144Y-93818227D02*
X137491430Y-93770608D01*
X137491430Y-93770608D02*
X137320001Y-93770608D01*
X137320001Y-93770608D02*
X137234287Y-93818227D01*
X137234287Y-93818227D02*
X137191430Y-93913465D01*
X137191430Y-93913465D02*
X137191430Y-94008703D01*
X137191430Y-94008703D02*
X137620001Y-94103941D01*
X136805715Y-94437275D02*
X136805715Y-93770608D01*
X136805715Y-93961084D02*
X136762858Y-93865846D01*
X136762858Y-93865846D02*
X136720001Y-93818227D01*
X136720001Y-93818227D02*
X136634286Y-93770608D01*
X136634286Y-93770608D02*
X136548572Y-93770608D01*
X136334286Y-93770608D02*
X136120000Y-94437275D01*
X135905715Y-93770608D02*
X136120000Y-94437275D01*
X136120000Y-94437275D02*
X136205715Y-94675370D01*
X136205715Y-94675370D02*
X136248572Y-94722989D01*
X136248572Y-94722989D02*
X136334286Y-94770608D01*
X134877144Y-93770608D02*
X134877144Y-94437275D01*
X134877144Y-93865846D02*
X134834287Y-93818227D01*
X134834287Y-93818227D02*
X134748572Y-93770608D01*
X134748572Y-93770608D02*
X134620001Y-93770608D01*
X134620001Y-93770608D02*
X134534287Y-93818227D01*
X134534287Y-93818227D02*
X134491430Y-93913465D01*
X134491430Y-93913465D02*
X134491430Y-94437275D01*
X133934286Y-94437275D02*
X134020001Y-94389656D01*
X134020001Y-94389656D02*
X134062858Y-94342036D01*
X134062858Y-94342036D02*
X134105715Y-94246798D01*
X134105715Y-94246798D02*
X134105715Y-93961084D01*
X134105715Y-93961084D02*
X134062858Y-93865846D01*
X134062858Y-93865846D02*
X134020001Y-93818227D01*
X134020001Y-93818227D02*
X133934286Y-93770608D01*
X133934286Y-93770608D02*
X133805715Y-93770608D01*
X133805715Y-93770608D02*
X133720001Y-93818227D01*
X133720001Y-93818227D02*
X133677144Y-93865846D01*
X133677144Y-93865846D02*
X133634286Y-93961084D01*
X133634286Y-93961084D02*
X133634286Y-94246798D01*
X133634286Y-94246798D02*
X133677144Y-94342036D01*
X133677144Y-94342036D02*
X133720001Y-94389656D01*
X133720001Y-94389656D02*
X133805715Y-94437275D01*
X133805715Y-94437275D02*
X133934286Y-94437275D01*
X133334286Y-93770608D02*
X133162858Y-94437275D01*
X133162858Y-94437275D02*
X132991429Y-93961084D01*
X132991429Y-93961084D02*
X132820000Y-94437275D01*
X132820000Y-94437275D02*
X132648572Y-93770608D01*
X131620001Y-94437275D02*
X131620001Y-93437275D01*
X131234287Y-94437275D02*
X131234287Y-93913465D01*
X131234287Y-93913465D02*
X131277144Y-93818227D01*
X131277144Y-93818227D02*
X131362858Y-93770608D01*
X131362858Y-93770608D02*
X131491429Y-93770608D01*
X131491429Y-93770608D02*
X131577144Y-93818227D01*
X131577144Y-93818227D02*
X131620001Y-93865846D01*
X130420001Y-94437275D02*
X130420001Y-93913465D01*
X130420001Y-93913465D02*
X130462858Y-93818227D01*
X130462858Y-93818227D02*
X130548572Y-93770608D01*
X130548572Y-93770608D02*
X130720001Y-93770608D01*
X130720001Y-93770608D02*
X130805715Y-93818227D01*
X130420001Y-94389656D02*
X130505715Y-94437275D01*
X130505715Y-94437275D02*
X130720001Y-94437275D01*
X130720001Y-94437275D02*
X130805715Y-94389656D01*
X130805715Y-94389656D02*
X130848572Y-94294417D01*
X130848572Y-94294417D02*
X130848572Y-94199179D01*
X130848572Y-94199179D02*
X130805715Y-94103941D01*
X130805715Y-94103941D02*
X130720001Y-94056322D01*
X130720001Y-94056322D02*
X130505715Y-94056322D01*
X130505715Y-94056322D02*
X130420001Y-94008703D01*
X130034286Y-94389656D02*
X129948572Y-94437275D01*
X129948572Y-94437275D02*
X129777143Y-94437275D01*
X129777143Y-94437275D02*
X129691429Y-94389656D01*
X129691429Y-94389656D02*
X129648572Y-94294417D01*
X129648572Y-94294417D02*
X129648572Y-94246798D01*
X129648572Y-94246798D02*
X129691429Y-94151560D01*
X129691429Y-94151560D02*
X129777143Y-94103941D01*
X129777143Y-94103941D02*
X129905715Y-94103941D01*
X129905715Y-94103941D02*
X129991429Y-94056322D01*
X129991429Y-94056322D02*
X130034286Y-93961084D01*
X130034286Y-93961084D02*
X130034286Y-93913465D01*
X130034286Y-93913465D02*
X129991429Y-93818227D01*
X129991429Y-93818227D02*
X129905715Y-93770608D01*
X129905715Y-93770608D02*
X129777143Y-93770608D01*
X129777143Y-93770608D02*
X129691429Y-93818227D01*
X128191430Y-94437275D02*
X128191430Y-93913465D01*
X128191430Y-93913465D02*
X128234287Y-93818227D01*
X128234287Y-93818227D02*
X128320001Y-93770608D01*
X128320001Y-93770608D02*
X128491430Y-93770608D01*
X128491430Y-93770608D02*
X128577144Y-93818227D01*
X128191430Y-94389656D02*
X128277144Y-94437275D01*
X128277144Y-94437275D02*
X128491430Y-94437275D01*
X128491430Y-94437275D02*
X128577144Y-94389656D01*
X128577144Y-94389656D02*
X128620001Y-94294417D01*
X128620001Y-94294417D02*
X128620001Y-94199179D01*
X128620001Y-94199179D02*
X128577144Y-94103941D01*
X128577144Y-94103941D02*
X128491430Y-94056322D01*
X128491430Y-94056322D02*
X128277144Y-94056322D01*
X128277144Y-94056322D02*
X128191430Y-94008703D01*
X127077144Y-93770608D02*
X127077144Y-94770608D01*
X127077144Y-93818227D02*
X126991430Y-93770608D01*
X126991430Y-93770608D02*
X126820001Y-93770608D01*
X126820001Y-93770608D02*
X126734287Y-93818227D01*
X126734287Y-93818227D02*
X126691430Y-93865846D01*
X126691430Y-93865846D02*
X126648572Y-93961084D01*
X126648572Y-93961084D02*
X126648572Y-94246798D01*
X126648572Y-94246798D02*
X126691430Y-94342036D01*
X126691430Y-94342036D02*
X126734287Y-94389656D01*
X126734287Y-94389656D02*
X126820001Y-94437275D01*
X126820001Y-94437275D02*
X126991430Y-94437275D01*
X126991430Y-94437275D02*
X127077144Y-94389656D01*
X126262858Y-94437275D02*
X126262858Y-93770608D01*
X126262858Y-93961084D02*
X126220001Y-93865846D01*
X126220001Y-93865846D02*
X126177144Y-93818227D01*
X126177144Y-93818227D02*
X126091429Y-93770608D01*
X126091429Y-93770608D02*
X126005715Y-93770608D01*
X125577143Y-94437275D02*
X125662858Y-94389656D01*
X125662858Y-94389656D02*
X125705715Y-94342036D01*
X125705715Y-94342036D02*
X125748572Y-94246798D01*
X125748572Y-94246798D02*
X125748572Y-93961084D01*
X125748572Y-93961084D02*
X125705715Y-93865846D01*
X125705715Y-93865846D02*
X125662858Y-93818227D01*
X125662858Y-93818227D02*
X125577143Y-93770608D01*
X125577143Y-93770608D02*
X125448572Y-93770608D01*
X125448572Y-93770608D02*
X125362858Y-93818227D01*
X125362858Y-93818227D02*
X125320001Y-93865846D01*
X125320001Y-93865846D02*
X125277143Y-93961084D01*
X125277143Y-93961084D02*
X125277143Y-94246798D01*
X125277143Y-94246798D02*
X125320001Y-94342036D01*
X125320001Y-94342036D02*
X125362858Y-94389656D01*
X125362858Y-94389656D02*
X125448572Y-94437275D01*
X125448572Y-94437275D02*
X125577143Y-94437275D01*
X124891429Y-93770608D02*
X124891429Y-94770608D01*
X124891429Y-93818227D02*
X124805715Y-93770608D01*
X124805715Y-93770608D02*
X124634286Y-93770608D01*
X124634286Y-93770608D02*
X124548572Y-93818227D01*
X124548572Y-93818227D02*
X124505715Y-93865846D01*
X124505715Y-93865846D02*
X124462857Y-93961084D01*
X124462857Y-93961084D02*
X124462857Y-94246798D01*
X124462857Y-94246798D02*
X124505715Y-94342036D01*
X124505715Y-94342036D02*
X124548572Y-94389656D01*
X124548572Y-94389656D02*
X124634286Y-94437275D01*
X124634286Y-94437275D02*
X124805715Y-94437275D01*
X124805715Y-94437275D02*
X124891429Y-94389656D01*
X123734286Y-94389656D02*
X123820000Y-94437275D01*
X123820000Y-94437275D02*
X123991429Y-94437275D01*
X123991429Y-94437275D02*
X124077143Y-94389656D01*
X124077143Y-94389656D02*
X124120000Y-94294417D01*
X124120000Y-94294417D02*
X124120000Y-93913465D01*
X124120000Y-93913465D02*
X124077143Y-93818227D01*
X124077143Y-93818227D02*
X123991429Y-93770608D01*
X123991429Y-93770608D02*
X123820000Y-93770608D01*
X123820000Y-93770608D02*
X123734286Y-93818227D01*
X123734286Y-93818227D02*
X123691429Y-93913465D01*
X123691429Y-93913465D02*
X123691429Y-94008703D01*
X123691429Y-94008703D02*
X124120000Y-94103941D01*
X123305714Y-94437275D02*
X123305714Y-93770608D01*
X123305714Y-93961084D02*
X123262857Y-93865846D01*
X123262857Y-93865846D02*
X123220000Y-93818227D01*
X123220000Y-93818227D02*
X123134285Y-93770608D01*
X123134285Y-93770608D02*
X123048571Y-93770608D01*
X121677143Y-94389656D02*
X121762857Y-94437275D01*
X121762857Y-94437275D02*
X121934285Y-94437275D01*
X121934285Y-94437275D02*
X122020000Y-94389656D01*
X122020000Y-94389656D02*
X122062857Y-94342036D01*
X122062857Y-94342036D02*
X122105714Y-94246798D01*
X122105714Y-94246798D02*
X122105714Y-93961084D01*
X122105714Y-93961084D02*
X122062857Y-93865846D01*
X122062857Y-93865846D02*
X122020000Y-93818227D01*
X122020000Y-93818227D02*
X121934285Y-93770608D01*
X121934285Y-93770608D02*
X121762857Y-93770608D01*
X121762857Y-93770608D02*
X121677143Y-93818227D01*
X121291428Y-94437275D02*
X121291428Y-93437275D01*
X120905714Y-94437275D02*
X120905714Y-93913465D01*
X120905714Y-93913465D02*
X120948571Y-93818227D01*
X120948571Y-93818227D02*
X121034285Y-93770608D01*
X121034285Y-93770608D02*
X121162856Y-93770608D01*
X121162856Y-93770608D02*
X121248571Y-93818227D01*
X121248571Y-93818227D02*
X121291428Y-93865846D01*
X120091428Y-94437275D02*
X120091428Y-93913465D01*
X120091428Y-93913465D02*
X120134285Y-93818227D01*
X120134285Y-93818227D02*
X120219999Y-93770608D01*
X120219999Y-93770608D02*
X120391428Y-93770608D01*
X120391428Y-93770608D02*
X120477142Y-93818227D01*
X120091428Y-94389656D02*
X120177142Y-94437275D01*
X120177142Y-94437275D02*
X120391428Y-94437275D01*
X120391428Y-94437275D02*
X120477142Y-94389656D01*
X120477142Y-94389656D02*
X120519999Y-94294417D01*
X120519999Y-94294417D02*
X120519999Y-94199179D01*
X120519999Y-94199179D02*
X120477142Y-94103941D01*
X120477142Y-94103941D02*
X120391428Y-94056322D01*
X120391428Y-94056322D02*
X120177142Y-94056322D01*
X120177142Y-94056322D02*
X120091428Y-94008703D01*
X119662856Y-94437275D02*
X119662856Y-93770608D01*
X119662856Y-93961084D02*
X119619999Y-93865846D01*
X119619999Y-93865846D02*
X119577142Y-93818227D01*
X119577142Y-93818227D02*
X119491427Y-93770608D01*
X119491427Y-93770608D02*
X119405713Y-93770608D01*
X118719999Y-93770608D02*
X118719999Y-94580132D01*
X118719999Y-94580132D02*
X118762856Y-94675370D01*
X118762856Y-94675370D02*
X118805713Y-94722989D01*
X118805713Y-94722989D02*
X118891427Y-94770608D01*
X118891427Y-94770608D02*
X119019999Y-94770608D01*
X119019999Y-94770608D02*
X119105713Y-94722989D01*
X118719999Y-94389656D02*
X118805713Y-94437275D01*
X118805713Y-94437275D02*
X118977141Y-94437275D01*
X118977141Y-94437275D02*
X119062856Y-94389656D01*
X119062856Y-94389656D02*
X119105713Y-94342036D01*
X119105713Y-94342036D02*
X119148570Y-94246798D01*
X119148570Y-94246798D02*
X119148570Y-93961084D01*
X119148570Y-93961084D02*
X119105713Y-93865846D01*
X119105713Y-93865846D02*
X119062856Y-93818227D01*
X119062856Y-93818227D02*
X118977141Y-93770608D01*
X118977141Y-93770608D02*
X118805713Y-93770608D01*
X118805713Y-93770608D02*
X118719999Y-93818227D01*
X117948570Y-94389656D02*
X118034284Y-94437275D01*
X118034284Y-94437275D02*
X118205713Y-94437275D01*
X118205713Y-94437275D02*
X118291427Y-94389656D01*
X118291427Y-94389656D02*
X118334284Y-94294417D01*
X118334284Y-94294417D02*
X118334284Y-93913465D01*
X118334284Y-93913465D02*
X118291427Y-93818227D01*
X118291427Y-93818227D02*
X118205713Y-93770608D01*
X118205713Y-93770608D02*
X118034284Y-93770608D01*
X118034284Y-93770608D02*
X117948570Y-93818227D01*
X117948570Y-93818227D02*
X117905713Y-93913465D01*
X117905713Y-93913465D02*
X117905713Y-94008703D01*
X117905713Y-94008703D02*
X118334284Y-94103941D01*
X117519998Y-94437275D02*
X117519998Y-93770608D01*
X117519998Y-93961084D02*
X117477141Y-93865846D01*
X117477141Y-93865846D02*
X117434284Y-93818227D01*
X117434284Y-93818227D02*
X117348569Y-93770608D01*
X117348569Y-93770608D02*
X117262855Y-93770608D01*
X115891427Y-94437275D02*
X115891427Y-93913465D01*
X115891427Y-93913465D02*
X115934284Y-93818227D01*
X115934284Y-93818227D02*
X116019998Y-93770608D01*
X116019998Y-93770608D02*
X116191427Y-93770608D01*
X116191427Y-93770608D02*
X116277141Y-93818227D01*
X115891427Y-94389656D02*
X115977141Y-94437275D01*
X115977141Y-94437275D02*
X116191427Y-94437275D01*
X116191427Y-94437275D02*
X116277141Y-94389656D01*
X116277141Y-94389656D02*
X116319998Y-94294417D01*
X116319998Y-94294417D02*
X116319998Y-94199179D01*
X116319998Y-94199179D02*
X116277141Y-94103941D01*
X116277141Y-94103941D02*
X116191427Y-94056322D01*
X116191427Y-94056322D02*
X115977141Y-94056322D01*
X115977141Y-94056322D02*
X115891427Y-94008703D01*
X115462855Y-93770608D02*
X115462855Y-94437275D01*
X115462855Y-93865846D02*
X115419998Y-93818227D01*
X115419998Y-93818227D02*
X115334283Y-93770608D01*
X115334283Y-93770608D02*
X115205712Y-93770608D01*
X115205712Y-93770608D02*
X115119998Y-93818227D01*
X115119998Y-93818227D02*
X115077141Y-93913465D01*
X115077141Y-93913465D02*
X115077141Y-94437275D01*
X114262855Y-94437275D02*
X114262855Y-93437275D01*
X114262855Y-94389656D02*
X114348569Y-94437275D01*
X114348569Y-94437275D02*
X114519997Y-94437275D01*
X114519997Y-94437275D02*
X114605712Y-94389656D01*
X114605712Y-94389656D02*
X114648569Y-94342036D01*
X114648569Y-94342036D02*
X114691426Y-94246798D01*
X114691426Y-94246798D02*
X114691426Y-93961084D01*
X114691426Y-93961084D02*
X114648569Y-93865846D01*
X114648569Y-93865846D02*
X114605712Y-93818227D01*
X114605712Y-93818227D02*
X114519997Y-93770608D01*
X114519997Y-93770608D02*
X114348569Y-93770608D01*
X114348569Y-93770608D02*
X114262855Y-93818227D01*
X113148569Y-93770608D02*
X113148569Y-94770608D01*
X113148569Y-93818227D02*
X113062855Y-93770608D01*
X113062855Y-93770608D02*
X112891426Y-93770608D01*
X112891426Y-93770608D02*
X112805712Y-93818227D01*
X112805712Y-93818227D02*
X112762855Y-93865846D01*
X112762855Y-93865846D02*
X112719997Y-93961084D01*
X112719997Y-93961084D02*
X112719997Y-94246798D01*
X112719997Y-94246798D02*
X112762855Y-94342036D01*
X112762855Y-94342036D02*
X112805712Y-94389656D01*
X112805712Y-94389656D02*
X112891426Y-94437275D01*
X112891426Y-94437275D02*
X113062855Y-94437275D01*
X113062855Y-94437275D02*
X113148569Y-94389656D01*
X112334283Y-94437275D02*
X112334283Y-93770608D01*
X112334283Y-93961084D02*
X112291426Y-93865846D01*
X112291426Y-93865846D02*
X112248569Y-93818227D01*
X112248569Y-93818227D02*
X112162854Y-93770608D01*
X112162854Y-93770608D02*
X112077140Y-93770608D01*
X111648568Y-94437275D02*
X111734283Y-94389656D01*
X111734283Y-94389656D02*
X111777140Y-94342036D01*
X111777140Y-94342036D02*
X111819997Y-94246798D01*
X111819997Y-94246798D02*
X111819997Y-93961084D01*
X111819997Y-93961084D02*
X111777140Y-93865846D01*
X111777140Y-93865846D02*
X111734283Y-93818227D01*
X111734283Y-93818227D02*
X111648568Y-93770608D01*
X111648568Y-93770608D02*
X111519997Y-93770608D01*
X111519997Y-93770608D02*
X111434283Y-93818227D01*
X111434283Y-93818227D02*
X111391426Y-93865846D01*
X111391426Y-93865846D02*
X111348568Y-93961084D01*
X111348568Y-93961084D02*
X111348568Y-94246798D01*
X111348568Y-94246798D02*
X111391426Y-94342036D01*
X111391426Y-94342036D02*
X111434283Y-94389656D01*
X111434283Y-94389656D02*
X111519997Y-94437275D01*
X111519997Y-94437275D02*
X111648568Y-94437275D01*
X111091425Y-93770608D02*
X110748568Y-93770608D01*
X110962854Y-93437275D02*
X110962854Y-94294417D01*
X110962854Y-94294417D02*
X110919997Y-94389656D01*
X110919997Y-94389656D02*
X110834282Y-94437275D01*
X110834282Y-94437275D02*
X110748568Y-94437275D01*
X110105711Y-94389656D02*
X110191425Y-94437275D01*
X110191425Y-94437275D02*
X110362854Y-94437275D01*
X110362854Y-94437275D02*
X110448568Y-94389656D01*
X110448568Y-94389656D02*
X110491425Y-94294417D01*
X110491425Y-94294417D02*
X110491425Y-93913465D01*
X110491425Y-93913465D02*
X110448568Y-93818227D01*
X110448568Y-93818227D02*
X110362854Y-93770608D01*
X110362854Y-93770608D02*
X110191425Y-93770608D01*
X110191425Y-93770608D02*
X110105711Y-93818227D01*
X110105711Y-93818227D02*
X110062854Y-93913465D01*
X110062854Y-93913465D02*
X110062854Y-94008703D01*
X110062854Y-94008703D02*
X110491425Y-94103941D01*
X109291425Y-94389656D02*
X109377139Y-94437275D01*
X109377139Y-94437275D02*
X109548567Y-94437275D01*
X109548567Y-94437275D02*
X109634282Y-94389656D01*
X109634282Y-94389656D02*
X109677139Y-94342036D01*
X109677139Y-94342036D02*
X109719996Y-94246798D01*
X109719996Y-94246798D02*
X109719996Y-93961084D01*
X109719996Y-93961084D02*
X109677139Y-93865846D01*
X109677139Y-93865846D02*
X109634282Y-93818227D01*
X109634282Y-93818227D02*
X109548567Y-93770608D01*
X109548567Y-93770608D02*
X109377139Y-93770608D01*
X109377139Y-93770608D02*
X109291425Y-93818227D01*
X109034281Y-93770608D02*
X108691424Y-93770608D01*
X108905710Y-93437275D02*
X108905710Y-94294417D01*
X108905710Y-94294417D02*
X108862853Y-94389656D01*
X108862853Y-94389656D02*
X108777138Y-94437275D01*
X108777138Y-94437275D02*
X108691424Y-94437275D01*
X108391424Y-94437275D02*
X108391424Y-93770608D01*
X108391424Y-93437275D02*
X108434281Y-93484894D01*
X108434281Y-93484894D02*
X108391424Y-93532513D01*
X108391424Y-93532513D02*
X108348567Y-93484894D01*
X108348567Y-93484894D02*
X108391424Y-93437275D01*
X108391424Y-93437275D02*
X108391424Y-93532513D01*
X107834281Y-94437275D02*
X107919996Y-94389656D01*
X107919996Y-94389656D02*
X107962853Y-94342036D01*
X107962853Y-94342036D02*
X108005710Y-94246798D01*
X108005710Y-94246798D02*
X108005710Y-93961084D01*
X108005710Y-93961084D02*
X107962853Y-93865846D01*
X107962853Y-93865846D02*
X107919996Y-93818227D01*
X107919996Y-93818227D02*
X107834281Y-93770608D01*
X107834281Y-93770608D02*
X107705710Y-93770608D01*
X107705710Y-93770608D02*
X107619996Y-93818227D01*
X107619996Y-93818227D02*
X107577139Y-93865846D01*
X107577139Y-93865846D02*
X107534281Y-93961084D01*
X107534281Y-93961084D02*
X107534281Y-94246798D01*
X107534281Y-94246798D02*
X107577139Y-94342036D01*
X107577139Y-94342036D02*
X107619996Y-94389656D01*
X107619996Y-94389656D02*
X107705710Y-94437275D01*
X107705710Y-94437275D02*
X107834281Y-94437275D01*
X107148567Y-93770608D02*
X107148567Y-94437275D01*
X107148567Y-93865846D02*
X107105710Y-93818227D01*
X107105710Y-93818227D02*
X107019995Y-93770608D01*
X107019995Y-93770608D02*
X106891424Y-93770608D01*
X106891424Y-93770608D02*
X106805710Y-93818227D01*
X106805710Y-93818227D02*
X106762853Y-93913465D01*
X106762853Y-93913465D02*
X106762853Y-94437275D01*
X105648567Y-94437275D02*
X105648567Y-93437275D01*
X104705710Y-94342036D02*
X104748567Y-94389656D01*
X104748567Y-94389656D02*
X104877139Y-94437275D01*
X104877139Y-94437275D02*
X104962853Y-94437275D01*
X104962853Y-94437275D02*
X105091424Y-94389656D01*
X105091424Y-94389656D02*
X105177139Y-94294417D01*
X105177139Y-94294417D02*
X105219996Y-94199179D01*
X105219996Y-94199179D02*
X105262853Y-94008703D01*
X105262853Y-94008703D02*
X105262853Y-93865846D01*
X105262853Y-93865846D02*
X105219996Y-93675370D01*
X105219996Y-93675370D02*
X105177139Y-93580132D01*
X105177139Y-93580132D02*
X105091424Y-93484894D01*
X105091424Y-93484894D02*
X104962853Y-93437275D01*
X104962853Y-93437275D02*
X104877139Y-93437275D01*
X104877139Y-93437275D02*
X104748567Y-93484894D01*
X104748567Y-93484894D02*
X104705710Y-93532513D01*
X142955715Y-96047219D02*
X142955715Y-95523409D01*
X142955715Y-95523409D02*
X142998572Y-95428171D01*
X142998572Y-95428171D02*
X143084286Y-95380552D01*
X143084286Y-95380552D02*
X143255715Y-95380552D01*
X143255715Y-95380552D02*
X143341429Y-95428171D01*
X142955715Y-95999600D02*
X143041429Y-96047219D01*
X143041429Y-96047219D02*
X143255715Y-96047219D01*
X143255715Y-96047219D02*
X143341429Y-95999600D01*
X143341429Y-95999600D02*
X143384286Y-95904361D01*
X143384286Y-95904361D02*
X143384286Y-95809123D01*
X143384286Y-95809123D02*
X143341429Y-95713885D01*
X143341429Y-95713885D02*
X143255715Y-95666266D01*
X143255715Y-95666266D02*
X143041429Y-95666266D01*
X143041429Y-95666266D02*
X142955715Y-95618647D01*
X142527143Y-95380552D02*
X142527143Y-96047219D01*
X142527143Y-95475790D02*
X142484286Y-95428171D01*
X142484286Y-95428171D02*
X142398571Y-95380552D01*
X142398571Y-95380552D02*
X142270000Y-95380552D01*
X142270000Y-95380552D02*
X142184286Y-95428171D01*
X142184286Y-95428171D02*
X142141429Y-95523409D01*
X142141429Y-95523409D02*
X142141429Y-96047219D01*
X141327143Y-96047219D02*
X141327143Y-95047219D01*
X141327143Y-95999600D02*
X141412857Y-96047219D01*
X141412857Y-96047219D02*
X141584285Y-96047219D01*
X141584285Y-96047219D02*
X141670000Y-95999600D01*
X141670000Y-95999600D02*
X141712857Y-95951980D01*
X141712857Y-95951980D02*
X141755714Y-95856742D01*
X141755714Y-95856742D02*
X141755714Y-95571028D01*
X141755714Y-95571028D02*
X141712857Y-95475790D01*
X141712857Y-95475790D02*
X141670000Y-95428171D01*
X141670000Y-95428171D02*
X141584285Y-95380552D01*
X141584285Y-95380552D02*
X141412857Y-95380552D01*
X141412857Y-95380552D02*
X141327143Y-95428171D01*
X140212857Y-96047219D02*
X140212857Y-95380552D01*
X140212857Y-95047219D02*
X140255714Y-95094838D01*
X140255714Y-95094838D02*
X140212857Y-95142457D01*
X140212857Y-95142457D02*
X140170000Y-95094838D01*
X140170000Y-95094838D02*
X140212857Y-95047219D01*
X140212857Y-95047219D02*
X140212857Y-95142457D01*
X139912857Y-95380552D02*
X139570000Y-95380552D01*
X139784286Y-95047219D02*
X139784286Y-95904361D01*
X139784286Y-95904361D02*
X139741429Y-95999600D01*
X139741429Y-95999600D02*
X139655714Y-96047219D01*
X139655714Y-96047219D02*
X139570000Y-96047219D01*
X138584286Y-95380552D02*
X138584286Y-96380552D01*
X138584286Y-95428171D02*
X138498572Y-95380552D01*
X138498572Y-95380552D02*
X138327143Y-95380552D01*
X138327143Y-95380552D02*
X138241429Y-95428171D01*
X138241429Y-95428171D02*
X138198572Y-95475790D01*
X138198572Y-95475790D02*
X138155714Y-95571028D01*
X138155714Y-95571028D02*
X138155714Y-95856742D01*
X138155714Y-95856742D02*
X138198572Y-95951980D01*
X138198572Y-95951980D02*
X138241429Y-95999600D01*
X138241429Y-95999600D02*
X138327143Y-96047219D01*
X138327143Y-96047219D02*
X138498572Y-96047219D01*
X138498572Y-96047219D02*
X138584286Y-95999600D01*
X137641428Y-96047219D02*
X137727143Y-95999600D01*
X137727143Y-95999600D02*
X137770000Y-95951980D01*
X137770000Y-95951980D02*
X137812857Y-95856742D01*
X137812857Y-95856742D02*
X137812857Y-95571028D01*
X137812857Y-95571028D02*
X137770000Y-95475790D01*
X137770000Y-95475790D02*
X137727143Y-95428171D01*
X137727143Y-95428171D02*
X137641428Y-95380552D01*
X137641428Y-95380552D02*
X137512857Y-95380552D01*
X137512857Y-95380552D02*
X137427143Y-95428171D01*
X137427143Y-95428171D02*
X137384286Y-95475790D01*
X137384286Y-95475790D02*
X137341428Y-95571028D01*
X137341428Y-95571028D02*
X137341428Y-95856742D01*
X137341428Y-95856742D02*
X137384286Y-95951980D01*
X137384286Y-95951980D02*
X137427143Y-95999600D01*
X137427143Y-95999600D02*
X137512857Y-96047219D01*
X137512857Y-96047219D02*
X137641428Y-96047219D01*
X137041428Y-95380552D02*
X136870000Y-96047219D01*
X136870000Y-96047219D02*
X136698571Y-95571028D01*
X136698571Y-95571028D02*
X136527142Y-96047219D01*
X136527142Y-96047219D02*
X136355714Y-95380552D01*
X135670000Y-95999600D02*
X135755714Y-96047219D01*
X135755714Y-96047219D02*
X135927143Y-96047219D01*
X135927143Y-96047219D02*
X136012857Y-95999600D01*
X136012857Y-95999600D02*
X136055714Y-95904361D01*
X136055714Y-95904361D02*
X136055714Y-95523409D01*
X136055714Y-95523409D02*
X136012857Y-95428171D01*
X136012857Y-95428171D02*
X135927143Y-95380552D01*
X135927143Y-95380552D02*
X135755714Y-95380552D01*
X135755714Y-95380552D02*
X135670000Y-95428171D01*
X135670000Y-95428171D02*
X135627143Y-95523409D01*
X135627143Y-95523409D02*
X135627143Y-95618647D01*
X135627143Y-95618647D02*
X136055714Y-95713885D01*
X135241428Y-96047219D02*
X135241428Y-95380552D01*
X135241428Y-95571028D02*
X135198571Y-95475790D01*
X135198571Y-95475790D02*
X135155714Y-95428171D01*
X135155714Y-95428171D02*
X135069999Y-95380552D01*
X135069999Y-95380552D02*
X134984285Y-95380552D01*
X134727142Y-95999600D02*
X134641428Y-96047219D01*
X134641428Y-96047219D02*
X134469999Y-96047219D01*
X134469999Y-96047219D02*
X134384285Y-95999600D01*
X134384285Y-95999600D02*
X134341428Y-95904361D01*
X134341428Y-95904361D02*
X134341428Y-95856742D01*
X134341428Y-95856742D02*
X134384285Y-95761504D01*
X134384285Y-95761504D02*
X134469999Y-95713885D01*
X134469999Y-95713885D02*
X134598571Y-95713885D01*
X134598571Y-95713885D02*
X134684285Y-95666266D01*
X134684285Y-95666266D02*
X134727142Y-95571028D01*
X134727142Y-95571028D02*
X134727142Y-95523409D01*
X134727142Y-95523409D02*
X134684285Y-95428171D01*
X134684285Y-95428171D02*
X134598571Y-95380552D01*
X134598571Y-95380552D02*
X134469999Y-95380552D01*
X134469999Y-95380552D02*
X134384285Y-95428171D01*
X133355714Y-95380552D02*
X133141428Y-96047219D01*
X132927143Y-95380552D02*
X133141428Y-96047219D01*
X133141428Y-96047219D02*
X133227143Y-96285314D01*
X133227143Y-96285314D02*
X133270000Y-96332933D01*
X133270000Y-96332933D02*
X133355714Y-96380552D01*
X132455714Y-96047219D02*
X132541429Y-95999600D01*
X132541429Y-95999600D02*
X132584286Y-95951980D01*
X132584286Y-95951980D02*
X132627143Y-95856742D01*
X132627143Y-95856742D02*
X132627143Y-95571028D01*
X132627143Y-95571028D02*
X132584286Y-95475790D01*
X132584286Y-95475790D02*
X132541429Y-95428171D01*
X132541429Y-95428171D02*
X132455714Y-95380552D01*
X132455714Y-95380552D02*
X132327143Y-95380552D01*
X132327143Y-95380552D02*
X132241429Y-95428171D01*
X132241429Y-95428171D02*
X132198572Y-95475790D01*
X132198572Y-95475790D02*
X132155714Y-95571028D01*
X132155714Y-95571028D02*
X132155714Y-95856742D01*
X132155714Y-95856742D02*
X132198572Y-95951980D01*
X132198572Y-95951980D02*
X132241429Y-95999600D01*
X132241429Y-95999600D02*
X132327143Y-96047219D01*
X132327143Y-96047219D02*
X132455714Y-96047219D01*
X131384286Y-95380552D02*
X131384286Y-96047219D01*
X131770000Y-95380552D02*
X131770000Y-95904361D01*
X131770000Y-95904361D02*
X131727143Y-95999600D01*
X131727143Y-95999600D02*
X131641428Y-96047219D01*
X131641428Y-96047219D02*
X131512857Y-96047219D01*
X131512857Y-96047219D02*
X131427143Y-95999600D01*
X131427143Y-95999600D02*
X131384286Y-95951980D01*
X130955714Y-96047219D02*
X130955714Y-95380552D01*
X130955714Y-95571028D02*
X130912857Y-95475790D01*
X130912857Y-95475790D02*
X130870000Y-95428171D01*
X130870000Y-95428171D02*
X130784285Y-95380552D01*
X130784285Y-95380552D02*
X130698571Y-95380552D01*
X129327143Y-96047219D02*
X129327143Y-95523409D01*
X129327143Y-95523409D02*
X129370000Y-95428171D01*
X129370000Y-95428171D02*
X129455714Y-95380552D01*
X129455714Y-95380552D02*
X129627143Y-95380552D01*
X129627143Y-95380552D02*
X129712857Y-95428171D01*
X129327143Y-95999600D02*
X129412857Y-96047219D01*
X129412857Y-96047219D02*
X129627143Y-96047219D01*
X129627143Y-96047219D02*
X129712857Y-95999600D01*
X129712857Y-95999600D02*
X129755714Y-95904361D01*
X129755714Y-95904361D02*
X129755714Y-95809123D01*
X129755714Y-95809123D02*
X129712857Y-95713885D01*
X129712857Y-95713885D02*
X129627143Y-95666266D01*
X129627143Y-95666266D02*
X129412857Y-95666266D01*
X129412857Y-95666266D02*
X129327143Y-95618647D01*
X128898571Y-96047219D02*
X128898571Y-95380552D01*
X128898571Y-95571028D02*
X128855714Y-95475790D01*
X128855714Y-95475790D02*
X128812857Y-95428171D01*
X128812857Y-95428171D02*
X128727142Y-95380552D01*
X128727142Y-95380552D02*
X128641428Y-95380552D01*
X128469999Y-95380552D02*
X128127142Y-95380552D01*
X128341428Y-95047219D02*
X128341428Y-95904361D01*
X128341428Y-95904361D02*
X128298571Y-95999600D01*
X128298571Y-95999600D02*
X128212856Y-96047219D01*
X128212856Y-96047219D02*
X128127142Y-96047219D01*
X127912856Y-95380552D02*
X127741428Y-96047219D01*
X127741428Y-96047219D02*
X127569999Y-95571028D01*
X127569999Y-95571028D02*
X127398570Y-96047219D01*
X127398570Y-96047219D02*
X127227142Y-95380552D01*
X126755713Y-96047219D02*
X126841428Y-95999600D01*
X126841428Y-95999600D02*
X126884285Y-95951980D01*
X126884285Y-95951980D02*
X126927142Y-95856742D01*
X126927142Y-95856742D02*
X126927142Y-95571028D01*
X126927142Y-95571028D02*
X126884285Y-95475790D01*
X126884285Y-95475790D02*
X126841428Y-95428171D01*
X126841428Y-95428171D02*
X126755713Y-95380552D01*
X126755713Y-95380552D02*
X126627142Y-95380552D01*
X126627142Y-95380552D02*
X126541428Y-95428171D01*
X126541428Y-95428171D02*
X126498571Y-95475790D01*
X126498571Y-95475790D02*
X126455713Y-95571028D01*
X126455713Y-95571028D02*
X126455713Y-95856742D01*
X126455713Y-95856742D02*
X126498571Y-95951980D01*
X126498571Y-95951980D02*
X126541428Y-95999600D01*
X126541428Y-95999600D02*
X126627142Y-96047219D01*
X126627142Y-96047219D02*
X126755713Y-96047219D01*
X126069999Y-96047219D02*
X126069999Y-95380552D01*
X126069999Y-95571028D02*
X126027142Y-95475790D01*
X126027142Y-95475790D02*
X125984285Y-95428171D01*
X125984285Y-95428171D02*
X125898570Y-95380552D01*
X125898570Y-95380552D02*
X125812856Y-95380552D01*
X125512856Y-96047219D02*
X125512856Y-95047219D01*
X125427142Y-95666266D02*
X125169999Y-96047219D01*
X125169999Y-95380552D02*
X125512856Y-95761504D01*
X124784285Y-95951980D02*
X124741428Y-95999600D01*
X124741428Y-95999600D02*
X124784285Y-96047219D01*
X124784285Y-96047219D02*
X124827142Y-95999600D01*
X124827142Y-95999600D02*
X124784285Y-95951980D01*
X124784285Y-95951980D02*
X124784285Y-96047219D01*
X123198571Y-95094838D02*
X123284286Y-95047219D01*
X123284286Y-95047219D02*
X123412857Y-95047219D01*
X123412857Y-95047219D02*
X123541428Y-95094838D01*
X123541428Y-95094838D02*
X123627143Y-95190076D01*
X123627143Y-95190076D02*
X123670000Y-95285314D01*
X123670000Y-95285314D02*
X123712857Y-95475790D01*
X123712857Y-95475790D02*
X123712857Y-95618647D01*
X123712857Y-95618647D02*
X123670000Y-95809123D01*
X123670000Y-95809123D02*
X123627143Y-95904361D01*
X123627143Y-95904361D02*
X123541428Y-95999600D01*
X123541428Y-95999600D02*
X123412857Y-96047219D01*
X123412857Y-96047219D02*
X123327143Y-96047219D01*
X123327143Y-96047219D02*
X123198571Y-95999600D01*
X123198571Y-95999600D02*
X123155714Y-95951980D01*
X123155714Y-95951980D02*
X123155714Y-95618647D01*
X123155714Y-95618647D02*
X123327143Y-95618647D01*
X122770000Y-96047219D02*
X122770000Y-95380552D01*
X122770000Y-95047219D02*
X122812857Y-95094838D01*
X122812857Y-95094838D02*
X122770000Y-95142457D01*
X122770000Y-95142457D02*
X122727143Y-95094838D01*
X122727143Y-95094838D02*
X122770000Y-95047219D01*
X122770000Y-95047219D02*
X122770000Y-95142457D01*
X122427143Y-95380552D02*
X122212857Y-96047219D01*
X122212857Y-96047219D02*
X121998572Y-95380552D01*
X121312858Y-95999600D02*
X121398572Y-96047219D01*
X121398572Y-96047219D02*
X121570001Y-96047219D01*
X121570001Y-96047219D02*
X121655715Y-95999600D01*
X121655715Y-95999600D02*
X121698572Y-95904361D01*
X121698572Y-95904361D02*
X121698572Y-95523409D01*
X121698572Y-95523409D02*
X121655715Y-95428171D01*
X121655715Y-95428171D02*
X121570001Y-95380552D01*
X121570001Y-95380552D02*
X121398572Y-95380552D01*
X121398572Y-95380552D02*
X121312858Y-95428171D01*
X121312858Y-95428171D02*
X121270001Y-95523409D01*
X121270001Y-95523409D02*
X121270001Y-95618647D01*
X121270001Y-95618647D02*
X121698572Y-95713885D01*
X120198572Y-96047219D02*
X120198572Y-95380552D01*
X120198572Y-95047219D02*
X120241429Y-95094838D01*
X120241429Y-95094838D02*
X120198572Y-95142457D01*
X120198572Y-95142457D02*
X120155715Y-95094838D01*
X120155715Y-95094838D02*
X120198572Y-95047219D01*
X120198572Y-95047219D02*
X120198572Y-95142457D01*
X119898572Y-95380552D02*
X119555715Y-95380552D01*
X119770001Y-95047219D02*
X119770001Y-95904361D01*
X119770001Y-95904361D02*
X119727144Y-95999600D01*
X119727144Y-95999600D02*
X119641429Y-96047219D01*
X119641429Y-96047219D02*
X119555715Y-96047219D01*
X118184287Y-96047219D02*
X118184287Y-95523409D01*
X118184287Y-95523409D02*
X118227144Y-95428171D01*
X118227144Y-95428171D02*
X118312858Y-95380552D01*
X118312858Y-95380552D02*
X118484287Y-95380552D01*
X118484287Y-95380552D02*
X118570001Y-95428171D01*
X118184287Y-95999600D02*
X118270001Y-96047219D01*
X118270001Y-96047219D02*
X118484287Y-96047219D01*
X118484287Y-96047219D02*
X118570001Y-95999600D01*
X118570001Y-95999600D02*
X118612858Y-95904361D01*
X118612858Y-95904361D02*
X118612858Y-95809123D01*
X118612858Y-95809123D02*
X118570001Y-95713885D01*
X118570001Y-95713885D02*
X118484287Y-95666266D01*
X118484287Y-95666266D02*
X118270001Y-95666266D01*
X118270001Y-95666266D02*
X118184287Y-95618647D01*
X117755715Y-95380552D02*
X117755715Y-96047219D01*
X117755715Y-95475790D02*
X117712858Y-95428171D01*
X117712858Y-95428171D02*
X117627143Y-95380552D01*
X117627143Y-95380552D02*
X117498572Y-95380552D01*
X117498572Y-95380552D02*
X117412858Y-95428171D01*
X117412858Y-95428171D02*
X117370001Y-95523409D01*
X117370001Y-95523409D02*
X117370001Y-96047219D01*
X115870001Y-96047219D02*
X115870001Y-95523409D01*
X115870001Y-95523409D02*
X115912858Y-95428171D01*
X115912858Y-95428171D02*
X115998572Y-95380552D01*
X115998572Y-95380552D02*
X116170001Y-95380552D01*
X116170001Y-95380552D02*
X116255715Y-95428171D01*
X115870001Y-95999600D02*
X115955715Y-96047219D01*
X115955715Y-96047219D02*
X116170001Y-96047219D01*
X116170001Y-96047219D02*
X116255715Y-95999600D01*
X116255715Y-95999600D02*
X116298572Y-95904361D01*
X116298572Y-95904361D02*
X116298572Y-95809123D01*
X116298572Y-95809123D02*
X116255715Y-95713885D01*
X116255715Y-95713885D02*
X116170001Y-95666266D01*
X116170001Y-95666266D02*
X115955715Y-95666266D01*
X115955715Y-95666266D02*
X115870001Y-95618647D01*
X115441429Y-96047219D02*
X115441429Y-95380552D01*
X115441429Y-95475790D02*
X115398572Y-95428171D01*
X115398572Y-95428171D02*
X115312857Y-95380552D01*
X115312857Y-95380552D02*
X115184286Y-95380552D01*
X115184286Y-95380552D02*
X115098572Y-95428171D01*
X115098572Y-95428171D02*
X115055715Y-95523409D01*
X115055715Y-95523409D02*
X115055715Y-96047219D01*
X115055715Y-95523409D02*
X115012857Y-95428171D01*
X115012857Y-95428171D02*
X114927143Y-95380552D01*
X114927143Y-95380552D02*
X114798572Y-95380552D01*
X114798572Y-95380552D02*
X114712857Y-95428171D01*
X114712857Y-95428171D02*
X114670000Y-95523409D01*
X114670000Y-95523409D02*
X114670000Y-96047219D01*
X113855715Y-96047219D02*
X113855715Y-95523409D01*
X113855715Y-95523409D02*
X113898572Y-95428171D01*
X113898572Y-95428171D02*
X113984286Y-95380552D01*
X113984286Y-95380552D02*
X114155715Y-95380552D01*
X114155715Y-95380552D02*
X114241429Y-95428171D01*
X113855715Y-95999600D02*
X113941429Y-96047219D01*
X113941429Y-96047219D02*
X114155715Y-96047219D01*
X114155715Y-96047219D02*
X114241429Y-95999600D01*
X114241429Y-95999600D02*
X114284286Y-95904361D01*
X114284286Y-95904361D02*
X114284286Y-95809123D01*
X114284286Y-95809123D02*
X114241429Y-95713885D01*
X114241429Y-95713885D02*
X114155715Y-95666266D01*
X114155715Y-95666266D02*
X113941429Y-95666266D01*
X113941429Y-95666266D02*
X113855715Y-95618647D01*
X113512857Y-95380552D02*
X113041429Y-95380552D01*
X113041429Y-95380552D02*
X113512857Y-96047219D01*
X113512857Y-96047219D02*
X113041429Y-96047219D01*
X112698572Y-96047219D02*
X112698572Y-95380552D01*
X112698572Y-95047219D02*
X112741429Y-95094838D01*
X112741429Y-95094838D02*
X112698572Y-95142457D01*
X112698572Y-95142457D02*
X112655715Y-95094838D01*
X112655715Y-95094838D02*
X112698572Y-95047219D01*
X112698572Y-95047219D02*
X112698572Y-95142457D01*
X112270001Y-95380552D02*
X112270001Y-96047219D01*
X112270001Y-95475790D02*
X112227144Y-95428171D01*
X112227144Y-95428171D02*
X112141429Y-95380552D01*
X112141429Y-95380552D02*
X112012858Y-95380552D01*
X112012858Y-95380552D02*
X111927144Y-95428171D01*
X111927144Y-95428171D02*
X111884287Y-95523409D01*
X111884287Y-95523409D02*
X111884287Y-96047219D01*
X111070001Y-95380552D02*
X111070001Y-96190076D01*
X111070001Y-96190076D02*
X111112858Y-96285314D01*
X111112858Y-96285314D02*
X111155715Y-96332933D01*
X111155715Y-96332933D02*
X111241429Y-96380552D01*
X111241429Y-96380552D02*
X111370001Y-96380552D01*
X111370001Y-96380552D02*
X111455715Y-96332933D01*
X111070001Y-95999600D02*
X111155715Y-96047219D01*
X111155715Y-96047219D02*
X111327143Y-96047219D01*
X111327143Y-96047219D02*
X111412858Y-95999600D01*
X111412858Y-95999600D02*
X111455715Y-95951980D01*
X111455715Y-95951980D02*
X111498572Y-95856742D01*
X111498572Y-95856742D02*
X111498572Y-95571028D01*
X111498572Y-95571028D02*
X111455715Y-95475790D01*
X111455715Y-95475790D02*
X111412858Y-95428171D01*
X111412858Y-95428171D02*
X111327143Y-95380552D01*
X111327143Y-95380552D02*
X111155715Y-95380552D01*
X111155715Y-95380552D02*
X111070001Y-95428171D01*
X109570001Y-96047219D02*
X109570001Y-95523409D01*
X109570001Y-95523409D02*
X109612858Y-95428171D01*
X109612858Y-95428171D02*
X109698572Y-95380552D01*
X109698572Y-95380552D02*
X109870001Y-95380552D01*
X109870001Y-95380552D02*
X109955715Y-95428171D01*
X109570001Y-95999600D02*
X109655715Y-96047219D01*
X109655715Y-96047219D02*
X109870001Y-96047219D01*
X109870001Y-96047219D02*
X109955715Y-95999600D01*
X109955715Y-95999600D02*
X109998572Y-95904361D01*
X109998572Y-95904361D02*
X109998572Y-95809123D01*
X109998572Y-95809123D02*
X109955715Y-95713885D01*
X109955715Y-95713885D02*
X109870001Y-95666266D01*
X109870001Y-95666266D02*
X109655715Y-95666266D01*
X109655715Y-95666266D02*
X109570001Y-95618647D01*
X109270000Y-95380552D02*
X108927143Y-95380552D01*
X109141429Y-96047219D02*
X109141429Y-95190076D01*
X109141429Y-95190076D02*
X109098572Y-95094838D01*
X109098572Y-95094838D02*
X109012857Y-95047219D01*
X109012857Y-95047219D02*
X108927143Y-95047219D01*
X108755714Y-95380552D02*
X108412857Y-95380552D01*
X108627143Y-95047219D02*
X108627143Y-95904361D01*
X108627143Y-95904361D02*
X108584286Y-95999600D01*
X108584286Y-95999600D02*
X108498571Y-96047219D01*
X108498571Y-96047219D02*
X108412857Y-96047219D01*
X107770000Y-95999600D02*
X107855714Y-96047219D01*
X107855714Y-96047219D02*
X108027143Y-96047219D01*
X108027143Y-96047219D02*
X108112857Y-95999600D01*
X108112857Y-95999600D02*
X108155714Y-95904361D01*
X108155714Y-95904361D02*
X108155714Y-95523409D01*
X108155714Y-95523409D02*
X108112857Y-95428171D01*
X108112857Y-95428171D02*
X108027143Y-95380552D01*
X108027143Y-95380552D02*
X107855714Y-95380552D01*
X107855714Y-95380552D02*
X107770000Y-95428171D01*
X107770000Y-95428171D02*
X107727143Y-95523409D01*
X107727143Y-95523409D02*
X107727143Y-95618647D01*
X107727143Y-95618647D02*
X108155714Y-95713885D01*
X107341428Y-96047219D02*
X107341428Y-95380552D01*
X107341428Y-95571028D02*
X107298571Y-95475790D01*
X107298571Y-95475790D02*
X107255714Y-95428171D01*
X107255714Y-95428171D02*
X107169999Y-95380552D01*
X107169999Y-95380552D02*
X107084285Y-95380552D01*
X106655713Y-96047219D02*
X106741428Y-95999600D01*
X106741428Y-95999600D02*
X106784285Y-95904361D01*
X106784285Y-95904361D02*
X106784285Y-95047219D01*
X106312856Y-96047219D02*
X106312856Y-95380552D01*
X106312856Y-95047219D02*
X106355713Y-95094838D01*
X106355713Y-95094838D02*
X106312856Y-95142457D01*
X106312856Y-95142457D02*
X106269999Y-95094838D01*
X106269999Y-95094838D02*
X106312856Y-95047219D01*
X106312856Y-95047219D02*
X106312856Y-95142457D01*
X106012856Y-95380552D02*
X105669999Y-95380552D01*
X105884285Y-96047219D02*
X105884285Y-95190076D01*
X105884285Y-95190076D02*
X105841428Y-95094838D01*
X105841428Y-95094838D02*
X105755713Y-95047219D01*
X105755713Y-95047219D02*
X105669999Y-95047219D01*
X105027142Y-95999600D02*
X105112856Y-96047219D01*
X105112856Y-96047219D02*
X105284285Y-96047219D01*
X105284285Y-96047219D02*
X105369999Y-95999600D01*
X105369999Y-95999600D02*
X105412856Y-95904361D01*
X105412856Y-95904361D02*
X105412856Y-95523409D01*
X105412856Y-95523409D02*
X105369999Y-95428171D01*
X105369999Y-95428171D02*
X105284285Y-95380552D01*
X105284285Y-95380552D02*
X105112856Y-95380552D01*
X105112856Y-95380552D02*
X105027142Y-95428171D01*
X105027142Y-95428171D02*
X104984285Y-95523409D01*
X104984285Y-95523409D02*
X104984285Y-95618647D01*
X104984285Y-95618647D02*
X105412856Y-95713885D01*
X104598570Y-95951980D02*
X104555713Y-95999600D01*
X104555713Y-95999600D02*
X104598570Y-96047219D01*
X104598570Y-96047219D02*
X104641427Y-95999600D01*
X104641427Y-95999600D02*
X104598570Y-95951980D01*
X104598570Y-95951980D02*
X104598570Y-96047219D01*
X104598570Y-95666266D02*
X104641427Y-95094838D01*
X104641427Y-95094838D02*
X104598570Y-95047219D01*
X104598570Y-95047219D02*
X104555713Y-95094838D01*
X104555713Y-95094838D02*
X104598570Y-95666266D01*
X104598570Y-95666266D02*
X104598570Y-95047219D01*
X138392856Y-88317275D02*
X138178570Y-89317275D01*
X138178570Y-89317275D02*
X138007142Y-88602989D01*
X138007142Y-88602989D02*
X137835713Y-89317275D01*
X137835713Y-89317275D02*
X137621428Y-88317275D01*
X137278571Y-89317275D02*
X137278571Y-88317275D01*
X136978571Y-88317275D02*
X136464286Y-88317275D01*
X136721428Y-89317275D02*
X136721428Y-88317275D01*
X136164286Y-89317275D02*
X136164286Y-88317275D01*
X136164286Y-88793465D02*
X135650000Y-88793465D01*
X135650000Y-89317275D02*
X135650000Y-88317275D01*
X134578572Y-89031560D02*
X134150001Y-89031560D01*
X134664286Y-89317275D02*
X134364286Y-88317275D01*
X134364286Y-88317275D02*
X134064286Y-89317275D01*
X132778572Y-88793465D02*
X132650000Y-88841084D01*
X132650000Y-88841084D02*
X132607143Y-88888703D01*
X132607143Y-88888703D02*
X132564286Y-88983941D01*
X132564286Y-88983941D02*
X132564286Y-89126798D01*
X132564286Y-89126798D02*
X132607143Y-89222036D01*
X132607143Y-89222036D02*
X132650000Y-89269656D01*
X132650000Y-89269656D02*
X132735715Y-89317275D01*
X132735715Y-89317275D02*
X133078572Y-89317275D01*
X133078572Y-89317275D02*
X133078572Y-88317275D01*
X133078572Y-88317275D02*
X132778572Y-88317275D01*
X132778572Y-88317275D02*
X132692858Y-88364894D01*
X132692858Y-88364894D02*
X132650000Y-88412513D01*
X132650000Y-88412513D02*
X132607143Y-88507751D01*
X132607143Y-88507751D02*
X132607143Y-88602989D01*
X132607143Y-88602989D02*
X132650000Y-88698227D01*
X132650000Y-88698227D02*
X132692858Y-88745846D01*
X132692858Y-88745846D02*
X132778572Y-88793465D01*
X132778572Y-88793465D02*
X133078572Y-88793465D01*
X132221429Y-89031560D02*
X131792858Y-89031560D01*
X132307143Y-89317275D02*
X132007143Y-88317275D01*
X132007143Y-88317275D02*
X131707143Y-89317275D01*
X131535714Y-88317275D02*
X131021429Y-88317275D01*
X131278571Y-89317275D02*
X131278571Y-88317275D01*
X130850000Y-88317275D02*
X130335715Y-88317275D01*
X130592857Y-89317275D02*
X130592857Y-88317275D01*
X130035715Y-88793465D02*
X129735715Y-88793465D01*
X129607143Y-89317275D02*
X130035715Y-89317275D01*
X130035715Y-89317275D02*
X130035715Y-88317275D01*
X130035715Y-88317275D02*
X129607143Y-88317275D01*
X128707143Y-89317275D02*
X129007143Y-88841084D01*
X129221429Y-89317275D02*
X129221429Y-88317275D01*
X129221429Y-88317275D02*
X128878572Y-88317275D01*
X128878572Y-88317275D02*
X128792857Y-88364894D01*
X128792857Y-88364894D02*
X128750000Y-88412513D01*
X128750000Y-88412513D02*
X128707143Y-88507751D01*
X128707143Y-88507751D02*
X128707143Y-88650608D01*
X128707143Y-88650608D02*
X128750000Y-88745846D01*
X128750000Y-88745846D02*
X128792857Y-88793465D01*
X128792857Y-88793465D02*
X128878572Y-88841084D01*
X128878572Y-88841084D02*
X129221429Y-88841084D01*
X128150000Y-88841084D02*
X128150000Y-89317275D01*
X128450000Y-88317275D02*
X128150000Y-88841084D01*
X128150000Y-88841084D02*
X127850000Y-88317275D01*
X126564286Y-88793465D02*
X126864286Y-88793465D01*
X126864286Y-89317275D02*
X126864286Y-88317275D01*
X126864286Y-88317275D02*
X126435714Y-88317275D01*
X125578571Y-89317275D02*
X125878571Y-88841084D01*
X126092857Y-89317275D02*
X126092857Y-88317275D01*
X126092857Y-88317275D02*
X125750000Y-88317275D01*
X125750000Y-88317275D02*
X125664285Y-88364894D01*
X125664285Y-88364894D02*
X125621428Y-88412513D01*
X125621428Y-88412513D02*
X125578571Y-88507751D01*
X125578571Y-88507751D02*
X125578571Y-88650608D01*
X125578571Y-88650608D02*
X125621428Y-88745846D01*
X125621428Y-88745846D02*
X125664285Y-88793465D01*
X125664285Y-88793465D02*
X125750000Y-88841084D01*
X125750000Y-88841084D02*
X126092857Y-88841084D01*
X125021428Y-88317275D02*
X124850000Y-88317275D01*
X124850000Y-88317275D02*
X124764285Y-88364894D01*
X124764285Y-88364894D02*
X124678571Y-88460132D01*
X124678571Y-88460132D02*
X124635714Y-88650608D01*
X124635714Y-88650608D02*
X124635714Y-88983941D01*
X124635714Y-88983941D02*
X124678571Y-89174417D01*
X124678571Y-89174417D02*
X124764285Y-89269656D01*
X124764285Y-89269656D02*
X124850000Y-89317275D01*
X124850000Y-89317275D02*
X125021428Y-89317275D01*
X125021428Y-89317275D02*
X125107143Y-89269656D01*
X125107143Y-89269656D02*
X125192857Y-89174417D01*
X125192857Y-89174417D02*
X125235714Y-88983941D01*
X125235714Y-88983941D02*
X125235714Y-88650608D01*
X125235714Y-88650608D02*
X125192857Y-88460132D01*
X125192857Y-88460132D02*
X125107143Y-88364894D01*
X125107143Y-88364894D02*
X125021428Y-88317275D01*
X124250000Y-89317275D02*
X124250000Y-88317275D01*
X124250000Y-88317275D02*
X123950000Y-89031560D01*
X123950000Y-89031560D02*
X123650000Y-88317275D01*
X123650000Y-88317275D02*
X123650000Y-89317275D01*
X122578572Y-89031560D02*
X122150001Y-89031560D01*
X122664286Y-89317275D02*
X122364286Y-88317275D01*
X122364286Y-88317275D02*
X122064286Y-89317275D01*
X121121429Y-89269656D02*
X120992858Y-89317275D01*
X120992858Y-89317275D02*
X120778572Y-89317275D01*
X120778572Y-89317275D02*
X120692858Y-89269656D01*
X120692858Y-89269656D02*
X120650000Y-89222036D01*
X120650000Y-89222036D02*
X120607143Y-89126798D01*
X120607143Y-89126798D02*
X120607143Y-89031560D01*
X120607143Y-89031560D02*
X120650000Y-88936322D01*
X120650000Y-88936322D02*
X120692858Y-88888703D01*
X120692858Y-88888703D02*
X120778572Y-88841084D01*
X120778572Y-88841084D02*
X120950000Y-88793465D01*
X120950000Y-88793465D02*
X121035715Y-88745846D01*
X121035715Y-88745846D02*
X121078572Y-88698227D01*
X121078572Y-88698227D02*
X121121429Y-88602989D01*
X121121429Y-88602989D02*
X121121429Y-88507751D01*
X121121429Y-88507751D02*
X121078572Y-88412513D01*
X121078572Y-88412513D02*
X121035715Y-88364894D01*
X121035715Y-88364894D02*
X120950000Y-88317275D01*
X120950000Y-88317275D02*
X120735715Y-88317275D01*
X120735715Y-88317275D02*
X120607143Y-88364894D01*
X120221429Y-89317275D02*
X120221429Y-88317275D01*
X119792858Y-89317275D02*
X119792858Y-88317275D01*
X119792858Y-88317275D02*
X119278572Y-89317275D01*
X119278572Y-89317275D02*
X119278572Y-88317275D01*
X118378572Y-88364894D02*
X118464287Y-88317275D01*
X118464287Y-88317275D02*
X118592858Y-88317275D01*
X118592858Y-88317275D02*
X118721429Y-88364894D01*
X118721429Y-88364894D02*
X118807144Y-88460132D01*
X118807144Y-88460132D02*
X118850001Y-88555370D01*
X118850001Y-88555370D02*
X118892858Y-88745846D01*
X118892858Y-88745846D02*
X118892858Y-88888703D01*
X118892858Y-88888703D02*
X118850001Y-89079179D01*
X118850001Y-89079179D02*
X118807144Y-89174417D01*
X118807144Y-89174417D02*
X118721429Y-89269656D01*
X118721429Y-89269656D02*
X118592858Y-89317275D01*
X118592858Y-89317275D02*
X118507144Y-89317275D01*
X118507144Y-89317275D02*
X118378572Y-89269656D01*
X118378572Y-89269656D02*
X118335715Y-89222036D01*
X118335715Y-89222036D02*
X118335715Y-88888703D01*
X118335715Y-88888703D02*
X118507144Y-88888703D01*
X117521429Y-89317275D02*
X117950001Y-89317275D01*
X117950001Y-89317275D02*
X117950001Y-88317275D01*
X117221430Y-88793465D02*
X116921430Y-88793465D01*
X116792858Y-89317275D02*
X117221430Y-89317275D01*
X117221430Y-89317275D02*
X117221430Y-88317275D01*
X117221430Y-88317275D02*
X116792858Y-88317275D01*
X115721430Y-88317275D02*
X115721430Y-89126798D01*
X115721430Y-89126798D02*
X115678573Y-89222036D01*
X115678573Y-89222036D02*
X115635716Y-89269656D01*
X115635716Y-89269656D02*
X115550001Y-89317275D01*
X115550001Y-89317275D02*
X115378573Y-89317275D01*
X115378573Y-89317275D02*
X115292858Y-89269656D01*
X115292858Y-89269656D02*
X115250001Y-89222036D01*
X115250001Y-89222036D02*
X115207144Y-89126798D01*
X115207144Y-89126798D02*
X115207144Y-88317275D01*
X114821430Y-89269656D02*
X114692859Y-89317275D01*
X114692859Y-89317275D02*
X114478573Y-89317275D01*
X114478573Y-89317275D02*
X114392859Y-89269656D01*
X114392859Y-89269656D02*
X114350001Y-89222036D01*
X114350001Y-89222036D02*
X114307144Y-89126798D01*
X114307144Y-89126798D02*
X114307144Y-89031560D01*
X114307144Y-89031560D02*
X114350001Y-88936322D01*
X114350001Y-88936322D02*
X114392859Y-88888703D01*
X114392859Y-88888703D02*
X114478573Y-88841084D01*
X114478573Y-88841084D02*
X114650001Y-88793465D01*
X114650001Y-88793465D02*
X114735716Y-88745846D01*
X114735716Y-88745846D02*
X114778573Y-88698227D01*
X114778573Y-88698227D02*
X114821430Y-88602989D01*
X114821430Y-88602989D02*
X114821430Y-88507751D01*
X114821430Y-88507751D02*
X114778573Y-88412513D01*
X114778573Y-88412513D02*
X114735716Y-88364894D01*
X114735716Y-88364894D02*
X114650001Y-88317275D01*
X114650001Y-88317275D02*
X114435716Y-88317275D01*
X114435716Y-88317275D02*
X114307144Y-88364894D01*
X113921430Y-88793465D02*
X113621430Y-88793465D01*
X113492858Y-89317275D02*
X113921430Y-89317275D01*
X113921430Y-89317275D02*
X113921430Y-88317275D01*
X113921430Y-88317275D02*
X113492858Y-88317275D01*
X112550001Y-88317275D02*
X112250001Y-89317275D01*
X112250001Y-89317275D02*
X111950001Y-88317275D01*
X111692858Y-89031560D02*
X111264287Y-89031560D01*
X111778572Y-89317275D02*
X111478572Y-88317275D01*
X111478572Y-88317275D02*
X111178572Y-89317275D01*
X110878572Y-89317275D02*
X110878572Y-88317275D01*
X110878572Y-88317275D02*
X110535715Y-88317275D01*
X110535715Y-88317275D02*
X110450000Y-88364894D01*
X110450000Y-88364894D02*
X110407143Y-88412513D01*
X110407143Y-88412513D02*
X110364286Y-88507751D01*
X110364286Y-88507751D02*
X110364286Y-88650608D01*
X110364286Y-88650608D02*
X110407143Y-88745846D01*
X110407143Y-88745846D02*
X110450000Y-88793465D01*
X110450000Y-88793465D02*
X110535715Y-88841084D01*
X110535715Y-88841084D02*
X110878572Y-88841084D01*
X109978572Y-88793465D02*
X109678572Y-88793465D01*
X109550000Y-89317275D02*
X109978572Y-89317275D01*
X109978572Y-89317275D02*
X109978572Y-88317275D01*
X109978572Y-88317275D02*
X109550000Y-88317275D01*
X134321427Y-89927219D02*
X134149999Y-89927219D01*
X134149999Y-89927219D02*
X134064284Y-89974838D01*
X134064284Y-89974838D02*
X133978570Y-90070076D01*
X133978570Y-90070076D02*
X133935713Y-90260552D01*
X133935713Y-90260552D02*
X133935713Y-90593885D01*
X133935713Y-90593885D02*
X133978570Y-90784361D01*
X133978570Y-90784361D02*
X134064284Y-90879600D01*
X134064284Y-90879600D02*
X134149999Y-90927219D01*
X134149999Y-90927219D02*
X134321427Y-90927219D01*
X134321427Y-90927219D02*
X134407142Y-90879600D01*
X134407142Y-90879600D02*
X134492856Y-90784361D01*
X134492856Y-90784361D02*
X134535713Y-90593885D01*
X134535713Y-90593885D02*
X134535713Y-90260552D01*
X134535713Y-90260552D02*
X134492856Y-90070076D01*
X134492856Y-90070076D02*
X134407142Y-89974838D01*
X134407142Y-89974838D02*
X134321427Y-89927219D01*
X133249999Y-90403409D02*
X133121427Y-90451028D01*
X133121427Y-90451028D02*
X133078570Y-90498647D01*
X133078570Y-90498647D02*
X133035713Y-90593885D01*
X133035713Y-90593885D02*
X133035713Y-90736742D01*
X133035713Y-90736742D02*
X133078570Y-90831980D01*
X133078570Y-90831980D02*
X133121427Y-90879600D01*
X133121427Y-90879600D02*
X133207142Y-90927219D01*
X133207142Y-90927219D02*
X133549999Y-90927219D01*
X133549999Y-90927219D02*
X133549999Y-89927219D01*
X133549999Y-89927219D02*
X133249999Y-89927219D01*
X133249999Y-89927219D02*
X133164285Y-89974838D01*
X133164285Y-89974838D02*
X133121427Y-90022457D01*
X133121427Y-90022457D02*
X133078570Y-90117695D01*
X133078570Y-90117695D02*
X133078570Y-90212933D01*
X133078570Y-90212933D02*
X133121427Y-90308171D01*
X133121427Y-90308171D02*
X133164285Y-90355790D01*
X133164285Y-90355790D02*
X133249999Y-90403409D01*
X133249999Y-90403409D02*
X133549999Y-90403409D01*
X132778570Y-89927219D02*
X132264285Y-89927219D01*
X132521427Y-90927219D02*
X132521427Y-89927219D01*
X132007142Y-90641504D02*
X131578571Y-90641504D01*
X132092856Y-90927219D02*
X131792856Y-89927219D01*
X131792856Y-89927219D02*
X131492856Y-90927219D01*
X131192856Y-90927219D02*
X131192856Y-89927219D01*
X130764285Y-90927219D02*
X130764285Y-89927219D01*
X130764285Y-89927219D02*
X130249999Y-90927219D01*
X130249999Y-90927219D02*
X130249999Y-89927219D01*
X129821428Y-90403409D02*
X129521428Y-90403409D01*
X129392856Y-90927219D02*
X129821428Y-90927219D01*
X129821428Y-90927219D02*
X129821428Y-89927219D01*
X129821428Y-89927219D02*
X129392856Y-89927219D01*
X129007142Y-90927219D02*
X129007142Y-89927219D01*
X129007142Y-89927219D02*
X128792856Y-89927219D01*
X128792856Y-89927219D02*
X128664285Y-89974838D01*
X128664285Y-89974838D02*
X128578570Y-90070076D01*
X128578570Y-90070076D02*
X128535713Y-90165314D01*
X128535713Y-90165314D02*
X128492856Y-90355790D01*
X128492856Y-90355790D02*
X128492856Y-90498647D01*
X128492856Y-90498647D02*
X128535713Y-90689123D01*
X128535713Y-90689123D02*
X128578570Y-90784361D01*
X128578570Y-90784361D02*
X128664285Y-90879600D01*
X128664285Y-90879600D02*
X128792856Y-90927219D01*
X128792856Y-90927219D02*
X129007142Y-90927219D01*
X127121428Y-90403409D02*
X126992856Y-90451028D01*
X126992856Y-90451028D02*
X126949999Y-90498647D01*
X126949999Y-90498647D02*
X126907142Y-90593885D01*
X126907142Y-90593885D02*
X126907142Y-90736742D01*
X126907142Y-90736742D02*
X126949999Y-90831980D01*
X126949999Y-90831980D02*
X126992856Y-90879600D01*
X126992856Y-90879600D02*
X127078571Y-90927219D01*
X127078571Y-90927219D02*
X127421428Y-90927219D01*
X127421428Y-90927219D02*
X127421428Y-89927219D01*
X127421428Y-89927219D02*
X127121428Y-89927219D01*
X127121428Y-89927219D02*
X127035714Y-89974838D01*
X127035714Y-89974838D02*
X126992856Y-90022457D01*
X126992856Y-90022457D02*
X126949999Y-90117695D01*
X126949999Y-90117695D02*
X126949999Y-90212933D01*
X126949999Y-90212933D02*
X126992856Y-90308171D01*
X126992856Y-90308171D02*
X127035714Y-90355790D01*
X127035714Y-90355790D02*
X127121428Y-90403409D01*
X127121428Y-90403409D02*
X127421428Y-90403409D01*
X126349999Y-90451028D02*
X126349999Y-90927219D01*
X126649999Y-89927219D02*
X126349999Y-90451028D01*
X126349999Y-90451028D02*
X126049999Y-89927219D01*
X125064285Y-90927219D02*
X125064285Y-89927219D01*
X125064285Y-89927219D02*
X124849999Y-89927219D01*
X124849999Y-89927219D02*
X124721428Y-89974838D01*
X124721428Y-89974838D02*
X124635713Y-90070076D01*
X124635713Y-90070076D02*
X124592856Y-90165314D01*
X124592856Y-90165314D02*
X124549999Y-90355790D01*
X124549999Y-90355790D02*
X124549999Y-90498647D01*
X124549999Y-90498647D02*
X124592856Y-90689123D01*
X124592856Y-90689123D02*
X124635713Y-90784361D01*
X124635713Y-90784361D02*
X124721428Y-90879600D01*
X124721428Y-90879600D02*
X124849999Y-90927219D01*
X124849999Y-90927219D02*
X125064285Y-90927219D01*
X124164285Y-89927219D02*
X124164285Y-90736742D01*
X124164285Y-90736742D02*
X124121428Y-90831980D01*
X124121428Y-90831980D02*
X124078571Y-90879600D01*
X124078571Y-90879600D02*
X123992856Y-90927219D01*
X123992856Y-90927219D02*
X123821428Y-90927219D01*
X123821428Y-90927219D02*
X123735713Y-90879600D01*
X123735713Y-90879600D02*
X123692856Y-90831980D01*
X123692856Y-90831980D02*
X123649999Y-90736742D01*
X123649999Y-90736742D02*
X123649999Y-89927219D01*
X123221428Y-90927219D02*
X123221428Y-89927219D01*
X123221428Y-89927219D02*
X122921428Y-90641504D01*
X122921428Y-90641504D02*
X122621428Y-89927219D01*
X122621428Y-89927219D02*
X122621428Y-90927219D01*
X122192857Y-90927219D02*
X122192857Y-89927219D01*
X122192857Y-89927219D02*
X121850000Y-89927219D01*
X121850000Y-89927219D02*
X121764285Y-89974838D01*
X121764285Y-89974838D02*
X121721428Y-90022457D01*
X121721428Y-90022457D02*
X121678571Y-90117695D01*
X121678571Y-90117695D02*
X121678571Y-90260552D01*
X121678571Y-90260552D02*
X121721428Y-90355790D01*
X121721428Y-90355790D02*
X121764285Y-90403409D01*
X121764285Y-90403409D02*
X121850000Y-90451028D01*
X121850000Y-90451028D02*
X122192857Y-90451028D01*
X121335714Y-90879600D02*
X121207143Y-90927219D01*
X121207143Y-90927219D02*
X120992857Y-90927219D01*
X120992857Y-90927219D02*
X120907143Y-90879600D01*
X120907143Y-90879600D02*
X120864285Y-90831980D01*
X120864285Y-90831980D02*
X120821428Y-90736742D01*
X120821428Y-90736742D02*
X120821428Y-90641504D01*
X120821428Y-90641504D02*
X120864285Y-90546266D01*
X120864285Y-90546266D02*
X120907143Y-90498647D01*
X120907143Y-90498647D02*
X120992857Y-90451028D01*
X120992857Y-90451028D02*
X121164285Y-90403409D01*
X121164285Y-90403409D02*
X121250000Y-90355790D01*
X121250000Y-90355790D02*
X121292857Y-90308171D01*
X121292857Y-90308171D02*
X121335714Y-90212933D01*
X121335714Y-90212933D02*
X121335714Y-90117695D01*
X121335714Y-90117695D02*
X121292857Y-90022457D01*
X121292857Y-90022457D02*
X121250000Y-89974838D01*
X121250000Y-89974838D02*
X121164285Y-89927219D01*
X121164285Y-89927219D02*
X120950000Y-89927219D01*
X120950000Y-89927219D02*
X120821428Y-89974838D01*
X120564285Y-89927219D02*
X120050000Y-89927219D01*
X120307142Y-90927219D02*
X120307142Y-89927219D01*
X119750000Y-90403409D02*
X119450000Y-90403409D01*
X119321428Y-90927219D02*
X119750000Y-90927219D01*
X119750000Y-90927219D02*
X119750000Y-89927219D01*
X119750000Y-89927219D02*
X119321428Y-89927219D01*
X118421428Y-90927219D02*
X118721428Y-90451028D01*
X118935714Y-90927219D02*
X118935714Y-89927219D01*
X118935714Y-89927219D02*
X118592857Y-89927219D01*
X118592857Y-89927219D02*
X118507142Y-89974838D01*
X118507142Y-89974838D02*
X118464285Y-90022457D01*
X118464285Y-90022457D02*
X118421428Y-90117695D01*
X118421428Y-90117695D02*
X118421428Y-90260552D01*
X118421428Y-90260552D02*
X118464285Y-90355790D01*
X118464285Y-90355790D02*
X118507142Y-90403409D01*
X118507142Y-90403409D02*
X118592857Y-90451028D01*
X118592857Y-90451028D02*
X118935714Y-90451028D01*
X117350000Y-90927219D02*
X117350000Y-89927219D01*
X117350000Y-89927219D02*
X117135714Y-89927219D01*
X117135714Y-89927219D02*
X117007143Y-89974838D01*
X117007143Y-89974838D02*
X116921428Y-90070076D01*
X116921428Y-90070076D02*
X116878571Y-90165314D01*
X116878571Y-90165314D02*
X116835714Y-90355790D01*
X116835714Y-90355790D02*
X116835714Y-90498647D01*
X116835714Y-90498647D02*
X116878571Y-90689123D01*
X116878571Y-90689123D02*
X116921428Y-90784361D01*
X116921428Y-90784361D02*
X117007143Y-90879600D01*
X117007143Y-90879600D02*
X117135714Y-90927219D01*
X117135714Y-90927219D02*
X117350000Y-90927219D01*
X116450000Y-90927219D02*
X116450000Y-89927219D01*
X116150000Y-89927219D02*
X115850000Y-90927219D01*
X115850000Y-90927219D02*
X115550000Y-89927219D01*
X115250000Y-90927219D02*
X115250000Y-89927219D01*
X114821429Y-90927219D02*
X114821429Y-89927219D01*
X114821429Y-89927219D02*
X114307143Y-90927219D01*
X114307143Y-90927219D02*
X114307143Y-89927219D01*
X113407143Y-89974838D02*
X113492858Y-89927219D01*
X113492858Y-89927219D02*
X113621429Y-89927219D01*
X113621429Y-89927219D02*
X113750000Y-89974838D01*
X113750000Y-89974838D02*
X113835715Y-90070076D01*
X113835715Y-90070076D02*
X113878572Y-90165314D01*
X113878572Y-90165314D02*
X113921429Y-90355790D01*
X113921429Y-90355790D02*
X113921429Y-90498647D01*
X113921429Y-90498647D02*
X113878572Y-90689123D01*
X113878572Y-90689123D02*
X113835715Y-90784361D01*
X113835715Y-90784361D02*
X113750000Y-90879600D01*
X113750000Y-90879600D02*
X113621429Y-90927219D01*
X113621429Y-90927219D02*
X113535715Y-90927219D01*
X113535715Y-90927219D02*
X113407143Y-90879600D01*
X113407143Y-90879600D02*
X113364286Y-90831980D01*
X113364286Y-90831980D02*
X113364286Y-90498647D01*
X113364286Y-90498647D02*
X113535715Y-90498647D01*
D11*
X136404098Y-85400142D02*
X136118384Y-86600142D01*
X136118384Y-86600142D02*
X135889812Y-85743000D01*
X135889812Y-85743000D02*
X135661241Y-86600142D01*
X135661241Y-86600142D02*
X135375527Y-85400142D01*
X134918383Y-85971571D02*
X134518383Y-85971571D01*
X134346955Y-86600142D02*
X134918383Y-86600142D01*
X134918383Y-86600142D02*
X134918383Y-85400142D01*
X134918383Y-85400142D02*
X134346955Y-85400142D01*
X133889812Y-86257285D02*
X133318384Y-86257285D01*
X134004098Y-86600142D02*
X133604098Y-85400142D01*
X133604098Y-85400142D02*
X133204098Y-86600142D01*
X132118384Y-86600142D02*
X132518384Y-86028714D01*
X132804098Y-86600142D02*
X132804098Y-85400142D01*
X132804098Y-85400142D02*
X132346955Y-85400142D01*
X132346955Y-85400142D02*
X132232670Y-85457285D01*
X132232670Y-85457285D02*
X132175527Y-85514428D01*
X132175527Y-85514428D02*
X132118384Y-85628714D01*
X132118384Y-85628714D02*
X132118384Y-85800142D01*
X132118384Y-85800142D02*
X132175527Y-85914428D01*
X132175527Y-85914428D02*
X132232670Y-85971571D01*
X132232670Y-85971571D02*
X132346955Y-86028714D01*
X132346955Y-86028714D02*
X132804098Y-86028714D01*
X131661241Y-86257285D02*
X131089813Y-86257285D01*
X131775527Y-86600142D02*
X131375527Y-85400142D01*
X131375527Y-85400142D02*
X130975527Y-86600142D01*
X130175527Y-85971571D02*
X130004099Y-86028714D01*
X130004099Y-86028714D02*
X129946956Y-86085857D01*
X129946956Y-86085857D02*
X129889813Y-86200142D01*
X129889813Y-86200142D02*
X129889813Y-86371571D01*
X129889813Y-86371571D02*
X129946956Y-86485857D01*
X129946956Y-86485857D02*
X130004099Y-86543000D01*
X130004099Y-86543000D02*
X130118384Y-86600142D01*
X130118384Y-86600142D02*
X130575527Y-86600142D01*
X130575527Y-86600142D02*
X130575527Y-85400142D01*
X130575527Y-85400142D02*
X130175527Y-85400142D01*
X130175527Y-85400142D02*
X130061242Y-85457285D01*
X130061242Y-85457285D02*
X130004099Y-85514428D01*
X130004099Y-85514428D02*
X129946956Y-85628714D01*
X129946956Y-85628714D02*
X129946956Y-85743000D01*
X129946956Y-85743000D02*
X130004099Y-85857285D01*
X130004099Y-85857285D02*
X130061242Y-85914428D01*
X130061242Y-85914428D02*
X130175527Y-85971571D01*
X130175527Y-85971571D02*
X130575527Y-85971571D01*
X128804099Y-86600142D02*
X129375527Y-86600142D01*
X129375527Y-86600142D02*
X129375527Y-85400142D01*
X128404098Y-85971571D02*
X128004098Y-85971571D01*
X127832670Y-86600142D02*
X128404098Y-86600142D01*
X128404098Y-86600142D02*
X128404098Y-85400142D01*
X128404098Y-85400142D02*
X127832670Y-85400142D01*
X126461241Y-86543000D02*
X126289813Y-86600142D01*
X126289813Y-86600142D02*
X126004098Y-86600142D01*
X126004098Y-86600142D02*
X125889813Y-86543000D01*
X125889813Y-86543000D02*
X125832670Y-86485857D01*
X125832670Y-86485857D02*
X125775527Y-86371571D01*
X125775527Y-86371571D02*
X125775527Y-86257285D01*
X125775527Y-86257285D02*
X125832670Y-86143000D01*
X125832670Y-86143000D02*
X125889813Y-86085857D01*
X125889813Y-86085857D02*
X126004098Y-86028714D01*
X126004098Y-86028714D02*
X126232670Y-85971571D01*
X126232670Y-85971571D02*
X126346955Y-85914428D01*
X126346955Y-85914428D02*
X126404098Y-85857285D01*
X126404098Y-85857285D02*
X126461241Y-85743000D01*
X126461241Y-85743000D02*
X126461241Y-85628714D01*
X126461241Y-85628714D02*
X126404098Y-85514428D01*
X126404098Y-85514428D02*
X126346955Y-85457285D01*
X126346955Y-85457285D02*
X126232670Y-85400142D01*
X126232670Y-85400142D02*
X125946955Y-85400142D01*
X125946955Y-85400142D02*
X125775527Y-85457285D01*
X125318384Y-86257285D02*
X124746956Y-86257285D01*
X125432670Y-86600142D02*
X125032670Y-85400142D01*
X125032670Y-85400142D02*
X124632670Y-86600142D01*
X124004099Y-85400142D02*
X123775527Y-85400142D01*
X123775527Y-85400142D02*
X123661242Y-85457285D01*
X123661242Y-85457285D02*
X123546956Y-85571571D01*
X123546956Y-85571571D02*
X123489813Y-85800142D01*
X123489813Y-85800142D02*
X123489813Y-86200142D01*
X123489813Y-86200142D02*
X123546956Y-86428714D01*
X123546956Y-86428714D02*
X123661242Y-86543000D01*
X123661242Y-86543000D02*
X123775527Y-86600142D01*
X123775527Y-86600142D02*
X124004099Y-86600142D01*
X124004099Y-86600142D02*
X124118385Y-86543000D01*
X124118385Y-86543000D02*
X124232670Y-86428714D01*
X124232670Y-86428714D02*
X124289813Y-86200142D01*
X124289813Y-86200142D02*
X124289813Y-85800142D01*
X124289813Y-85800142D02*
X124232670Y-85571571D01*
X124232670Y-85571571D02*
X124118385Y-85457285D01*
X124118385Y-85457285D02*
X124004099Y-85400142D01*
X122061241Y-86600142D02*
X122061241Y-85400142D01*
X122061241Y-85400142D02*
X121604098Y-85400142D01*
X121604098Y-85400142D02*
X121489813Y-85457285D01*
X121489813Y-85457285D02*
X121432670Y-85514428D01*
X121432670Y-85514428D02*
X121375527Y-85628714D01*
X121375527Y-85628714D02*
X121375527Y-85800142D01*
X121375527Y-85800142D02*
X121432670Y-85914428D01*
X121432670Y-85914428D02*
X121489813Y-85971571D01*
X121489813Y-85971571D02*
X121604098Y-86028714D01*
X121604098Y-86028714D02*
X122061241Y-86028714D01*
X120632670Y-85400142D02*
X120404098Y-85400142D01*
X120404098Y-85400142D02*
X120289813Y-85457285D01*
X120289813Y-85457285D02*
X120175527Y-85571571D01*
X120175527Y-85571571D02*
X120118384Y-85800142D01*
X120118384Y-85800142D02*
X120118384Y-86200142D01*
X120118384Y-86200142D02*
X120175527Y-86428714D01*
X120175527Y-86428714D02*
X120289813Y-86543000D01*
X120289813Y-86543000D02*
X120404098Y-86600142D01*
X120404098Y-86600142D02*
X120632670Y-86600142D01*
X120632670Y-86600142D02*
X120746956Y-86543000D01*
X120746956Y-86543000D02*
X120861241Y-86428714D01*
X120861241Y-86428714D02*
X120918384Y-86200142D01*
X120918384Y-86200142D02*
X120918384Y-85800142D01*
X120918384Y-85800142D02*
X120861241Y-85571571D01*
X120861241Y-85571571D02*
X120746956Y-85457285D01*
X120746956Y-85457285D02*
X120632670Y-85400142D01*
X119718384Y-85400142D02*
X119432670Y-86600142D01*
X119432670Y-86600142D02*
X119204098Y-85743000D01*
X119204098Y-85743000D02*
X118975527Y-86600142D01*
X118975527Y-86600142D02*
X118689813Y-85400142D01*
X118232669Y-85971571D02*
X117832669Y-85971571D01*
X117661241Y-86600142D02*
X118232669Y-86600142D01*
X118232669Y-86600142D02*
X118232669Y-85400142D01*
X118232669Y-85400142D02*
X117661241Y-85400142D01*
X116461241Y-86600142D02*
X116861241Y-86028714D01*
X117146955Y-86600142D02*
X117146955Y-85400142D01*
X117146955Y-85400142D02*
X116689812Y-85400142D01*
X116689812Y-85400142D02*
X116575527Y-85457285D01*
X116575527Y-85457285D02*
X116518384Y-85514428D01*
X116518384Y-85514428D02*
X116461241Y-85628714D01*
X116461241Y-85628714D02*
X116461241Y-85800142D01*
X116461241Y-85800142D02*
X116518384Y-85914428D01*
X116518384Y-85914428D02*
X116575527Y-85971571D01*
X116575527Y-85971571D02*
X116689812Y-86028714D01*
X116689812Y-86028714D02*
X117146955Y-86028714D01*
X115032669Y-86600142D02*
X115032669Y-85400142D01*
X115032669Y-85400142D02*
X114575526Y-85400142D01*
X114575526Y-85400142D02*
X114461241Y-85457285D01*
X114461241Y-85457285D02*
X114404098Y-85514428D01*
X114404098Y-85514428D02*
X114346955Y-85628714D01*
X114346955Y-85628714D02*
X114346955Y-85800142D01*
X114346955Y-85800142D02*
X114404098Y-85914428D01*
X114404098Y-85914428D02*
X114461241Y-85971571D01*
X114461241Y-85971571D02*
X114575526Y-86028714D01*
X114575526Y-86028714D02*
X115032669Y-86028714D01*
X113889812Y-86257285D02*
X113318384Y-86257285D01*
X114004098Y-86600142D02*
X113604098Y-85400142D01*
X113604098Y-85400142D02*
X113204098Y-86600142D01*
X112118384Y-86485857D02*
X112175527Y-86543000D01*
X112175527Y-86543000D02*
X112346955Y-86600142D01*
X112346955Y-86600142D02*
X112461241Y-86600142D01*
X112461241Y-86600142D02*
X112632670Y-86543000D01*
X112632670Y-86543000D02*
X112746955Y-86428714D01*
X112746955Y-86428714D02*
X112804098Y-86314428D01*
X112804098Y-86314428D02*
X112861241Y-86085857D01*
X112861241Y-86085857D02*
X112861241Y-85914428D01*
X112861241Y-85914428D02*
X112804098Y-85685857D01*
X112804098Y-85685857D02*
X112746955Y-85571571D01*
X112746955Y-85571571D02*
X112632670Y-85457285D01*
X112632670Y-85457285D02*
X112461241Y-85400142D01*
X112461241Y-85400142D02*
X112346955Y-85400142D01*
X112346955Y-85400142D02*
X112175527Y-85457285D01*
X112175527Y-85457285D02*
X112118384Y-85514428D01*
X111604098Y-86600142D02*
X111604098Y-85400142D01*
X110918384Y-86600142D02*
X111432670Y-85914428D01*
X110918384Y-85400142D02*
X111604098Y-86085857D01*
D10*
X137882859Y-101160552D02*
X137882859Y-101970076D01*
X137882859Y-101970076D02*
X137925716Y-102065314D01*
X137925716Y-102065314D02*
X137968573Y-102112933D01*
X137968573Y-102112933D02*
X138054287Y-102160552D01*
X138054287Y-102160552D02*
X138182859Y-102160552D01*
X138182859Y-102160552D02*
X138268573Y-102112933D01*
X137882859Y-101779600D02*
X137968573Y-101827219D01*
X137968573Y-101827219D02*
X138140001Y-101827219D01*
X138140001Y-101827219D02*
X138225716Y-101779600D01*
X138225716Y-101779600D02*
X138268573Y-101731980D01*
X138268573Y-101731980D02*
X138311430Y-101636742D01*
X138311430Y-101636742D02*
X138311430Y-101351028D01*
X138311430Y-101351028D02*
X138268573Y-101255790D01*
X138268573Y-101255790D02*
X138225716Y-101208171D01*
X138225716Y-101208171D02*
X138140001Y-101160552D01*
X138140001Y-101160552D02*
X137968573Y-101160552D01*
X137968573Y-101160552D02*
X137882859Y-101208171D01*
X137454287Y-101827219D02*
X137454287Y-101160552D01*
X137454287Y-100827219D02*
X137497144Y-100874838D01*
X137497144Y-100874838D02*
X137454287Y-100922457D01*
X137454287Y-100922457D02*
X137411430Y-100874838D01*
X137411430Y-100874838D02*
X137454287Y-100827219D01*
X137454287Y-100827219D02*
X137454287Y-100922457D01*
X137154287Y-101160552D02*
X136811430Y-101160552D01*
X137025716Y-100827219D02*
X137025716Y-101684361D01*
X137025716Y-101684361D02*
X136982859Y-101779600D01*
X136982859Y-101779600D02*
X136897144Y-101827219D01*
X136897144Y-101827219D02*
X136811430Y-101827219D01*
X136511430Y-101827219D02*
X136511430Y-100827219D01*
X136125716Y-101827219D02*
X136125716Y-101303409D01*
X136125716Y-101303409D02*
X136168573Y-101208171D01*
X136168573Y-101208171D02*
X136254287Y-101160552D01*
X136254287Y-101160552D02*
X136382858Y-101160552D01*
X136382858Y-101160552D02*
X136468573Y-101208171D01*
X136468573Y-101208171D02*
X136511430Y-101255790D01*
X135311430Y-101160552D02*
X135311430Y-101827219D01*
X135697144Y-101160552D02*
X135697144Y-101684361D01*
X135697144Y-101684361D02*
X135654287Y-101779600D01*
X135654287Y-101779600D02*
X135568572Y-101827219D01*
X135568572Y-101827219D02*
X135440001Y-101827219D01*
X135440001Y-101827219D02*
X135354287Y-101779600D01*
X135354287Y-101779600D02*
X135311430Y-101731980D01*
X134882858Y-101827219D02*
X134882858Y-100827219D01*
X134882858Y-101208171D02*
X134797144Y-101160552D01*
X134797144Y-101160552D02*
X134625715Y-101160552D01*
X134625715Y-101160552D02*
X134540001Y-101208171D01*
X134540001Y-101208171D02*
X134497144Y-101255790D01*
X134497144Y-101255790D02*
X134454286Y-101351028D01*
X134454286Y-101351028D02*
X134454286Y-101636742D01*
X134454286Y-101636742D02*
X134497144Y-101731980D01*
X134497144Y-101731980D02*
X134540001Y-101779600D01*
X134540001Y-101779600D02*
X134625715Y-101827219D01*
X134625715Y-101827219D02*
X134797144Y-101827219D01*
X134797144Y-101827219D02*
X134882858Y-101779600D01*
X134068572Y-101731980D02*
X134025715Y-101779600D01*
X134025715Y-101779600D02*
X134068572Y-101827219D01*
X134068572Y-101827219D02*
X134111429Y-101779600D01*
X134111429Y-101779600D02*
X134068572Y-101731980D01*
X134068572Y-101731980D02*
X134068572Y-101827219D01*
X133254287Y-101779600D02*
X133340001Y-101827219D01*
X133340001Y-101827219D02*
X133511429Y-101827219D01*
X133511429Y-101827219D02*
X133597144Y-101779600D01*
X133597144Y-101779600D02*
X133640001Y-101731980D01*
X133640001Y-101731980D02*
X133682858Y-101636742D01*
X133682858Y-101636742D02*
X133682858Y-101351028D01*
X133682858Y-101351028D02*
X133640001Y-101255790D01*
X133640001Y-101255790D02*
X133597144Y-101208171D01*
X133597144Y-101208171D02*
X133511429Y-101160552D01*
X133511429Y-101160552D02*
X133340001Y-101160552D01*
X133340001Y-101160552D02*
X133254287Y-101208171D01*
X132740000Y-101827219D02*
X132825715Y-101779600D01*
X132825715Y-101779600D02*
X132868572Y-101731980D01*
X132868572Y-101731980D02*
X132911429Y-101636742D01*
X132911429Y-101636742D02*
X132911429Y-101351028D01*
X132911429Y-101351028D02*
X132868572Y-101255790D01*
X132868572Y-101255790D02*
X132825715Y-101208171D01*
X132825715Y-101208171D02*
X132740000Y-101160552D01*
X132740000Y-101160552D02*
X132611429Y-101160552D01*
X132611429Y-101160552D02*
X132525715Y-101208171D01*
X132525715Y-101208171D02*
X132482858Y-101255790D01*
X132482858Y-101255790D02*
X132440000Y-101351028D01*
X132440000Y-101351028D02*
X132440000Y-101636742D01*
X132440000Y-101636742D02*
X132482858Y-101731980D01*
X132482858Y-101731980D02*
X132525715Y-101779600D01*
X132525715Y-101779600D02*
X132611429Y-101827219D01*
X132611429Y-101827219D02*
X132740000Y-101827219D01*
X132054286Y-101827219D02*
X132054286Y-101160552D01*
X132054286Y-101255790D02*
X132011429Y-101208171D01*
X132011429Y-101208171D02*
X131925714Y-101160552D01*
X131925714Y-101160552D02*
X131797143Y-101160552D01*
X131797143Y-101160552D02*
X131711429Y-101208171D01*
X131711429Y-101208171D02*
X131668572Y-101303409D01*
X131668572Y-101303409D02*
X131668572Y-101827219D01*
X131668572Y-101303409D02*
X131625714Y-101208171D01*
X131625714Y-101208171D02*
X131540000Y-101160552D01*
X131540000Y-101160552D02*
X131411429Y-101160552D01*
X131411429Y-101160552D02*
X131325714Y-101208171D01*
X131325714Y-101208171D02*
X131282857Y-101303409D01*
X131282857Y-101303409D02*
X131282857Y-101827219D01*
X130211429Y-100779600D02*
X130982857Y-102065314D01*
X129568572Y-101779600D02*
X129654286Y-101827219D01*
X129654286Y-101827219D02*
X129825715Y-101827219D01*
X129825715Y-101827219D02*
X129911429Y-101779600D01*
X129911429Y-101779600D02*
X129954286Y-101684361D01*
X129954286Y-101684361D02*
X129954286Y-101303409D01*
X129954286Y-101303409D02*
X129911429Y-101208171D01*
X129911429Y-101208171D02*
X129825715Y-101160552D01*
X129825715Y-101160552D02*
X129654286Y-101160552D01*
X129654286Y-101160552D02*
X129568572Y-101208171D01*
X129568572Y-101208171D02*
X129525715Y-101303409D01*
X129525715Y-101303409D02*
X129525715Y-101398647D01*
X129525715Y-101398647D02*
X129954286Y-101493885D01*
X129225714Y-101827219D02*
X128754286Y-101160552D01*
X129225714Y-101160552D02*
X128754286Y-101827219D01*
X128025715Y-101779600D02*
X128111429Y-101827219D01*
X128111429Y-101827219D02*
X128282857Y-101827219D01*
X128282857Y-101827219D02*
X128368572Y-101779600D01*
X128368572Y-101779600D02*
X128411429Y-101731980D01*
X128411429Y-101731980D02*
X128454286Y-101636742D01*
X128454286Y-101636742D02*
X128454286Y-101351028D01*
X128454286Y-101351028D02*
X128411429Y-101255790D01*
X128411429Y-101255790D02*
X128368572Y-101208171D01*
X128368572Y-101208171D02*
X128282857Y-101160552D01*
X128282857Y-101160552D02*
X128111429Y-101160552D01*
X128111429Y-101160552D02*
X128025715Y-101208171D01*
X127511428Y-101827219D02*
X127597143Y-101779600D01*
X127597143Y-101779600D02*
X127640000Y-101684361D01*
X127640000Y-101684361D02*
X127640000Y-100827219D01*
X126782857Y-101827219D02*
X126782857Y-101303409D01*
X126782857Y-101303409D02*
X126825714Y-101208171D01*
X126825714Y-101208171D02*
X126911428Y-101160552D01*
X126911428Y-101160552D02*
X127082857Y-101160552D01*
X127082857Y-101160552D02*
X127168571Y-101208171D01*
X126782857Y-101779600D02*
X126868571Y-101827219D01*
X126868571Y-101827219D02*
X127082857Y-101827219D01*
X127082857Y-101827219D02*
X127168571Y-101779600D01*
X127168571Y-101779600D02*
X127211428Y-101684361D01*
X127211428Y-101684361D02*
X127211428Y-101589123D01*
X127211428Y-101589123D02*
X127168571Y-101493885D01*
X127168571Y-101493885D02*
X127082857Y-101446266D01*
X127082857Y-101446266D02*
X126868571Y-101446266D01*
X126868571Y-101446266D02*
X126782857Y-101398647D01*
X126354285Y-101827219D02*
X126354285Y-101160552D01*
X126354285Y-101255790D02*
X126311428Y-101208171D01*
X126311428Y-101208171D02*
X126225713Y-101160552D01*
X126225713Y-101160552D02*
X126097142Y-101160552D01*
X126097142Y-101160552D02*
X126011428Y-101208171D01*
X126011428Y-101208171D02*
X125968571Y-101303409D01*
X125968571Y-101303409D02*
X125968571Y-101827219D01*
X125968571Y-101303409D02*
X125925713Y-101208171D01*
X125925713Y-101208171D02*
X125839999Y-101160552D01*
X125839999Y-101160552D02*
X125711428Y-101160552D01*
X125711428Y-101160552D02*
X125625713Y-101208171D01*
X125625713Y-101208171D02*
X125582856Y-101303409D01*
X125582856Y-101303409D02*
X125582856Y-101827219D01*
X124768571Y-101827219D02*
X124768571Y-101303409D01*
X124768571Y-101303409D02*
X124811428Y-101208171D01*
X124811428Y-101208171D02*
X124897142Y-101160552D01*
X124897142Y-101160552D02*
X125068571Y-101160552D01*
X125068571Y-101160552D02*
X125154285Y-101208171D01*
X124768571Y-101779600D02*
X124854285Y-101827219D01*
X124854285Y-101827219D02*
X125068571Y-101827219D01*
X125068571Y-101827219D02*
X125154285Y-101779600D01*
X125154285Y-101779600D02*
X125197142Y-101684361D01*
X125197142Y-101684361D02*
X125197142Y-101589123D01*
X125197142Y-101589123D02*
X125154285Y-101493885D01*
X125154285Y-101493885D02*
X125068571Y-101446266D01*
X125068571Y-101446266D02*
X124854285Y-101446266D01*
X124854285Y-101446266D02*
X124768571Y-101398647D01*
X124468570Y-101160552D02*
X124125713Y-101160552D01*
X124339999Y-100827219D02*
X124339999Y-101684361D01*
X124339999Y-101684361D02*
X124297142Y-101779600D01*
X124297142Y-101779600D02*
X124211427Y-101827219D01*
X124211427Y-101827219D02*
X124125713Y-101827219D01*
X123825713Y-101827219D02*
X123825713Y-101160552D01*
X123825713Y-100827219D02*
X123868570Y-100874838D01*
X123868570Y-100874838D02*
X123825713Y-100922457D01*
X123825713Y-100922457D02*
X123782856Y-100874838D01*
X123782856Y-100874838D02*
X123825713Y-100827219D01*
X123825713Y-100827219D02*
X123825713Y-100922457D01*
X123268570Y-101827219D02*
X123354285Y-101779600D01*
X123354285Y-101779600D02*
X123397142Y-101731980D01*
X123397142Y-101731980D02*
X123439999Y-101636742D01*
X123439999Y-101636742D02*
X123439999Y-101351028D01*
X123439999Y-101351028D02*
X123397142Y-101255790D01*
X123397142Y-101255790D02*
X123354285Y-101208171D01*
X123354285Y-101208171D02*
X123268570Y-101160552D01*
X123268570Y-101160552D02*
X123139999Y-101160552D01*
X123139999Y-101160552D02*
X123054285Y-101208171D01*
X123054285Y-101208171D02*
X123011428Y-101255790D01*
X123011428Y-101255790D02*
X122968570Y-101351028D01*
X122968570Y-101351028D02*
X122968570Y-101636742D01*
X122968570Y-101636742D02*
X123011428Y-101731980D01*
X123011428Y-101731980D02*
X123054285Y-101779600D01*
X123054285Y-101779600D02*
X123139999Y-101827219D01*
X123139999Y-101827219D02*
X123268570Y-101827219D01*
X122582856Y-101160552D02*
X122582856Y-101827219D01*
X122582856Y-101255790D02*
X122539999Y-101208171D01*
X122539999Y-101208171D02*
X122454284Y-101160552D01*
X122454284Y-101160552D02*
X122325713Y-101160552D01*
X122325713Y-101160552D02*
X122239999Y-101208171D01*
X122239999Y-101208171D02*
X122197142Y-101303409D01*
X122197142Y-101303409D02*
X122197142Y-101827219D01*
X121768570Y-101827219D02*
X121768570Y-100827219D01*
X121768570Y-100827219D02*
X121468570Y-101541504D01*
X121468570Y-101541504D02*
X121168570Y-100827219D01*
X121168570Y-100827219D02*
X121168570Y-101827219D01*
X120354285Y-101827219D02*
X120354285Y-101303409D01*
X120354285Y-101303409D02*
X120397142Y-101208171D01*
X120397142Y-101208171D02*
X120482856Y-101160552D01*
X120482856Y-101160552D02*
X120654285Y-101160552D01*
X120654285Y-101160552D02*
X120739999Y-101208171D01*
X120354285Y-101779600D02*
X120439999Y-101827219D01*
X120439999Y-101827219D02*
X120654285Y-101827219D01*
X120654285Y-101827219D02*
X120739999Y-101779600D01*
X120739999Y-101779600D02*
X120782856Y-101684361D01*
X120782856Y-101684361D02*
X120782856Y-101589123D01*
X120782856Y-101589123D02*
X120739999Y-101493885D01*
X120739999Y-101493885D02*
X120654285Y-101446266D01*
X120654285Y-101446266D02*
X120439999Y-101446266D01*
X120439999Y-101446266D02*
X120354285Y-101398647D01*
X119925713Y-101827219D02*
X119925713Y-101160552D01*
X119925713Y-101351028D02*
X119882856Y-101255790D01*
X119882856Y-101255790D02*
X119839999Y-101208171D01*
X119839999Y-101208171D02*
X119754284Y-101160552D01*
X119754284Y-101160552D02*
X119668570Y-101160552D01*
X119025713Y-101779600D02*
X119111427Y-101827219D01*
X119111427Y-101827219D02*
X119282856Y-101827219D01*
X119282856Y-101827219D02*
X119368570Y-101779600D01*
X119368570Y-101779600D02*
X119411427Y-101684361D01*
X119411427Y-101684361D02*
X119411427Y-101303409D01*
X119411427Y-101303409D02*
X119368570Y-101208171D01*
X119368570Y-101208171D02*
X119282856Y-101160552D01*
X119282856Y-101160552D02*
X119111427Y-101160552D01*
X119111427Y-101160552D02*
X119025713Y-101208171D01*
X119025713Y-101208171D02*
X118982856Y-101303409D01*
X118982856Y-101303409D02*
X118982856Y-101398647D01*
X118982856Y-101398647D02*
X119411427Y-101493885D01*
X118597141Y-101827219D02*
X118597141Y-100827219D01*
X118511427Y-101446266D02*
X118254284Y-101827219D01*
X118254284Y-101160552D02*
X118597141Y-101541504D01*
X117225713Y-100779600D02*
X117997141Y-102065314D01*
X117011427Y-101160552D02*
X116797141Y-101827219D01*
X116797141Y-101827219D02*
X116582856Y-101160552D01*
X115854285Y-101827219D02*
X115854285Y-101303409D01*
X115854285Y-101303409D02*
X115897142Y-101208171D01*
X115897142Y-101208171D02*
X115982856Y-101160552D01*
X115982856Y-101160552D02*
X116154285Y-101160552D01*
X116154285Y-101160552D02*
X116239999Y-101208171D01*
X115854285Y-101779600D02*
X115939999Y-101827219D01*
X115939999Y-101827219D02*
X116154285Y-101827219D01*
X116154285Y-101827219D02*
X116239999Y-101779600D01*
X116239999Y-101779600D02*
X116282856Y-101684361D01*
X116282856Y-101684361D02*
X116282856Y-101589123D01*
X116282856Y-101589123D02*
X116239999Y-101493885D01*
X116239999Y-101493885D02*
X116154285Y-101446266D01*
X116154285Y-101446266D02*
X115939999Y-101446266D01*
X115939999Y-101446266D02*
X115854285Y-101398647D01*
X115425713Y-101160552D02*
X115425713Y-102160552D01*
X115425713Y-101208171D02*
X115339999Y-101160552D01*
X115339999Y-101160552D02*
X115168570Y-101160552D01*
X115168570Y-101160552D02*
X115082856Y-101208171D01*
X115082856Y-101208171D02*
X115039999Y-101255790D01*
X115039999Y-101255790D02*
X114997141Y-101351028D01*
X114997141Y-101351028D02*
X114997141Y-101636742D01*
X114997141Y-101636742D02*
X115039999Y-101731980D01*
X115039999Y-101731980D02*
X115082856Y-101779600D01*
X115082856Y-101779600D02*
X115168570Y-101827219D01*
X115168570Y-101827219D02*
X115339999Y-101827219D01*
X115339999Y-101827219D02*
X115425713Y-101779600D01*
X114268570Y-101779600D02*
X114354284Y-101827219D01*
X114354284Y-101827219D02*
X114525713Y-101827219D01*
X114525713Y-101827219D02*
X114611427Y-101779600D01*
X114611427Y-101779600D02*
X114654284Y-101684361D01*
X114654284Y-101684361D02*
X114654284Y-101303409D01*
X114654284Y-101303409D02*
X114611427Y-101208171D01*
X114611427Y-101208171D02*
X114525713Y-101160552D01*
X114525713Y-101160552D02*
X114354284Y-101160552D01*
X114354284Y-101160552D02*
X114268570Y-101208171D01*
X114268570Y-101208171D02*
X114225713Y-101303409D01*
X114225713Y-101303409D02*
X114225713Y-101398647D01*
X114225713Y-101398647D02*
X114654284Y-101493885D01*
X113711426Y-101827219D02*
X113797141Y-101779600D01*
X113797141Y-101779600D02*
X113839998Y-101731980D01*
X113839998Y-101731980D02*
X113882855Y-101636742D01*
X113882855Y-101636742D02*
X113882855Y-101351028D01*
X113882855Y-101351028D02*
X113839998Y-101255790D01*
X113839998Y-101255790D02*
X113797141Y-101208171D01*
X113797141Y-101208171D02*
X113711426Y-101160552D01*
X113711426Y-101160552D02*
X113582855Y-101160552D01*
X113582855Y-101160552D02*
X113497141Y-101208171D01*
X113497141Y-101208171D02*
X113454284Y-101255790D01*
X113454284Y-101255790D02*
X113411426Y-101351028D01*
X113411426Y-101351028D02*
X113411426Y-101636742D01*
X113411426Y-101636742D02*
X113454284Y-101731980D01*
X113454284Y-101731980D02*
X113497141Y-101779600D01*
X113497141Y-101779600D02*
X113582855Y-101827219D01*
X113582855Y-101827219D02*
X113711426Y-101827219D01*
X113025712Y-101827219D02*
X113025712Y-101160552D01*
X113025712Y-101351028D02*
X112982855Y-101255790D01*
X112982855Y-101255790D02*
X112939998Y-101208171D01*
X112939998Y-101208171D02*
X112854283Y-101160552D01*
X112854283Y-101160552D02*
X112768569Y-101160552D01*
X112554283Y-101160552D02*
X112382855Y-101827219D01*
X112382855Y-101827219D02*
X112211426Y-101351028D01*
X112211426Y-101351028D02*
X112039997Y-101827219D01*
X112039997Y-101827219D02*
X111868569Y-101160552D01*
X111182855Y-101779600D02*
X111268569Y-101827219D01*
X111268569Y-101827219D02*
X111439998Y-101827219D01*
X111439998Y-101827219D02*
X111525712Y-101779600D01*
X111525712Y-101779600D02*
X111568569Y-101684361D01*
X111568569Y-101684361D02*
X111568569Y-101303409D01*
X111568569Y-101303409D02*
X111525712Y-101208171D01*
X111525712Y-101208171D02*
X111439998Y-101160552D01*
X111439998Y-101160552D02*
X111268569Y-101160552D01*
X111268569Y-101160552D02*
X111182855Y-101208171D01*
X111182855Y-101208171D02*
X111139998Y-101303409D01*
X111139998Y-101303409D02*
X111139998Y-101398647D01*
X111139998Y-101398647D02*
X111568569Y-101493885D01*
X110368569Y-101827219D02*
X110368569Y-101303409D01*
X110368569Y-101303409D02*
X110411426Y-101208171D01*
X110411426Y-101208171D02*
X110497140Y-101160552D01*
X110497140Y-101160552D02*
X110668569Y-101160552D01*
X110668569Y-101160552D02*
X110754283Y-101208171D01*
X110368569Y-101779600D02*
X110454283Y-101827219D01*
X110454283Y-101827219D02*
X110668569Y-101827219D01*
X110668569Y-101827219D02*
X110754283Y-101779600D01*
X110754283Y-101779600D02*
X110797140Y-101684361D01*
X110797140Y-101684361D02*
X110797140Y-101589123D01*
X110797140Y-101589123D02*
X110754283Y-101493885D01*
X110754283Y-101493885D02*
X110668569Y-101446266D01*
X110668569Y-101446266D02*
X110454283Y-101446266D01*
X110454283Y-101446266D02*
X110368569Y-101398647D01*
X109939997Y-101827219D02*
X109939997Y-101160552D01*
X109939997Y-101351028D02*
X109897140Y-101255790D01*
X109897140Y-101255790D02*
X109854283Y-101208171D01*
X109854283Y-101208171D02*
X109768568Y-101160552D01*
X109768568Y-101160552D02*
X109682854Y-101160552D01*
D12*
%TO.C,G\u002A\u002A\u002A*%
G36*
X126932859Y-82587479D02*
G01*
X126933267Y-82680683D01*
X126933699Y-82779336D01*
X126910140Y-82960693D01*
X126857866Y-83140525D01*
X126773061Y-83336725D01*
X126745083Y-83390360D01*
X126613217Y-83583107D01*
X126444171Y-83760797D01*
X126247813Y-83915353D01*
X126034015Y-84038695D01*
X125812648Y-84122747D01*
X125693733Y-84144530D01*
X125539961Y-84155281D01*
X125370602Y-84154712D01*
X125201835Y-84143407D01*
X125049843Y-84121949D01*
X124930806Y-84090924D01*
X124889592Y-84075115D01*
X124649956Y-83953687D01*
X124433218Y-83793181D01*
X124245647Y-83599886D01*
X124093510Y-83380090D01*
X123983077Y-83140082D01*
X123980166Y-83131642D01*
X123952268Y-83022365D01*
X123933639Y-82883540D01*
X123923840Y-82720815D01*
X124793257Y-82720815D01*
X124830561Y-82878135D01*
X124906464Y-83021505D01*
X125019044Y-83143027D01*
X125166378Y-83234802D01*
X125226069Y-83258142D01*
X125388769Y-83288122D01*
X125550265Y-83273855D01*
X125702826Y-83218840D01*
X125838722Y-83126572D01*
X125950223Y-83000550D01*
X126029598Y-82844270D01*
X126032499Y-82835927D01*
X126060872Y-82680683D01*
X126045473Y-82527267D01*
X125991898Y-82382417D01*
X125905743Y-82252872D01*
X125792605Y-82145371D01*
X125658079Y-82066654D01*
X125507760Y-82023460D01*
X125347246Y-82022526D01*
X125239675Y-82049856D01*
X125116852Y-82104379D01*
X125006348Y-82174817D01*
X124926881Y-82250998D01*
X124842139Y-82395924D01*
X124796475Y-82557445D01*
X124793257Y-82720815D01*
X123923840Y-82720815D01*
X123922898Y-82705179D01*
X123922548Y-82695368D01*
X123919236Y-82563717D01*
X123921273Y-82464901D01*
X123930379Y-82382941D01*
X123948276Y-82301858D01*
X123976684Y-82205670D01*
X123979550Y-82196652D01*
X124024710Y-82090902D01*
X124217278Y-82090902D01*
X124217392Y-82091161D01*
X124243800Y-82094069D01*
X124309937Y-82095253D01*
X124406261Y-82094672D01*
X124523227Y-82092281D01*
X124586683Y-82090467D01*
X124698267Y-82085801D01*
X124774467Y-82078861D01*
X124825370Y-82067842D01*
X124861068Y-82050939D01*
X124891648Y-82026346D01*
X124997051Y-81943976D01*
X125111526Y-81889545D01*
X125246804Y-81860031D01*
X125416132Y-81851006D01*
X125445438Y-81851041D01*
X125558303Y-81853902D01*
X125640651Y-81863196D01*
X125708439Y-81881606D01*
X125777624Y-81911817D01*
X125802026Y-81924437D01*
X125949603Y-82027258D01*
X126076397Y-82159854D01*
X126167824Y-82307439D01*
X126225900Y-82434033D01*
X126482865Y-82519319D01*
X126739829Y-82604605D01*
X126739829Y-82511251D01*
X126738963Y-82486587D01*
X126719848Y-82368105D01*
X126680214Y-82231222D01*
X126626095Y-82094266D01*
X126563522Y-81975564D01*
X126423024Y-81788801D01*
X126241767Y-81617076D01*
X126036821Y-81480262D01*
X125817540Y-81385754D01*
X125781130Y-81375051D01*
X125593352Y-81340475D01*
X125390337Y-81331113D01*
X125191568Y-81346914D01*
X125016525Y-81387829D01*
X124820782Y-81473249D01*
X124608244Y-81612650D01*
X124422295Y-81787632D01*
X124271817Y-81991000D01*
X124258315Y-82013681D01*
X124228987Y-82065638D01*
X124217278Y-82090902D01*
X124024710Y-82090902D01*
X124081523Y-81957867D01*
X124224642Y-81738549D01*
X124402568Y-81544615D01*
X124608961Y-81381980D01*
X124837482Y-81256562D01*
X125081793Y-81174276D01*
X125178638Y-81156761D01*
X125363617Y-81143241D01*
X125559980Y-81148781D01*
X125748191Y-81172459D01*
X125908717Y-81213351D01*
X126082731Y-81287530D01*
X126311713Y-81429889D01*
X126515876Y-81612212D01*
X126689561Y-81830031D01*
X126751938Y-81930490D01*
X126846108Y-82130974D01*
X126904870Y-82345159D01*
X126924054Y-82511251D01*
X126932859Y-82587479D01*
G37*
G36*
X123817705Y-82312091D02*
G01*
X123817705Y-82654254D01*
X123817699Y-82790790D01*
X123817584Y-83064752D01*
X123817213Y-83294620D01*
X123816443Y-83484452D01*
X123815130Y-83638308D01*
X123813128Y-83760245D01*
X123810295Y-83854322D01*
X123806486Y-83924599D01*
X123801556Y-83975132D01*
X123795362Y-84009982D01*
X123787760Y-84033206D01*
X123778606Y-84048863D01*
X123767754Y-84061012D01*
X123752840Y-84074414D01*
X123724179Y-84090735D01*
X123682052Y-84101364D01*
X123617342Y-84107487D01*
X123520929Y-84110291D01*
X123383694Y-84110963D01*
X123273036Y-84110341D01*
X123162009Y-84107155D01*
X123087712Y-84100573D01*
X123042580Y-84089833D01*
X123019049Y-84074171D01*
X123017971Y-84072774D01*
X123000688Y-84027986D01*
X122984322Y-83950295D01*
X122972284Y-83855637D01*
X122956053Y-83673893D01*
X122881541Y-83773795D01*
X122847481Y-83818574D01*
X122777992Y-83907126D01*
X122709047Y-83992329D01*
X122611066Y-84110963D01*
X122203854Y-84110963D01*
X122105788Y-84110856D01*
X121980379Y-84109803D01*
X121891907Y-84106820D01*
X121832288Y-84100943D01*
X121793439Y-84091208D01*
X121767277Y-84076649D01*
X121745719Y-84056302D01*
X121711811Y-84013101D01*
X121695695Y-83969275D01*
X121700437Y-83919212D01*
X121728766Y-83856933D01*
X121783406Y-83776459D01*
X121867084Y-83671811D01*
X121982526Y-83537010D01*
X122270258Y-83206553D01*
X122183219Y-83110211D01*
X122159416Y-83083323D01*
X122022249Y-82896888D01*
X121931154Y-82703667D01*
X121882851Y-82494646D01*
X121875263Y-82292847D01*
X122057987Y-82292847D01*
X122060260Y-82394874D01*
X122066760Y-82484817D01*
X122076146Y-82543755D01*
X122094575Y-82591117D01*
X122113609Y-82611645D01*
X122122377Y-82609300D01*
X122169163Y-82591250D01*
X122244782Y-82559320D01*
X122337912Y-82518225D01*
X122360305Y-82508153D01*
X122449756Y-82466764D01*
X122504097Y-82436301D01*
X122532076Y-82408806D01*
X122542447Y-82376324D01*
X122543908Y-82332419D01*
X122743762Y-82332419D01*
X122755515Y-82415414D01*
X122805008Y-82496401D01*
X122833301Y-82525562D01*
X122879847Y-82561854D01*
X122911577Y-82562070D01*
X122931061Y-82522793D01*
X122940868Y-82440606D01*
X122943566Y-82312091D01*
X122943566Y-82061696D01*
X122869380Y-82100059D01*
X122797526Y-82151755D01*
X122756082Y-82225984D01*
X122743762Y-82332419D01*
X122543908Y-82332419D01*
X122543959Y-82330900D01*
X122546519Y-82283885D01*
X122584191Y-82149297D01*
X122661492Y-82033723D01*
X122771525Y-81943385D01*
X122907393Y-81884508D01*
X123062199Y-81863314D01*
X123143369Y-81863175D01*
X123143369Y-82040916D01*
X123143492Y-82090602D01*
X123145781Y-82162116D01*
X123153624Y-82198228D01*
X123170419Y-82208773D01*
X123199564Y-82203585D01*
X123204396Y-82202349D01*
X123261567Y-82190378D01*
X123348821Y-82174462D01*
X123449318Y-82157695D01*
X123642877Y-82126877D01*
X123642877Y-81756215D01*
X123642877Y-81385553D01*
X123187076Y-81393341D01*
X123175085Y-81393547D01*
X123015376Y-81396648D01*
X122896074Y-81400419D01*
X122808221Y-81406009D01*
X122742859Y-81414561D01*
X122691030Y-81427224D01*
X122643775Y-81445142D01*
X122592136Y-81469462D01*
X122552642Y-81490193D01*
X122385571Y-81609213D01*
X122242458Y-81762471D01*
X122135098Y-81937880D01*
X122114796Y-81982654D01*
X122079961Y-82077933D01*
X122062937Y-82170921D01*
X122058010Y-82287536D01*
X122057987Y-82292847D01*
X121875263Y-82292847D01*
X121874059Y-82260812D01*
X121876167Y-82212936D01*
X121884419Y-82104105D01*
X121899271Y-82020467D01*
X121924838Y-81943732D01*
X121965236Y-81855613D01*
X121998374Y-81793388D01*
X122118896Y-81618236D01*
X122264619Y-81464319D01*
X122422655Y-81345993D01*
X122444926Y-81332911D01*
X122544700Y-81281770D01*
X122647710Y-81243758D01*
X122763257Y-81217168D01*
X122900642Y-81200291D01*
X123069165Y-81191417D01*
X123278128Y-81188839D01*
X123393192Y-81188991D01*
X123518251Y-81190165D01*
X123607053Y-81193275D01*
X123667608Y-81199225D01*
X123707928Y-81208918D01*
X123736022Y-81223256D01*
X123759901Y-81243143D01*
X123817705Y-81297448D01*
X123817705Y-81756215D01*
X123817705Y-82312091D01*
G37*
G36*
X129524385Y-80803414D02*
G01*
X129528066Y-80871615D01*
X129530957Y-80961712D01*
X129533153Y-81077211D01*
X129534749Y-81221620D01*
X129535841Y-81398446D01*
X129536525Y-81611194D01*
X129536895Y-81863373D01*
X129537047Y-82158489D01*
X129537076Y-82500048D01*
X129537073Y-82630744D01*
X129537010Y-82954888D01*
X129536789Y-83233873D01*
X129536316Y-83471205D01*
X129535494Y-83670391D01*
X129534228Y-83834938D01*
X129532424Y-83968352D01*
X129529984Y-84074142D01*
X129526815Y-84155813D01*
X129522820Y-84216873D01*
X129517905Y-84260828D01*
X129511973Y-84291186D01*
X129504929Y-84311453D01*
X129496678Y-84325136D01*
X129487125Y-84335741D01*
X129480190Y-84342351D01*
X129464502Y-84353725D01*
X129442289Y-84362915D01*
X129408724Y-84370152D01*
X129358983Y-84375670D01*
X129288242Y-84379701D01*
X129191674Y-84382478D01*
X129064456Y-84384233D01*
X128901761Y-84385199D01*
X128698766Y-84385608D01*
X128450645Y-84385692D01*
X128320080Y-84385676D01*
X128095228Y-84385457D01*
X127913077Y-84384798D01*
X127768805Y-84383465D01*
X127657584Y-84381226D01*
X127574591Y-84377848D01*
X127515001Y-84373099D01*
X127473988Y-84366747D01*
X127446728Y-84358558D01*
X127428395Y-84348300D01*
X127414165Y-84335741D01*
X127406435Y-84327595D01*
X127389896Y-84303685D01*
X127378322Y-84269968D01*
X127370841Y-84218415D01*
X127366577Y-84140998D01*
X127364660Y-84029690D01*
X127364215Y-83876463D01*
X127364724Y-83734223D01*
X127366939Y-83616422D01*
X127371615Y-83533484D01*
X127379503Y-83477466D01*
X127391355Y-83440431D01*
X127407922Y-83414438D01*
X127416630Y-83404568D01*
X127435560Y-83389324D01*
X127463430Y-83378006D01*
X127507076Y-83369905D01*
X127573332Y-83364310D01*
X127669034Y-83360513D01*
X127801016Y-83357805D01*
X127976112Y-83355476D01*
X128500596Y-83349212D01*
X128507981Y-83180628D01*
X128515366Y-83012044D01*
X128005597Y-83012044D01*
X127951354Y-83012027D01*
X127791287Y-83011511D01*
X127671842Y-83009790D01*
X127585763Y-83006212D01*
X127525796Y-83000125D01*
X127484686Y-82990875D01*
X127455180Y-82977811D01*
X127430021Y-82960281D01*
X127364215Y-82908517D01*
X127364215Y-82487561D01*
X127364215Y-82066604D01*
X127430021Y-82014840D01*
X127437203Y-82009327D01*
X127462864Y-81993142D01*
X127494950Y-81981238D01*
X127540715Y-81972960D01*
X127607413Y-81967658D01*
X127702299Y-81964678D01*
X127832625Y-81963368D01*
X128005648Y-81963077D01*
X128515467Y-81963077D01*
X128508032Y-81806980D01*
X128500596Y-81650884D01*
X127976112Y-81644620D01*
X127877900Y-81643395D01*
X127726413Y-81640954D01*
X127614432Y-81637760D01*
X127535124Y-81633103D01*
X127481654Y-81626273D01*
X127447187Y-81616562D01*
X127424888Y-81603260D01*
X127407922Y-81585659D01*
X127392799Y-81562655D01*
X127380506Y-81527093D01*
X127372252Y-81473349D01*
X127367286Y-81393485D01*
X127364857Y-81279559D01*
X127364215Y-81123633D01*
X127364265Y-81060231D01*
X127365165Y-80923805D01*
X127367867Y-80826261D01*
X127370853Y-80789232D01*
X127539043Y-80789232D01*
X127539043Y-81126400D01*
X127539043Y-81463568D01*
X128113477Y-81463568D01*
X128687912Y-81463568D01*
X128687912Y-81813224D01*
X128687912Y-82162880D01*
X128113477Y-82162880D01*
X127539043Y-82162880D01*
X127539043Y-82487561D01*
X127539043Y-82812241D01*
X128113477Y-82812241D01*
X128687912Y-82812241D01*
X128687912Y-82924630D01*
X128687835Y-82938657D01*
X128688125Y-82981624D01*
X128694763Y-83010701D01*
X128714945Y-83027115D01*
X128755867Y-83032095D01*
X128824725Y-83026869D01*
X128928714Y-83012665D01*
X129075031Y-82990712D01*
X129349760Y-82949606D01*
X129356269Y-81869419D01*
X129362779Y-80789232D01*
X128450911Y-80789232D01*
X127539043Y-80789232D01*
X127370853Y-80789232D01*
X127373245Y-80759573D01*
X127382172Y-80715711D01*
X127395521Y-80686647D01*
X127414165Y-80664355D01*
X127421101Y-80657745D01*
X127436788Y-80646371D01*
X127459002Y-80637182D01*
X127492567Y-80629944D01*
X127542307Y-80624426D01*
X127613049Y-80620395D01*
X127709616Y-80617618D01*
X127836835Y-80615863D01*
X127999529Y-80614898D01*
X128202524Y-80614489D01*
X128450645Y-80614404D01*
X128581210Y-80614421D01*
X128806063Y-80614639D01*
X128988213Y-80615299D01*
X129132486Y-80616632D01*
X129243706Y-80618871D01*
X129326699Y-80622248D01*
X129386290Y-80626997D01*
X129427302Y-80633350D01*
X129454563Y-80641539D01*
X129472895Y-80651796D01*
X129487125Y-80664355D01*
X129490781Y-80668104D01*
X129499846Y-80679429D01*
X129507644Y-80695116D01*
X129514269Y-80718672D01*
X129519818Y-80753602D01*
X129523085Y-80789232D01*
X129524385Y-80803414D01*
G37*
G36*
X137615345Y-80825292D02*
G01*
X137585977Y-80908086D01*
X137542132Y-81027493D01*
X137485506Y-81179132D01*
X137417795Y-81358620D01*
X137340697Y-81561575D01*
X137255909Y-81783614D01*
X137165125Y-82020356D01*
X137070045Y-82267416D01*
X136972363Y-82520414D01*
X136873776Y-82774967D01*
X136775982Y-83026692D01*
X136680676Y-83271208D01*
X136589556Y-83504131D01*
X136504317Y-83721079D01*
X136426657Y-83917670D01*
X136358273Y-84089522D01*
X136300860Y-84232252D01*
X136256115Y-84341478D01*
X136225736Y-84412817D01*
X136211418Y-84441887D01*
X136190773Y-84458882D01*
X136121215Y-84481967D01*
X136040877Y-84480879D01*
X135973462Y-84454375D01*
X135971452Y-84452033D01*
X135952250Y-84414254D01*
X135917566Y-84335060D01*
X135869085Y-84218824D01*
X135808490Y-84069919D01*
X135737466Y-83892717D01*
X135657697Y-83691592D01*
X135570868Y-83470915D01*
X135478662Y-83235060D01*
X135382765Y-82988400D01*
X135284861Y-82735307D01*
X135186633Y-82480154D01*
X135089767Y-82227314D01*
X134995946Y-81981159D01*
X134906855Y-81746063D01*
X134824178Y-81526399D01*
X134749600Y-81326538D01*
X134684804Y-81150854D01*
X134631475Y-81003720D01*
X134591298Y-80889508D01*
X134565956Y-80812591D01*
X134560110Y-80789232D01*
X134738285Y-80789232D01*
X135067417Y-81644640D01*
X135130878Y-81809344D01*
X135205353Y-82001422D01*
X135265587Y-82154401D01*
X135313593Y-82272706D01*
X135351384Y-82360765D01*
X135380976Y-82423004D01*
X135404381Y-82463850D01*
X135423614Y-82487730D01*
X135440688Y-82499069D01*
X135457619Y-82502296D01*
X135544844Y-82501911D01*
X135656155Y-82494658D01*
X135771323Y-82481818D01*
X135879602Y-82465078D01*
X135970249Y-82446127D01*
X136032516Y-82426654D01*
X136050238Y-82412634D01*
X136116502Y-82412634D01*
X136117902Y-82412436D01*
X136151383Y-82398640D01*
X136218672Y-82366439D01*
X136310764Y-82320497D01*
X136418652Y-82265476D01*
X136533331Y-82206040D01*
X136645796Y-82146850D01*
X136747041Y-82092570D01*
X136828060Y-82047863D01*
X136879849Y-82017392D01*
X136894454Y-82007860D01*
X136921709Y-81987607D01*
X136947293Y-81962678D01*
X136973119Y-81928862D01*
X137001103Y-81881946D01*
X137033158Y-81817718D01*
X137071199Y-81731967D01*
X137117141Y-81620480D01*
X137172898Y-81479046D01*
X137240384Y-81303452D01*
X137321513Y-81089487D01*
X137418201Y-80832939D01*
X137418599Y-80831864D01*
X137420990Y-80815046D01*
X137409102Y-80803345D01*
X137375800Y-80795861D01*
X137313951Y-80791692D01*
X137216423Y-80789935D01*
X137076080Y-80789690D01*
X136717509Y-80790148D01*
X136461719Y-81470270D01*
X136452696Y-81494259D01*
X136384838Y-81674604D01*
X136320618Y-81845150D01*
X136262825Y-81998506D01*
X136214245Y-82127280D01*
X136177665Y-82224080D01*
X136155872Y-82281513D01*
X136135602Y-82337283D01*
X136118739Y-82391620D01*
X136116959Y-82408345D01*
X136116502Y-82412634D01*
X136050238Y-82412634D01*
X136055660Y-82408345D01*
X136051106Y-82393394D01*
X136031336Y-82337168D01*
X135998153Y-82245598D01*
X135954010Y-82125262D01*
X135901359Y-81982736D01*
X135842653Y-81824598D01*
X135780345Y-81657424D01*
X135716887Y-81487791D01*
X135654732Y-81322276D01*
X135596332Y-81167457D01*
X135544139Y-81029909D01*
X135500607Y-80916211D01*
X135468188Y-80832939D01*
X135460428Y-80819610D01*
X135440028Y-80806224D01*
X135401097Y-80797412D01*
X135335784Y-80792255D01*
X135236234Y-80789835D01*
X135094595Y-80789232D01*
X134738285Y-80789232D01*
X134560110Y-80789232D01*
X134557135Y-80777342D01*
X134569283Y-80724105D01*
X134607086Y-80664355D01*
X134619944Y-80652615D01*
X134644604Y-80637612D01*
X134680505Y-80627128D01*
X134735387Y-80620363D01*
X134816992Y-80616520D01*
X134933063Y-80614800D01*
X135091340Y-80614404D01*
X135118360Y-80614415D01*
X135272154Y-80615174D01*
X135384771Y-80617626D01*
X135463833Y-80622458D01*
X135516964Y-80630358D01*
X135551788Y-80642013D01*
X135575929Y-80658111D01*
X135585482Y-80670136D01*
X135616355Y-80727415D01*
X135660040Y-80823552D01*
X135714141Y-80952910D01*
X135776260Y-81109852D01*
X135844001Y-81288740D01*
X135892193Y-81417975D01*
X135948686Y-81567738D01*
X135998079Y-81696763D01*
X136037840Y-81798513D01*
X136065440Y-81866450D01*
X136078347Y-81894037D01*
X136088351Y-81882055D01*
X136114020Y-81829604D01*
X136152344Y-81741395D01*
X136200809Y-81623419D01*
X136256904Y-81481670D01*
X136318115Y-81322139D01*
X136366784Y-81194897D01*
X136427809Y-81039457D01*
X136483345Y-80902454D01*
X136530443Y-80790995D01*
X136566152Y-80712187D01*
X136587522Y-80673135D01*
X136591013Y-80668727D01*
X136609105Y-80648909D01*
X136631853Y-80634612D01*
X136666806Y-80624935D01*
X136721514Y-80618976D01*
X136803524Y-80615836D01*
X136920387Y-80614612D01*
X137079652Y-80614404D01*
X137525584Y-80614404D01*
X137577348Y-80680211D01*
X137579522Y-80683005D01*
X137614619Y-80738039D01*
X137629111Y-80779955D01*
X137628539Y-80783495D01*
X137618579Y-80815046D01*
X137615345Y-80825292D01*
G37*
G36*
X132234314Y-81563445D02*
G01*
X132234848Y-81808768D01*
X132235175Y-82096882D01*
X132235397Y-82431366D01*
X132236373Y-84148426D01*
X132524778Y-83399163D01*
X132531385Y-83381998D01*
X132558701Y-83311007D01*
X133552946Y-83311007D01*
X133554826Y-83343423D01*
X133555215Y-83343764D01*
X133585924Y-83351933D01*
X133649727Y-83360746D01*
X133732839Y-83369129D01*
X133821477Y-83376003D01*
X133901856Y-83380295D01*
X133960192Y-83380927D01*
X133982700Y-83376823D01*
X133973281Y-83341917D01*
X133947361Y-83275394D01*
X133911326Y-83192223D01*
X133871585Y-83106651D01*
X133834546Y-83032929D01*
X133806617Y-82985305D01*
X133793960Y-82967667D01*
X133761612Y-82929494D01*
X133737764Y-82926428D01*
X133707146Y-82953601D01*
X133703604Y-82957487D01*
X133669756Y-83008610D01*
X133632478Y-83083056D01*
X133597059Y-83167292D01*
X133568786Y-83247786D01*
X133552946Y-83311007D01*
X132558701Y-83311007D01*
X132608240Y-83182262D01*
X132698573Y-82947404D01*
X132798352Y-82687914D01*
X132903544Y-82414281D01*
X133010116Y-82136994D01*
X133076925Y-81963125D01*
X133295906Y-81963125D01*
X133307131Y-81970097D01*
X133356764Y-81983769D01*
X133429956Y-81995495D01*
X133459647Y-82000427D01*
X133546353Y-82020562D01*
X133662723Y-82052072D01*
X133797223Y-82091759D01*
X133938318Y-82136425D01*
X134026043Y-82165035D01*
X134146844Y-82203864D01*
X134245389Y-82234847D01*
X134313290Y-82255361D01*
X134342163Y-82262782D01*
X134345887Y-82262827D01*
X134350902Y-82261290D01*
X134352472Y-82253827D01*
X134348980Y-82235918D01*
X134338805Y-82203046D01*
X134320328Y-82150693D01*
X134291930Y-82074342D01*
X134251991Y-81969474D01*
X134198892Y-81831572D01*
X134131014Y-81656117D01*
X134046736Y-81438593D01*
X133973662Y-81251217D01*
X133902855Y-81073233D01*
X133846663Y-80936947D01*
X133803825Y-80839508D01*
X133773080Y-80778065D01*
X133753166Y-80749769D01*
X133742821Y-80751769D01*
X133734873Y-80772840D01*
X133710099Y-80837815D01*
X133671986Y-80937427D01*
X133623238Y-81064620D01*
X133566556Y-81212338D01*
X133504644Y-81373524D01*
X133459346Y-81492409D01*
X133404157Y-81640326D01*
X133357901Y-81767900D01*
X133322897Y-81868586D01*
X133301459Y-81935843D01*
X133295906Y-81963125D01*
X133076925Y-81963125D01*
X133114036Y-81866545D01*
X133211272Y-81613421D01*
X133271313Y-81457964D01*
X133352332Y-81250987D01*
X133427777Y-81061417D01*
X133495636Y-80894141D01*
X133553895Y-80754047D01*
X133600542Y-80646021D01*
X133633565Y-80574951D01*
X133650952Y-80545722D01*
X133676583Y-80531199D01*
X133752353Y-80515718D01*
X133831035Y-80525138D01*
X133888851Y-80558209D01*
X133890815Y-80561235D01*
X133909295Y-80601192D01*
X133943414Y-80682335D01*
X133991477Y-80800283D01*
X134051786Y-80950652D01*
X134122644Y-81129057D01*
X134202355Y-81331117D01*
X134289221Y-81552447D01*
X134381546Y-81788665D01*
X134477632Y-82035387D01*
X134562428Y-82253827D01*
X134575783Y-82288230D01*
X134674302Y-82542811D01*
X134771492Y-82794745D01*
X134865656Y-83039651D01*
X134955096Y-83273145D01*
X134994634Y-83376823D01*
X135038117Y-83490843D01*
X135113021Y-83688362D01*
X135178112Y-83861319D01*
X135231691Y-84005330D01*
X135272063Y-84116013D01*
X135297531Y-84188984D01*
X135306398Y-84219859D01*
X135306353Y-84221337D01*
X135290473Y-84264737D01*
X135254634Y-84319886D01*
X135202870Y-84385692D01*
X134758996Y-84385692D01*
X134626782Y-84385585D01*
X134492795Y-84383858D01*
X134395473Y-84378095D01*
X134327295Y-84365867D01*
X134280740Y-84344743D01*
X134248288Y-84312294D01*
X134222418Y-84266092D01*
X134195609Y-84203706D01*
X134156858Y-84110963D01*
X133761584Y-84110963D01*
X133366310Y-84110963D01*
X133332745Y-84212664D01*
X133322916Y-84241379D01*
X133300471Y-84292724D01*
X133270865Y-84330199D01*
X133226965Y-84355980D01*
X133161643Y-84372243D01*
X133067768Y-84381166D01*
X132938208Y-84384923D01*
X132765835Y-84385692D01*
X132667892Y-84385574D01*
X132535820Y-84384486D01*
X132441372Y-84381586D01*
X132376775Y-84376068D01*
X132334257Y-84367126D01*
X132306047Y-84353952D01*
X132284372Y-84335741D01*
X132234421Y-84285791D01*
X132184470Y-84335741D01*
X132176872Y-84342981D01*
X132153025Y-84359708D01*
X132119539Y-84371414D01*
X132068354Y-84378984D01*
X131991408Y-84383299D01*
X131880638Y-84385241D01*
X131727982Y-84385692D01*
X131652485Y-84385848D01*
X131497536Y-84385701D01*
X131383644Y-84380195D01*
X131304522Y-84363589D01*
X131253884Y-84330145D01*
X131225442Y-84274123D01*
X131212910Y-84189783D01*
X131210001Y-84071386D01*
X131210429Y-83913192D01*
X131210429Y-83518451D01*
X131047002Y-83501707D01*
X130844090Y-83465684D01*
X130598809Y-83377583D01*
X130370445Y-83243299D01*
X130161461Y-83064052D01*
X130023428Y-82903714D01*
X129886402Y-82680911D01*
X129795054Y-82442708D01*
X129750031Y-82193177D01*
X129751114Y-82050491D01*
X129937590Y-82050491D01*
X129937595Y-82052676D01*
X129949043Y-82243703D01*
X129985960Y-82415321D01*
X130053952Y-82593706D01*
X130081622Y-82650026D01*
X130124175Y-82714322D01*
X130158628Y-82737228D01*
X130161277Y-82737036D01*
X130204209Y-82723656D01*
X130277914Y-82693209D01*
X130370550Y-82651337D01*
X130470273Y-82603680D01*
X130565243Y-82555881D01*
X130643616Y-82513579D01*
X130693551Y-82482416D01*
X130715231Y-82463552D01*
X130722948Y-82438999D01*
X130709231Y-82399032D01*
X130672139Y-82329828D01*
X130638430Y-82263749D01*
X130618775Y-82201702D01*
X130612182Y-82128981D01*
X130614050Y-82060510D01*
X130798335Y-82060510D01*
X130798395Y-82074559D01*
X130804664Y-82164331D01*
X130826265Y-82231167D01*
X130870309Y-82298595D01*
X130889612Y-82321803D01*
X130958090Y-82385533D01*
X131025603Y-82427772D01*
X131030929Y-82429956D01*
X131102138Y-82453073D01*
X131159676Y-82462585D01*
X131173056Y-82461781D01*
X131188282Y-82454250D01*
X131198691Y-82432735D01*
X131205197Y-82390045D01*
X131208713Y-82318984D01*
X131210152Y-82212359D01*
X131210429Y-82062978D01*
X131210429Y-81663372D01*
X131139196Y-81663372D01*
X131108514Y-81666594D01*
X131019566Y-81700758D01*
X130928218Y-81764056D01*
X130850582Y-81846275D01*
X130829450Y-81879956D01*
X130805379Y-81955099D01*
X130798335Y-82060510D01*
X130614050Y-82060510D01*
X130614988Y-82026114D01*
X130620122Y-81950311D01*
X130633238Y-81866910D01*
X130657879Y-81801280D01*
X130699611Y-81734219D01*
X130741432Y-81680223D01*
X130868131Y-81567746D01*
X131020797Y-81497208D01*
X131201753Y-81467375D01*
X131385257Y-81458109D01*
X131385257Y-81799690D01*
X131385601Y-81921440D01*
X131387413Y-82020378D01*
X131390308Y-82062978D01*
X131391677Y-82083131D01*
X131399371Y-82117045D01*
X131411473Y-82129467D01*
X131428964Y-82127743D01*
X131451083Y-82121629D01*
X131527368Y-82103918D01*
X131630085Y-82082494D01*
X131743647Y-82060435D01*
X131852467Y-82040815D01*
X131940960Y-82026711D01*
X132059593Y-82009967D01*
X132059593Y-81399600D01*
X132059593Y-80789232D01*
X131578816Y-80789666D01*
X131436012Y-80790665D01*
X131217665Y-80796815D01*
X131048703Y-80808566D01*
X130928961Y-80825928D01*
X130884255Y-80836315D01*
X130660577Y-80917343D01*
X130458643Y-81038736D01*
X130283095Y-81194759D01*
X130138574Y-81379679D01*
X130029721Y-81587764D01*
X129961180Y-81813279D01*
X129937590Y-82050491D01*
X129751114Y-82050491D01*
X129751980Y-81936388D01*
X129801550Y-81676412D01*
X129899388Y-81417319D01*
X129959188Y-81309987D01*
X130078746Y-81148044D01*
X130223515Y-80994899D01*
X130380630Y-80863661D01*
X130537225Y-80767438D01*
X130546722Y-80762807D01*
X130643124Y-80718014D01*
X130731347Y-80683225D01*
X130819694Y-80657191D01*
X130916465Y-80638665D01*
X131029964Y-80626400D01*
X131168491Y-80619150D01*
X131340350Y-80615665D01*
X131553841Y-80614701D01*
X131712828Y-80614768D01*
X131861571Y-80615549D01*
X131972340Y-80617577D01*
X132051648Y-80621364D01*
X132106005Y-80627422D01*
X132141920Y-80636265D01*
X132165905Y-80648405D01*
X132184470Y-80664355D01*
X132185199Y-80665087D01*
X132194831Y-80676016D01*
X132203121Y-80690352D01*
X132210170Y-80711675D01*
X132216082Y-80743566D01*
X132220962Y-80789606D01*
X132224911Y-80853373D01*
X132228033Y-80938449D01*
X132230431Y-81048414D01*
X132232208Y-81186848D01*
X132233468Y-81357332D01*
X132233641Y-81399600D01*
X132234314Y-81563445D01*
G37*
G36*
X121980733Y-80825292D02*
G01*
X121951365Y-80908086D01*
X121907520Y-81027493D01*
X121850894Y-81179132D01*
X121783184Y-81358620D01*
X121706086Y-81561575D01*
X121621297Y-81783614D01*
X121530514Y-82020356D01*
X121435433Y-82267416D01*
X121337751Y-82520414D01*
X121239164Y-82774967D01*
X121141370Y-83026692D01*
X121046064Y-83271208D01*
X120954944Y-83504131D01*
X120869706Y-83721079D01*
X120792046Y-83917670D01*
X120723661Y-84089522D01*
X120666248Y-84232252D01*
X120621504Y-84341478D01*
X120591124Y-84412817D01*
X120576806Y-84441887D01*
X120556017Y-84458966D01*
X120486453Y-84481988D01*
X120406284Y-84480874D01*
X120339306Y-84454375D01*
X120320707Y-84425280D01*
X120287112Y-84355267D01*
X120241679Y-84251117D01*
X120187156Y-84119322D01*
X120126291Y-83966375D01*
X120061833Y-83798770D01*
X120001774Y-83640581D01*
X119943249Y-83488786D01*
X119898118Y-83375773D01*
X119864319Y-83297096D01*
X119839788Y-83248308D01*
X119822464Y-83224965D01*
X119810285Y-83222618D01*
X119801189Y-83236823D01*
X119793198Y-83257402D01*
X119767720Y-83323502D01*
X119728981Y-83424271D01*
X119679801Y-83552371D01*
X119622998Y-83700463D01*
X119561391Y-83861208D01*
X119520395Y-83966844D01*
X119460316Y-84116720D01*
X119405691Y-84247292D01*
X119359504Y-84351680D01*
X119324736Y-84423001D01*
X119304368Y-84454375D01*
X119278393Y-84469018D01*
X119202605Y-84484401D01*
X119124126Y-84474943D01*
X119066637Y-84441887D01*
X119066192Y-84441325D01*
X119050132Y-84408550D01*
X119017841Y-84333060D01*
X118970791Y-84218572D01*
X118910454Y-84068802D01*
X118838304Y-83887468D01*
X118755811Y-83678286D01*
X118664448Y-83444972D01*
X118565687Y-83191245D01*
X118461002Y-82920819D01*
X118351863Y-82637413D01*
X117675544Y-80876646D01*
X117675230Y-81473492D01*
X117674648Y-82581218D01*
X117674645Y-82588058D01*
X117674437Y-82920316D01*
X117674118Y-83206286D01*
X117673585Y-83449563D01*
X117672734Y-83653740D01*
X117671460Y-83822411D01*
X117669660Y-83959172D01*
X117667228Y-84067616D01*
X117664061Y-84151337D01*
X117660054Y-84213930D01*
X117655104Y-84258988D01*
X117649106Y-84290106D01*
X117641956Y-84310878D01*
X117633549Y-84324898D01*
X117623782Y-84335761D01*
X117613685Y-84344999D01*
X117599206Y-84354148D01*
X117577941Y-84361811D01*
X117545965Y-84368117D01*
X117499354Y-84373197D01*
X117434184Y-84377180D01*
X117346532Y-84380196D01*
X117232472Y-84382377D01*
X117088082Y-84383850D01*
X116909437Y-84384747D01*
X116692614Y-84385197D01*
X116433687Y-84385330D01*
X116128734Y-84385276D01*
X115967454Y-84385272D01*
X115681009Y-84385383D01*
X115438703Y-84385280D01*
X115236666Y-84384512D01*
X115071026Y-84382632D01*
X114937913Y-84379188D01*
X114833456Y-84373732D01*
X114753785Y-84365814D01*
X114695028Y-84354984D01*
X114653315Y-84340795D01*
X114624775Y-84322795D01*
X114605537Y-84300535D01*
X114591731Y-84273567D01*
X114579486Y-84241441D01*
X114564930Y-84203706D01*
X114526179Y-84110963D01*
X114130906Y-84110963D01*
X113735632Y-84110963D01*
X113702067Y-84212664D01*
X113692237Y-84241379D01*
X113669793Y-84292724D01*
X113640186Y-84330199D01*
X113596287Y-84355980D01*
X113530965Y-84372243D01*
X113437089Y-84381166D01*
X113307530Y-84384923D01*
X113135157Y-84385692D01*
X113102220Y-84385677D01*
X112951117Y-84384900D01*
X112841026Y-84382446D01*
X112764404Y-84377621D01*
X112713710Y-84369732D01*
X112681402Y-84358084D01*
X112659937Y-84341985D01*
X112636345Y-84319946D01*
X112608258Y-84312401D01*
X112572523Y-84341985D01*
X112551435Y-84357947D01*
X112518650Y-84369956D01*
X112467149Y-84377977D01*
X112389124Y-84382769D01*
X112276769Y-84385088D01*
X112122279Y-84385692D01*
X112112126Y-84385693D01*
X111941506Y-84385289D01*
X111814174Y-84381449D01*
X111723799Y-84370310D01*
X111664052Y-84348012D01*
X111628601Y-84310694D01*
X111611117Y-84254494D01*
X111605269Y-84175550D01*
X111604726Y-84070002D01*
X111604094Y-84012323D01*
X111599689Y-83920117D01*
X111591855Y-83859802D01*
X111581504Y-83840396D01*
X111577917Y-83842386D01*
X111545506Y-83871587D01*
X111492681Y-83926930D01*
X111428933Y-83998573D01*
X111350977Y-84087428D01*
X111262718Y-84185613D01*
X111187033Y-84267538D01*
X111074481Y-84386650D01*
X110536819Y-84379927D01*
X109999157Y-84373205D01*
X109947938Y-84304572D01*
X109935018Y-84286344D01*
X109910890Y-84229999D01*
X109920290Y-84173008D01*
X109928386Y-84158249D01*
X109966583Y-84104846D01*
X110030360Y-84023625D01*
X110114673Y-83920793D01*
X110214479Y-83802559D01*
X110324736Y-83675131D01*
X110388547Y-83602060D01*
X110490405Y-83484517D01*
X110577647Y-83382702D01*
X110645667Y-83302048D01*
X110689857Y-83247987D01*
X110705611Y-83225952D01*
X110697548Y-83213081D01*
X110661264Y-83174075D01*
X110605674Y-83121431D01*
X110568987Y-83085772D01*
X110466446Y-82963866D01*
X110366379Y-82817049D01*
X110279743Y-82662385D01*
X110217495Y-82516935D01*
X110197482Y-82454189D01*
X110146910Y-82196809D01*
X110146442Y-82041725D01*
X110329521Y-82041725D01*
X110353887Y-82283403D01*
X110423435Y-82531267D01*
X110429904Y-82547882D01*
X110466439Y-82613348D01*
X110502957Y-82635441D01*
X110503280Y-82635423D01*
X110542410Y-82626623D01*
X110617764Y-82604651D01*
X110718622Y-82572779D01*
X110834269Y-82534279D01*
X111125268Y-82435089D01*
X111062611Y-82322984D01*
X111032965Y-82264765D01*
X111013305Y-82202977D01*
X111006555Y-82129791D01*
X111008123Y-82070250D01*
X111190000Y-82070250D01*
X111206993Y-82185693D01*
X111250527Y-82281513D01*
X111268352Y-82306100D01*
X111301111Y-82341992D01*
X111337354Y-82355576D01*
X111391970Y-82349861D01*
X111479849Y-82327854D01*
X111592238Y-82297929D01*
X111599228Y-81980650D01*
X111606218Y-81663372D01*
X111534239Y-81663372D01*
X111504229Y-81666415D01*
X111414772Y-81700314D01*
X111322955Y-81763659D01*
X111244879Y-81846275D01*
X111236645Y-81858339D01*
X111199800Y-81954645D01*
X111190000Y-82070250D01*
X111008123Y-82070250D01*
X111009285Y-82026114D01*
X111014419Y-81950311D01*
X111027535Y-81866910D01*
X111052176Y-81801280D01*
X111093908Y-81734219D01*
X111135729Y-81680223D01*
X111262428Y-81567746D01*
X111415094Y-81497208D01*
X111596050Y-81467375D01*
X111779554Y-81458109D01*
X111779554Y-81663372D01*
X111779554Y-81847958D01*
X111779984Y-81928492D01*
X111782490Y-82051123D01*
X111786858Y-82149194D01*
X111792657Y-82214243D01*
X111799455Y-82237806D01*
X111809433Y-82236626D01*
X111860446Y-82227498D01*
X111942329Y-82211308D01*
X112042965Y-82190413D01*
X112081914Y-82182210D01*
X112193944Y-82159134D01*
X112292630Y-82139493D01*
X112360232Y-82126843D01*
X112453890Y-82110666D01*
X112453890Y-81449949D01*
X112453890Y-80789232D01*
X111973113Y-80789666D01*
X111830297Y-80790592D01*
X111629450Y-80796149D01*
X111464908Y-80807872D01*
X111328276Y-80827088D01*
X111211156Y-80855121D01*
X111105152Y-80893296D01*
X111001867Y-80942938D01*
X110900049Y-81004794D01*
X110721814Y-81152661D01*
X110567718Y-81332850D01*
X110446199Y-81534687D01*
X110365699Y-81747499D01*
X110350753Y-81811881D01*
X110329521Y-82041725D01*
X110146442Y-82041725D01*
X110146127Y-81937614D01*
X110195073Y-81677490D01*
X110293685Y-81417319D01*
X110303547Y-81397092D01*
X110429215Y-81197376D01*
X110593905Y-81015507D01*
X110788530Y-80858913D01*
X111004000Y-80735019D01*
X111231227Y-80651252D01*
X111302584Y-80638659D01*
X111410558Y-80628261D01*
X111545390Y-80620398D01*
X111698555Y-80615080D01*
X111861524Y-80612315D01*
X112025772Y-80612112D01*
X112182772Y-80614481D01*
X112323996Y-80619430D01*
X112440918Y-80626967D01*
X112525012Y-80637103D01*
X112567750Y-80649846D01*
X112575274Y-80656128D01*
X112583787Y-80667489D01*
X112591103Y-80685852D01*
X112597347Y-80714797D01*
X112602647Y-80757902D01*
X112607128Y-80818747D01*
X112610918Y-80900910D01*
X112614143Y-81007969D01*
X112616930Y-81143506D01*
X112619405Y-81311097D01*
X112620969Y-81449949D01*
X112621694Y-81514322D01*
X112623925Y-81756760D01*
X112626224Y-82041990D01*
X112628718Y-82373591D01*
X112641206Y-84061893D01*
X112924447Y-83323897D01*
X113982235Y-83323897D01*
X114021948Y-83338875D01*
X114087305Y-83347051D01*
X114152219Y-83344755D01*
X114200544Y-83336993D01*
X114276445Y-83318960D01*
X114316437Y-83291890D01*
X114323739Y-83246962D01*
X114301574Y-83175353D01*
X114253161Y-83068239D01*
X114204806Y-82978608D01*
X114157420Y-82923660D01*
X114116312Y-82916519D01*
X114080321Y-82956433D01*
X114078815Y-82959389D01*
X114060827Y-83006342D01*
X114038433Y-83078153D01*
X114015506Y-83160317D01*
X113995916Y-83238332D01*
X113983535Y-83297693D01*
X113982235Y-83323897D01*
X112924447Y-83323897D01*
X113312727Y-82312217D01*
X113386661Y-82119961D01*
X113610408Y-82119961D01*
X113611526Y-82156508D01*
X113624314Y-82176708D01*
X113647724Y-82185413D01*
X113680704Y-82187473D01*
X113682935Y-82187523D01*
X113744683Y-82197338D01*
X113840582Y-82221506D01*
X113958972Y-82256279D01*
X114088191Y-82297909D01*
X114216575Y-82342646D01*
X114332465Y-82386743D01*
X114424197Y-82426451D01*
X114440435Y-82434156D01*
X114546936Y-82482058D01*
X114649044Y-82524182D01*
X114726653Y-82552172D01*
X114762669Y-82563195D01*
X114820598Y-82580322D01*
X114846969Y-82587192D01*
X114849145Y-82586302D01*
X114849491Y-82580068D01*
X114845625Y-82564297D01*
X114836009Y-82534873D01*
X114819105Y-82487681D01*
X114793376Y-82418605D01*
X114757285Y-82323530D01*
X114709295Y-82198341D01*
X114647868Y-82038922D01*
X114571467Y-81841158D01*
X114478555Y-81600933D01*
X114428402Y-81471658D01*
X114342521Y-81252584D01*
X114272063Y-81076548D01*
X114215917Y-80940975D01*
X114172972Y-80843287D01*
X114142115Y-80780908D01*
X114122236Y-80751261D01*
X114112223Y-80751769D01*
X114110973Y-80755113D01*
X114094367Y-80798767D01*
X114062741Y-80881431D01*
X114018549Y-80996705D01*
X113964247Y-81138189D01*
X113902288Y-81299484D01*
X113835126Y-81474192D01*
X113816638Y-81522294D01*
X113743649Y-81713319D01*
X113687582Y-81863748D01*
X113647386Y-81978431D01*
X113622012Y-82062219D01*
X113610408Y-82119961D01*
X113386661Y-82119961D01*
X113407941Y-82064626D01*
X113544762Y-81710941D01*
X113664589Y-81404023D01*
X113767465Y-81143763D01*
X113853435Y-80930053D01*
X113922542Y-80762782D01*
X113974830Y-80641843D01*
X114010344Y-80567126D01*
X114029128Y-80538522D01*
X114039305Y-80533534D01*
X114118813Y-80515600D01*
X114199391Y-80524477D01*
X114258308Y-80558209D01*
X114262931Y-80565897D01*
X114285622Y-80615275D01*
X114323838Y-80705611D01*
X114375993Y-80832923D01*
X114440501Y-80993232D01*
X114515775Y-81182557D01*
X114600230Y-81396916D01*
X114692278Y-81632329D01*
X114790333Y-81884815D01*
X114892809Y-82150392D01*
X114995177Y-82416466D01*
X115058211Y-82580068D01*
X115098585Y-82684856D01*
X115186501Y-82912236D01*
X115260219Y-83101628D01*
X115317452Y-83246962D01*
X115321033Y-83256055D01*
X115370238Y-83378538D01*
X115409127Y-83472101D01*
X115438997Y-83539765D01*
X115461140Y-83584553D01*
X115476851Y-83609488D01*
X115487425Y-83617591D01*
X115494155Y-83611885D01*
X115498337Y-83595392D01*
X115501265Y-83571135D01*
X115505453Y-83529616D01*
X115513686Y-83473484D01*
X115528837Y-83431539D01*
X115557052Y-83401604D01*
X115604477Y-83381504D01*
X115677258Y-83369064D01*
X115781541Y-83362108D01*
X115923472Y-83358460D01*
X116109197Y-83355945D01*
X116637273Y-83349212D01*
X116644658Y-83180628D01*
X116652043Y-83012044D01*
X116142274Y-83012044D01*
X116088030Y-83012027D01*
X115927964Y-83011511D01*
X115808518Y-83009790D01*
X115722439Y-83006212D01*
X115662472Y-83000125D01*
X115621363Y-82990875D01*
X115591856Y-82977811D01*
X115566698Y-82960281D01*
X115500891Y-82908517D01*
X115500891Y-82487561D01*
X115500891Y-82066604D01*
X115566698Y-82014840D01*
X115573880Y-82009327D01*
X115599541Y-81993142D01*
X115631627Y-81981238D01*
X115677392Y-81972960D01*
X115744090Y-81967658D01*
X115838975Y-81964678D01*
X115969302Y-81963368D01*
X116142324Y-81963077D01*
X116652144Y-81963077D01*
X116644708Y-81806980D01*
X116637273Y-81650884D01*
X116112789Y-81644620D01*
X116014577Y-81643395D01*
X115863089Y-81640954D01*
X115751109Y-81637760D01*
X115671801Y-81633103D01*
X115618331Y-81626273D01*
X115583863Y-81616562D01*
X115561564Y-81603260D01*
X115544598Y-81585659D01*
X115529476Y-81562655D01*
X115517182Y-81527093D01*
X115508928Y-81473349D01*
X115503962Y-81393485D01*
X115501534Y-81279559D01*
X115500891Y-81123633D01*
X115500942Y-81060231D01*
X115501841Y-80923805D01*
X115504544Y-80826261D01*
X115507530Y-80789232D01*
X115675719Y-80789232D01*
X115675719Y-81126400D01*
X115675719Y-81463568D01*
X116250154Y-81463568D01*
X116824588Y-81463568D01*
X116824588Y-81813224D01*
X116824588Y-82162880D01*
X116250154Y-82162880D01*
X115675719Y-82162880D01*
X115675719Y-82412634D01*
X115676845Y-82512717D01*
X115681897Y-82599409D01*
X115691684Y-82646681D01*
X115706938Y-82660352D01*
X115707022Y-82660347D01*
X115809894Y-82645726D01*
X115953182Y-82613522D01*
X116131203Y-82565367D01*
X116338273Y-82502894D01*
X116568709Y-82427736D01*
X116816826Y-82341524D01*
X116856417Y-82327548D01*
X116997804Y-82280190D01*
X117133917Y-82238102D01*
X117250943Y-82205422D01*
X117335066Y-82186287D01*
X117498925Y-82157752D01*
X117498925Y-81473492D01*
X117498925Y-80810611D01*
X117852743Y-80810611D01*
X117853115Y-80811571D01*
X117865811Y-80844553D01*
X117893770Y-80917290D01*
X117934622Y-81023610D01*
X117985996Y-81157342D01*
X118045520Y-81312312D01*
X118110822Y-81482349D01*
X118360576Y-82132707D01*
X118572868Y-82160038D01*
X118585530Y-82161662D01*
X118710928Y-82177215D01*
X118838300Y-82192252D01*
X118941903Y-82203726D01*
X119098648Y-82220082D01*
X119094454Y-82208870D01*
X119307886Y-82208870D01*
X119308380Y-82220082D01*
X119308929Y-82232533D01*
X119317288Y-82244529D01*
X119331515Y-82249811D01*
X119345342Y-82252637D01*
X119408593Y-82264737D01*
X119500465Y-82281717D01*
X119606200Y-82300835D01*
X119677845Y-82314592D01*
X119913384Y-82371276D01*
X120145161Y-82442757D01*
X120350088Y-82522166D01*
X120362349Y-82527427D01*
X120458367Y-82563331D01*
X120576600Y-82601387D01*
X120694289Y-82634188D01*
X120832175Y-82666274D01*
X120943054Y-82684182D01*
X121019297Y-82684332D01*
X121067203Y-82666677D01*
X121093070Y-82631169D01*
X121093682Y-82629566D01*
X121109016Y-82589605D01*
X121139954Y-82509104D01*
X121184380Y-82393570D01*
X121240175Y-82248509D01*
X121305221Y-82079427D01*
X121377401Y-81891831D01*
X121454596Y-81691228D01*
X121466108Y-81661309D01*
X121541547Y-81464983D01*
X121610747Y-81284446D01*
X121671752Y-81124835D01*
X121722606Y-80991284D01*
X121761352Y-80888931D01*
X121786034Y-80822910D01*
X121794696Y-80798357D01*
X121791058Y-80797060D01*
X121750644Y-80794033D01*
X121672557Y-80791657D01*
X121565655Y-80790146D01*
X121438797Y-80789716D01*
X121082897Y-80790200D01*
X120773167Y-81613042D01*
X120708133Y-81784597D01*
X120640287Y-81960830D01*
X120579356Y-82116228D01*
X120527432Y-82245593D01*
X120486605Y-82343723D01*
X120458966Y-82405418D01*
X120446603Y-82425480D01*
X120438341Y-82409693D01*
X120414018Y-82351871D01*
X120376229Y-82256888D01*
X120327091Y-82130210D01*
X120268717Y-81977299D01*
X120203224Y-81803622D01*
X120132728Y-81614641D01*
X120076885Y-81464824D01*
X120010450Y-81288407D01*
X119950801Y-81132020D01*
X119900026Y-81001035D01*
X119860211Y-80900823D01*
X119833443Y-80836757D01*
X119821808Y-80814208D01*
X119818984Y-80817966D01*
X119800842Y-80857777D01*
X119768599Y-80936479D01*
X119724486Y-81048379D01*
X119670728Y-81187782D01*
X119609556Y-81348994D01*
X119543195Y-81526320D01*
X119536472Y-81544407D01*
X119463169Y-81742124D01*
X119405881Y-81898446D01*
X119363158Y-82018327D01*
X119333551Y-82106721D01*
X119315610Y-82168584D01*
X119307886Y-82208870D01*
X119094454Y-82208870D01*
X119029317Y-82034743D01*
X119021710Y-82014422D01*
X118987257Y-81922558D01*
X118940143Y-81797103D01*
X118884132Y-81648070D01*
X118822985Y-81485471D01*
X118760466Y-81319318D01*
X118560946Y-80789232D01*
X118202682Y-80789232D01*
X118148599Y-80789478D01*
X118029661Y-80791943D01*
X117935001Y-80796636D01*
X117873177Y-80803033D01*
X117852743Y-80810611D01*
X117498925Y-80810611D01*
X117498925Y-80789232D01*
X116587322Y-80789232D01*
X115675719Y-80789232D01*
X115507530Y-80789232D01*
X115509922Y-80759573D01*
X115518849Y-80715711D01*
X115532198Y-80686647D01*
X115550842Y-80664355D01*
X115557777Y-80657745D01*
X115573465Y-80646371D01*
X115595679Y-80637182D01*
X115629243Y-80629944D01*
X115678984Y-80624426D01*
X115749725Y-80620395D01*
X115846293Y-80617618D01*
X115973511Y-80615863D01*
X116136206Y-80614898D01*
X116339201Y-80614489D01*
X116587322Y-80614404D01*
X116676635Y-80614413D01*
X116909236Y-80614608D01*
X117098324Y-80615231D01*
X117248707Y-80616503D01*
X117365197Y-80618648D01*
X117452605Y-80621889D01*
X117515741Y-80626448D01*
X117559414Y-80632548D01*
X117588437Y-80640412D01*
X117607618Y-80650262D01*
X117621770Y-80662323D01*
X117653338Y-80691454D01*
X117679257Y-80694792D01*
X117713055Y-80662323D01*
X117724578Y-80651002D01*
X117747892Y-80636751D01*
X117783650Y-80626742D01*
X117839352Y-80620240D01*
X117922500Y-80616507D01*
X118040593Y-80614807D01*
X118201134Y-80614404D01*
X118307344Y-80614545D01*
X118440358Y-80615674D01*
X118535678Y-80618566D01*
X118600829Y-80623960D01*
X118643337Y-80632598D01*
X118670728Y-80645220D01*
X118690528Y-80662566D01*
X118706487Y-80689117D01*
X118739100Y-80758601D01*
X118783553Y-80862456D01*
X118836987Y-80993787D01*
X118896545Y-81145699D01*
X118959370Y-81311295D01*
X119014327Y-81456745D01*
X119070806Y-81602226D01*
X119119964Y-81724629D01*
X119159348Y-81817994D01*
X119186506Y-81876358D01*
X119198985Y-81893763D01*
X119207724Y-81875413D01*
X119232266Y-81815322D01*
X119269551Y-81720079D01*
X119317059Y-81596214D01*
X119372267Y-81450258D01*
X119432653Y-81288740D01*
X119479800Y-81163344D01*
X119538987Y-81009943D01*
X119592446Y-80875793D01*
X119637349Y-80767821D01*
X119670867Y-80692952D01*
X119690173Y-80658111D01*
X119736156Y-80628860D01*
X119814020Y-80614713D01*
X119893999Y-80624463D01*
X119953104Y-80658111D01*
X119966401Y-80680733D01*
X119996782Y-80746671D01*
X120039223Y-80847367D01*
X120090896Y-80975895D01*
X120148972Y-81125327D01*
X120210623Y-81288740D01*
X120258940Y-81418109D01*
X120315448Y-81567833D01*
X120364790Y-81696822D01*
X120404441Y-81798542D01*
X120431874Y-81866458D01*
X120444566Y-81894037D01*
X120454381Y-81882047D01*
X120479847Y-81829590D01*
X120517995Y-81741379D01*
X120566322Y-81623406D01*
X120622326Y-81481662D01*
X120683504Y-81322139D01*
X120732173Y-81194897D01*
X120793197Y-81039457D01*
X120848733Y-80902454D01*
X120895831Y-80790995D01*
X120931540Y-80712187D01*
X120952911Y-80673135D01*
X120956401Y-80668727D01*
X120974493Y-80648909D01*
X120997242Y-80634612D01*
X121032195Y-80624935D01*
X121086902Y-80618976D01*
X121168913Y-80615836D01*
X121285776Y-80614612D01*
X121445041Y-80614404D01*
X121890973Y-80614404D01*
X121942736Y-80680211D01*
X121944911Y-80683005D01*
X121980007Y-80738039D01*
X121994500Y-80779955D01*
X121993927Y-80783495D01*
X121989236Y-80798357D01*
X121980733Y-80825292D01*
G37*
%TD*%
M02*
