M48
; DRILL file {KiCad 9.0.6} date 2026-04-26T12:42:55+0200
; FORMAT={-:-/ absolute / metric / decimal}
; #@! TF.CreationDate,2026-04-26T12:42:55+02:00
; #@! TF.GenerationSoftware,Kicad,Pcbnew,9.0.6
; #@! TF.FileFunction,Plated,1,2,PTH
FMAT,2
METRIC
; #@! TA.AperFunction,Plated,PTH,ViaDrill
T1C0.300
; #@! TA.AperFunction,Plated,PTH,ViaDrill
T2C0.400
; #@! TA.AperFunction,Plated,PTH,ViaDrill
T3C0.500
; #@! TA.AperFunction,Plated,PTH,ComponentDrill
T4C0.600
; #@! TA.AperFunction,Plated,PTH,ComponentDrill
T5C1.000
; #@! TA.AperFunction,Plated,PTH,ViaDrill
T6C4.000
%
G90
G05
T1
X104.6Y-97.55
X108.2Y-97.8
X111.1Y-86.4
X111.3Y-88.5
X111.3Y-90.8
X111.3Y-93.3
X111.3Y-95.8
X114.1Y-89.9
X116.9Y-95.8
X119.25Y-102.15
X119.3Y-93.2
X119.7Y-85.9
X119.7Y-100.95
X121.5Y-85.9
X122.3Y-88.5
X122.3Y-93.3
X123.4Y-90.3
X124.2Y-81.9
X125.2Y-92.9
X125.4Y-97.45
X125.7Y-98.5
X126.1Y-91.2
X127.4Y-91.2
X128.8Y-91.15
X129.5Y-101.85
X129.6Y-86.6
X130.6Y-93.2
X131.2Y-91.1
X131.8Y-85.9
X133.1Y-85.9
X134.3Y-92.7
X134.5Y-85.9
T2
X116.9Y-87.6
X139.4Y-90.9
T3
X121.5Y-93.3
X130.2Y-87.6
T5
X104.53Y-103.4
X104.53Y-105.94
X104.53Y-108.48
X104.53Y-111.02
X104.53Y-113.56
X104.53Y-116.1
X104.53Y-118.64
X104.53Y-121.18
T6
X104.5Y-82.5
X143.5Y-82.5
T4
G00X102.9Y-90.68
M15
G01X102.3Y-90.68
M16
G05
G00X102.9Y-99.32
M15
G01X102.3Y-99.32
M16
G05
G00X106.7Y-90.68
M15
G01X106.1Y-90.68
M16
G05
G00X106.7Y-99.32
M15
G01X106.1Y-99.32
M16
G05
M30
